<svg xmlns="http://www.w3.org/2000/svg" width="34.76" height="23.1" viewBox="0 0 34.76 23.1">
  <g id="noun_Letter_953553" transform="translate(344.5 -1087.721)">
    <path id="Tracé_196" data-name="Tracé 196" d="M-914.488,970.138a1.717,1.717,0,0,0-.517-.586,2.316,2.316,0,0,0-1.483-.552h-29.271a2.316,2.316,0,0,0-1.483.552,1.684,1.684,0,0,0-.483.621,2.376,2.376,0,0,0-.276,1.1v17.549a2.351,2.351,0,0,0,.345,1.207,2.75,2.75,0,0,0,.517.586,2.166,2.166,0,0,0,1.379.483h29.271a2.166,2.166,0,0,0,1.379-.483,2.112,2.112,0,0,0,.517-.586,2.064,2.064,0,0,0,.345-1.207V971.276A2.121,2.121,0,0,0-914.488,970.138Zm-31.236-.345h29.271a1.4,1.4,0,0,1,.828.276l-14.55,11.308a1.488,1.488,0,0,1-.9.31,1.416,1.416,0,0,1-.9-.31l-14.549-11.308A1.163,1.163,0,0,1-945.724,969.793Zm-1.483,19V971.241a1.646,1.646,0,0,1,.138-.621l11.136,8.654-11.1,10.205A1.212,1.212,0,0,1-947.207,988.79Zm30.719,1.483h-29.271a1.341,1.341,0,0,1-.793-.241l11.171-10.274,2.827,2.207a2.313,2.313,0,0,0,1.379.483,2.237,2.237,0,0,0,1.379-.483l2.827-2.207,11.205,10.274A.922.922,0,0,1-916.488,990.273Zm-9.757-11,11.136-8.654a1.814,1.814,0,0,1,.138.621V988.79a1.57,1.57,0,0,1-.172.69Z" transform="translate(604 119.221)" fill="#a2b2d6" stroke="#fff" stroke-width="1"/>
  </g>
</svg>
