<svg xmlns="http://www.w3.org/2000/svg" width="1700.693" height="985.213" viewBox="0 0 1700.693 985.213">
  <g id="Groupe_635" data-name="Groupe 635" transform="translate(400.759 -231.242)">
    <path id="Tracé_236" data-name="Tracé 236" d="M0,253.835S19.7,275.2,119.395,268.066c60.161-4.3,128.623-33.126,221.451-44.636,50.348-6.243,108.085-7.349,175.594,3.5,169.984,27.326,347.736,51.429,473.142,51.429s376.588-70.419,376.588-70.419L1366,739.987s-73.347-36.846-229.08-36.846-226.063,42.5-389.692,42.5-235.746-17.052-390.217-52.684C185.019,653.282.071,673.176.071,673.176Z" transform="matrix(0.995, -0.105, 0.105, 0.995, -422.49, 167.241)" fill="#fff"/>
    <path id="Tracé_236-2" data-name="Tracé 236" d="M0,253.835S19.7,275.2,119.395,268.066c60.161-4.3,128.623-33.126,221.451-44.636,50.348-6.243,108.085-7.349,175.594,3.5,169.984,27.326,347.736,51.429,473.142,51.429s376.588-70.419,376.588-70.419L1366,739.987s-73.347-36.846-229.08-36.846-226.063,42.5-389.692,42.5-235.746-17.052-390.217-52.684C185.019,653.282.071,673.176.071,673.176Z" transform="matrix(0.995, -0.105, 0.105, 0.995, -136.693, 474.899)" fill="#fff"/>
  </g>
</svg>
