<svg xmlns="http://www.w3.org/2000/svg" width="26.494" height="19.912" viewBox="0 0 26.494 19.912">
  <path id="Tracé_214" data-name="Tracé 214" d="M863.112,1502.636l-4.187-4.187c-1.371-1.371-2.515-1.687-3.349-1.423a2.029,2.029,0,0,0-.875.564,2.935,2.935,0,0,0-.59.973,2.782,2.782,0,0,0,.357,2.883l6.216,6.216c1.19,1.19,2,1.791,2.738,1.791h0c.745,0,1.547-.6,2.738-1.786l13.622-13.622a2.78,2.78,0,0,0,.357-2.883,3.023,3.023,0,0,0-.59-.973,2.076,2.076,0,0,0-.875-.564c-.838-.264-1.977.052-3.349,1.423l-11.588,11.588-.31.311-.311-.311Z" transform="translate(-853.879 -1489.54)" fill="#1b1f47" fill-rule="evenodd"/>
</svg>
