<svg xmlns="http://www.w3.org/2000/svg" xmlns:xlink="http://www.w3.org/1999/xlink" width="229.375" height="376" viewBox="0 0 229.375 376">
  <defs>
    <clipPath id="clip-path">
      <rect id="Rectangle_442" data-name="Rectangle 442" width="229" height="376" transform="translate(0 392)" fill="#fff"/>
    </clipPath>
  </defs>
  <g id="Groupe_706" data-name="Groupe 706" transform="translate(0 -392)">
    <g id="Calque_1-5" data-name="Calque 1-5" transform="translate(-126.901 -1637.309)">
      <path id="Tracé_40" data-name="Tracé 40" d="M202.931,2344.411a52.112,52.112,0,0,0,71.214-18.969q.652-1.126,1.248-2.284a44.15,44.15,0,0,1-60.1-35.274,43.452,43.452,0,0,1,.19-12.74,44.25,44.25,0,0,1,16.644-27.988,51.3,51.3,0,0,0-15.52,1.4h0a51.431,51.431,0,0,0-7.586,2.48,52.135,52.135,0,0,0-31.639,40.742,36.9,36.9,0,0,1,25.242,18.426,3.177,3.177,0,0,0,.422.8,2.194,2.194,0,0,1,.286.691.074.074,0,0,1,.028.068c.268.645.608,1.274.875,1.92A36.6,36.6,0,0,1,202.931,2344.411Z" fill="#262675"/>
      <path id="Tracé_41" data-name="Tracé 41" d="M181.222,2320.4l.16.385a51.536,51.536,0,0,0,4.739,8.747l16.159-17.314h0l-23.841-.832a51.378,51.378,0,0,0,2.782,9.014Z" fill="#262675"/>
      <path id="Tracé_42" data-name="Tracé 42" d="M216.641,2248.543h0a51.326,51.326,0,0,1,15.486-1.387,44.248,44.248,0,0,0-16.646,27.989,43.452,43.452,0,0,0-.189,12.74,44.135,44.135,0,0,0,60.1,35.274,51.945,51.945,0,0,1-8.623,12.12c-21.239,8.8-46.422-2.677-58.214-25.756-.716-1.376-1.379-2.814-1.988-4.284C197.842,2284.179,202.516,2261.377,216.641,2248.543Z" fill="none"/>
      <path id="Tracé_43" data-name="Tracé 43" d="M218.288,2299.051a44.12,44.12,0,0,0,57.106,24.1,52.166,52.166,0,0,0,5.807-25.1l-26.307,10.9a23.162,23.162,0,0,1-17.733-42.8l22.349-9.261a52.177,52.177,0,0,0-27.381-9.742,44.255,44.255,0,0,0-16.648,27.989,43.459,43.459,0,0,0-.19,12.741,44.211,44.211,0,0,0,2.994,11.169Z" fill="#fff"/>
      <path id="Tracé_44" data-name="Tracé 44" d="M224.664,2296.411a23.152,23.152,0,0,0,30.231,12.545l26.3-10.9a51.8,51.8,0,0,0-1.459-11.142l3.895-1.614a3.592,3.592,0,0,0,0-6.635l-.311-.11a3.675,3.675,0,0,0-2.437.107l-6.363,2.637a3.605,3.605,0,1,1-3.149-6.486,3.561,3.561,0,0,1,.393-.163l6.367-2.638a3.607,3.607,0,0,0-2.727-6.678l-4.984,2.066a51.69,51.69,0,0,0-10.87-10.5l-22.384,9.276a23.162,23.162,0,0,0-12.5,30.241Z" fill="#1d1d1b" stroke="#1d1d1b" stroke-miterlimit="10" stroke-width="0.629"/>
      <circle id="Ellipse_24" data-name="Ellipse 24" cx="9.257" cy="9.257" r="9.257" transform="translate(244.587 2275.062)" fill="none" stroke="#fff" stroke-miterlimit="10" stroke-width="1"/>
    </g>
    <g id="Calque_1-2" data-name="Calque 1-2" transform="matrix(0.966, 0.259, -0.259, 0.966, -32.858, -614.483)">
      <path id="Tracé_11" data-name="Tracé 11" d="M469.913,1043.812l-1.163,5.677,45.691,9.356a8.013,8.013,0,0,1,6.243,9.456h0l-4.754,23.215a7.879,7.879,0,0,0-.138,2.236,8.013,8.013,0,0,0,5.977,7.126l28.2,5.774,1.163-5.678-6.992-1.432a2.924,2.924,0,0,1-2.3-3.3l5.8-28.338a7.838,7.838,0,0,0-.323-4.313,7.939,7.939,0,0,0-2.08-3.152,8.434,8.434,0,0,0-.828-.68l-.336-.225-.3-.178-.283-.153-.046-.009c-.266-.129-.539-.253-.826-.36l-.4-.136a1.759,1.759,0,0,1-.4-.118L469.9,1043.858Z" transform="translate(0.041)" fill="#253676"/>
      <path id="Tracé_12" data-name="Tracé 12" d="M488.256,1053.22l25.512,5.224a8.013,8.013,0,0,1,6.242,9.456h0l-1.794,8.76-.366-.075-7.579-11.449-1.945,9.5-23.8-4.875,2.958-14.449A7.8,7.8,0,0,1,488.256,1053.22Z" transform="translate(0.715 0.402)" fill="#1d1d1b"/>
      <path id="Tracé_13" data-name="Tracé 13" d="M484.675,1069.088l-2.957,14.443a8.012,8.012,0,0,0,6.242,9.455l33.263,6.812a8.013,8.013,0,0,1-5.977-7.127,7.876,7.876,0,0,1,.138-2.234l2.959-14.455-.366-.075.073.111-11.58,7.627,1.983-9.688Z" transform="translate(0.588 1.079)" fill="#fff"/>
      <path id="Tracé_14" data-name="Tracé 14" d="M473.726,1052.318l-5.944,29.03,17.487-11.543Z" transform="translate(0 0.363)" fill="#1d1d1b"/>
      <path id="Tracé_15" data-name="Tracé 15" d="M509.409,1064.655l-3.929,19.185,11.548-7.634-.073-.109Z" transform="translate(1.61 0.89)" fill="#659cd4"/>
      <circle id="Ellipse_19" data-name="Ellipse 19" cx="7.084" cy="7.084" r="7.084" transform="translate(525.113 1072.693)" fill="#1d1d1b" stroke="#fff" stroke-miterlimit="10" stroke-width="0.826"/>
    </g>
    <g id="Groupe_de_masques_3" data-name="Groupe de masques 3" clip-path="url(#clip-path)">
      <path id="Tracé_238" data-name="Tracé 238" d="M20.277,1626.363h0a105.876,105.876,0,0,0,11.742-57.313h0A133.811,133.811,0,0,1,43.7,1503.074l10.089-22.1a106.931,106.931,0,0,0,8.839-31.2l3.517-28.27a30.481,30.481,0,0,0-8.511-25.131l-16.569-16.855a40.717,40.717,0,0,1-9.649-15.842l-.559-1.7a91.737,91.737,0,0,0-22.894-36.847L0,1317.308V1621.38C0,1632.617,15.067,1636.321,20.277,1626.363Z" transform="translate(-29.901 -939.762)" fill="#1b1f47"/>
      <g id="Groupe_146" data-name="Groupe 146" transform="translate(-13266 -11938)">
        <path id="Tracé_237" data-name="Tracé 237" d="M73.04,1953.783c51.294,32.892-46.188-68.041-32.939-107.031C52.07,1811.528,51.932,1789.3,60.6,1731.876c4.647-30.8,48.106-109.368,27.48-126.217-30.651-25.038-13.395-78.575-49.365-72.6s-38.755-36.4-38.755-36.4l-.03,484.053C-.074,1997.2,51.227,1939.8,73.04,1953.783Z" transform="translate(13230.201 10905.935)" fill="#3a4589"/>
      </g>
      <path id="Tracé_239" data-name="Tracé 239" d="M-6.1,2444.945s26.2,8.819,33.5,24.679,5.648,17.2,31.992,27.225,22.395,25.9,27.286,36.92,17.9,30.169,5.074,35.662-34.627,2.577-38.364,13.595-59.487,11.3-59.487,11.3Z" transform="translate(-11.242 -1795.961)" fill="#1b1f47"/>
    </g>
  </g>
</svg>
