<?xml version="1.0" encoding="utf-8"?>
<!-- Generator: Adobe Illustrator 24.1.2, SVG Export Plug-In . SVG Version: 6.00 Build 0)  -->
<!DOCTYPE svg PUBLIC "-//W3C//DTD SVG 1.1//EN" "http://www.w3.org/Graphics/SVG/1.1/DTD/svg11.dtd" [
	<!ENTITY ns_extend "http://ns.adobe.com/Extensibility/1.0/">
	<!ENTITY ns_ai "http://ns.adobe.com/AdobeIllustrator/10.0/">
	<!ENTITY ns_graphs "http://ns.adobe.com/Graphs/1.0/">
	<!ENTITY ns_vars "http://ns.adobe.com/Variables/1.0/">
	<!ENTITY ns_imrep "http://ns.adobe.com/ImageReplacement/1.0/">
	<!ENTITY ns_sfw "http://ns.adobe.com/SaveForWeb/1.0/">
	<!ENTITY ns_custom "http://ns.adobe.com/GenericCustomNamespace/1.0/">
	<!ENTITY ns_adobe_xpath "http://ns.adobe.com/XPath/1.0/">
]>
<svg version="1.1" id="Calque_1" xmlns:x="&ns_extend;" xmlns:i="&ns_ai;" xmlns:graph="&ns_graphs;"
	 xmlns="http://www.w3.org/2000/svg" xmlns:xlink="http://www.w3.org/1999/xlink" x="0px" y="0px" viewBox="0 0 1366 768"
	 style="enable-background:new 0 0 1366 768;" xml:space="preserve">
<style type="text/css">
	.st0{clip-path:url(#SVGID_2_);}
	.st1{fill:#253676;}
	.st2{fill:#1D1D1B;}
	.st3{fill:#FFFFFF;}
	.st4{fill:#659CD4;}
	.st5{fill:#1D1D1B;stroke:#FFFFFF;stroke-width:0.826;stroke-miterlimit:10;}
	.st6{fill:#5281CC;}
	.st7{fill:#4858A8;}
	.st8{fill:#3A4589;}
	.st9{fill:#1B1F47;}
	.st10{fill:#262675;}
	.st11{fill:none;}
	.st12{fill:#1D1D1B;stroke:#1D1D1B;stroke-width:0.629;stroke-miterlimit:10;}
	.st13{fill:none;stroke:#FFFFFF;stroke-miterlimit:10;}
	.st14{fill:#7CB1F2;}
	.st15{fill:#14387A;}
	.st16{fill:#A54E6A;}
	.st17{stroke:#FFFFFF;stroke-width:0.7762;stroke-miterlimit:10.0028;}
</style>
<metadata>
	<sfw  xmlns="&ns_sfw;">
		<slices></slices>
		<sliceSourceBounds  bottomLeftOrigin="true" height="1532.2" width="1757" x="-137" y="-236.7"></sliceSourceBounds>
	</sfw>
</metadata>
<g>
	<defs>
		<rect id="SVGID_1_" width="1366" height="768"/>
	</defs>
	<clipPath id="SVGID_2_">
		<use xlink:href="#SVGID_1_"  style="overflow:visible;"/>
	</clipPath>
	<g id="Groupe_de_masques_9" class="st0">
		<g id="Groupe_703">
			<g id="Calque_1-2" transform="translate(7.916 -989.121) rotate(-3)">
				<path id="Tracé_11" class="st1" d="M470,1043.8l-1.2,5.7l45.7,9.4c4.3,0.9,7.1,5.1,6.2,9.5l0,0l-4.8,23.2
					c-0.2,0.7-0.2,1.5-0.1,2.2c0.3,3.4,2.7,6.3,6,7.1l28.2,5.8l1.2-5.7l-7-1.4c-1.5-0.3-2.5-1.8-2.3-3.3l5.8-28.3
					c0.3-1.4,0.2-2.9-0.3-4.3c-0.4-1.2-1.1-2.3-2.1-3.2c-0.3-0.2-0.5-0.5-0.8-0.7l-0.3-0.2l-0.3-0.2l-0.3-0.2l0,0
					c-0.3-0.1-0.5-0.3-0.8-0.4l-0.4-0.1c-0.1,0-0.3-0.1-0.4-0.1L470,1043.8L470,1043.8z"/>
				<path id="Tracé_12" class="st2" d="M489,1053.6l25.5,5.2c4.3,0.9,7.1,5.1,6.2,9.5l0,0l-1.8,8.8l-0.4-0.1l-7.6-11.4l-1.9,9.5
					l-23.8-4.9l3-14.4C488.4,1055,488.6,1054.3,489,1053.6z"/>
				<path id="Tracé_13" class="st3" d="M485.3,1070.2l-3,14.4c-0.9,4.3,1.9,8.6,6.2,9.5l33.3,6.8c-3.3-0.9-5.7-3.7-6-7.1
					c-0.1-0.7,0-1.5,0.1-2.2l3-14.5l-0.4-0.1l0.1,0.1l-11.6,7.6l2-9.7L485.3,1070.2z"/>
				<path id="Tracé_14" class="st2" d="M473.7,1052.7l-5.9,29l17.5-11.5L473.7,1052.7z"/>
				<path id="Tracé_15" class="st4" d="M511,1065.5l-3.9,19.2l11.5-7.6l-0.1-0.1L511,1065.5z"/>
				<circle id="Ellipse_19" class="st5" cx="532.2" cy="1079.8" r="7.1"/>
			</g>
			<g id="Groupe_702">
				<g id="Groupe_519" transform="matrix(0.995, -0.105, 0.105, 0.995, 3136.69, -8788.369)">
					<path id="Tracé_167" class="st6" d="M-3813.3,9235.6c0,0-43.7-27.4-57.7-66.3c-10.5-29.2,14.5-74-16.2-68.1
						c-59,11.4-109.2-110.3-52.3-160.6c25.8-22.8,6-29.3,4.1-89.9c-2.3-75.9,90.4-175.4,26.5-243.6
						c-69.7-74.4-137-121.6-125.4-148.5c11.6-26.9-84.3-300.4-84.3-300.4l0.1,1084.7L-3813.3,9235.6z"/>
					<path id="Tracé_168" class="st7" d="M-3930.7,9204.1c0,0,4.7-24.1-17.5-81.1c-22.3-57-77.9-120.3-70.1-165.7
						c7.8-45.4,120.2-250.6,62.7-345.4s-36.4-255.4-43.3-315.1c-6.8-59.7-40.6-81.8-50.8-119.5s32.3-75.9,3.8-105.5
						c-28.5-29.6-74.5-204.3-74.5-204.3v1360.4L-3930.7,9204.1z"/>
					<path id="Tracé_169" class="st8" d="M-3991.7,9175.2c90.3,57.9-81.3-119.8-58-188.5c21.1-62,20.8-101.2,36.1-202.3
						c8.2-54.2,84.7-192.6,48.4-222.3c-54-44.1-23.6-138.4-86.9-127.9c-63.3,10.5-68.3-64.1-68.3-64.1l-0.1,852.4
						C-4120.5,9251.6-4030.1,9150.5-3991.7,9175.2z"/>
					<path id="Tracé_170" class="st9" d="M-4104.2,8785.8L-4104.2,8785.8c16.2-31,23.4-66,20.7-100.9l0,0
						c-3.1-39.8,4-79.8,20.6-116.2l17.8-38.9c8-17.4,13.2-35.9,15.6-55l6.2-49.8c2-16.3-3.5-32.6-15-44.3l-29.2-29.7
						c-7.7-7.9-13.6-17.4-17-27.9l-1-3c-8.1-24.5-21.9-46.8-40.3-64.9l-14-13.8V8777C-4139.9,8796.8-4113.4,8803.3-4104.2,8785.8z"
						/>
					<path id="Tracé_173" class="st9" d="M-4124.8,9054.1c0,0,46.1,15.5,59,43.5c12.9,27.9,9.9,30.3,56.3,47.9s39.4,45.6,48.1,65
						c8.6,19.4,31.5,53.1,8.9,62.8c-22.6,9.7-61,4.5-67.6,23.9c-6.6,19.4-104.8,19.9-104.8,19.9V9054.1z"/>
				</g>
				<g id="Calque_1-5" transform="translate(91.099 -1654.309)">
					<path id="Tracé_40" class="st10" d="M202.9,2344.4c24.9,14.4,56.8,5.9,71.2-19c0.4-0.8,0.9-1.5,1.2-2.3
						c-22.7,9-48.3-2-57.3-24.7c-1.4-3.4-2.3-7-2.8-10.6c-0.6-4.2-0.5-8.5,0.2-12.7c1.8-11.1,7.7-21.1,16.6-28
						c-5.2-0.3-10.4,0.1-15.5,1.4l0,0c-2.6,0.6-5.1,1.5-7.6,2.5c-17,7-29,22.5-31.6,40.7c10.7,2.1,20,8.8,25.2,18.4
						c0.1,0.3,0.2,0.6,0.4,0.8c0.1,0.2,0.2,0.4,0.3,0.7c0,0,0,0,0,0.1c0.3,0.6,0.6,1.3,0.9,1.9
						C208.3,2323.6,207.9,2334.9,202.9,2344.4z"/>
					<path id="Tracé_41" class="st10" d="M181.2,2320.4l0.2,0.4c1.3,3.1,2.9,6,4.7,8.7l16.2-17.3l0,0l-23.8-0.8
						C179.1,2314.5,180,2317.5,181.2,2320.4L181.2,2320.4z"/>
					<path id="Tracé_42" class="st11" d="M216.6,2248.5L216.6,2248.5c5.1-1.2,10.3-1.7,15.5-1.4c-8.9,6.9-14.9,16.9-16.6,28
						c-0.7,4.2-0.8,8.5-0.2,12.7c3.2,24.2,25.3,41.2,49.5,38c3.6-0.5,7.2-1.4,10.6-2.8c-2.3,4.4-5.2,8.5-8.6,12.1
						c-21.2,8.8-46.4-2.7-58.2-25.8c-0.7-1.4-1.4-2.8-2-4.3C197.8,2284.2,202.5,2261.4,216.6,2248.5z"/>
					<path id="Tracé_43" class="st3" d="M218.3,2299.1c9.2,22.3,34.7,33,57.1,24.1c4-7.7,6-16.4,5.8-25.1l-26.3,10.9
						c-11.8,4.9-25.4-0.7-30.3-12.5c-4.9-11.8,0.7-25.4,12.5-30.3l22.3-9.3c-8-5.8-17.5-9.2-27.4-9.7c-8.9,6.9-14.9,16.9-16.6,28
						c-0.7,4.2-0.8,8.5-0.2,12.7C215.8,2291.7,216.8,2295.5,218.3,2299.1L218.3,2299.1z"/>
					<path id="Tracé_44" class="st12" d="M224.7,2296.4c4.9,11.8,18.4,17.4,30.2,12.5l26.3-10.9c-0.1-3.8-0.6-7.5-1.5-11.1l3.9-1.6
						c1.8-0.8,2.7-2.9,1.9-4.7c-0.4-0.9-1.1-1.6-1.9-1.9l-0.3-0.1c-0.8-0.2-1.7-0.2-2.4,0.1l-6.4,2.6c-1.8,0.9-3.9,0.1-4.8-1.7
						c-0.9-1.8-0.1-3.9,1.7-4.8l0,0c0.1-0.1,0.3-0.1,0.4-0.2l6.4-2.6c1.8-0.8,2.7-2.9,1.9-4.7c-0.8-1.8-2.8-2.7-4.6-1.9l-5,2.1
						c-3.1-4-6.8-7.6-10.9-10.5l-22.4,9.3C225.4,2271.1,219.8,2284.6,224.7,2296.4L224.7,2296.4z"/>
					<circle id="Ellipse_24" class="st13" cx="253.8" cy="2284.3" r="9.3"/>
				</g>
				<g id="Groupe_692" transform="translate(-16.511 592.688) rotate(-6)">
					<path id="Tracé_2327" class="st6" d="M34.1,67.8c1.5-0.7,3.7-3.2,4.9-6.3c0.4-1.1,0.7-2.3,1-3.4h0c0.3-1.5,0.4-3.3,0.6-4.7
						c0.6-4.5-0.3-5.3,0.2-6.7c0.8-2.1,2.2-1.8,2.4-1.1c0.3,0.6,0.8,6.4-0.8,12.8c0.2-0.2,0.4-0.3,0.5-0.4c1.4-1.5,1.6-5.2,1.9-7.7
						c0.6-5-0.3-6,0.2-7.5c0.9-2.3,2.4-2,2.8-1.3c0.3,0.8,1,8.5-1.2,15.8c1.6-1.3,2.5-5.1,2.8-8.9c0.4-4,0.1-7.8,0.7-8.7
						c1.3-2,2.6-0.9,2.6-0.9c0.3,0.3,0.6,0.6,0.8,0.9c-1.2,3.2,0,9.9-3,18c-4,10.8-14.6,11.7-16.3,11.4c-0.5-0.1-0.9-0.4-1.1-0.7
						C33.4,68.4,33.8,68.2,34.1,67.8z"/>
					<path id="Tracé_2328" class="st6" d="M48.5,67.1c2.3-0.2,6.4-2.6,9.6-6.6c1.1-1.4,2.2-3,3.1-4.5h0c1.2-2.1,2.3-4.6,3.3-6.6
						c3.2-6.4,2.5-8,3.8-9.8c2.1-2.7,3.7-1.4,3.7-0.3c0,1.1-2.3,9.9-7.9,18.6c0.3-0.1,0.6-0.2,0.8-0.4c2.6-1.4,4.8-6.8,6.5-10.4
						c3.5-7.1,2.8-9,4.3-11c2.3-3,4.2-1.6,4.2-0.3c0,1.3-3.3,13.2-10,22.7c2.7-1,5.8-6.1,8.3-11.6c2.6-5.7,4.2-11.5,5.5-12.6
						c2.6-2.2,3.8,0.1,3.8,0.1c0.3,0.6,0.4,1.2,0.5,1.8c-3.2,4.1-5.3,14.7-13.5,25.1c-10.9,13.8-24.9,9-26.8,7.7
						c-0.5-0.4-0.9-1-1.1-1.7C47.3,67.6,47.9,67.5,48.5,67.1z"/>
					<path id="Tracé_2329" class="st6" d="M34.4,53.4c0.4-2.7,2.7-7.3,6.1-10.5c1.2-1.1,2.5-2.2,3.8-3.1v0c1.8-1.2,3.8-2.1,5.4-3
						c5.3-3,6.5-1.8,7.9-3.2c2.3-2.1,1.5-4.2,0.6-4.4c-0.9-0.2-7.9,1.4-15.2,6.8c0.1-0.4,0.2-0.7,0.4-1c1.4-2.9,5.7-4.7,8.7-6.3
						c5.8-3.2,7.3-2,8.9-3.6c2.6-2.4,1.7-4.8,0.7-5c-1-0.2-10.5,2.1-18.6,8.8c1.1-3.1,5.3-6.1,9.8-8.3c4.6-2.3,9.3-3.4,10.3-4.9
						c2-2.9,0.3-4.5,0.3-4.5c-0.4-0.4-0.9-0.7-1.4-0.8c-3.5,3.2-11.9,4.3-20.8,12.6c-11.8,11.1-9.6,28.6-8.7,31.1
						c0.2,0.6,0.6,1.2,1.2,1.5C33.9,54.7,34,54,34.4,53.4z"/>
					<path id="Tracé_2330" class="st6" d="M28.5,52.1c-1.5-2.4-2.6-7.5-2-12.2c0.2-1.7,0.6-3.3,1-4.9h0c0.6-2.1,1.6-4.1,2.3-5.9
						c2.3-5.8,3.9-5.7,4.2-7.7c0.4-3.2-1.6-4.3-2.4-3.8c-0.8,0.4-5.4,6.3-7.6,15.3c-0.1-0.4-0.3-0.7-0.3-1
						c-0.8-3.1,1.5-7.5,2.8-10.6c2.6-6.3,4.4-6.4,4.7-8.7c0.5-3.5-1.8-4.8-2.7-4.3c-1,0.5-7,8.5-9.1,19.1c-1.2-3.1,0.3-8.3,2.4-13
						c2.2-4.8,5.2-8.8,5-10.6C26.6,0.2,24.3,0,24.3,0c-0.6,0-1.1,0.1-1.6,0.3c-0.7,4.8-6.7,11.2-8.3,23.5
						c-2.2,16.4,10.9,28.5,13.2,29.9c0.6,0.3,1.3,0.5,2,0.4C29,53.5,28.6,52.9,28.5,52.1z"/>
					<path id="Tracé_2331" class="st6" d="M24.7,46.3c-2.3-1.5-4.2-3.6-5.4-6.1c-0.5-1-0.8-2-1.1-3h0c-0.4-1.3-0.5-2.8-0.8-4
						c-0.7-3.9,0.2-4.3-0.3-5.6c-0.9-1.9-2.4-1.8-2.7-1.4s-0.8,5.1,1.1,10.8c-0.2-0.2-0.4-0.3-0.5-0.4c-1.5-1.5-1.8-4.6-2.1-6.7
						c-0.7-4.3,0.3-4.9-0.4-6.3c-1-2.1-2.7-2.1-3-1.5c-0.4,0.6-1,6.9,1.6,13.3c-1.7-1.3-2.7-4.6-3.2-7.9c-0.4-3.3-0.2-6.4-0.9-7.4
						C5.6,18.4,4.3,19,4.3,19c-0.3,0.2-0.6,0.4-0.8,0.6c1.3,2.9,0.1,8.2,3.5,15.5c4.5,9.6,16,12.2,17.8,12.3c0.4,0,0.9-0.1,1.2-0.4
						C25.5,46.9,25,46.6,24.7,46.3z"/>
					<path id="Tracé_2332" class="st6" d="M52.1,70.3c2.7,0.4,5.5,0,8-1.1c1-0.4,1.9-1,2.8-1.5l0,0c1.1-0.8,2.2-1.7,3.2-2.5
						c3.1-2.4,2.7-3.4,3.9-4c1.9-0.8,3,0.2,2.9,0.7c-0.1,0.6-2.7,4.4-7.9,7.4c0.3,0,0.5,0,0.7,0c2.1-0.1,4.3-2.3,6-3.7
						c3.3-2.7,3-3.9,4.4-4.5c2.1-0.9,3.4,0.2,3.3,0.8c-0.1,0.7-3.8,5.8-9.9,9c2.2,0.1,5.1-1.7,7.5-3.9c2.5-2.2,4.3-4.8,5.5-5
						c2.3-0.5,2.9,0.9,2.9,0.9c0.1,0.3,0.2,0.7,0.2,1c-2.9,1.3-5.5,6.1-12.8,9.4c-9.7,4.4-20.1-1.3-21.5-2.4
						c-0.3-0.3-0.6-0.7-0.7-1.1C51.2,70.3,51.7,70.4,52.1,70.3z"/>
					<path id="Tracé_2333" class="st6" d="M35.5,44c-0.6-2.7-0.4-5.5,0.5-8.1c0.4-1,0.8-2,1.3-2.9l0,0c0.7-1.2,1.6-2.3,2.3-3.4
						c2.2-3.3,3.2-2.9,3.7-4.2c0.7-1.9-0.4-3-0.9-2.9s-4.2,3-6.9,8.4c0-0.3-0.1-0.5-0.1-0.7c0-2.1,2-4.5,3.2-6.3
						c2.5-3.5,3.6-3.3,4.2-4.7c0.8-2.2-0.4-3.4-1-3.2c-0.7,0.2-5.5,4.2-8.3,10.5c-0.3-2.2,1.3-5.2,3.3-7.8c2.1-2.7,4.4-4.7,4.6-5.8
						c0.3-2.3-1.1-2.8-1.1-2.8c-0.3-0.1-0.7-0.2-1-0.1c-1.1,2.9-5.7,5.9-8.5,13.4c-3.7,10,2.7,20,3.9,21.3c0.3,0.3,0.7,0.5,1.1,0.6
						C35.6,45,35.5,44.5,35.5,44z"/>
					<path id="Tracé_2334" class="st6" d="M44.5,62c2.2-1.6,3.9-3.9,4.9-6.4c0.4-1,0.7-2,0.9-3.1l0,0c0.3-1.4,0.3-2.8,0.5-4
						c0.5-3.9-0.5-4.3-0.1-5.6c0.7-1.9,2.2-2,2.6-1.5s1.2,5.1-0.3,10.8c0.2-0.2,0.4-0.3,0.5-0.5c1.4-1.6,1.4-4.7,1.7-6.8
						c0.4-4.3-0.6-4.8-0.1-6.3c0.8-2.2,2.5-2.3,2.9-1.7c0.4,0.6,1.4,6.8-0.6,13.4c1.6-1.5,2.4-4.8,2.6-8.1c0.2-3.4-0.3-6.4,0.3-7.4
						c1.3-1.9,2.7-1.4,2.7-1.4c0.3,0.1,0.6,0.3,0.9,0.6c-1.1,2.9,0.4,8.2-2.4,15.7C57.7,59.6,46.3,63,44.6,63.2
						c-0.4,0-0.9-0.1-1.3-0.3C43.8,62.7,44.2,62.4,44.5,62z"/>
					<path id="Tracé_2335" class="st9" d="M89,63.9c-4.6-2.1-6,4.8-15.5,9.1c-9.4,4.2-19.6-1.2-20.9-2.3c-0.3-0.3-0.6-0.7-0.7-1.1
						c3-4.3,7.4-8.2,10.2-12.7c5.6-9.1,4.9-10.4,5-14.1c0.2-3.6-0.1-4.2,0-7c0.1-2,0.2-4.9-1.2-4.3c-4.7,1.7-0.8,7.7-4.5,17.3
						c-3.7,9.7-14.7,13-16.4,13.2c-2.3,0.2-4.2-4.1-3.5-7.5c0.2-1.1,0.5-2,0.6-2.8c1.2-1.9,1.8-3.6,2.3-4.3
						c1.2-1.6,2.9-7.8,6.1-10.1c3.1-2.3,0.8-4-2.5-2.9s-3.9,3-5.5,5.9c-1.7,3.1-5.9,5.1-7.5,3.4c-1.2-1.3-7.4-11-3.8-20.7
						s10.4-11.7,8-16.1c-0.6-1.4-2.5,0.9-3.7,2.4c-1.8,2.3-2.3,2.5-4.6,5.3s-3.7,3.3-5.4,13.9c-1,5.7,0.1,12.2-0.8,17.7
						c-0.2,0.1-0.4,0.1-0.7,0.1c-1.7,0-13-2.6-17.3-12s-0.9-15.6-5.7-17c-1.5-0.6-1.1,2.4-0.9,4.3c0.4,2.9,0.1,3.4,0.5,7
						s-0.2,5,6,13.7c4.1,5.7,11.1,10.2,13.7,16.1c0,0,2.5,7.2,0.4,9.1c-2.5,2.2,11.9,13.8,18.6,16.8c0.6,0.3,1.2,0.6,1.9,0.6
						c0.2,0.1,0.5,0.1,0.8,0l0,0c1,0,2-0.4,2.8-1.1c5.8-5,15.6-3,23.5-4.9c10.4-2.5,10.8-3.9,13.5-6.4s2.9-3,5-5
						C88.3,66.4,90.4,64.4,89,63.9z"/>
				</g>
				<g id="Groupe_691" transform="translate(-19.535 646.586) rotate(-6)">
					<g id="Groupe_602" transform="translate(139.449 151.709)">
						<path id="Tracé_2336" class="st8" d="M17.6,38.9c1.7-0.3,3.4,0,4.9,0.8c1.4,0.8,2.4,2.1,3.7,2.9c2.6,1.4,5.7,1.2,8.1-0.5
							c0.7-0.4,0.9-1.4,0.5-2.1c-0.2-0.3-0.5-0.6-0.9-0.7c-0.8-0.2-1.5-0.1-2.3-0.2c-0.8-0.2-1.5-0.6-2-1.3
							c-0.8-0.9-1.7-2.5-1.2-3.8c0.4-1.2,2.1-1.5,3.3-1.1c0.2,0,0.4,0.1,0.6,0.2c0.2,0.1,0.4,0.2,0.6,0.2c2.6,1.2,5.1,3.4,8.4,3.3
							c0.3,0,0.5,0,0.8-0.1c1.9-0.4,4.8-0.6,5.1-2.5c0.3-2.1-2.1-1.6-3.4-1.8C42,32,40.8,30.3,41,28.6c0.1-0.7,0.4-1.3,0.9-1.8
							c1.1-0.9,2.5-1.4,4-1.2c1.8,0.2,3.5,0.2,5.3,0.2c2.5-0.2,6.1-1.1,7.4-3.5c0.3-0.5,0.3-1.1,0-1.6c-0.4-0.4-0.9-0.6-1.4-0.5
							c-1,0-2,0.4-3,0.5c-1.2,0.1-2.4-0.4-3.1-1.4c-0.6-1.2-0.1-2.8,1.1-3.4c0.1,0,0.1-0.1,0.2-0.1c0.9-0.4,1.8-0.6,2.8-0.7
							c3.4-0.6,6.2-3.1,7.2-6.4c0-0.2,0.1-0.4,0.1-0.7c0-1-1.2-1.2-1.8-0.7c-1.2,1-2.7,2.2-4.3,1.1C55.7,8,55.5,7.5,55.6,7
							c0.1-0.2,0.2-0.4,0.4-0.5c0.5-0.6,1-1.2,1.3-1.9c0.5-0.9,0.6-2,0.2-3c-0.6-1.4-2.2-2-3.6-1.4c-0.2,0.1-0.4,0.2-0.6,0.3
							c-1.2,1-1.4,2.7-1.6,4.3c0,0.5-0.2,1-0.6,1.4c-0.6,0.4-1.3,0.3-1.7-0.2c-1.5-1.5,0-4.1-1.5-5.5c-0.4-0.4-1.6,0.2-2.1,1
							c-1,1.5-1.2,3.4-0.7,5.1c0.1,0.2,0.1,0.5,0.2,0.7c0.2,0.5,0.3,0.9,0.5,1.4c0,0.2,0.1,0.3,0.1,0.5c0.5,1.2,0.7,2.5,0.7,3.8
							c-0.2,1.4-1.2,2.6-2.6,3c-0.4,0.2-0.9,0.3-1.3,0.1c-0.5-0.3-0.8-0.9-0.8-1.5c0-1.2,0.7-2.6,0-3.7c-0.4-0.5-1.6-0.1-2.3,0.5
							c-1.1,1.1-2,2.9-1.6,6.1c0,0.2,0.1,0.3,0.1,0.5c0.1,0.2,0.2,0.4,0.2,0.6c0.1,0.2,0.1,0.4,0.2,0.6c0.2,1.2-0.1,2.4-0.7,3.4
							c-0.1,0.1-0.2,0.3-0.3,0.4c-0.8,1.2-3.9,3.7-5.2,2C32.1,24.6,32,24.3,32,24c-0.3-1.6,0.6-2.6,1.3-4c1.2-2.2-1.5-3-3.2-2.2
							c-2.7,1.4-3.5,4.8-4,7.5c-0.1,1.3-0.6,2.5-1.5,3.4c-0.9,0.8-2.2,1-3.3,0.6c-0.7-0.3-1.2-0.9-1.5-1.7c-0.2-0.8-0.1-1.6,0.2-2.3
							c0.3-0.8,1.9-2.8,1-3.6c-1.4-1.2-3.3,0.2-4.3,1.2c-1.4,1.5-2.2,3.4-2.3,5.5c-0.2,1.3-0.4,3.3-1.7,4c-1,0.5-2.2,0.1-3.3,0.4
							C8,33.1-0.4,39.6,0,39.9C2,41.4,17.3,39,17.6,38.9z"/>
					</g>
					<path id="Tracé_2337" class="st8" d="M138.4,157.4c5.2-0.9,3.2-8.3,4.7-11.7c1.1-2.6,4.1-3.8,6.6-2.7c0.2,0.1,0.3,0.1,0.5,0.2
						c0.9,0.5,1.7,1.5,1.2,2.4c-0.4,0.6-0.7,1.3-0.9,2c-0.2,0.8-0.3,1.6-0.2,2.4c0.2,1.7,1.7,2.9,3.3,2.9c0.5,0,1-0.1,1.5-0.4
						c0.3-0.3,0.6-0.6,0.7-1c0.7-1.5,1-3.1,1-4.8c-0.1-1.7,0.2-3.4,0.8-5c0.9-1.7,2.1-3.2,3.5-4.5c0.5-0.4,1-0.7,1.6-0.9
						c0.7-0.1,1,0.4,1.4,0.9c1.3,1.8-2.4,5.1,0.2,7.1c0.7,0.6,1.5,0.8,2.4,0.7c0.2,0,0.4-0.1,0.6-0.1c0.2-0.1,0.4-0.3,0.6-0.4
						c0.2-0.1,0.4-0.3,0.5-0.5c2-1.8,3.4-4.1,4-6.7c0.6-2.6,1.4-5.1,2.5-7.5c0.2-0.4,0.5-0.8,0.8-1.1c0.2-0.2,0.3-0.3,0.5-0.4
						c0.8-0.7,1.9-1.7,3-1.2c0.2,0.1,0.4,0.2,0.5,0.3c0.6,0.7,0.7,1.8,0.3,2.6c-0.6,1.2-1.2,2.4-1.7,3.7c-0.4,1.1-0.8,2.7,0,3.7
						c0.4,0.6,1.1,0.8,1.8,0.7c1-0.3,1.5-1.4,2-2.2c0.5-0.9,1-1.8,1.5-2.7c1-1.7,2.2-3.4,4-4.2c0.6-0.2,1.2-0.4,1.9-0.4
						c0.1,0,0.3,0,0.4,0c0.2,0,0.3,0.1,0.5,0.1c1.1,0.4,2.6,1.6,2.2,3c-0.1,0.4-0.4,0.7-0.7,0.9c-0.6,0.5-2,0.7-2.2,1.5
						c-0.1,0.3,0,0.6,0.2,0.9c0.2,0.2,0.5,0.4,0.8,0.4c0.6,0.2,1.3,0.2,1.9,0.2c0.7,0,1.3,0.1,2,0.1c1.3,0.1,2.4,0.4,2.3,1.8
						c0.1,0.8-0.1,1.6-0.5,2.2c-0.4,0.5-1,0.8-1.6,0.9c-0.9,0.1-1.9,0.2-2.8,0.1c-1.3,0-2.7-0.3-3.3,1.2c-0.1,0.3-0.2,0.5-0.1,0.8
						c0.1,0.2,0.2,0.5,0.4,0.6c0.7,0.5,1.4,0.8,2.2,1c0.6,0.3,1.8,0.8,2,1.6c0.1,0.7-0.3,1.4-0.9,1.8c-4.6,2.8-7.2-3.6-11.7-3
						c-1.6,0.6-2.7,2.1-2.8,3.8c0.4,2,3.4,0.8,4.1,2.5c0.6,2.3-2.2,3.8-3.7,3.3c-2.5-0.7-5.2-2.3-7.5-2.9c-1-0.3-2.2-0.3-3.2,0
						c-0.8,0.3-1.5,0.9-1.9,1.7c-0.4,0.7-0.4,1.5,0,2.2c0.5,0.6,1.2,1.1,2,1.1c1.1,0,2.2,0.2,3.3,0.5c0.4,0.1,0.7,0.4,0.8,0.7
						c0.1,0.2,0.1,0.4,0,0.7c-0.4,1.5-1.6,2.7-3.2,3.1c-1.3,0.2-2.7,0.1-4-0.4c-3.1-0.9-6.1-2.7-9.5-2c-0.6,0.1-1.5,0.3-1.8,1
						c-0.2,0.4-0.2,0.8,0,1.2c0.3,0.9,0.9,1.7,1.8,2.1c1.9,1.2,5.4-0.2,6.4,2.1c0.7,1.5-1.4,2-2.4,2.1c-2,0.1-4.3,0.7-6.1-0.2
						c-1.6-0.8-3.1-1.7-4.7-2.5c-1.5-0.8-3.1-1.4-4.7-1.8c-1.7-0.4-3.5-0.4-5.2-0.2c-2.1,0.3-8.3-2.2-6.1-2.7
						c0.7-0.2-1.5-3.7-0.7-3.4C133.5,157.4,136,157.6,138.4,157.4z"/>
					<path id="Tracé_173-2" class="st9" d="M0,0c0,0,46.1,15.5,58.9,43.4s9.9,30.2,56.2,47.9s39.4,45.5,48,64.9
						c8.6,19.4,31.5,53,8.9,62.7s-60.9,4.5-67.4,23.9C98,262.1,0,262.6,0,262.6L0,0z"/>
					<g id="Groupe_605" transform="translate(84.214 31.44)">
						<g id="Groupe_603" transform="translate(0 0)">
							<path id="Tracé_2338" class="st6" d="M45.9,63.7c-4.4-4.7,2.4-8.4,3.4-12.7c0.9-2.5-1-7.1-5.1-7.6c-1.2-0.2-2.8,0.3-3,1.5
								c-0.1,0.9-0.3,1.8-0.6,2.6c-0.3,0.9-0.9,1.7-1.5,2.4c-1.4,1.4-3.7,1.6-5.4,0.4c-0.5-0.3-0.9-0.8-1.2-1.4
								c-0.1-0.5-0.1-1,0-1.5c0.4-1.9,1.3-3.8,2.5-5.3c1.4-1.6,2.3-3.5,2.8-5.5c0.4-2.3,0.3-4.6-0.1-6.9c-0.1-0.8-0.5-1.5-1-2
								c-0.6-0.6-1.3-0.4-2-0.2c-2.6,0.8-1.4,6.7-5.4,6.7c-1,0.1-2.1-0.3-2.8-1.1c-0.2-0.2-0.3-0.4-0.5-0.6
								c-0.1-0.3-0.2-0.5-0.2-0.8c-0.1-0.3-0.1-0.5-0.2-0.8c-0.6-3.2-0.3-6.4,1-9.4c1.1-3,2.5-5.9,3-9c0.1-0.5,0.1-1.1,0.1-1.7
								c0-0.3-0.1-0.5-0.1-0.8c-0.3-1.2-0.6-3-2-3.3c-0.2-0.1-0.5-0.1-0.7,0c-1.1,0.3-1.9,1.2-2.1,2.3c-0.3,1.6-0.6,3.2-1,4.8
								c-0.4,1.4-1.2,3.2-2.7,3.6c-0.8,0.2-1.7,0-2.2-0.7c-0.8-1-0.4-2.5-0.3-3.6c0.1-1.2,0.3-2.5,0.5-3.7c0.3-2.3,0.4-4.9-0.8-7
								c-0.4-0.7-0.9-1.3-1.5-1.8c-0.1-0.1-0.3-0.2-0.4-0.3c-0.2-0.1-0.4-0.2-0.6-0.2c-1.4-0.4-3.7-0.3-4.3,1.3
								c-0.1,0.5-0.1,1,0,1.4C11.8,3.8,12.9,5,12.6,6c-0.1,0.4-0.4,0.6-0.8,0.8c-0.4,0.1-0.8,0-1.1-0.2c-0.7-0.3-1.4-0.7-2-1.1
								C8,5,7.3,4.6,6.6,4.1C5.3,3.3,4,2.8,3,4.2C2.4,4.9,2,5.8,1.9,6.8c0.1,0.8,0.4,1.5,0.9,2c0.8,0.8,1.7,1.5,2.7,2.2
								c1.3,0.9,2.8,1.6,2.3,3.5c-0.1,0.3-0.2,0.7-0.5,0.9c-0.2,0.2-0.5,0.3-0.8,0.3c-1-0.1-2-0.3-2.9-0.6c-0.8-0.2-2.3-0.6-3.1,0.1
								c-0.6,0.6-0.8,1.6-0.4,2.4c2.4,6.1,9.6,1.7,13.6,5.6c1,1.4,1.2,4.2,0,5.7c-1.8,1.7-3.9-1.7-5.8-0.5c-2.3,1.8-0.7,5.3,1.2,5.9
								c2.9,1.1,6.7,1.5,9.4,2.6c1.3,0.4,2.3,1.3,3.1,2.3c0.6,0.9,0.8,2,0.7,3c-0.1,0.9-0.7,1.7-1.6,2.1c-0.9,0.3-1.9,0.1-2.8-0.4
								c-1.1-0.8-2.3-1.4-3.6-1.9c-0.7-0.3-1.5,0.1-1.8,0.8c0,0,0,0,0,0c-0.7,1.8-0.4,3.8,0.8,5.3c1.1,1.2,2.6,2.1,4.1,2.5
								c3.7,1.4,7.9,1.8,10.7,4.9c0.6,0.6,1,1.4,1.1,2.2c-0.1,0.5-0.4,0.9-0.8,1.2c-1,0.6-2.1,0.9-3.3,0.8c-2.7-0.2-5.4-2.3-8.1-0.8
								c-1.7,0.9-0.1,2.9,0.8,3.8c1.9,1.6,4,2,6.4,2.4c2.1,0.4,4.2,0.6,6.3,1c2,0.3,4,0.9,5.9,1.6c1.9,0.9,3.7,2.1,5.2,3.6
								c3.2,3,8.3-0.8,10-4.5C52,65.1,47.4,64.8,45.9,63.7z"/>
						</g>
						<g id="Groupe_604" transform="translate(36.738 12.436)">
							<path id="Tracé_2339" class="st6" d="M17,70.2c0.2,0.1,0.5,0.2,0.7,0.4c1.3,1,2.1,2.5,2.4,4.1c0.3,1.5-0.1,3,0.1,4.5
								c0.6,2.8,2.6,5,5.4,5.7c0.8,0.3,1.6-0.1,1.9-0.9c0.1-0.4,0.1-0.8-0.1-1.1c-0.3-0.7-0.9-1.2-1.3-1.8c-0.4-0.7-0.5-1.5-0.3-2.3
								c0.2-1.2,0.8-2.8,2-3.2c1.2-0.4,2.4,0.7,2.8,1.7c0.1,0.2,0.2,0.3,0.3,0.5c0.1,0.2,0.1,0.4,0.2,0.6c0.7,2.7,0.6,5.9,2.7,8.2
								c0.2,0.2,0.3,0.3,0.5,0.5c1.5,1.2,3.4,3.2,5,2.2c1.7-1-0.1-2.5-0.7-3.6c-0.9-1.4-0.4-3.3,1-4.2c0.6-0.3,1.2-0.5,1.9-0.4
								c1.4,0.2,2.6,1,3.3,2.2c1,1.4,2,2.7,3.1,4c1.7,1.7,4.5,3.8,7.1,3.3c0.6-0.1,1-0.5,1.2-1c0.1-0.5-0.1-1-0.5-1.4
								c-0.6-0.7-1.5-1.2-2.2-2c-0.9-0.8-1.2-2.1-0.9-3.2c0.5-1.2,2-1.8,3.2-1.3c0.1,0,0.1,0.1,0.2,0.1c0.8,0.4,1.5,1,2.2,1.6
								c2.5,2.2,6.1,2.7,9.1,1.4c0.2-0.1,0.4-0.2,0.5-0.3c0.8-0.6,0.2-1.6-0.6-1.8c-1.5-0.3-3.3-0.6-3.4-2.5
								c-0.1-0.5,0.1-0.9,0.6-1.2c0.2-0.1,0.4-0.1,0.6,0c0.7,0,1.5,0,2.2-0.2c1-0.2,1.8-0.8,2.3-1.7c0.6-1.3,0.1-2.8-1.2-3.5
								c-0.2-0.1-0.4-0.2-0.6-0.2c-1.5-0.3-2.9,0.7-4.2,1.4c-0.4,0.3-0.9,0.5-1.4,0.4c-0.6-0.2-1-0.8-0.9-1.4c0.2-2,3-2.5,3.2-4.5
								c0-0.6-1.1-1.1-2-1c-1.7,0.2-3.3,1.2-4.2,2.6c-0.1,0.2-0.3,0.4-0.4,0.6c-0.2,0.4-0.5,0.8-0.7,1.2c-0.1,0.1-0.2,0.3-0.3,0.4
								c-0.6,1.1-1.4,2-2.4,2.8c-1.2,0.7-2.7,0.7-3.8-0.1c-0.4-0.2-0.7-0.5-0.9-0.9c-0.1-0.6,0.1-1.2,0.6-1.5
								c0.9-0.7,2.4-1.1,2.7-2.3c0.2-0.6-0.9-1.3-1.8-1.4c-1.5-0.2-3.4,0.3-5.4,2.5c-0.1,0.1-0.2,0.2-0.3,0.3
								c-0.1,0.2-0.2,0.4-0.3,0.6c-0.1,0.2-0.2,0.4-0.4,0.5c-0.8,0.8-1.8,1.4-2.9,1.6c-0.2,0-0.3,0.1-0.5,0.1
								c-1.3,0.1-5.1-0.6-4.6-2.6c0.1-0.3,0.3-0.6,0.5-0.8c1-1.2,2.3-1.2,3.7-1.4c2.3-0.5,1.3-3-0.4-3.7c-2.7-1.2-5.6,0.3-8,1.7
								c-1,0.7-2.2,1.1-3.4,0.9c-1.1-0.2-2.1-1-2.4-2.1c-0.2-0.7-0.1-1.5,0.4-2.1c0.5-0.6,1.1-1.1,1.8-1.3c0.8-0.3,3.2-0.3,3.3-1.4
								c0-1.8-2.1-2.3-3.5-2.4c-2-0.1-3.9,0.5-5.5,1.6c-1.1,0.7-2.7,1.7-4,1.2c-1-0.4-1.4-1.6-2.3-2.2c-1.1-0.8-3-0.6-3,1
								c0,0.9-0.2,1.8-0.6,2.5c-0.3,0.5-0.6,1-0.8,1.5c-0.2,0.6-0.2,1.3-0.1,1.9c0,0.4,0.2,0.8,0.4,1.1C13.8,70,15.9,69.8,17,70.2z"
								/>
							<path id="Tracé_2340" class="st8" d="M26.2,61.5c1.4-1,2.3-2.5,2.7-4.2c0.4-1.5,0.1-3.2,0.3-4.7c0.7-2.8,3-5,5.9-5.7
								c0.8-0.2,1.7,0.2,1.9,1.1c0.1,0.4,0.1,0.8-0.1,1.2c-0.4,0.7-1,1.2-1.4,1.8c-0.4,0.7-0.6,1.5-0.4,2.3c0.1,1.2,0.7,2.9,2,3.4
								c1.2,0.5,2.5-0.6,3-1.6c0.1-0.2,0.2-0.4,0.3-0.5c0.1-0.2,0.2-0.4,0.2-0.6c0.8-2.8,0.9-6.1,3.2-8.4c0.2-0.2,0.4-0.3,0.6-0.5
								c1.6-1.1,3.7-3.2,5.3-2.1c1.7,1.2-0.3,2.6-0.9,3.7c-1,1.5-0.6,3.4,0.9,4.4c0.6,0.4,1.3,0.6,1.9,0.5c1.4-0.2,2.7-0.9,3.6-2.1
								c1.1-1.4,2.2-2.7,3.4-4c1.9-1.7,4.9-3.7,7.6-3.1c0.6,0.1,1,0.6,1.2,1.1c0,0.5-0.2,1.1-0.6,1.4c-0.7,0.7-1.7,1.2-2.4,1.9
								c-0.9,0.8-1.3,2.1-1.1,3.3c0.5,1.3,1.9,1.9,3.2,1.5c0.1,0,0.1-0.1,0.2-0.1c0.9-0.4,1.7-1,2.4-1.6c2.7-2.1,6.4-2.5,9.5-1
								c0.2,0.1,0.4,0.2,0.5,0.4c0.8,0.7,0.1,1.7-0.7,1.8c-1.6,0.2-3.4,0.5-3.7,2.5c-0.1,0.5,0.1,1,0.5,1.2c0.2,0.1,0.4,0.1,0.6,0.1
								c0.8,0,1.5,0.1,2.3,0.3c1,0.3,1.9,1,2.4,1.9c0.6,1.4,0,3-1.4,3.6C79,60.9,78.8,61,78.6,61c-1.5,0.3-3-0.8-4.2-1.7
								c-0.4-0.3-0.9-0.5-1.4-0.5c-0.6,0.2-1.1,0.8-1,1.4c0.1,2.1,3,2.7,3.1,4.8c0,0.6-1.2,1.1-2.1,0.9c-1.8-0.3-3.3-1.4-4.2-2.9
								c-0.1-0.2-0.3-0.4-0.4-0.6c-0.2-0.4-0.4-0.9-0.7-1.3c-0.1-0.1-0.2-0.3-0.2-0.4c-0.6-1.2-1.4-2.2-2.4-3.1
								c-1.2-0.8-2.7-0.8-3.9-0.1c-0.4,0.2-0.8,0.5-1,0.9c-0.1,0.6,0.1,1.2,0.6,1.6c0.9,0.8,2.4,1.3,2.7,2.5c0.1,0.6-1,1.3-1.9,1.3
								c-1.5,0.1-3.5-0.5-5.5-2.9c-0.1-0.1-0.2-0.2-0.3-0.4c-0.1-0.2-0.2-0.4-0.3-0.6c-0.1-0.2-0.2-0.4-0.3-0.6
								c-0.8-0.9-1.8-1.5-2.9-1.8c-0.2,0-0.3-0.1-0.5-0.1c-1.4-0.2-5.4,0.3-4.9,2.5c0.1,0.3,0.2,0.6,0.4,0.9c1,1.3,2.4,1.3,3.8,1.7
								c2.4,0.6,1.2,3.2-0.6,3.8c-2.9,1.1-5.8-0.6-8.2-2.1c-1-0.8-2.2-1.2-3.5-1.1c-1.2,0.1-2.2,0.9-2.6,2c-0.2,0.7-0.1,1.5,0.3,2.2
								c0.4,0.7,1.1,1.2,1.8,1.5c0.8,0.3,3.3,0.5,3.3,1.7c0,1.8-2.3,2.3-3.8,2.4c-2,0-4-0.7-5.6-2c-1.1-0.8-2.7-1.9-4.1-1.4
								c-1.1,0.4-1.6,1.6-2.5,2.2c-1.2,0.8-3.2,0.4-3.1-1.2c0-0.6,0-1.2-0.2-1.8c-0.1-0.8-0.1-1.6,0-2.4
								C22.3,63.8,26,61.6,26.2,61.5z"/>
							<path id="Tracé_2341" class="st6" d="M22.6,64.9c2.7-4.6,5.9-0.9,9.5-1.3c2.8-0.3,4.8-2.8,4.5-5.5c0-0.2,0-0.3-0.1-0.5
								c-0.2-1-1-2.1-1.9-1.9c-0.7,0.2-1.5,0.3-2.2,0.3c-0.8,0-1.6-0.2-2.3-0.5c-1.5-0.7-2.3-2.4-1.8-4.1c0.1-0.5,0.4-1,0.8-1.3
								c0.4-0.2,0.8-0.4,1.2-0.4c1.6-0.2,3.3,0,4.8,0.5c1.6,0.6,3.3,0.9,5.1,0.7c1.9-0.3,3.7-1,5.3-2c0.6-0.3,1-0.8,1.3-1.3
								c0.3-0.6,0-1.1-0.4-1.6c-1.3-1.8-5.6,0.7-6.7-2.3c-0.3-0.8-0.3-1.7,0.1-2.5c0.1-0.2,0.2-0.4,0.3-0.5c0.2-0.1,0.4-0.3,0.6-0.4
								c0.2-0.1,0.4-0.3,0.6-0.4c2.3-1.3,4.9-2,7.6-1.8c2.6,0.2,5.2,0.1,7.9-0.2c0.4-0.1,0.9-0.2,1.3-0.4c0.2-0.1,0.4-0.2,0.6-0.3
								c0.9-0.5,2.2-1.3,2-2.5c0-0.2-0.1-0.4-0.2-0.6c-0.5-0.8-1.5-1.2-2.4-1c-1.3,0.2-2.7,0.4-4,0.5c-1.2,0.1-2.8,0-3.6-1.1
								c-0.4-0.6-0.4-1.3-0.1-1.9c0.6-0.9,1.8-1,2.7-1.2c1-0.2,2-0.4,3-0.6c1.9-0.4,3.9-1,5.2-2.6c0.4-0.5,0.7-1.1,1-1.7
								c0.1-0.1,0.1-0.3,0.1-0.4c0-0.2,0-0.3,0-0.5c-0.1-1.2-0.8-3-2.2-3c-0.4,0-0.8,0.2-1.1,0.4c-0.7,0.5-1.2,1.7-2.1,1.7
								c-0.3,0-0.6-0.1-0.8-0.4c-0.2-0.3-0.2-0.6-0.2-0.9c0-0.6,0.1-1.3,0.3-1.9c0.2-0.6,0.3-1.3,0.4-1.9c0.3-1.3,0.3-2.4-1-2.8
								c-0.7-0.3-1.5-0.4-2.3-0.2c-0.6,0.2-1,0.7-1.3,1.3c-0.4,0.9-0.7,1.8-0.9,2.7c-0.4,1.3-0.5,2.6-2.1,2.8c-0.3,0-0.6,0-0.8-0.1
								c-0.2-0.1-0.4-0.3-0.5-0.6c-0.2-0.8-0.3-1.6-0.3-2.4c-0.1-0.7-0.2-2-0.9-2.3c-0.7-0.3-1.4-0.2-2,0.3
								c-4.1,3.5,1.3,7.9-0.6,12.1c-1,1.3-2.8,2-4.4,1.6c-1.8-0.9,0.2-3.5-1.2-4.7c-2-1.3-4.3,0.9-4.2,2.5c-0.1,2.6,0.6,5.6,0.5,8.1
								c0,1.1-0.3,2.2-1,3.1c-0.5,0.7-1.3,1.2-2.2,1.4c-0.8,0.2-1.6-0.1-2.1-0.6c-0.5-0.6-0.6-1.5-0.5-2.2c0.3-1.1,0.5-2.2,0.5-3.3
								c0-0.6-0.5-1.2-1.1-1.2c0,0,0,0,0,0c-1.6-0.1-3.1,0.7-3.9,2.1c-0.6,1.2-0.9,2.6-0.8,3.9c0,3.2,0.8,6.7-0.9,9.6
								c-0.3,0.6-0.8,1.3-1.5,1.4c-0.4,0-0.8-0.1-1.1-0.3c-0.8-0.6-1.3-1.4-1.5-2.3c-0.6-2.2,0.3-4.8-1.6-6.5
								c-1.2-1.1-2.3,0.7-2.7,1.7c-0.5,1.8-0.6,3.8-0.1,5.6c0.3,1.7,0.7,3.5,1,5.2c0.3,1.7,0.4,3.4,0.4,5.1c-0.1,1.8-0.6,3.5-1.4,5
								c-1.5,3.3,4.5,6.5,7.9,6.8C21.8,66.5,22.2,66.4,22.6,64.9z"/>
							<path id="Tracé_2342" class="st8" d="M18.1,66.9c-0.5-5.8,6.5-4.6,9.7-7c2.5-1.9,3-5.4,1.1-7.8c-0.1-0.1-0.2-0.3-0.4-0.4
								c-0.7-0.8-2.1-1.4-2.9-0.7c-0.6,0.6-1.2,1.1-1.9,1.6c-0.8,0.5-1.6,0.7-2.5,0.8c-1.9,0.2-3.6-1-4.1-2.8
								c-0.2-0.5-0.2-1.1,0-1.7c0.2-0.4,0.5-0.8,0.9-1.1c1.4-1.1,3.1-1.9,4.9-2.3c1.9-0.3,3.6-1.1,5.2-2.3c1.6-1.4,2.9-3.1,3.9-5
								c0.4-0.6,0.5-1.3,0.5-2c-0.1-0.7-0.7-1-1.3-1.3c-2.3-0.9-4.8,3.9-7.7,1.7c-0.8-0.6-1.3-1.4-1.4-2.4c0-0.2,0-0.5,0-0.7
								c0.1-0.2,0.2-0.5,0.3-0.7c0.1-0.2,0.2-0.5,0.3-0.7c1.4-2.6,3.5-4.7,6.1-6.1c2.5-1.5,5.1-2.7,7.3-4.7c0.4-0.3,0.7-0.7,1-1.1
								c0.1-0.2,0.2-0.4,0.4-0.6c0.5-1,1.3-2.5,0.5-3.5c-0.1-0.2-0.3-0.3-0.5-0.5c-1-0.4-2.1-0.2-2.9,0.4c-1.1,1-2.3,1.9-3.5,2.8
								c-1.1,0.8-2.7,1.6-4,1c-0.7-0.3-1.2-1-1.2-1.8c0-1.1,1.1-2,1.9-2.7c0.8-0.8,1.6-1.6,2.5-2.3c1.5-1.5,3.1-3.2,3.4-5.4
								c0.1-0.7,0.1-1.4,0-2.1c0-0.2-0.1-0.3-0.1-0.4c-0.1-0.2-0.2-0.3-0.3-0.5c-0.7-1.1-2.5-2.3-3.8-1.5c-0.4,0.2-0.7,0.6-0.8,1
								c-0.3,0.8-0.2,2.3-1,2.8c-0.3,0.2-0.7,0.2-1,0.1c-0.3-0.2-0.6-0.4-0.7-0.8c-0.3-0.6-0.6-1.3-0.8-2c-0.2-0.7-0.5-1.4-0.7-2.1
								c-0.4-1.4-1.1-2.4-2.6-2c-0.9,0.1-1.7,0.5-2.3,1.2c-0.4,0.6-0.6,1.3-0.5,1.9c0.1,1,0.3,2.1,0.7,3.1c0.4,1.4,1,2.8-0.4,3.9
								c-0.2,0.2-0.5,0.3-0.8,0.4c-0.3,0-0.5-0.1-0.8-0.3c-0.7-0.6-1.2-1.3-1.7-2.1c-0.4-0.6-1.3-1.7-2.2-1.7
								c-0.8,0.1-1.5,0.7-1.7,1.5c-1.8,5.7,5.8,6.7,6.4,11.8c-0.2,1.9-1.5,3.4-3.3,4c-2.2,0.2-1.8-3.4-3.8-3.7
								c-2.7,0-3.5,3.4-2.5,4.8c1.4,2.5,3.9,4.9,5.2,7.3c0.6,1,0.9,2.2,0.9,3.4c-0.1,1-0.5,1.9-1.3,2.5c-0.6,0.6-1.5,0.8-2.3,0.6
								c-0.8-0.3-1.5-1-1.7-1.8c-0.3-1.2-0.8-2.3-1.4-3.4c-0.2-0.4-0.6-0.6-1-0.7c-0.3,0-0.5,0-0.7,0.2C5,33.8,4,35.4,4,37.2
								c0.1,1.5,0.6,2.9,1.5,4.2c1.8,3.1,4.6,5.9,4.7,9.6c0.1,0.8-0.1,1.6-0.5,2.2c-0.4,0.3-0.8,0.4-1.2,0.4c-1.1-0.1-2-0.6-2.8-1.3
								c-1.8-1.7-1.3-5.8-4-6.3c-1.8-0.3-1.8,2-1.6,3.2c0.4,2.2,0.4,4.8,1.8,6.4c1.3,1.5,2.6,2.9,3.9,4.3c1.3,1.4,2.4,2.9,3.3,4.6
								c0.9,1.7,1.4,3.6,1.6,5.6c0.5,4,5.1,6.5,8.4,4.9C20.4,73.7,18.5,68.6,18.1,66.9z"/>
						</g>
					</g>
					<g id="Groupe_608" transform="translate(72.229 140.757)">
						<g id="Groupe_606" transform="translate(73.235 29.25)">
							<path id="Tracé_2343" class="st8" d="M22.3,52.2c2.1-0.5,4.4-0.3,6.3,0.7c1.8,0.9,3.2,2.5,4.9,3.5c3.1,1.7,7.7,1,10.3-1.2
								c0.9-0.6,1.1-1.8,0.5-2.7c-0.3-0.4-0.7-0.7-1.2-0.8c-1-0.2-2,0-2.9-0.1c-1-0.2-2-0.7-2.6-1.5c-1.1-1.2-2.3-3-1.8-4.7
								c0.5-1.6,2.6-2,4.1-1.7c0.3,0,0.5,0.1,0.8,0.2c0.3,0.1,0.5,0.2,0.8,0.3c3.4,1.4,6.8,4,10.9,3.6c0.3,0,0.6-0.1,1-0.2
								c2.4-0.7,6.1-1.1,6.3-3.6c0.2-2.6-2.8-1.9-4.5-2.1c-2.2-0.2-3.9-2.2-3.7-4.4c0.1-0.9,0.4-1.7,1-2.4c1.3-1.3,3.1-1.9,5-1.8
								c2.2,0.1,4.5,0,6.7-0.2c3.2-0.4,7.6-1.8,9.2-5c0.4-0.7,0.3-1.5-0.2-2.1c-0.5-0.5-1.2-0.7-1.9-0.6c-1.3,0.1-2.5,0.7-3.8,0.8
								c-1.6,0.3-3.1-0.4-4.1-1.6c-0.9-1.5-0.4-3.5,1.2-4.4c0.1,0,0.2-0.1,0.2-0.1c1.1-0.5,2.3-0.9,3.5-1c4.1-0.9,7.9-4.4,8.7-8.6
								c0-0.3,0.1-0.6,0.1-0.9c0-1.3-1.6-1.5-2.4-0.7c-1.5,1.4-3.3,3-5.4,1.7c-0.6-0.3-0.9-0.9-0.8-1.5c0.1-0.2,0.2-0.5,0.4-0.7
								c0.6-0.8,1.2-1.6,1.5-2.5c0.6-1.2,0.6-2.6,0-3.9c-0.9-1.7-2.9-2.4-4.6-1.5c-0.3,0.1-0.5,0.3-0.7,0.5
								c-1.5,1.3-1.6,3.6-1.7,5.6c0,0.7-0.2,1.3-0.6,1.8c-0.7,0.5-1.6,0.4-2.2-0.2c-2-1.8-0.2-5.2-2.3-7c-0.6-0.5-2,0.3-2.6,1.4
								c-1.1,2-1.3,4.4-0.5,6.6c0.1,0.3,0.2,0.6,0.3,0.9c0.3,0.6,0.5,1.1,0.7,1.7c0.1,0.2,0.1,0.4,0.2,0.6c0.7,1.5,1,3.2,1.1,4.8
								c-0.1,1.9-1.4,3.2-3.1,3.9c-0.5,0.3-1.1,0.4-1.7,0.2c-0.7-0.3-1.1-1.1-1.1-1.9c-0.1-1.5,0.7-3.4-0.3-4.7
								c-0.5-0.6-2.1-0.1-2.9,0.8c-1.3,1.5-2.4,3.8-1.6,7.8c0,0.2,0.1,0.4,0.1,0.6c0.1,0.3,0.2,0.5,0.3,0.8c0.1,0.3,0.2,0.5,0.3,0.8
								c0.3,1.5,0.1,3-0.6,4.4c-0.1,0.2-0.2,0.4-0.3,0.6c-0.9,1.5-4.7,5-6.4,2.9c-0.3-0.3-0.4-0.7-0.5-1.2c-0.5-2,0.6-3.4,1.4-5.1
								c1.3-2.9-2.2-3.7-4.2-2.5c-3.4,2-4.1,6.3-4.6,9.8c-0.2,1.7-0.4,3.1-1.7,4.4c-1.1,1.1-2.7,1.5-4.1,1c-0.9-0.4-1.6-1.1-2-2
								c-0.3-1-0.3-2,0-3c0.3-1.1,2.2-3.7,1-4.6c-1.9-1.5-4.2,0.4-5.4,1.8c-1.7,2-2.6,4.5-2.6,7.1c-0.1,1.7-0.3,4.2-1.9,5.2
								c-1.2,0.8-2.8,0.3-4.2,0.7c-1.7,0.6-12,9.5-11.4,9.8C2.7,56.4,22,52.4,22.3,52.2z"/>
						</g>
						<g id="Groupe_607" transform="translate(0 0)">
							<path id="Tracé_2344" class="st6" d="M80.7,78.4c0.2-0.3,0.4-0.5,0.6-0.7c1.6-1.2,3.6-1.7,5.6-1.6c1.8,0.1,3.5,1,5.3,1.3
								c3.4,0.2,6.6-1.6,8.3-4.5c0.5-0.8,0.3-1.9-0.5-2.5c-0.4-0.3-0.9-0.3-1.3-0.3c-0.9,0.2-1.7,0.7-2.5,0.9
								c-0.9,0.2-1.9,0.1-2.7-0.3c-1.3-0.6-3-1.8-3.1-3.4c-0.1-1.5,1.5-2.6,2.9-2.8c0.2-0.1,0.5-0.1,0.7-0.1c0.3,0,0.5,0,0.8,0
								c3.4,0,7.1,1.1,10.4-0.7c0.3-0.1,0.5-0.3,0.8-0.5c1.8-1.4,4.8-3,4.1-5.2c-0.7-2.3-3-0.6-4.5-0.2c-2,0.6-4-0.5-4.6-2.5
								c-0.2-0.8-0.2-1.6,0.1-2.3c0.7-1.5,2-2.7,3.6-3.2c1.9-0.7,3.8-1.5,5.6-2.4c2.6-1.5,5.8-4.1,6-7.3c0.1-0.7-0.3-1.3-0.8-1.7
								c-0.6-0.2-1.2-0.2-1.8,0.2c-1.1,0.5-1.9,1.4-3,2c-1.2,0.8-2.8,0.8-4,0c-1.3-1-1.5-2.8-0.5-4.1c0.1-0.1,0.1-0.1,0.2-0.2
								c0.8-0.8,1.6-1.5,2.6-2.1c3.3-2.3,5-6.3,4.4-10.2c-0.1-0.3-0.1-0.5-0.2-0.7c-0.5-1.1-1.8-0.7-2.3,0.2c-0.8,1.7-1.7,3.6-4,3.2
								c-0.5-0.1-1.1-0.4-1.2-1c0-0.2,0-0.5,0.1-0.7c0.3-0.9,0.4-1.7,0.4-2.6c0.1-1.2-0.4-2.4-1.3-3.3c-1.3-1.1-3.3-1-4.4,0.3
								c-0.2,0.2-0.3,0.4-0.4,0.7c-0.8,1.6-0.1,3.6,0.4,5.3c0.2,0.5,0.3,1.2,0.1,1.7c-0.4,0.6-1.2,0.9-1.9,0.6
								c-2.3-0.8-1.9-4.3-4.3-5.1c-0.7-0.2-1.6,1-1.8,2.1c-0.3,2.1,0.4,4.2,1.8,5.7c0.2,0.2,0.4,0.4,0.6,0.7
								c0.4,0.4,0.8,0.8,1.2,1.2c0.1,0.1,0.3,0.3,0.4,0.4c1.1,1.1,1.9,2.3,2.6,3.7c0.6,1.7-0.1,3.1-1.3,4.4
								c-0.3,0.4-0.8,0.7-1.3,0.8c-0.7-0.1-1.3-0.5-1.6-1.2c-0.5-1.2-0.6-3.1-1.9-3.8C92.3,36,91.2,37,90.8,38
								c-0.6,1.7-0.7,4,1.3,7.1c0.1,0.1,0.2,0.3,0.3,0.4c0.2,0.2,0.4,0.4,0.6,0.5c0.2,0.2,0.3,0.4,0.5,0.6c0.7,1.2,1.1,2.5,1,3.9
								c0,0.2,0,0.4-0.1,0.6c-0.3,1.6-2.2,5.8-4.5,4.6c-0.3-0.2-0.6-0.5-0.8-0.8c-1.1-1.6-0.6-3.1-0.5-4.8c0.2-2.9-3.1-2.4-4.4-0.7
								c-2.2,2.8-1.3,6.7-0.5,9.9c0.4,1.5,0.7,2.8,0,4.3c-0.5,1.3-1.8,2.2-3.1,2.2c-0.9,0-1.8-0.4-2.4-1.1c-0.6-0.7-0.9-1.6-1-2.5
								c-0.1-1,0.6-3.9-0.7-4.3c-2.1-0.6-3.4,1.8-3.9,3.4c-0.7,2.3-0.6,4.7,0.2,6.9c0.5,1.4,1.2,3.7,0.2,5c-0.8,1-2.3,1.2-3.3,2
								c-1.3,1.1-1.6,3.3,0.2,3.8c1,0.3,2,0.8,2.8,1.5c0.5,0.5,1,1,1.5,1.4c0.7,0.4,1.4,0.7,2.2,0.7c0.5,0.1,1,0.1,1.4-0.1
								C79.4,82.2,79.8,79.7,80.7,78.4z"/>
							<path id="Tracé_2345" class="st8" d="M73.2,65.8c-0.9-1.8-2.5-3.3-4.4-4.1c-1.8-0.8-3.8-0.7-5.6-1.3
								c-3.1-1.1-5.5-4.8-5.6-8.1c-0.1-1,0.6-1.9,1.6-2.1c0.5-0.1,1,0.1,1.4,0.4c0.8,0.6,1.2,1.4,1.9,2c0.8,0.6,1.7,1,2.7,1
								c1.5,0.1,3.6-0.3,4.5-1.7c0.8-1.3-0.2-3.1-1.3-3.9c-0.2-0.2-0.4-0.3-0.6-0.5c-0.2-0.1-0.5-0.3-0.7-0.4
								c-3.1-1.6-7.1-2.3-9.3-5.5c-0.2-0.3-0.3-0.5-0.5-0.8c-1-2.1-3.1-5-1.4-6.7c1.7-1.8,3,0.8,4.3,1.9c1.5,1.5,4,1.4,5.4-0.2
								c0.6-0.6,0.9-1.4,1-2.2c0.1-1.7-0.6-3.4-1.8-4.7c-1.5-1.5-2.8-3.2-4.1-4.9c-1.7-2.5-3.5-6.6-2.2-9.6c0.2-0.7,0.9-1.1,1.6-1.2
								c0.6,0.1,1.2,0.4,1.6,1c0.7,1,1.1,2.2,1.8,3.2c0.8,1.3,2.2,2,3.7,1.9c1.6-0.3,2.7-1.9,2.4-3.6c0-0.1,0-0.2-0.1-0.2
								c-0.3-1.1-0.8-2.2-1.4-3.1c-2-3.7-1.7-8.2,0.7-11.6c0.2-0.2,0.4-0.4,0.6-0.6c1-0.8,2,0.2,2,1.2c-0.1,2-0.1,4.2,2.2,4.9
								c0.6,0.2,1.2,0.1,1.6-0.4c0.1-0.2,0.2-0.5,0.2-0.7c0.1-0.9,0.4-1.8,0.8-2.7c0.5-1.2,1.5-2,2.7-2.4c1.7-0.4,3.5,0.6,4,2.3
								c0.1,0.3,0.1,0.5,0.1,0.8c0,1.9-1.6,3.4-2.9,4.7c-0.5,0.4-0.8,1-0.9,1.6c0.1,0.8,0.7,1.4,1.5,1.5c2.6,0.3,3.8-3.1,6.4-2.7
								c0.7,0.1,1,1.7,0.7,2.7c-0.7,2.1-2.3,3.7-4.3,4.5c-0.3,0.1-0.6,0.2-0.9,0.4c-0.6,0.2-1.1,0.3-1.7,0.5
								c-0.2,0.1-0.4,0.1-0.5,0.2C79,17.2,77.6,18,76.3,19c-1.3,1.3-1.3,3-0.9,4.7c0.1,0.6,0.4,1,0.9,1.4c0.7,0.3,1.5,0.1,2-0.4
								c1.1-0.9,2-2.6,3.5-2.7c0.7,0,1.3,1.4,1.2,2.6c-0.2,1.9-1.2,4.1-4.6,6c-0.2,0.1-0.3,0.2-0.5,0.3c-0.3,0.1-0.5,0.2-0.8,0.2
								c-0.2,0.1-0.5,0.2-0.7,0.3c-1.2,0.7-2.2,1.8-2.7,3.2c-0.1,0.2-0.1,0.4-0.2,0.6c-0.5,1.6-0.7,6.5,2,6.4c0.4,0,0.8-0.1,1.2-0.3
								c1.8-0.9,2-2.6,2.8-4.2c1.2-2.7,4-0.8,4.4,1.4c0.7,3.6-1.9,6.8-4.2,9.4c-1.1,1.2-2,2.2-2,4c-0.1,1.4,0.6,2.8,1.9,3.5
								c0.8,0.4,1.8,0.5,2.7,0.1c0.9-0.4,1.6-1.1,2.1-1.9c0.6-0.9,1.2-3.9,2.6-3.6c2.2,0.4,2.3,3.2,2.1,5c-0.4,2.4-1.6,4.7-3.5,6.3
								c-1.1,1.1-2.8,2.9-2.5,4.6c0.2,1.3,1.6,2.2,2.1,3.4c0.7,1.6-4.9,2.5-7.9,1.8C74.4,70,73.4,66.1,73.2,65.8z"/>
							<path id="Tracé_2346" class="st6" d="M78.5,70.5c-2.8-1-4.3-2.1-4.3-3.2c0-3.1,2.9-5.3,3.3-8.5c0.7-2.6-1.6-6.9-5.7-7.1
								c-1.2-0.1-2.7,0.5-2.8,1.7c0,0.9-0.1,1.8-0.3,2.7c-0.3,0.9-0.7,1.8-1.3,2.6c-1.3,1.6-3.6,1.9-5.3,0.9c-0.6-0.3-1-0.8-1.3-1.3
								c-0.2-0.5-0.2-1-0.1-1.5c0.3-2,1-3.8,2.1-5.5c1.2-1.7,2-3.6,2.3-5.7c0.2-2.3-0.1-4.6-0.7-6.9c-0.2-0.7-0.6-1.4-1.1-1.9
								c-0.7-0.5-1.3-0.3-2,0c-2.5,1-0.8,6.7-4.8,7.1c-1,0.1-2.1-0.2-2.9-0.8c-0.2-0.2-0.4-0.3-0.5-0.5c-0.1-0.3-0.2-0.5-0.3-0.8
								c-0.1-0.3-0.2-0.5-0.3-0.8c-0.9-3.1-0.8-6.4,0.2-9.4c0.8-3.1,2-6,2.2-9.2c0.1-0.5,0-1.1-0.1-1.6c-0.1-0.3-0.1-0.5-0.2-0.8
								c-0.4-1.2-0.8-3-2.3-3.2c-0.2,0-0.5,0-0.7,0c-1.1,0.4-1.8,1.4-1.9,2.5c-0.1,1.6-0.3,3.2-0.6,4.8c-0.3,1.4-0.9,3.3-2.4,3.8
								c-0.8,0.3-1.7,0.1-2.3-0.5c-0.8-0.9-0.7-2.4-0.6-3.6c0-1.2,0.1-2.5,0.2-3.7c0.1-2.3,0-4.9-1.4-6.9c-0.5-0.6-1-1.2-1.7-1.6
								c-0.1-0.1-0.3-0.2-0.4-0.3c-0.2-0.1-0.4-0.1-0.6-0.2c-1.4-0.3-3.7,0-4.1,1.6c-0.1,0.5-0.1,1,0.1,1.4c0.4,0.9,1.6,1.9,1.3,3
								c-0.1,0.4-0.4,0.7-0.7,0.8c-0.4,0.1-0.8,0.1-1.1-0.1c-0.7-0.2-1.4-0.6-2.1-1c-0.7-0.4-1.4-0.7-2.1-1.1
								c-1.4-0.8-2.7-1.1-3.6,0.4c-0.6,0.8-0.9,1.7-0.9,2.6c0.1,0.7,0.5,1.4,1.1,1.9c0.9,0.7,1.8,1.4,2.9,1.9
								c1.4,0.8,2.9,1.4,2.6,3.3c0,0.3-0.2,0.7-0.4,0.9c-0.2,0.2-0.5,0.3-0.8,0.4c-1,0-2-0.1-2.9-0.4c-0.8-0.1-2.4-0.3-3,0.4
								c-0.6,0.7-0.6,1.6-0.2,2.4c2.9,5.8,9.6,0.9,13.9,4.4c1.1,1.3,1.6,4,0.5,5.6c-1.6,1.8-4-1.3-5.8,0c-2.1,2-0.2,5.3,1.7,5.7
								c3,0.9,6.8,1,9.6,1.8c1.3,0.3,2.4,1,3.3,2.1c0.7,0.8,1,1.9,0.9,2.9c0,0.9-0.6,1.8-1.4,2.3c-0.9,0.4-1.9,0.3-2.8-0.1
								c-1.2-0.7-2.4-1.2-3.7-1.6c-0.7-0.2-1.5,0.2-1.7,0.9c0,0,0,0,0,0c-0.6,1.8-0.1,3.8,1.2,5.2c1.2,1.1,2.7,1.8,4.3,2.2
								c3.7,1,8,1.1,11,4c0.6,0.5,1.3,1.3,1.2,2.1c-0.1,0.5-0.3,0.9-0.7,1.2c-0.9,0.7-2,1.1-3.2,1.1c-2.7,0-5.6-1.8-8.1-0.1
								c-1.6,1.1,0.1,2.9,1.2,3.7c2,1.4,4.2,1.6,6.5,1.9c2.1,0.2,4.2,0.3,6.4,0.5c2,0.1,4.1,0.5,6,1.1c2,0.7,3.9,1.8,5.5,3.2
								c3.4,2.7,8.1-1.5,9.5-5.3c0-0.6,4.1-3.4,3.9-3.7C84.8,70.1,81.3,71.5,78.5,70.5z"/>
							<path id="Tracé_2347" class="st8" d="M74.2,77.3c-6.7-1.2-4-10.7-5.8-14.9c-0.8-2.7-5.2-5.4-9-3.2c-1.1,0.6-2.2,1.9-1.6,3.1
								c0.5,0.8,0.9,1.7,1.2,2.6c0.3,1,0.4,2,0.2,3c-0.3,2.1-2.1,3.7-4.3,3.7c-0.7,0.1-1.3-0.1-1.9-0.5c-0.4-0.3-0.7-0.8-0.9-1.3
								c-0.8-1.9-1.2-4-1.2-6.1c0-2.2,0-4.4-1-6.4c-1.1-2.2-2.6-4.1-4.4-5.8c-0.6-0.6-1.3-1-2.1-1.1c-0.9-0.1-1.3,0.5-1.8,1.1
								c-1.7,2.3,2.9,6.5-0.4,9c-0.8,0.7-2,1-3,0.8c-0.3,0-0.5-0.1-0.8-0.2c-0.2-0.2-0.5-0.4-0.7-0.5c-0.2-0.2-0.5-0.4-0.7-0.6
								c-2.5-2.3-4.2-5.3-5-8.6c-1-3.2-1.6-6.5-3.1-9.5c-0.3-0.5-0.6-1-1-1.4c-0.2-0.2-0.4-0.4-0.6-0.6c-1-0.9-2.4-2.2-3.8-1.6
								c-0.2,0.1-0.5,0.3-0.7,0.4C21.1,39.7,21,41,21.5,42c0.8,1.5,1.5,3.1,2.1,4.7c0.5,1.4,1,3.5,0,4.8c-0.5,0.7-1.5,1-2.3,0.8
								c-1.3-0.4-1.9-1.8-2.5-2.9c-0.7-1.1-1.2-2.3-1.9-3.4c-1.2-2.1-2.7-4.4-5-5.4c-0.8-0.3-1.6-0.5-2.4-0.6c-0.2,0-0.4,0-0.5,0
								c-0.2,0-0.4,0.1-0.6,0.2c-1.4,0.5-3.3,2-2.8,3.8c0.2,0.5,0.5,0.9,0.9,1.2c0.8,0.6,2.5,0.9,2.8,1.9c0.1,0.4,0.1,0.8-0.2,1.1
								c-0.3,0.3-0.7,0.5-1.1,0.6c-0.8,0.2-1.6,0.3-2.4,0.3c-0.8,0-1.7,0.1-2.5,0.2c-1.7,0.1-3,0.5-3,2.3c-0.1,1,0.1,2,0.6,2.9
								c0.5,0.6,1.2,1,2,1.1c1.2,0.2,2.4,0.2,3.6,0.1c1.7,0,3.4-0.4,4.2,1.5c0.2,0.3,0.2,0.7,0.2,1.1c-0.1,0.3-0.3,0.6-0.5,0.8
								c-0.9,0.6-1.8,1-2.8,1.3c-0.8,0.3-2.3,1-2.5,2c-0.1,0.9,0.3,1.8,1.1,2.3c5.8,3.7,9.2-4.5,15-3.7c1.7,0.6,3.6,2.8,3.5,4.8
								c-0.5,2.5-4.3,1-5.3,3.2c-0.8,3,2.7,4.9,4.7,4.2c3.1-0.8,6.6-2.9,9.6-3.6c1.3-0.4,2.8-0.4,4.1,0c1.1,0.4,1.9,1.1,2.4,2.1
								c0.5,0.9,0.5,1.9,0,2.8c-0.6,0.8-1.5,1.3-2.6,1.4c-1.4,0-2.8,0.2-4.2,0.6c-0.5,0.2-0.8,0.5-1,0.9c-0.1,0.3-0.1,0.6,0,0.9
								c0.5,2,2,3.5,4,4c1.7,0.3,3.5,0.1,5.1-0.4c3.9-1.1,7.9-3.4,12.1-2.5c0.8,0.2,1.9,0.5,2.3,1.2c0.2,0.5,0.2,1,0,1.5
								c-0.4,1.2-1.2,2.1-2.3,2.7c-2.5,1.5-6.8-0.3-8.2,2.6c-0.9,1.9,1.7,2.6,3.1,2.7c2.6,0.2,5.5,0.9,7.7-0.2c2-1,4-2.1,6-3.1
								c1.9-1,4-1.8,6.1-2.3c2.2-0.5,4.5-0.5,6.7-0.2c2.7,0.3,10.6-2.7,7.8-3.3c-0.9-0.2,1.9-4.7,1-4.4
								C80.4,77.4,77.3,77.6,74.2,77.3z"/>
						</g>
					</g>
				</g>
				<g id="Groupe_694" transform="translate(158.728 174.263) rotate(-13)">
					<path id="Tracé_2352" class="st14" d="M5.9,30.9c1.4,0.1,2.8-0.3,3.9-1c0.5-0.3,1-0.7,1.5-1.1l0,0c0.6-0.5,1.2-1.2,1.7-1.7
						c1.7-1.6,1.5-2.2,2.2-2.6c1-0.6,1.4,0,1.3,0.3c-1.1,1.9-2.6,3.6-4.3,4.9c0.1,0,0.2,0,0.3,0c1-0.2,2.2-1.6,3.2-2.5
						c1.8-1.8,1.7-2.5,2.4-3c1.1-0.7,1.6-0.1,1.5,0.3c-1.4,2.4-3.2,4.4-5.4,6c1,0,2.6-1.3,3.9-2.7c1.4-1.5,2.4-3.1,3-3.3
						c1.1-0.4,1.3,0.4,1.3,0.4c0,0.2,0.1,0.4,0,0.6c-1.5,0.9-3.1,4-6.8,6.4c-3.1,2-7.2,1.9-10.2-0.4c-0.1-0.2-0.2-0.4-0.2-0.6
						C5.4,30.9,5.6,31,5.9,30.9z"/>
					<path id="Tracé_2353" class="st14" d="M11.9,35.1c1,0.6,3.4,0.9,5.9,0.3c0.9-0.2,1.8-0.5,2.7-0.9l0,0c1.2-0.5,2.4-1.1,3.4-1.6
						c3.3-1.6,3.5-2.5,4.6-2.8c1.7-0.4,1.9,0.6,1.6,1c-2.7,2.2-5.7,3.9-9,5.1c0.1,0,0.3,0.1,0.4,0.1c1.5,0.2,4-1.3,5.9-2.2
						c3.6-1.8,3.9-2.8,5.2-3.1c1.9-0.5,2.2,0.7,1.8,1.2c-3.3,2.7-7.1,4.8-11.1,6.1c1.4,0.4,4.3-0.7,7-2.1c2.8-1.5,5.3-3.3,6.2-3.4
						c1.7-0.1,1.5,1.2,1.5,1.2c-0.1,0.3-0.2,0.6-0.4,0.9c-2.6,0.7-6.8,4.3-13.3,5.9c-8.7,2.2-12.9-4.1-13.2-5.2
						c-0.1-0.3,0-0.7,0.1-1C11.3,34.9,11.6,35.1,11.9,35.1z"/>
					<path id="Tracé_2354" class="st14" d="M10.5,25.2c1.6-1.3,3.6-2.2,5.8-2.4c0.8-0.1,1.7-0.1,2.5-0.1l0,0
						c1.1,0.1,2.2,0.3,3.1,0.5c3.1,0.4,3.2,1.3,4.2,1.2c1.6-0.2,1.9-1.3,1.6-1.6s-3.6-1.9-8.3-2c0.2-0.1,0.3-0.2,0.4-0.3
						c1.5-0.7,3.8-0.1,5.5,0.1c3.3,0.5,3.6,1.4,4.7,1.3c1.8-0.2,2.2-1.4,1.8-1.8c-0.4-0.4-4.9-2.4-10.3-2.2c1.4-0.9,4.1-0.8,6.6-0.3
						c2.6,0.5,4.8,1.5,5.7,1.2c1.7-0.6,1.5-1.7,1.5-1.7c0-0.3-0.1-0.5-0.3-0.8c-2.4,0.2-6.2-2-12.3-1.4c-8.2,0.8-12.8,8.6-13.2,9.9
						c-0.1,0.3-0.1,0.7,0,1C9.9,25.6,10.1,25.3,10.5,25.2z"/>
					<path id="Tracé_2355" class="st14" d="M8.5,22.8c0.4-2.1,1.5-4,3-5.6c0.6-0.6,1.3-1.2,1.9-1.7l0,0c0.9-0.6,1.9-1.2,2.8-1.7
						c2.7-1.6,3.4-1.1,4.1-1.8c1.2-1.1,0.7-2.2,0.2-2.3s-4.1,0.9-7.8,3.8c0.1-0.2,0.1-0.4,0.2-0.5c0.7-1.5,2.9-2.6,4.4-3.4
						c3-1.7,3.8-1.2,4.6-2c1.3-1.3,0.8-2.5,0.3-2.6C21.7,5,16.7,6.3,12.6,10c0.5-1.6,2.7-3.3,5-4.5c2.4-1.3,4.8-2,5.3-2.7
						c1-1.5,0.1-2.3,0.1-2.3c-0.2-0.2-0.5-0.3-0.7-0.4c-1.8,1.7-6.2,2.5-10.7,6.9c-6,6-4.5,14.9-4,16.2c0.1,0.3,0.4,0.6,0.7,0.8
						C8.2,23.5,8.3,23.2,8.5,22.8z"/>
					<path id="Tracé_2356" class="st14" d="M8.8,19.3c-0.5-1.3-0.6-2.8-0.3-4.1c0.1-0.5,0.3-1.1,0.5-1.6l0,0
						c0.3-0.7,0.6-1.3,0.9-1.8c0.9-1.8,1.4-1.7,1.6-2.3c0.2-1-0.4-1.5-0.7-1.4c-1.4,1.3-2.4,2.9-2.9,4.7c0-0.1-0.1-0.2-0.1-0.3
						C7.7,11.3,8.6,10,9.1,9c1-2,1.6-1.9,1.8-2.6c0.3-1.1-0.4-1.7-0.7-1.6c-1.7,1.6-2.9,3.6-3.5,5.9C6.3,9.6,7,7.9,7.8,6.5
						C8.7,5,9.7,3.8,9.7,3.2C9.7,2.1,9,1.9,9,1.9c-0.2,0-0.4,0-0.5,0C8.1,3.4,6,5.2,5.1,9.2c-1.2,5.3,2.7,9.9,3.4,10.5
						C8.6,19.9,8.8,20,9.1,20C8.9,19.8,8.8,19.5,8.8,19.3z"/>
					<path id="Tracé_2357" class="st14" d="M12.4,37.5c1,1,2.2,1.7,3.6,2.1c0.5,0.1,1.1,0.2,1.6,0.3l0,0c0.7,0,1.4,0,2.1,0
						c2,0,2.1-0.6,2.8-0.4c1,0.2,1.2,1,1,1.2c-1.8,0.7-3.6,0.9-5.5,0.6c0.1,0.1,0.2,0.2,0.3,0.2c0.9,0.6,2.5,0.4,3.6,0.4
						c2.2-0.1,2.4-0.6,3.2-0.5c1.1,0.3,1.3,1.1,1.1,1.3c-2.2,0.8-4.5,1-6.8,0.6c0.8,0.7,2.6,0.9,4.3,0.8c1.7-0.1,3.2-0.6,3.8-0.3
						c1.1,0.5,0.9,1.3,0.9,1.3c0,0.2-0.1,0.3-0.2,0.5c-1.6-0.4-4.1,0.8-8.1-0.2c-5.3-1.3-7.8-6.8-8-7.7c0-0.2,0-0.5,0.1-0.7
						C12,37.2,12.2,37.4,12.4,37.5z"/>
					<path id="Tracé_2358" class="st14" d="M13.9,21.7c0.6-1.3,1.5-2.4,2.7-3.1c0.5-0.3,1-0.6,1.5-0.8l0,0c0.7-0.3,1.4-0.5,2-0.6
						c1.9-0.6,2.2-0.2,2.8-0.5c0.9-0.6,0.8-1.3,0.5-1.4c-1.9-0.1-3.7,0.4-5.4,1.2c0.1-0.1,0.1-0.2,0.2-0.3c0.7-0.9,2.2-1.2,3.3-1.5
						c2.1-0.7,2.5-0.2,3.1-0.6c1-0.6,0.9-1.5,0.6-1.6c-2.3-0.1-4.6,0.5-6.6,1.7c0.6-1,2.2-1.7,3.8-2.1c1.7-0.4,3.2-0.5,3.7-0.9
						c0.8-0.8,0.4-1.5,0.4-1.5c-0.1-0.2-0.2-0.3-0.4-0.4c-1.4,0.8-4.2,0.6-7.6,2.8c-4.6,2.9-5.1,8.9-5,9.8c0,0.2,0.1,0.4,0.3,0.6
						C13.6,22.1,13.7,21.9,13.9,21.7z"/>
					<path id="Tracé_2359" class="st14" d="M11.9,31.8c1.4,0,2.8-0.3,4-1.1c0.5-0.3,0.9-0.6,1.3-1l0,0c0.5-0.5,1-1,1.4-1.5
						c1.4-1.4,1.1-1.9,1.7-2.3c0.9-0.6,1.5-0.1,1.5,0.2c-0.8,1.7-2,3.2-3.5,4.3c0.1,0,0.3,0,0.3,0c1.1-0.2,2-1.4,2.8-2.3
						c1.5-1.6,1.3-2.2,1.9-2.6c1-0.6,1.7-0.1,1.7,0.2c-1,2.1-2.5,3.9-4.4,5.2c1.1-0.1,2.5-1.2,3.6-2.5c1.1-1.3,1.9-2.7,2.4-2.9
						c1.1-0.4,1.5,0.3,1.5,0.3c0.1,0.2,0.1,0.3,0.2,0.5c-1.4,0.8-2.4,3.5-5.9,5.6c-4.6,2.8-10.3,0.7-11,0.2
						c-0.2-0.1-0.3-0.3-0.4-0.5C11.4,31.9,11.6,31.9,11.9,31.8z"/>
					<path id="Tracé_2360" class="st6" d="M29.3,46.4c-1.2-2.3-3.9,0.1-9.1-1.1s-7.5-6.6-7.7-7.5c0-0.2,0-0.4,0.1-0.7
						c2.5-0.8,5.6-1,8.1-2c5.1-2,5.2-2.7,6.4-4.1c1.2-1.4,1.2-1.7,2.2-2.8c0.7-0.8,1.6-1.9,0.9-2.1c-2.4-0.8-2.7,2.8-7.2,5.6
						s-10,0.7-10.8,0.2c-1-0.6-0.4-3,0.9-4.1c0.4-0.4,0.8-0.7,1.1-1c1.1-0.4,1.8-0.9,2.3-1c1-0.3,3.6-2.2,5.6-2.2s1.6-1.4-0.1-2
						s-2.5,0-4.1,0.7c-1.6,0.7-4,0.2-4.1-1c-0.1-0.9,0.4-6.7,4.9-9.6s7.8-1.5,8.2-4c0.2-0.8-1.3-0.4-2.2-0.2C23.3,8.1,23,8,21.2,8.4
						s-2.5,0.2-6.5,3.9c-2.2,2-3.7,5-5.8,6.9c-0.1,0-0.2-0.1-0.3-0.2C7.9,18.5,4.1,14,5.3,8.9s4.5-6.6,3-8.7C7.8-0.5,7,0.8,6.5,1.7
						c-0.7,1.3-1,1.4-2,3s-1.6,1.9-1.8,7.4c-0.1,3.6,1.3,7.6,0.5,10.8c0,0-1.2,3.7-2.6,3.8c-1.7,0.1,0.5,9.3,2.3,12.6
						c0.1,0.3,0.3,0.6,0.6,0.8c0.1,0.1,0.2,0.2,0.3,0.3l0,0c0.4,0.3,0.9,0.4,1.5,0.4c3.9-0.2,7.2,3.6,11,5.3c5,2.2,5.6,1.8,7.4,1.6
						s2.1-0.3,3.6-0.4C28.2,47.2,29.7,47.1,29.3,46.4z"/>
				</g>
				<g id="Groupe_693" transform="translate(190.827 638.741) rotate(-13)">
					<g id="Groupe_620" transform="translate(0 8.825)">
						<path id="Tracé_2380" class="st6" d="M15.5,35.1c-1.6,0.6-3.5-0.3-4.8-1.4c-0.9-0.8-0.7-0.8-0.3-0.7c1.3-0.2,2.5-0.6,3.7-1.2
							c0.7-0.4,1.2-1.2,1.2-2.1c-0.1-0.8-1.1-1.2-1.8-1.1c-0.1,0-0.3,0-0.4,0c-0.1,0-0.3,0-0.4,0.1C11,29.1,9.2,30,7.3,29.5
							c-0.1,0-0.3-0.1-0.4-0.2c-1.1-0.5-2.8-1-2.7-2.2c0.1-1.3,1.5-0.7,2.3-0.6c1.1,0.1,2-0.7,2.1-1.8c0-0.4-0.1-0.8-0.3-1.2
							c-0.5-0.7-1.3-1.2-2.2-1.3c-1.1-0.1-2.1-0.4-3.2-0.6c-1.5-0.5-3.5-1.5-3.9-3.1c-0.1-0.3,0-0.7,0.2-1c0.3-0.2,0.6-0.2,0.9-0.1
							c0.6,0.2,1.1,0.5,1.7,0.7c0.7,0.3,1.5,0.1,2.1-0.4C4.5,17,4.4,16,3.8,15.5c0,0-0.1-0.1-0.1-0.1c-0.5-0.3-1-0.6-1.6-0.8
							c-2-0.8-3.3-2.7-3.4-4.8c0-0.1,0-0.3,0-0.4c0.1-0.6,0.9-0.6,1.2-0.2c0.6,0.8,1.3,1.7,2.4,1.2c0.3-0.1,0.5-0.4,0.5-0.7
							c0-0.1-0.1-0.2-0.1-0.3C2.5,9.1,2.3,8.6,2.2,8.2C2,7.5,2.1,6.9,2.5,6.3C3,5.6,4.1,5.4,4.8,6C4.9,6.1,5,6.2,5.1,6.3
							c0.5,0.8,0.6,1.8,0.4,2.8c-0.1,0.3,0,0.6,0.2,0.9c0.3,0.3,0.7,0.3,1.1,0.1C7.8,9.4,7.2,7.6,8.3,7c0.3-0.2,0.9,0.3,1.1,0.9
							c0.4,1,0.3,2.2-0.3,3.1C9.1,11.1,9,11.2,9,11.4c-0.2,0.2-0.3,0.5-0.5,0.7c-0.1,0.1-0.1,0.2-0.2,0.3c-0.4,0.7-0.7,1.4-0.9,2.2
							c-0.1,0.9,0.4,1.7,1.2,2.1C8.8,16.9,9.1,17,9.3,17c0.4-0.1,0.6-0.4,0.7-0.8c0.1-0.7,0-1.7,0.5-2.2c0.3-0.3,1,0.1,1.3,0.6
							c0.7,1.2,0.7,2.6,0.1,3.8c0,0.1-0.1,0.2-0.1,0.3c-0.1,0.1-0.2,0.2-0.2,0.3c-0.1,0.1-0.1,0.2-0.2,0.4c-0.3,0.7-0.3,1.4-0.1,2.1
							c0,0.1,0.1,0.2,0.1,0.3c0.3,0.8,1.8,2.8,2.8,1.9c0.2-0.1,0.3-0.3,0.3-0.5c0.4-0.9,0-1.7-0.3-2.5c-0.4-1.5,1.3-1.6,2.2-0.9
							c1.4,1.2,1.4,3.3,1.4,5c-0.1,0.8,0,1.6,0.5,2.2c0.4,0.6,1.1,0.9,1.9,0.8c0.5-0.1,0.9-0.4,1.1-0.8c0.2-0.4,0.3-0.9,0.2-1.4
							c-0.1-0.5-0.8-1.9-0.1-2.3c1-0.5,1.9,0.5,2.4,1.3c0.6,1.1,0.8,2.4,0.6,3.6c-0.1,0.8-0.2,2,0.5,2.6c0.5,0.5,1.3,0.4,1.9,0.7
							c0.8,0.4,4.9,5.5,4.6,5.6C30.1,37.6,16.4,34.8,15.5,35.1z"/>
					</g>
					<g id="Groupe_621" transform="translate(16.048)">
						<path id="Tracé_2381" class="st7" d="M12.3,42.7c-0.1-0.1-0.1-0.3-0.2-0.4c-0.7-0.7-1.6-1.1-2.5-1.2C8.7,41,7.9,41.3,7,41.2
							C5.4,41,4,40,3.4,38.4c-0.2-0.4,0-0.9,0.4-1.1c0.2-0.1,0.4-0.1,0.6,0c0.4,0.1,0.7,0.5,1.1,0.6C6,38.1,6.5,38.1,6.9,38
							c0.7-0.2,1.6-0.6,1.7-1.3c0.2-0.7-0.5-1.3-1.1-1.6C7.5,35,7.3,35,7.2,35c-0.1,0-0.2-0.1-0.4-0.1c-1.6-0.3-3.4-0.1-4.9-1.2
							c-0.1-0.1-0.2-0.2-0.3-0.3c-0.7-0.8-2-1.8-1.5-2.8c0.5-1,1.5-0.1,2.1,0.2c0.9,0.4,1.9,0.1,2.4-0.8c0.2-0.3,0.2-0.7,0.2-1.1
							c-0.2-0.8-0.7-1.4-1.4-1.8c-0.9-0.5-1.7-1-2.5-1.6c-1.1-0.9-2.4-2.4-2.3-4c0-0.3,0.2-0.6,0.5-0.7c0.3-0.1,0.6,0,0.8,0.2
							c0.5,0.3,0.8,0.8,1.2,1.2c0.5,0.5,1.2,0.6,1.9,0.3c0.7-0.4,0.9-1.2,0.6-1.9c0,0,0-0.1-0.1-0.1c-0.3-0.4-0.6-0.8-1.1-1.2
							c-1.4-1.3-1.9-3.4-1.2-5.2c0.1-0.1,0.1-0.2,0.2-0.3c0.3-0.5,0.9-0.2,1.1,0.3C2.9,15,3.2,16,4.3,16c0.3,0,0.5-0.1,0.6-0.4
							c0-0.1,0-0.2,0-0.3c-0.1-0.4-0.1-0.9,0-1.3c0.1-0.6,0.4-1.1,0.9-1.4c0.7-0.4,1.6-0.2,2.1,0.5C7.9,13.1,8,13.3,8,13.4
							c0.1,0.9-0.1,1.8-0.6,2.5c-0.2,0.2-0.2,0.5-0.2,0.8c0.1,0.3,0.5,0.5,0.9,0.5c1.2-0.2,1.3-1.9,2.4-2.1c0.3-0.1,0.7,0.6,0.7,1.1
							c0,1-0.5,1.9-1.3,2.6c-0.1,0.1-0.2,0.2-0.3,0.3c-0.2,0.1-0.4,0.3-0.7,0.5c-0.1,0.1-0.1,0.1-0.2,0.2c-0.6,0.4-1.1,0.9-1.5,1.5
							c-0.3,0.7-0.3,1.6,0.3,2.2c0.1,0.2,0.3,0.4,0.6,0.5c0.3,0,0.7-0.1,0.8-0.4c0.4-0.5,0.5-1.4,1.2-1.7c0.3-0.1,0.8,0.4,0.9,1
							c0.2,1.2-0.3,2.4-1.2,3.3c-0.1,0.1-0.1,0.1-0.2,0.2c-0.1,0.1-0.2,0.1-0.3,0.2c-0.1,0.1-0.2,0.1-0.3,0.2
							c-0.4,0.5-0.7,1.1-0.8,1.8c0,0.1,0,0.2,0,0.3c0,0.8,0.6,2.9,1.7,2.5c0.2-0.1,0.3-0.2,0.5-0.3c0.6-0.6,0.6-1.4,0.7-2.2
							c0.2-1.4,1.7-0.9,2.1,0c0.8,1.5,0.1,3.3-0.6,4.7c-0.4,0.6-0.5,1.3-0.4,2c0.1,0.7,0.7,1.2,1.3,1.3c0.4,0.1,0.9,0,1.2-0.3
							c0.3-0.3,0.6-0.7,0.7-1.1c0.1-0.5,0-1.9,0.7-2c1-0.1,1.4,1.1,1.6,1.9c0.2,1.1-0.1,2.3-0.7,3.2c-0.3,0.6-0.9,1.6-0.5,2.4
							c0.3,0.6,1,0.7,1.4,1.2c0.5,0.6,0.5,1.7-0.4,1.8c-0.5,0-1,0.2-1.4,0.5c-0.3,0.2-0.5,0.4-0.8,0.6c-0.3,0.1-0.7,0.2-1.1,0.2
							c-0.2,0-0.5-0.1-0.7-0.1C12.7,44.5,12.7,43.3,12.3,42.7z"/>
						<path id="Tracé_2382" class="st6" d="M16.9,37.3c0.6-0.8,1.5-1.3,2.4-1.6c0.9-0.2,1.8,0,2.7-0.2c1.7-0.4,2.9-1.7,3.3-3.4
							c0.1-0.5-0.1-1-0.6-1.1c-0.2-0.1-0.5,0-0.7,0.1c-0.4,0.2-0.7,0.6-1.1,0.8c-0.4,0.2-0.9,0.3-1.3,0.2c-0.8,0-1.6-0.5-2-1.1
							c-0.3-0.7,0.3-1.4,1-1.8c0.1-0.1,0.2-0.1,0.3-0.2c0.1-0.1,0.2-0.1,0.4-0.1c1.6-0.5,3.5-0.5,4.9-1.9c0.1-0.1,0.2-0.2,0.3-0.3
							c0.7-0.9,1.9-2.1,1.2-3.1c-0.7-1-1.5,0.1-2.2,0.5c-0.8,0.6-2,0.3-2.6-0.5c-0.2-0.3-0.3-0.7-0.3-1.1c0.1-0.8,0.6-1.6,1.2-2.1
							c0.8-0.6,1.6-1.3,2.3-2c1-1.1,2.2-2.8,1.8-4.4c-0.1-0.3-0.3-0.6-0.7-0.7c-0.3,0-0.6,0.1-0.8,0.3c-0.4,0.4-0.7,1-1.1,1.4
							c-0.5,0.5-1.2,0.8-1.9,0.6c-0.7-0.3-1.1-1.1-0.8-1.9c0,0,0-0.1,0-0.1c0.2-0.5,0.6-1,0.9-1.4c1.2-1.6,1.5-3.7,0.6-5.5
							c-0.1-0.1-0.1-0.2-0.2-0.3c-0.4-0.5-1-0.1-1.1,0.4c-0.1,0.9-0.3,2-1.4,2.1c-0.3,0.1-0.6-0.1-0.7-0.3c0-0.1-0.1-0.2,0-0.4
							c0-0.4-0.1-0.9-0.2-1.3c-0.2-0.6-0.5-1.1-1.1-1.4c-0.8-0.4-1.7,0-2.1,0.8c-0.1,0.1-0.1,0.2-0.1,0.4c0,0.9,0.4,1.8,1,2.5
							c0.2,0.2,0.3,0.5,0.3,0.8c-0.1,0.4-0.4,0.6-0.8,0.6C16.5,10.8,16.2,9.1,15,9c-0.4,0-0.6,0.7-0.5,1.2c0.2,1,0.8,1.9,1.7,2.5
							c0.1,0.1,0.2,0.2,0.4,0.2c0.3,0.1,0.5,0.3,0.7,0.4c0.1,0,0.2,0.1,0.2,0.1c0.7,0.3,1.3,0.8,1.8,1.4c0.5,0.7,0.5,1.6,0,2.3
							c-0.1,0.3-0.3,0.5-0.5,0.6c-0.3,0.1-0.7-0.1-0.9-0.3c-0.4-0.5-0.7-1.4-1.4-1.6c-0.3-0.1-0.7,0.6-0.8,1.1
							c0,1.3,0.6,2.5,1.7,3.2c0.1,0.1,0.1,0.1,0.2,0.2c0.1,0.1,0.2,0.1,0.3,0.2c0.1,0.1,0.2,0.1,0.3,0.2c0.5,0.4,0.9,1,1,1.7
							c0,0.1,0,0.2,0.1,0.3c0.1,0.8-0.2,3.1-1.5,2.9c-0.2,0-0.4-0.1-0.5-0.3c-0.8-0.6-0.8-1.4-1-2.2c-0.3-1.4-1.8-0.7-2.2,0.3
							c-0.6,1.7,0.4,3.4,1.2,4.8c0.5,0.6,0.7,1.3,0.6,2c-0.1,0.7-0.5,1.3-1.2,1.5c-0.4,0.1-0.9,0.1-1.3-0.2
							c-0.4-0.3-0.7-0.6-0.8-1.1c-0.2-0.5-0.3-1.9-1-1.9c-1.1,0-1.3,1.3-1.4,2.2c0,1.2,0.4,2.3,1.1,3.3c0.4,0.6,1.1,1.6,0.8,2.4
							C12,37,11.3,37.3,11,37.8c-0.4,0.7,2.1,1.6,3.6,1.5C16,39.2,16.8,37.4,16.9,37.3z"/>
						<path id="Tracé_2383" class="st7" d="M14,39.1c1.4-0.2,2.2-0.6,2.3-1.2c0.3-1.5-0.9-2.7-0.9-4.3c0-1.6,1.4-2.9,3-2.9
							c0.1,0,0.2,0,0.3,0c0.6,0,1.2,0.5,1.2,1c-0.1,0.4-0.1,0.9-0.1,1.3c0,0.5,0.2,0.9,0.4,1.3c0.5,0.8,1.5,1.2,2.4,0.9
							c0.3-0.1,0.5-0.3,0.7-0.5c0.1-0.2,0.2-0.5,0.2-0.7c0-1-0.1-1.9-0.5-2.8c-0.4-0.9-0.7-1.9-0.6-2.9c0.1-1.1,0.4-2.2,0.9-3.2
							c0.1-0.3,0.4-0.6,0.7-0.8c0.3-0.2,0.6,0,0.9,0.2c1.1,0.7-0.2,3.2,1.7,3.7c0.5,0.2,1,0.1,1.4-0.2c0.1-0.1,0.2-0.1,0.3-0.2
							c0.1-0.1,0.1-0.2,0.2-0.3s0.1-0.2,0.2-0.4c0.7-1.4,0.9-2.9,0.7-4.5c-0.2-1.5-0.3-3-0.3-4.5c0-0.3,0.1-0.5,0.2-0.8
							c0-0.1,0.1-0.2,0.2-0.3c0.3-0.5,0.6-1.3,1.3-1.3c0.1,0,0.2,0,0.4,0.1c0.5,0.3,0.7,0.8,0.7,1.3c-0.1,0.8-0.1,1.6-0.1,2.3
							c-0.1,0.8,0.2,1.5,0.8,2c0.3,0.2,0.8,0.2,1.1,0c0.5-0.4,0.5-1.1,0.6-1.6c0.1-0.6,0.1-1.2,0.2-1.8c0.1-1.1,0.5-2.2,1.2-3.1
							c0.3-0.3,0.6-0.5,0.9-0.6c0.1,0,0.1-0.1,0.2-0.1c0.1,0,0.2,0,0.3,0c0.7,0,1.8,0.3,1.8,1.1c0,0.2-0.1,0.5-0.2,0.7
							c-0.2,0.4-0.9,0.8-0.9,1.3c0,0.2,0.1,0.4,0.3,0.4c0.2,0.1,0.4,0.1,0.5,0.1c0.4-0.1,0.7-0.1,1.1-0.3c0.4-0.1,0.7-0.2,1.1-0.4
							c0.7-0.2,1.4-0.3,1.6,0.5c0.2,0.4,0.3,0.9,0.2,1.3c-0.1,0.3-0.4,0.6-0.7,0.8c-0.5,0.3-1,0.5-1.5,0.7c-0.7,0.3-1.5,0.4-1.5,1.4
							c0,0.2,0,0.3,0.1,0.5c0.1,0.1,0.2,0.2,0.3,0.2c0.5,0.1,0.9,0.1,1.4,0.1c0.4,0,1.2,0,1.4,0.4c0.2,0.4,0.2,0.8-0.1,1.2
							c-1.8,2.5-4.6-0.4-6.9,0.9c-0.7,0.7-1,1.7-0.7,2.6c0.6,1,2-0.3,2.8,0.5c0.5,0.8,0.2,1.9-0.6,2.3c-0.2,0.1-0.4,0.2-0.7,0.2
							c-1.5,0.2-3.3-0.1-4.7,0.1c-0.6,0-1.2,0.3-1.7,0.7c-0.4,0.3-0.6,0.8-0.7,1.3c-0.1,0.4,0.1,0.9,0.5,1.2
							c0.4,0.2,0.9,0.3,1.3,0.2c0.6-0.2,1.2-0.4,1.9-0.4c0.2,0,0.4,0.1,0.6,0.2c0.1,0.1,0.1,0.2,0.2,0.4c0.1,0.9-0.3,1.8-1,2.4
							c-0.7,0.4-1.4,0.6-2.2,0.7c-1.9,0.2-3.9-0.1-5.5,1c-0.3,0.2-0.7,0.5-0.8,0.9c0,0.2,0.1,0.5,0.2,0.6c0.4,0.4,0.9,0.7,1.4,0.8
							c1.3,0.2,2.8-0.4,3.9,0.6c0.7,0.6-0.3,1.4-0.8,1.6c-1,0.4-2.1,0.5-3.2,0.3c-1-0.1-2-0.2-3-0.3c-1-0.1-2-0.1-2.9,0
							c-1,0.2-2,0.5-2.8,1c-1.8,1-3.7-1.4-4.1-3.3c0-0.3-1.7-1.9-1.5-2C11.1,38.4,12.6,39.3,14,39.1z"/>
						<path id="Tracé_2384" class="st6" d="M15.5,42.6c3.2,0,2.8-4.7,4-6.6c0.9-1.4,2.8-1.9,4.3-1c0.1,0.1,0.2,0.1,0.2,0.2
							c0.5,0.4,0.9,1.1,0.5,1.6c-0.3,0.3-0.5,0.7-0.8,1.1c-0.2,0.4-0.3,0.9-0.3,1.4c0,1,0.7,1.9,1.7,2.1c0.3,0.1,0.6,0,0.9-0.1
							c0.2-0.1,0.4-0.3,0.5-0.5c0.6-0.8,0.9-1.8,1.1-2.8c0.1-1.1,0.4-2.1,1-3c0.7-0.9,1.6-1.7,2.6-2.4c0.3-0.2,0.7-0.3,1.1-0.4
							c0.4,0,0.6,0.3,0.8,0.7c0.6,1.2-1.9,2.8-0.6,4.3c0.3,0.4,0.8,0.6,1.4,0.6c0.1,0,0.3,0,0.4,0c0.1-0.1,0.3-0.1,0.4-0.2
							s0.2-0.1,0.4-0.2c1.4-0.9,2.4-2.1,3.1-3.6c0.6-1.5,1.4-2.9,2.2-4.3c0.2-0.2,0.4-0.4,0.6-0.6c0.1-0.1,0.2-0.2,0.3-0.2
							c0.5-0.3,1.3-0.8,1.9-0.4c0.1,0.1,0.2,0.2,0.3,0.3c0.3,0.5,0.2,1.1-0.1,1.6c-0.5,0.7-1,1.3-1.4,2c-0.5,0.6-0.6,1.5-0.4,2.3
							c0.2,0.4,0.6,0.6,1,0.6c0.6-0.1,1.1-0.7,1.4-1.2c0.4-0.5,0.8-1,1.2-1.5c0.7-1,1.7-1.7,2.8-2.2c0.4-0.1,0.8-0.1,1.2-0.1
							c0.1,0,0.2,0,0.3,0c0.1,0,0.2,0.1,0.3,0.1c0.6,0.4,1.4,1.2,1,2c-0.1,0.2-0.3,0.4-0.5,0.5c-0.4,0.2-1.2,0.2-1.5,0.7
							c-0.1,0.2-0.1,0.4,0,0.6c0.1,0.2,0.3,0.3,0.5,0.4c0.4,0.2,0.7,0.3,1.1,0.3c0.4,0.1,0.8,0.2,1.2,0.3c0.8,0.2,1.4,0.5,1.2,1.3
							c0,0.5-0.2,0.9-0.5,1.3c-0.3,0.2-0.7,0.4-1,0.4c-0.6,0-1.2-0.1-1.7-0.2c-0.8-0.2-1.6-0.4-2.1,0.4c-0.1,0.1-0.2,0.3-0.2,0.5
							c0,0.2,0.1,0.3,0.2,0.4c0.4,0.3,0.8,0.6,1.2,0.8c0.4,0.2,1,0.7,1,1.2c0,0.4-0.3,0.8-0.7,1c-3,1.3-4-2.9-6.8-3
							c-1,0.2-1.8,1-2.1,2c0,1.2,2,0.8,2.2,1.9c0.1,1.5-1.7,2.1-2.6,1.6c-1.4-0.7-2.9-1.9-4.3-2.5c-0.6-0.3-1.3-0.4-1.9-0.3
							c-0.5,0.1-1,0.4-1.3,0.8c-0.3,0.4-0.4,0.9-0.2,1.3c0.2,0.4,0.6,0.8,1.1,0.9c0.7,0.1,1.3,0.3,1.9,0.6c0.4,0.2,0.5,0.6,0.4,0.9
							c0,0,0,0,0,0c-0.4,0.9-1.2,1.5-2.2,1.6c-0.8,0-1.6-0.2-2.4-0.6c-1.8-0.9-3.4-2.2-5.5-2.1c-0.4,0-0.9,0.1-1.2,0.4
							c-0.1,0.2-0.2,0.5-0.1,0.7c0.1,0.6,0.4,1.1,0.9,1.5c1,0.9,3.3,0.4,3.7,1.9c0.3,1-1,1.1-1.7,1c-1.2-0.1-2.7,0-3.6-0.7
							c-0.9-0.6-1.7-1.3-2.6-1.9c-0.8-0.6-1.7-1.2-2.7-1.6c-1-0.4-2.1-0.6-3.1-0.6c-1.3-0.1-4.8-2.1-3.4-2.2c0.5,0-0.5-2.4-0.1-2.2
							C12.6,42.2,14,42.6,15.5,42.6z"/>
					</g>
				</g>
			</g>
			<g id="Groupe_701">
				<g id="Groupe_695" transform="matrix(0.829, 0.559, -0.559, 0.829, 210.627, -2778.89)">
					<g id="Groupe_617" transform="translate(2606.245 2178.324)">
						<path id="Tracé_2375" class="st6" d="M31.6,34.9c1.6-1.7,1.5-4.6,0.8-6.8c-0.5-1.6-0.5-1.3-0.8-0.7c-1,1.5-2.1,2.8-3.5,4
							c-0.9,0.5-2.3,1-3.3,0.4c-0.9-0.6-0.9-2-0.4-2.8c0.1-0.2,0.1-0.3,0.2-0.5c0.1-0.2,0.2-0.3,0.3-0.5c1.4-2,3.6-3.7,3.9-6.4
							c0-0.2,0-0.4,0-0.6c-0.1-1.6,0.3-4.1-1.3-4.6c-1.6-0.5-1.6,1.5-2,2.5c-0.5,1.4-2,2.1-3.4,1.7c-0.5-0.2-1-0.5-1.3-1
							c-0.6-1.1-0.7-2.3-0.4-3.5c0.4-1.4,0.7-2.9,0.9-4.3c0.2-2.1,0-5.1-1.8-6.6c-0.4-0.3-0.9-0.4-1.3-0.2c-0.4,0.3-0.6,0.7-0.6,1.1
							c-0.1,0.8,0,1.7-0.1,2.6c-0.1,1-0.7,1.9-1.7,2.4c-1.1,0.3-2.3-0.3-2.6-1.4c0-0.1,0-0.1,0-0.2c-0.2-0.8-0.2-1.6-0.1-2.4
							c0.1-2.9-1.6-5.6-4.2-6.9C8.8,0.1,8.7,0.1,8.5,0C7.6-0.2,7.3,0.8,7.6,1.4C8.3,2.6,9,4,7.8,5.1C7.6,5.4,7.1,5.5,6.8,5.4
							C6.6,5.3,6.5,5.2,6.4,5C6,4.5,5.6,4,5,3.7C4.3,3.1,3.5,2.9,2.6,3c-1.2,0.3-2,1.5-1.7,2.7c0,0.2,0.1,0.4,0.2,0.5
							c0.6,1.2,2,1.6,3.3,2c0.4,0.1,0.8,0.3,1,0.7c0.2,0.5,0,1.1-0.4,1.4c-1.5,1-3.3-0.7-4.8,0.4C-0.2,11,0.1,12,0.7,12.6
							c1.1,1,2.6,1.5,4.1,1.3c0.2,0,0.4,0,0.6-0.1c0.4-0.1,0.8-0.1,1.2-0.2c0.1,0,0.3,0,0.4,0c1.1-0.2,2.2-0.2,3.2,0
							c1.1,0.4,1.9,1.4,2,2.6c0.1,0.4,0.1,0.8-0.1,1.1c-0.3,0.4-0.9,0.6-1.4,0.4c-0.9-0.2-2-1-3-0.5c-0.5,0.2-0.4,1.3,0.1,2
							c0.7,1.1,2.1,2.1,4.7,2.2c0.1,0,0.3,0,0.4,0c0.2,0,0.4-0.1,0.6-0.1c0.2,0,0.4,0,0.5-0.1c1,0.1,1.9,0.4,2.7,1.1
							c0.1,0.1,0.2,0.2,0.3,0.3c0.8,0.8,2.5,3.8,0.8,4.5c-0.3,0.1-0.5,0.2-0.8,0.2c-1.4,0-2.1-0.9-3-1.7c-1.6-1.3-2.7,0.8-2.3,2.3
							c0.7,2.5,3.4,3.6,5.6,4.4c1,0.3,1.9,0.9,2.5,1.8c0.5,0.8,0.5,1.9,0,2.8c-0.4,0.5-1,0.9-1.6,0.9c-0.7,0-1.3-0.1-1.9-0.5
							c-0.6-0.4-2-2-2.8-1.4c-1.2,1-0.4,2.7,0.3,3.7c1,1.4,2.5,2.3,4.1,2.7c1,0.3,2.7,0.8,3,2c0.3,0.9-0.3,1.8-0.2,2.8
							c0.1,1.2,4.2,9.1,4.5,8.8C26.8,54.6,30.7,35.9,31.6,34.9z"/>
					</g>
					<g id="Groupe_618" transform="translate(2577.637 2199.589)">
						<path id="Tracé_2376" class="st7" d="M51.5,29.1c-0.1-0.2-0.3-0.3-0.3-0.5c-0.5-1.2-0.5-2.5-0.1-3.8c0.4-1.2,1.2-2.1,1.6-3.2
							c0.6-2.1,0-4.5-1.6-6c-0.4-0.5-1.2-0.5-1.6-0.1c-0.2,0.2-0.4,0.5-0.4,0.8c0,0.6,0.2,1.2,0.2,1.7c0,0.6-0.2,1.2-0.6,1.7
							c-0.6,0.9-1.6,1.4-2.6,1.5c-1-0.1-1.4-1.3-1.3-2.3c0-0.2,0-0.3,0-0.5c0-0.2,0-0.3,0.1-0.5c0.5-2.1,1.8-4.3,1.2-6.7
							c0-0.2-0.1-0.4-0.2-0.6c-0.6-1.4-1.1-3.5-2.7-3.4c-1.6,0.1-0.9,1.8-0.8,2.8c0.1,1.3-1,2.5-2.3,2.5c-0.5,0-1-0.1-1.5-0.4
							c-0.9-0.7-1.4-1.7-1.5-2.8c-0.1-1.3-0.4-2.6-0.7-3.9c-0.5-1.9-1.7-4.4-3.7-5c-0.4-0.2-0.9-0.1-1.2,0.3
							c-0.2,0.3-0.3,0.8-0.2,1.1c0.2,0.8,0.6,1.4,0.8,2.2c0.3,0.9,0.1,1.9-0.6,2.6c-0.8,0.7-2,0.5-2.7-0.3c0,0-0.1-0.1-0.1-0.1
							c-0.4-0.6-0.7-1.3-0.9-2c-0.9-2.5-3.2-4.2-5.8-4.4c-0.2,0-0.3,0-0.5,0c-0.8,0.1-0.7,1.1-0.2,1.5c1,0.8,2,1.7,1.4,3
							c-0.1,0.4-0.4,0.6-0.8,0.6c-0.2,0-0.3-0.1-0.4-0.2c-0.5-0.3-1-0.5-1.6-0.7c-0.8-0.2-1.6-0.1-2.3,0.3c-0.9,0.7-1.1,1.9-0.5,2.9
							c0.1,0.1,0.2,0.3,0.3,0.4c0.9,0.8,2.2,0.6,3.4,0.5c0.4-0.1,0.8,0,1.1,0.2c0.3,0.4,0.4,0.9,0.1,1.3c-0.9,1.4-3,0.6-3.9,1.9
							c-0.3,0.4,0.4,1.2,1,1.4c1.3,0.5,2.7,0.4,3.9-0.3c0.2-0.1,0.3-0.2,0.5-0.3c0.3-0.2,0.6-0.4,0.9-0.6c0.1-0.1,0.2-0.1,0.3-0.2
							c0.8-0.5,1.8-0.9,2.7-1.1c1.1-0.1,2.1,0.5,2.6,1.5c0.2,0.3,0.3,0.6,0.3,1c-0.1,0.4-0.5,0.8-1,0.8c-0.9,0.2-2.1-0.1-2.7,0.6
							c-0.3,0.3,0.1,1.2,0.7,1.6c1,0.7,2.5,1.1,4.7,0.3c0.1,0,0.2-0.1,0.3-0.1c0.1-0.1,0.3-0.2,0.4-0.3c0.1-0.1,0.3-0.2,0.4-0.2
							c0.8-0.3,1.8-0.3,2.6,0c0.1,0,0.2,0.1,0.4,0.1c1,0.4,3.4,2.3,2.2,3.5c-0.2,0.2-0.4,0.3-0.6,0.4c-1.2,0.5-2.1-0.1-3.1-0.4
							c-1.8-0.5-2,1.6-1.1,2.7c1.5,1.8,4.1,1.9,6.2,1.8c1-0.1,1.9,0.1,2.7,0.6c0.7,0.5,1.1,1.4,0.9,2.3c-0.1,0.6-0.5,1.1-1,1.3
							c-0.5,0.3-1.2,0.3-1.8,0.2c-0.7-0.1-2.4-1-2.8-0.2c-0.7,1.2,0.6,2.4,1.5,3c1.3,0.8,2.9,1.1,4.4,0.9c1-0.1,2.5-0.2,3.2,0.7
							c0.5,0.7,0.4,1.7,0.8,2.4c0.5,1,1.9,1.5,2.5,0.5c0.3-0.6,0.8-1.1,1.4-1.5c0.4-0.2,0.8-0.5,1.1-0.7c0.4-0.4,0.6-0.8,0.8-1.3
							c0.1-0.3,0.2-0.6,0.2-0.9C53.7,30.5,52.2,29.9,51.5,29.1z"/>
						<path id="Tracé_2377" class="st6" d="M42.4,31.9c-1.3,0.3-2.5,1.1-3.3,2.2c-0.8,1-1,2.3-1.7,3.3c-1.4,1.8-3.7,2.7-6,2.3
							c-0.7-0.1-1.1-0.7-1.1-1.4c0-0.3,0.2-0.6,0.5-0.8c0.5-0.4,1.1-0.6,1.6-0.9c0.5-0.4,0.9-0.9,1-1.6c0.4-1,0.3-2.2-0.4-3.1
							c-0.7-0.7-2-0.4-2.7,0.2c-0.1,0.1-0.3,0.2-0.4,0.3c-0.1,0.1-0.2,0.2-0.4,0.4c-1.5,1.8-2.6,4.2-4.9,5.1
							c-0.2,0.1-0.4,0.1-0.6,0.2c-1.5,0.3-3.7,1.2-4.5-0.2c-0.9-1.4,1-1.8,1.8-2.4c1.2-0.8,1.5-2.3,0.7-3.5c-0.3-0.5-0.7-0.8-1.2-1
							c-1.1-0.3-2.3-0.2-3.3,0.4c-1.2,0.7-2.5,1.3-3.7,1.8c-1.9,0.7-4.7,1.2-6.5-0.1C7,33,6.8,32.6,6.9,32.1
							c0.1-0.4,0.5-0.7,0.9-0.8c0.7-0.3,1.6-0.4,2.3-0.7c0.9-0.3,1.6-1.1,1.8-2.1c0-1.1-0.8-2-1.9-2.1c-0.1,0-0.1,0-0.2,0
							c-0.8,0-1.5,0.2-2.2,0.4c-2.6,0.7-5.5-0.2-7.2-2.3c-0.1-0.1-0.2-0.3-0.3-0.5c-0.4-0.7,0.4-1.3,1.1-1.1
							c1.2,0.3,2.7,0.7,3.4-0.6c0.2-0.3,0.2-0.7,0-1.1c-0.1-0.1-0.3-0.2-0.4-0.2c-0.6-0.2-1.1-0.6-1.6-0.9c-0.7-0.5-1.1-1.3-1.1-2.1
							c0-1.2,0.9-2.1,2.1-2.2c0.2,0,0.4,0,0.5,0.1c1.2,0.3,1.9,1.5,2.6,2.6c0.2,0.4,0.5,0.6,0.9,0.8c0.5,0.1,1-0.2,1.2-0.7
							c0.6-1.6-1.4-2.9-0.7-4.5c0.2-0.5,1.2-0.4,1.8,0c1.2,0.8,2,2,2.2,3.5c0,0.2,0.1,0.4,0.1,0.6c0,0.4,0,0.8,0.1,1.1
							c0,0.1,0,0.3,0,0.4c0.1,1,0.3,2,0.8,3c0.6,0.9,1.7,1.4,2.8,1.3c0.4,0,0.7-0.1,1-0.4c0.3-0.4,0.3-0.9,0.1-1.3
							c-0.4-0.8-1.3-1.7-1.2-2.7c0.1-0.5,1.1-0.6,1.8-0.4c1.1,0.4,2.4,1.4,3.1,3.8c0,0.1,0.1,0.2,0.1,0.4c0,0.2,0,0.4,0,0.5
							c0,0.2,0,0.3,0.1,0.5c0.3,0.9,0.8,1.7,1.6,2.2c0.1,0.1,0.2,0.2,0.3,0.2c0.9,0.6,4,1.4,4.4-0.3c0-0.3,0-0.5,0-0.8
							c-0.3-1.3-1.3-1.7-2.2-2.4c-1.6-1.2,0.1-2.7,1.6-2.6c2.4,0.1,4.1,2.3,5.3,4.1c0.5,0.9,1.3,1.6,2.2,1.9c0.9,0.3,1.9,0,2.5-0.6
							c0.4-0.5,0.6-1.1,0.5-1.7c-0.1-0.6-0.4-1.2-0.9-1.6c-0.5-0.5-2.3-1.4-1.9-2.2c0.6-1.3,2.4-0.9,3.5-0.5
							c1.5,0.6,2.7,1.7,3.5,3.2c0.5,0.9,1.4,2.2,2.5,2.3c0.9,0.1,1.6-0.7,2.5-0.8c1.1-0.2,0.8,3.5-0.1,5.3
							C45.2,31.8,42.6,31.9,42.4,31.9z"/>
						<path id="Tracé_2378" class="st7" d="M46.1,29.3c-1.1,1.6-2,2.4-2.7,2.2c-2-0.5-2.9-2.6-4.9-3.4c-2-0.9-4.4,0.1-5.2,2.1
							c-0.1,0.1-0.1,0.2-0.1,0.4c-0.3,0.8-0.1,1.8,0.6,2.1c0.6,0.2,1.1,0.4,1.6,0.6c0.6,0.3,1,0.7,1.4,1.2c0.8,1.1,0.7,2.6-0.3,3.5
							c-0.3,0.3-0.6,0.5-1,0.6c-0.3,0-0.7,0-1-0.2c-1.2-0.5-2.3-1.2-3.2-2.2c-0.9-1-2-1.8-3.3-2.4c-1.4-0.5-3-0.7-4.5-0.6
							c-0.5,0-1,0.1-1.4,0.4c-0.4,0.3-0.4,0.8-0.3,1.2c0.2,1.8,4.1,1.6,3.8,4.1c-0.1,0.7-0.4,1.3-1,1.7c-0.1,0.1-0.3,0.2-0.4,0.3
							c-0.2,0-0.4,0-0.5,0.1s-0.4,0-0.6,0c-2.1,0.1-4.2-0.5-6-1.6c-1.8-1.1-3.6-2.1-5.5-2.8c-0.3-0.1-0.7-0.2-1.1-0.2
							c-0.2,0-0.3,0-0.5,0c-0.8,0-2,0.1-2.4,1c-0.1,0.2-0.1,0.3-0.1,0.5c0.1,0.7,0.6,1.4,1.3,1.6c1,0.3,2,0.7,3,1.1
							c0.9,0.4,2,1.1,2.1,2.1c0.1,0.6-0.2,1.1-0.7,1.4c-0.7,0.4-1.6,0-2.4-0.2c-0.8-0.2-1.5-0.5-2.3-0.7c-1.5-0.5-3.1-0.6-4.6-0.2
							c-0.5,0.2-0.9,0.5-1.3,0.8c-0.1,0.1-0.2,0.1-0.2,0.2c-0.1,0.1-0.1,0.2-0.2,0.3c-0.4,0.8-0.6,2.4,0.4,2.9
							c0.3,0.1,0.6,0.2,0.9,0.1c0.6-0.1,1.5-0.7,2.1-0.4c0.2,0.1,0.4,0.3,0.4,0.6c0,0.3-0.1,0.5-0.2,0.7c-0.3,0.4-0.6,0.8-0.9,1.2
							c-0.4,0.4-0.7,0.8-1,1.2c-0.7,0.8-1.1,1.5-0.3,2.3c0.4,0.5,0.9,0.8,1.5,1c0.5,0,1-0.1,1.4-0.4c0.6-0.4,1.2-1,1.7-1.5
							c0.7-0.8,1.3-1.6,2.5-1.2c0.2,0.1,0.4,0.2,0.5,0.4c0.1,0.2,0.1,0.4,0.1,0.6c-0.1,0.6-0.4,1.2-0.7,1.8c-0.2,0.5-0.6,1.5-0.2,2
							c0.3,0.5,0.9,0.7,1.5,0.5c4.2-0.9,2-6,5-8.2c1.2-0.5,2.7-0.3,3.6,0.6c0.9,1.3-1.5,2.3-0.9,3.7c0.9,1.7,3.3,1,3.9-0.2
							c1-1.7,1.7-4.2,2.6-5.8c0.4-0.8,1-1.4,1.8-1.8c0.6-0.3,1.3-0.3,2-0.1c0.6,0.2,1.1,0.6,1.2,1.2c0.1,0.6-0.1,1.3-0.5,1.7
							c-0.6,0.6-1.1,1.3-1.6,2.1c-0.3,0.4-0.1,1,0.3,1.2c0,0,0,0,0,0c1.1,0.6,2.4,0.7,3.5,0c0.9-0.6,1.6-1.5,2-2.4
							c1.2-2.2,2-4.9,4.2-6.4c0.4-0.4,1-0.5,1.6-0.5c0.3,0.1,0.5,0.3,0.7,0.6c0.3,0.7,0.4,1.5,0.2,2.2c-0.4,1.7-2,3.3-1.3,5.2
							c0.4,1.2,1.9,0.4,2.5-0.2c1.1-1.1,1.8-2.4,2.2-3.9c0.5-1.3,0.8-2.7,1.3-4c0.4-1.3,1-2.5,1.7-3.7c0.8-1.2,1.7-2.2,2.9-3
							c2.3-1.7,0.3-5.4-1.9-6.9c-0.4-0.1-1.5-3.1-1.7-3C46.9,25.3,47.2,27.7,46.1,29.3z"/>
						<path id="Tracé_2379" class="st6" d="M49.8,33.1c-1.8,4.1-7.4,0.9-10.4,1.4c-2.3,0.4-3.9,2.5-3.5,4.8c0,0.1,0,0.3,0.1,0.4
							c0.2,0.8,0.9,1.7,1.7,1.5c0.6-0.2,1.2-0.3,1.8-0.3c0.7,0,1.3,0.1,2,0.3c1.3,0.5,2,1.9,1.7,3.3c-0.1,0.4-0.3,0.8-0.6,1.1
							c-0.3,0.2-0.6,0.3-1,0.4c-1.3,0.2-2.7,0.2-4.1-0.2c-1.4-0.4-2.8-0.6-4.2-0.3c-1.6,0.4-3,1-4.4,1.9c-0.5,0.3-0.8,0.7-1,1.2
							c-0.2,0.5,0.1,0.9,0.4,1.3c1.2,1.4,4.6-0.9,5.7,1.6c0.3,0.6,0.3,1.4,0.1,2.1c-0.1,0.2-0.1,0.3-0.2,0.5
							c-0.1,0.1-0.3,0.2-0.5,0.4c-0.2,0.1-0.3,0.2-0.5,0.3c-1.8,1.2-4,1.9-6.2,1.9c-2.2,0-4.4,0.1-6.5,0.5c-0.4,0.1-0.7,0.2-1.1,0.4
							c-0.2,0.1-0.3,0.2-0.5,0.3c-0.7,0.5-1.8,1.2-1.6,2.2c0,0.2,0.1,0.3,0.2,0.5c0.5,0.6,1.3,0.9,2.1,0.7c1.1-0.3,2.2-0.5,3.3-0.6
							c1-0.1,2.4-0.1,3,0.8c0.4,0.5,0.4,1.1,0.2,1.6c-0.4,0.7-1.5,0.9-2.2,1.2c-0.8,0.2-1.6,0.4-2.5,0.7c-1.6,0.3-3.1,1.2-4.2,2.4
							c-0.3,0.4-0.6,0.9-0.7,1.4c0,0.1-0.1,0.2-0.1,0.3c0,0.1,0,0.3,0,0.4c0.1,1,0.8,2.4,2,2.4c0.3,0,0.6-0.2,0.9-0.4
							c0.5-0.4,0.9-1.5,1.7-1.5c0.3,0,0.5,0.1,0.7,0.3c0.1,0.2,0.2,0.5,0.2,0.8c0,0.5-0.1,1.1-0.2,1.6C21.1,73,21.1,73.5,21,74
							c-0.2,1.1-0.2,2,1,2.3c0.6,0.2,1.3,0.2,1.9,0c0.5-0.2,0.8-0.6,1-1.1c0.3-0.7,0.5-1.5,0.7-2.3c0.2-1.1,0.3-2.2,1.6-2.4
							c0.2-0.1,0.5,0,0.7,0.1c0.2,0.1,0.3,0.3,0.4,0.4c0.2,0.6,0.4,1.3,0.4,2c0.1,0.6,0.3,1.6,0.9,1.9c0.6,0.2,1.2,0.1,1.6-0.4
							c3.2-3.1-1.5-6.5,0-10.1c0.8-1.2,2.2-1.8,3.6-1.5c1.5,0.7,0,2.9,1.2,3.8c1.8,1,3.6-1,3.4-2.3c-0.1-2.1-0.8-4.7-0.8-6.7
							c-0.1-0.9,0.2-1.8,0.7-2.6c0.4-0.6,1-1,1.7-1.2c0.6-0.2,1.3,0,1.8,0.4c0.4,0.5,0.6,1.2,0.5,1.9c-0.2,0.9-0.3,1.8-0.3,2.8
							c0,0.5,0.4,1,1,1c0,0,0,0,0,0c1.3,0,2.6-0.8,3.2-1.9c0.4-1,0.6-2.2,0.5-3.3c-0.1-2.7-0.9-5.5,0.3-8.1c0.2-0.5,0.6-1.1,1.1-1.3
							c0.3-0.1,0.7,0,1,0.2c0.7,0.4,0.7,1.7,0.5,4.3c-0.1,1.9-0.3,1.9,1.3,3.2c1,0.9,1.9-0.7,2.2-1.5c0.5-1.6,1.4-3.4,1.1-4.9
							c-0.3-1.4-0.7-2.9-1-4.3c-0.3-1.4-0.5-2.8-0.5-4.2c0-1.5,0.4-2.9,0.9-4.3c0.6-1.6-0.1-7.1-0.9-5.4c-0.3,0.6-2.7-2-2.6-1.3
							C50.8,29.2,50.5,31.2,49.8,33.1z"/>
					</g>
				</g>
				<g id="Groupe_147" transform="translate(81.025 -586.051) rotate(8)">
					<path id="Tracé_178" class="st6" d="M1051.1,1251c0,0,52.9-2.8,92.4-29.9c21.8-15,20.2-59.8,49.1-62.9
						c27.5-3,39.1-67.4,18.2-135.5c-33-107.7,114.3-54.6,85.9-283.3c-28.4-228.6,93.3-223.4,101.5-315.5
						c4.1-46.4-183.6-167.6-120.5-224.4c64-57.5,1.6-162.2,49.1-196.6c84.8-61.5,104-150.3,207.2-144.7l0,1457.5L1051.1,1251z"/>
					<g id="Groupe_700" transform="matrix(0.94, -0.342, 0.342, 0.94, -532.853, -388.825)">
						<path id="Tracé_144" class="st15" d="M1123.1,1988.5l-1,0.8c-1.1,0.8-1.3,2.3-0.5,3.4l14.5,20.3c0.2,0.3,0.4,0.7,0.4,1.1
							l4.1,31.6c0.1,0.5,0.3,0.9,0.6,1.3l18.7,22.2c0.9,1.1,2.5,1.2,3.5,0.3c0,0,0,0,0,0l0,0c1-0.9,1.2-2.4,0.3-3.5l-16.8-20.9
							c-0.3-0.4-0.5-0.9-0.5-1.4l-2.4-29.9c0-0.4-0.2-0.9-0.5-1.2l-16.8-23.6C1125.9,1988,1124.3,1987.7,1123.1,1988.5
							C1123.2,1988.5,1123.1,1988.5,1123.1,1988.5z"/>
						<path id="Tracé_145" class="st10" d="M1169.6,2030.2l-14.1-24.7c-0.1-0.2-0.2-0.3-0.3-0.5l-1.8-1.9l-0.4-0.4l-17.8-19.3
							c-0.9-1-2.5-1.1-3.6-0.2l-0.9,0.8c-1.1,0.9-1.1,2.6-0.2,3.6c0,0,0,0,0,0l17.7,19.2c0.1,0.1,0.2,0.3,0.3,0.4l15.8,26.5
							c0.1,0.2,0.3,0.4,0.5,0.6l21.1,19.5c1,0.9,2.6,0.9,3.5-0.1l0,0c1-1,1-2.6,0-3.6c0,0,0,0,0,0l-19.5-19.4
							C1169.9,2030.6,1169.8,2030.4,1169.6,2030.2z"/>
						<path id="Tracé_146" class="st15" d="M1178.1,2022.6l-22.3-22.1c-0.1-0.1-0.2-0.2-0.3-0.3l-15.1-20.5
							c-0.8-1.1-2.4-1.4-3.6-0.5c0,0,0,0-0.1,0l-0.9,0.7c-1.1,0.9-1.3,2.4-0.5,3.5l15.5,21l0,0l2,2.8c0.1,0.1,0.2,0.2,0.3,0.3
							l19.1,18.2c0.2,0.2,0.3,0.3,0.4,0.5l14.5,24.4c0.7,1.2,2.3,1.6,3.5,0.9c0,0,0.1-0.1,0.1-0.1l0,0c1.1-0.7,1.4-2.2,0.8-3.3
							l-13.2-25C1178.5,2023,1178.3,2022.8,1178.1,2022.6z"/>
						<path id="Tracé_147" class="st15" d="M1150.5,1971l-0.8,0.6c-1.1,0.9-1.3,2.5-0.5,3.7l15.2,20.3c0.1,0.2,0.2,0.4,0.3,0.5
							l11,25.8l0.2,0.4c0.2,0.4,0.4,0.8,0.8,1l0.9,0.7l21.3,16.8c1.1,0.9,2.7,0.7,3.6-0.3l0,0c1-1.1,0.9-2.8-0.2-3.8
							c0,0-0.1-0.1-0.1-0.1l-19.7-15.6c-0.3-0.3-0.6-0.6-0.8-1l-10.5-24.5l-1.4-3.3l-0.3-0.7c-0.1-0.2-0.2-0.4-0.3-0.6l-15-19.7
							C1153.4,1970.3,1151.7,1970.1,1150.5,1971C1150.5,1971,1150.5,1971,1150.5,1971z"/>
						<path id="Tracé_148" class="st10" d="M1191.7,2013.4l-26-17.1c-0.2-0.1-0.4-0.3-0.5-0.4l-17.7-19.7c-1-1.1-2.6-1.2-3.7-0.2
							l-0.7,0.7c-1.1,1-1.2,2.6-0.2,3.7c0,0,0,0,0,0l18.2,20.3l0,0l0,0l1.3,1.4c0.2,0.2,0.4,0.3,0.6,0.5l23.2,14.6
							c0.4,0.2,0.7,0.6,0.9,1l13.2,24.8c0.7,1.3,2.3,1.8,3.6,1.1c0.1,0,0.1-0.1,0.2-0.1l0,0c1.1-0.7,1.5-2.2,1-3.4l-12.3-26.1
							C1192.5,2014.1,1192.1,2013.7,1191.7,2013.4z"/>
						<path id="Tracé_149" class="st15" d="M1197.7,2008.6l-12.1-26.3c-0.1-0.2-0.2-0.4-0.3-0.5l-19-22.8c-0.8-1-2.2-1.1-3.2-0.3
							c0,0,0,0,0,0l-1.3,1.1c-1,0.8-1.1,2.2-0.3,3.2l16.9,20.2c0.1,0.2,0.2,0.3,0.3,0.5l13.1,28c0.2,0.5,0.7,0.9,1.2,1.2l28.7,11.4
							c1,0.4,2.2,0,2.8-0.9l0,0c0.7-1.1,0.3-2.5-0.8-3.1c-0.1-0.1-0.2-0.1-0.3-0.2l-24.5-10.3
							C1198.3,2009.5,1197.9,2009.1,1197.7,2008.6z"/>
						<path id="Tracé_150" class="st10" d="M1216.9,1992.3l-26.1-18.7c0,0-0.1-0.1-0.1-0.1l-19.2-19.8c-0.3-0.3-0.7-0.3-1,0
							l-3.6,3.3c-0.3,0.3-0.3,0.7,0,1c0,0,0,0,0,0l21.9,22.6c0,0,0.1,0.1,0.1,0.1l23.9,16.3c0.1,0.1,0.1,0.1,0.2,0.2l15.5,23.8
							c0.7,1.1,2.1,1.4,3.2,0.7c0,0,0,0,0,0l0,0c1-0.7,1.3-2,0.7-3.1l-15.3-26.1c0,0,0-0.1-0.1-0.1l0,0
							C1217,1992.4,1216.9,1992.4,1216.9,1992.3z"/>
						<path id="Tracé_151" class="st10" d="M1204.8,1999.8l-27.9-13.6c-0.4-0.2-0.7-0.5-1-0.9l-14.2-20.1c-0.8-1.2-2.5-1.5-3.7-0.6
							c0,0-0.1,0-0.1,0.1l-0.8,0.6c-1.1,0.9-1.4,2.5-0.6,3.6l15.3,21.6l0,0l1.5,2.1c0.3,0.4,0.7,0.7,1.2,0.9l22.5,9.3
							c0.3,0.1,0.6,0.3,0.8,0.6l19.8,19.4c1,1,2.6,1,3.7,0l0,0c1-1,1.1-2.6,0.2-3.6l-15.8-18.7
							C1205.4,2000.2,1205.1,1999.9,1204.8,1999.8z"/>
						<path id="Tracé_152" class="st16" d="M1053.8,1914.2L1053.8,1914.2l9.9,11.5c26.3-14.1,58.8-8,78.2,14.7l8.8,10.3l-37.8,32.5
							l11.6,13.5l37.8-32.5l0,0l10.4-8.9l-29.3-34.2C1120.6,1894.4,1080.4,1891.3,1053.8,1914.2z"/>
						<path id="Tracé_153" class="st10" d="M1117.3,1922.8c-17.4-7-37.1-5.9-53.6,3l31.1,36.3l15.9-13.7c5.4,8.5,16.6,11,25.1,5.7
							c8.5-5.4,11-16.6,5.7-25.1C1136.4,1920.8,1125.8,1918.1,1117.3,1922.8L1117.3,1922.8z"/>
						<circle id="Ellipse_54" class="st17" cx="1126.9" cy="1938.7" r="12"/>
						<path id="Tracé_154" class="st3" d="M1138,1952.5c-7.6,6.5-19.1,5.7-25.7-2c-0.6-0.7-1.1-1.4-1.6-2.1l-15.9,13.7l18.1,21.1
							l37.8-32.5l-6.9-8.1C1143,1946.5,1141,1949.9,1138,1952.5z"/>
					</g>
					<path id="Tracé_179" class="st7" d="M1524.1,1372.3c0,0-387.2,122.7-335.6-1.3c6.3-15.1,53.9-115,86.4-143.4
						c97.9-85.5,2.4-114.5,0-175.2c-2-50.7,50-101.4,94.2-161.2c34.2-46.2,25.2-157.4-6.1-220.2s-119.3-335.6-61.1-375.8
						c88.9-61.5,44.1-113.4,34.2-166s188-237.6,188-237.6L1524.1,1372.3z"/>
					<path id="Tracé_180" class="st8" d="M1462.2,1386.2c0,0-148.6-155.1-117.7-246.5c30.9-91.3-50.9-132.6-52.2-223.4
						c-0.5-31.5,84.5-130.1,60.5-176.8c-57-110.9-20.2-195.8-1.2-219.9c49.6-63.1,39.1-95.1,37-149c-1.6-40,28.9-101.7,73.6-112.5
						L1462.2,1386.2z"/>
					<g id="Groupe_613" transform="translate(-1832.674 -255.97) rotate(-17)">
						<path id="Tracé_2361" class="st6" d="M2779.9,1704.3c-1.8,0-5.1-1.3-7.7-3.8c-0.9-0.9-1.8-1.8-2.6-2.8l0,0
							c-1-1.3-2-2.9-2.9-4.2c-2.8-4.1-2.3-5.2-3.4-6.3c-1.7-1.6-2.9-0.7-2.9,0.1s2.2,6.5,6.9,12c-0.3-0.1-0.5-0.1-0.7-0.2
							c-2.1-0.8-4-4.2-5.5-6.5c-3-4.5-2.5-5.9-3.8-7.1c-1.9-1.8-3.3-0.8-3.3,0.1c0,0.9,3.1,8.6,8.7,14.6c-2.1-0.5-4.8-3.7-6.9-7.2
							c-2.2-3.6-3.8-7.4-4.8-8.1c-2.1-1.3-2.9,0.3-2.9,0.3c-0.2,0.4-0.3,0.8-0.3,1.3c2.6,2.5,4.8,9.6,11.5,15.9
							c9,8.5,19.7,4.3,21.1,3.2c0.4-0.3,0.7-0.7,0.8-1.2C2780.8,1704.6,2780.3,1704.6,2779.9,1704.3z"/>
						<path id="Tracé_2362" class="st6" d="M2765.7,1710.5c-2.3,0.9-7.4,0.5-12.4-1.8c-1.8-0.8-3.5-1.8-5.2-2.9v0
							c-2.2-1.5-4.4-3.3-6.3-4.7c-6.2-4.6-6.2-6.5-8.4-7.6c-3.3-1.6-4.2,0.4-3.7,1.5c0.5,1.1,7,8.4,16.5,14.1c-0.4,0-0.7,0.1-1,0.1
							c-3.2-0.2-7.8-4.2-11.2-6.8c-6.7-5.2-7-7.3-9.4-8.5c-3.7-1.8-4.8,0.5-4.2,1.7c0.6,1.3,9.5,11.1,20.5,17.1
							c-3.1,0.3-8.6-3.1-13.6-7.2c-5.2-4.2-9.6-9-11.3-9.4c-3.6-0.8-3.6,1.9-3.6,1.9c0,0.7,0.2,1.4,0.4,2c5,2.4,12.2,11.6,25,17.7
							c17,8,28.3-3.2,29.5-5.5c0.3-0.7,0.4-1.4,0.2-2.2C2767,1710.4,2766.3,1710.6,2765.7,1710.5z"/>
						<path id="Tracé_2363" class="st6" d="M2772.6,1690.6c-1.7-2.5-6.1-5.8-10.9-7.2c-1.7-0.5-3.4-0.9-5.1-1.1v0
							c-2.3-0.3-4.6-0.2-6.7-0.3c-6.5-0.3-7.1,1.3-9.2,0.7c-3.2-1-3.4-3.4-2.7-4s8.3-2.4,17.9-0.7c-0.3-0.3-0.6-0.5-0.8-0.7
							c-2.7-2.1-7.8-1.8-11.4-1.9c-7.1-0.2-8,1.5-10.3,0.8c-3.6-1.1-3.9-3.8-3-4.5c0.9-0.7,11.1-3,22.1-0.4
							c-2.5-2.5-8.1-3.3-13.4-3.3c-5.6,0-10.6,1.1-12.2,0.2c-3.3-1.8-2.5-4.2-2.5-4.2c0.2-0.5,0.5-1,0.9-1.5
							c4.9,1.5,13.5-1.6,26,2.2c16.6,5,22.9,22.9,23.3,25.8c0.1,0.7-0.1,1.4-0.4,2.1C2773.8,1691.7,2773.3,1691,2772.6,1690.6z"/>
						<path id="Tracé_2364" class="st6" d="M2777.7,1686.6c0.3-3-1.1-8.4-3.9-12.7c-1-1.5-2.1-2.9-3.3-4.2v0
							c-1.6-1.7-3.5-3.2-5.1-4.6c-4.9-4.5-6.5-3.6-7.7-5.4c-1.9-2.8-0.5-4.9,0.5-4.8s8.2,3.5,14.6,11.1c0-0.4-0.1-0.8-0.2-1.1
							c-0.8-3.4-5-6.5-7.8-8.9c-5.5-4.8-7.3-4-8.7-6.1c-2.2-3.2-0.6-5.5,0.5-5.4c1.2,0,10.8,4.9,17.8,14c-0.4-3.6-4.2-7.8-8.5-11.3
							c-4.4-3.6-9.2-6-9.9-7.8c-1.4-3.5,0.8-4.9,0.8-4.9c0.5-0.3,1.1-0.5,1.7-0.5c2.9,4.3,11.8,7.6,19.2,18.6
							c9.9,14.7,3.1,32.7,1.6,35.1c-0.4,0.6-1,1.1-1.7,1.3C2777.9,1688.2,2777.9,1687.3,2777.7,1686.6z"/>
						<path id="Tracé_2365" class="st6" d="M2778.6,1679.1c1.5-2.5,2.3-5.5,2.2-8.4c0-1.2-0.2-2.3-0.4-3.4h0
							c-0.3-1.5-0.8-2.9-1.2-4.2c-1.1-4.1-2.3-4.1-2.3-5.5c-0.1-2.2,1.4-2.9,1.9-2.6s3.2,4.5,4.1,10.9c0.1-0.3,0.2-0.5,0.3-0.7
							c0.8-2.2-0.5-5.2-1.1-7.5c-1.3-4.4-2.6-4.6-2.6-6.2c-0.1-2.5,1.6-3.3,2.2-2.9c0.6,0.4,4.2,6.1,4.9,13.5c1-2.1,0.4-5.8-0.7-9.1
							c-1.2-3.4-2.9-6.3-2.7-7.5c0.5-2.4,2.1-2.5,2.1-2.5c0.4,0,0.8,0.1,1.1,0.2c0.1,3.4,3.8,8,4,16.6c0.3,11.4-9.6,19.4-11.2,20.3
							c-0.4,0.2-0.9,0.3-1.4,0.2C2778.1,1680.1,2778.4,1679.6,2778.6,1679.1z"/>
						<path id="Tracé_2366" class="st6" d="M2763.6,1715.3c-2.4,1.7-5.3,2.7-8.2,2.8c-1.2,0-2.3,0-3.5-0.1v0
							c-1.5-0.2-3-0.6-4.3-0.9c-4.1-0.9-4.2-2-5.6-2c-2.2,0.1-2.8,1.6-2.5,2.1s4.7,2.9,11.1,3.4c-0.3,0.1-0.5,0.3-0.6,0.3
							c-2.1,0.9-5.2-0.1-7.5-0.6c-4.5-1-4.7-2.3-6.3-2.2c-2.5,0.1-3.2,1.8-2.8,2.3c0.4,0.6,6.4,3.8,13.8,4c-2.1,1.2-5.7,0.8-9.1-0.1
							c-3.5-0.9-6.5-2.5-7.6-2.2c-2.4,0.6-2.4,2.3-2.4,2.3c0,0.4,0.1,0.7,0.3,1.1c3.4-0.1,8.2,3.3,16.8,2.9
							c11.4-0.5,18.8-10.8,19.5-12.6c0.2-0.4,0.2-0.9,0.1-1.4C2764.6,1714.8,2764.1,1715.2,2763.6,1715.3z"/>
						<path id="Tracé_2367" class="st6" d="M2767.1,1682.1c-0.7-2.9-2.2-5.5-4.4-7.5c-0.8-0.8-1.7-1.5-2.7-2.2v0
							c-1.2-0.8-2.6-1.5-3.8-2.1c-3.7-2.1-4.5-1.2-5.5-2.2c-1.6-1.5-1.1-3-0.5-3.2s5.5,0.9,10.6,4.8c-0.1-0.3-0.2-0.5-0.3-0.7
							c-1-2.1-4-3.4-6.1-4.5c-4.1-2.2-5.1-1.4-6.2-2.5c-1.8-1.7-1.2-3.4-0.5-3.6c0.7-0.2,7.3,1.4,13,6.1c-0.8-2.2-3.8-4.4-6.9-5.9
							c-3.3-1.6-6.5-2.4-7.2-3.4c-1.4-2-0.3-3.3-0.3-3.3c0.3-0.3,0.6-0.5,0.9-0.6c2.5,2.3,8.3,3,14.6,8.9c8.3,7.9,7,20.5,6.4,22.3
							c-0.1,0.5-0.4,0.8-0.8,1.1C2767.4,1683.1,2767.3,1682.6,2767.1,1682.1z"/>
						<path id="Tracé_2368" class="st6" d="M2767.1,1703.8c-2.9-0.5-5.6-1.8-7.8-3.8c-0.8-0.8-1.6-1.6-2.4-2.5l0,0
							c-0.9-1.2-1.7-2.5-2.4-3.6c-2.3-3.5-1.5-4.4-2.6-5.4c-1.6-1.5-3.1-0.9-3.2-0.3s1.3,5.4,5.5,10.3c-0.3-0.1-0.5-0.1-0.7-0.2
							c-2.1-0.9-3.6-3.8-4.9-5.8c-2.5-3.9-1.7-5-2.9-6.1c-1.8-1.7-3.5-1-3.6-0.3c-0.1,0.7,1.9,7.2,7,12.6c-2.3-0.6-4.6-3.5-6.3-6.5
							c-1.8-3.1-2.8-6.3-3.9-7c-2.1-1.3-3.3-0.1-3.3-0.1c-0.3,0.3-0.4,0.6-0.6,1c2.5,2.3,3.5,8.1,9.8,13.9
							c8.4,7.8,20.9,5.6,22.7,4.9c0.4-0.2,0.8-0.5,1.1-0.9C2768.1,1704.1,2767.5,1704,2767.1,1703.8z"/>
						<path id="Tracé_2369" class="st8" d="M2725.2,1726.8c3.4-4.2,8.1,1.8,19.2,1.3s18.3-10.6,19-12.2c0.2-0.4,0.2-0.9,0.1-1.4
							c-4.9-2.7-11.1-4.3-15.9-7.3c-9.7-6.1-9.7-7.7-11.6-11.1s-1.9-4.1-3.4-6.8c-1-1.8-2.6-4.6-0.9-4.6c5.4-0.6,4.5,7,12.6,14.5
							s20.4,5.5,22.1,4.8c2.4-0.9,2.1-5.9-0.3-8.9c-0.7-0.9-1.4-1.7-2-2.4c-2-1.3-3.5-2.6-4.3-3c-1.9-1-6.5-6.1-10.7-6.8
							s-2.7-3.5,1-4c3.7-0.6,5.2,1,8.1,3c3.1,2.2,8.1,2.1,8.9-0.3c0.5-1.8,1.8-14.1-6.3-21.7c-8.1-7.6-15.6-6.2-15.3-11.6
							c-0.1-1.7,2.8-0.3,4.7,0.6c2.8,1.4,3.4,1.3,7,2.9s5.1,1.5,11.9,10.8c3.6,5,5.7,11.8,9.2,16.6c0.2,0,0.5-0.1,0.7-0.2
							c1.6-0.9,11.2-8.7,10.9-19.8s-6.6-15.4-2.6-19.1c1.1-1.2,2.2,1.7,2.9,3.7c1,2.9,1.5,3.3,2.9,7s2.6,4.7,0.8,16
							c-1.2,7.5-5.8,15.1-5.4,22.1c0,0,1,8.2,3.9,8.9c3.4,0.9-4.9,19-9.8,25.1c-0.4,0.6-0.9,1.1-1.5,1.5c-0.2,0.2-0.5,0.3-0.7,0.4
							l0,0c-1,0.4-2.1,0.5-3.2,0.3c-8-2-16.4,4.6-24.9,6.5c-11.2,2.6-12.3,1.4-16,0.3s-4.2-1.6-7.2-2.4
							C2727.1,1728.9,2724,1728,2725.2,1726.8z"/>
					</g>
				</g>
			</g>
		</g>
	</g>
</g>
</svg>
