<svg xmlns="http://www.w3.org/2000/svg" width="151.344" height="75.572" viewBox="0 0 151.344 75.572">
  <g id="Calque_1-4" data-name="Calque 1-4" transform="translate(-785.784 -2496.307)">
    <path id="Tracé_30" data-name="Tracé 30" d="M906.031,2567.554c.436.251.872.5,1.314.723a27.005,27.005,0,0,0,6.177,2.286l4.125.966.509-.316,3.377-2.1.451-.28,13.554-8.413a3.362,3.362,0,0,0-3.546-5.714l-5.147-8.292-32.483-7.6C890.891,2549.419,895.662,2561.469,906.031,2567.554Z" fill="#f09990"/>
    <path id="Tracé_31" data-name="Tracé 31" d="M879.849,2558.074l10.872-6.747-6.748-10.872Zm-47.006-33.067,32.465,7.6-42.916.937,9.8,15.788,1.6,2.539,79.737,18.665a26.9,26.9,0,0,1-6.177-2.286c-.443-.222-.878-.474-1.314-.722-10.375-6.06-15.147-18.108-11.676-28.712l-60.821-14.238Z" fill="#fff"/>
    <path id="Tracé_32" data-name="Tracé 32" d="M806.7,2518.888l15.69,3.673,1.538-.955,19.852-12.3,61.949,14.5a12.512,12.512,0,0,0-9.332-15.033l-53.261-12.468-20.819,12.921Z" fill="#748dc7"/>
    <path id="Tracé_33" data-name="Tracé 33" d="M814.553,2530.72l9.612,16.583,9.867,16.97,31.49,7.371a9.991,9.991,0,0,0,9.821-3.356,11.142,11.142,0,0,0,2.4-4.745,11.659,11.659,0,0,0,.228-1.311l-44.189-10.344-1.563-2.7-9.612-16.583Z" fill="#748dc7"/>
    <path id="Tracé_34" data-name="Tracé 34" d="M881.62,2539.9l-4.125,17.62,10.873-6.748Z" fill="#659cd4"/>
    <path id="Tracé_35" data-name="Tracé 35" d="M833.537,2524.576l60.822,14.237a8.641,8.641,0,0,1,.461-1.295c.156-.379.4-.924.649-1.462a2.764,2.764,0,0,1,.29-.6,22.061,22.061,0,0,1,3.017-4.444l-54.9-12.851Z" fill="#f09990"/>
    <line id="Ligne_47" data-name="Ligne 47" y1="0.014" x2="0.023" transform="translate(832.821 2525.007)" fill="none" stroke="#000" stroke-miterlimit="10" stroke-width="0.655"/>
    <path id="Tracé_36" data-name="Tracé 36" d="M795,2500.372l-9.22,39.39,15.359-11.608,68.417,16.015,2.473-10.562-68.416-16.015Z" fill="#262675"/>
    <line id="Ligne_48" data-name="Ligne 48" x1="47.198" y1="11.048" transform="translate(822.658 2532.409)" fill="none"/>
    <path id="Tracé_37" data-name="Tracé 37" d="M862.962,2542.625l-.092.393-39.6-9.269-.273-.478Z" fill="#fff"/>
    <path id="Tracé_38" data-name="Tracé 38" d="M823.932,2521.606l.524.844,9.081,2.126,10.343-6.417,54.9,12.851a22.011,22.011,0,0,0-3.017,4.444c-.107.2-.2.407-.29.6-.243.487-.454.97-.649,1.462s-.341.909-.461,1.295l32.484,7.6-12.818-20.668L843.735,2509.3Z" fill="#a9b4dc"/>
    <path id="Tracé_39" data-name="Tracé 39" d="M824.456,2522.45l-1.339-.313.844-.524Z" fill="#a9b4dc"/>
    <circle id="Ellipse_23" data-name="Ellipse 23" cx="6.526" cy="6.526" r="6.526" transform="translate(904.786 2539.143)" fill="#1d1d1b" stroke="#fff" stroke-miterlimit="10" stroke-width="1"/>
    <line id="Ligne_49" data-name="Ligne 49" x1="13.081" y2="8.119" transform="translate(918.846 2554.606)" fill="none" stroke="#fff" stroke-miterlimit="10" stroke-width="0.25"/>
    <line id="Ligne_50" data-name="Ligne 50" x1="9.881" y1="6.86" transform="translate(910.196 2536.203)" fill="none" stroke="#000" stroke-miterlimit="10" stroke-width="1"/>
  </g>
</svg>
