<svg id="Calque_1-4" data-name="Calque 1-4" xmlns="http://www.w3.org/2000/svg" width="151.344" height="75.572" viewBox="0 0 151.344 75.572">
  <path id="Tracé_30" data-name="Tracé 30" d="M924.336,2567.554c-.436.251-.872.5-1.314.723a27.005,27.005,0,0,1-6.177,2.286l-4.125.966-.509-.316-3.377-2.1-.451-.28-13.554-8.413a3.362,3.362,0,0,1,3.546-5.714l5.147-8.292,32.483-7.6C939.476,2549.419,934.705,2561.469,924.336,2567.554Z" transform="translate(-893.24 -2496.306)" fill="#f09990"/>
  <path id="Tracé_31" data-name="Tracé 31" d="M856.071,2558.074l-10.872-6.747,6.748-10.872Zm47.006-33.067-32.465,7.6,2.438,10.412,40.478-9.475-9.8,15.788-1.6,2.539-79.737,18.665a26.9,26.9,0,0,0,6.177-2.286c.443-.222.878-.474,1.314-.722,10.375-6.06,15.147-18.108,11.676-28.712l60.821-14.238Z" transform="translate(-798.792 -2496.307)" fill="#fff"/>
  <path id="Tracé_32" data-name="Tracé 32" d="M906.065,2518.888l-15.69,3.673-1.538-.955-19.852-12.3-61.949,14.5a12.512,12.512,0,0,1,9.332-15.033l53.261-12.468,20.819,12.921Z" transform="translate(-775.641 -2496.307)" fill="#748dc7"/>
  <path id="Tracé_33" data-name="Tracé 33" d="M877.976,2530.72l-9.612,16.583-9.867,16.97-31.49,7.371a9.991,9.991,0,0,1-9.821-3.356,11.142,11.142,0,0,1-2.4-4.745,11.659,11.659,0,0,1-.228-1.311l44.189-10.344,1.563-2.7,9.612-16.583Z" transform="translate(-755.401 -2496.307)" fill="#748dc7"/>
  <path id="Tracé_34" data-name="Tracé 34" d="M884.243,2539.9l4.125,17.62-10.873-6.748Z" transform="translate(-828.735 -2496.306)" fill="#659cd4"/>
  <path id="Tracé_35" data-name="Tracé 35" d="M898.776,2524.576l-60.822,14.237a8.641,8.641,0,0,0-.461-1.295c-.156-.379-.4-.924-.649-1.462a2.764,2.764,0,0,0-.29-.6,22.061,22.061,0,0,0-3.017-4.444l54.9-12.851Z" transform="translate(-795.185 -2496.307)" fill="#f09990"/>
  <line id="Ligne_47" data-name="Ligne 47" x1="0.023" y1="0.014" transform="translate(104.284 28.7)" fill="none" stroke="#000" stroke-miterlimit="10" stroke-width="0.655"/>
  <path id="Tracé_36" data-name="Tracé 36" d="M862.813,2500.372l9.22,39.39-15.359-11.608-68.417,16.015-2.473-10.562,68.416-16.015Z" transform="translate(-720.689 -2496.307)" fill="#262675"/>
  <line id="Ligne_48" data-name="Ligne 48" y1="11.048" x2="47.198" transform="translate(67.272 36.102)" fill="none"/>
  <path id="Tracé_37" data-name="Tracé 37" d="M823,2542.625l.092.393,39.6-9.269.273-.478Z" transform="translate(-748.834 -2496.307)" fill="#fff"/>
  <path id="Tracé_38" data-name="Tracé 38" d="M926.845,2521.606l-.524.844-9.081,2.126-10.343-6.417L852,2531.01a22.011,22.011,0,0,1,3.017,4.444c.107.2.2.407.29.6.243.487.454.97.649,1.462s.341.909.461,1.295l-32.484,7.6,12.818-20.668,70.292-16.454Z" transform="translate(-813.649 -2496.307)" fill="#a9b4dc"/>
  <path id="Tracé_39" data-name="Tracé 39" d="M823.117,2522.45l1.339-.313-.844-.524Z" transform="translate(-710.445 -2496.307)" fill="#a9b4dc"/>
  <ellipse id="Ellipse_23" data-name="Ellipse 23" cx="6.526" cy="6.526" rx="6.526" ry="6.526" transform="translate(19.289 42.836)" fill="#1d1d1b" stroke="#fff" stroke-miterlimit="10" stroke-width="1"/>
  <line id="Ligne_49" data-name="Ligne 49" x2="13.081" y2="8.119" transform="translate(5.201 58.3)" fill="none" stroke="#fff" stroke-miterlimit="10" stroke-width="0.25"/>
  <line id="Ligne_50" data-name="Ligne 50" y1="6.86" x2="9.881" transform="translate(17.05 39.897)" fill="none" stroke="#000" stroke-miterlimit="10" stroke-width="1"/>
</svg>
