<svg xmlns="http://www.w3.org/2000/svg" width="305.583" height="328.065" viewBox="0 0 305.583 328.065">
  <g id="Groupe_684" data-name="Groupe 684" transform="translate(-1017.366 -2420.66)">
    <g id="Calque_2" data-name="Calque 2" transform="translate(1148.237 2647.101) rotate(-47)">
      <g id="Calque_1" data-name="Calque 1">
        <path id="Tracé_105" data-name="Tracé 105" d="M8.111,81.091v-55a15.766,15.766,0,0,1,.21-1.752,16.747,16.747,0,0,1,1.086-3.644,9.458,9.458,0,0,1,.4-.858c.158-.333.333-.666.508-.981a16.887,16.887,0,0,1,1-1.612,7.6,7.6,0,0,1,.6-.771,7.988,7.988,0,0,1,.631-.753l.683-.736.666-.631H5.781A17.272,17.272,0,0,0,0,27.138V81.091c0,5.571,4.992,10.09,11.176,10.09h8.093C13.1,91.181,8.111,86.662,8.111,81.091ZM63.746,27.523H55.635A3.906,3.906,0,0,1,59.7,31.254V63.294a3.889,3.889,0,0,1-4.064,3.661h8.111a3.889,3.889,0,0,0,4.064-3.661V31.254a3.906,3.906,0,0,0-4.064-3.731Z" transform="translate(0 10.787)" fill="#c3cdea"/>
        <path id="Tracé_106" data-name="Tracé 106" d="M42.679,1.51,17.489,19.5l-4.87,3.784-.385.263-.823.508H3.3a10.16,10.16,0,0,1,1.034-.666l5.9-3.328Z" transform="translate(2.481 1.135)" fill="#c3cdea" opacity="0.27"/>
        <path id="Tracé_107" data-name="Tracé 107" d="M32.661,57.619V25.58A3.906,3.906,0,0,1,36.725,21.9H28.614A3.906,3.906,0,0,0,24.55,25.58V57.619a3.889,3.889,0,0,0,4.064,3.661h8.111a3.889,3.889,0,0,1-4.064-3.661Z" transform="translate(18.455 16.462)" fill="#a9b4dd"/>
        <path id="Tracé_108" data-name="Tracé 108" d="M64.244,14.38H10.4l-.666.631-.683.736-.631.753c-.21.245-.4.508-.6.771s-.666,1-.963,1.506a9.071,9.071,0,0,0-.508.981c-.158.333-.28.578-.4.858A16.747,16.747,0,0,0,4.86,24.225a15.766,15.766,0,0,0-.21,1.752q0,.526,0,1.051V80.981c0,5.571,4.992,10.09,11.176,10.09H55.083c6.184,0,11.194-4.519,11.194-10.09v-55a34,34,0,0,0-2.032-11.6Zm0,48.891a3.889,3.889,0,0,1-4.064,3.661H43.574a3.889,3.889,0,0,1-4.064-3.661V31.232a3.906,3.906,0,0,1,4.064-3.679H60.25a3.906,3.906,0,0,1,4.064,3.679Z" transform="translate(3.496 10.81)" fill="#a9b4dd"/>
        <path id="Tracé_109" data-name="Tracé 109" d="M61.778,24.055H7.93l.823-.508.385-.263,4.87-3.784L39.2,1.51h9.144L60.868,22.531v.14A4.741,4.741,0,0,1,61.778,24.055Z" transform="translate(5.961 1.135)" fill="#a9b4dd" opacity="0.31"/>
        <rect id="Rectangle_356" data-name="Rectangle 356" width="9.845" height="2.645" transform="translate(44.774)" fill="#a9b4dd"/>
        <line id="Ligne_115" data-name="Ligne 115" x1="0.018" transform="translate(5.781 25.208)" fill="none"/>
      </g>
    </g>
    <path id="Tracé_2386" data-name="Tracé 2386" d="M2739.564,2716.677c-8.888-5.115-.157-13.914-.569-20.882.283-4.319-4.7-10.372-11.2-9.235-1.923.221-4.1,1.641-3.877,3.564a21.39,21.39,0,0,1,.354,4.278,11,11,0,0,1-1.246,4.438,6.632,6.632,0,0,1-8.023,3.116,4.46,4.46,0,0,1-2.428-1.683,5.191,5.191,0,0,1-.663-2.291,21.135,21.135,0,0,1,1.453-9.295c1.093-3.123,2.248-6.331,1.844-9.7a31.219,31.219,0,0,0-3.329-10.526,6.175,6.175,0,0,0-2.413-2.667c-1.187-.571-2.092-.028-3.086.62-3.625,2.366.854,10.815-5.167,12.676a5.833,5.833,0,0,1-4.769-.377,6.213,6.213,0,0,1-1-.675q-.372-.56-.715-1.135c-.229-.383-.448-.773-.658-1.179-2.614-4.529-3.08-9.675-2.79-14.8.287-5.061,1.114-10.117.48-15.185a9.438,9.438,0,0,0-.641-2.56c-.168-.391-.372-.766-.576-1.14-.942-1.727-2.251-4.352-4.578-4.206a3.728,3.728,0,0,0-1.163.274,4.76,4.76,0,0,0-2.206,4.54,72.33,72.33,0,0,1,.613,7.788c.011,2.32-.31,5.452-2.489,6.8a3.465,3.465,0,0,1-3.744-.02c-1.621-1.157-1.8-3.587-2.13-5.392-.351-1.944-.606-3.9-.952-5.85-.653-3.676-1.626-7.641-4.417-10.318a15.213,15.213,0,0,0-3.121-2.052,2.543,2.543,0,0,0-.75-.276,4.365,4.365,0,0,0-.943-.09c-2.253.016-5.811,1.217-5.952,3.92a3.67,3.67,0,0,0,.675,2.172c.854,1.293,3.113,2.5,3.045,4.221a1.855,1.855,0,0,1-.872,1.509,3.007,3.007,0,0,1-1.812.253,15.448,15.448,0,0,1-3.614-.822c-1.208-.412-2.442-.687-3.651-1.058-2.424-.745-4.584-.886-5.451,1.747-.476,1.448-1.051,2.867-.567,4.4a4.874,4.874,0,0,0,2.313,2.62,25.719,25.719,0,0,0,5.1,2.072c2.458.82,5.014,1.228,5.189,4.348a2.672,2.672,0,0,1-.3,1.586,2.2,2.2,0,0,1-1.133.844c-1.495.541-3.155.308-4.707.343-1.341.029-3.836.218-4.623,1.564a3.457,3.457,0,0,0,.443,3.847c6.4,8.227,15.386-1.77,23.269,2.39,2.144,1.7,3.785,5.8,2.556,8.67-1.954,3.342-6.716-.787-9.143,1.831-2.679,3.816,1.358,8.418,4.479,8.449,4.919.408,10.933-.673,15.611-.237a10.17,10.17,0,0,1,5.816,2.156,6.859,6.859,0,0,1,2.4,4.3,4.424,4.424,0,0,1-1.413,3.991,5.333,5.333,0,0,1-4.384.681c-2.09-.427-4.121-1.346-6.294-1.29a2.568,2.568,0,0,0-1.957.822,2.535,2.535,0,0,0-.482,1.2,8.509,8.509,0,0,0,3.636,7.81,15.548,15.548,0,0,0,7.486,1.988c6.205.413,12.96-.81,18.523,2.7,1.047.66,2.464,1.615,2.651,2.948a2.99,2.99,0,0,1-.7,2.142,7.747,7.747,0,0,1-4.649,2.713c-4.29.913-9.328-1-12.8,2.405-2.244,2.2,1.131,4.568,3.012,5.382,3.561,1.541,7.085,1.216,10.819.811,3.383-.366,6.74-.937,10.121-1.321a42.782,42.782,0,0,1,9.827-.18,27.8,27.8,0,0,1,9.607,3.179c6.212,3.183,12.3-4.922,13.26-11.418C2749.574,2715.944,2742.415,2717.669,2739.564,2716.677Z" transform="translate(-1509.065 -5.588)" fill="#5281cc"/>
    <g id="Calque_2-2" data-name="Calque 2" transform="translate(1086.036 2714.331) rotate(-73)">
      <g id="Calque_1-2" data-name="Calque 1" transform="translate(0 0)">
        <path id="Tracé_102" data-name="Tracé 102" d="M51.459,3.909,26.083,18.594A2.173,2.173,0,0,0,25,20.474V90.728a.925.925,0,0,1-.925.925H21.56a.94.94,0,0,1-.94-.925V19.211a4.406,4.406,0,0,1,2.217-3.833L49.271.12a.925.925,0,0,1,1.278.352l1.263,2.173a.925.925,0,0,1-.352,1.263Z" transform="translate(9.661 0.006)" fill="#d7d7d7"/>
        <ellipse id="Ellipse_29" data-name="Ellipse 29" cx="0.749" cy="1.469" rx="0.749" ry="1.469" transform="matrix(0.887, -0.462, 0.462, 0.887, 58.544, 1.115)" fill="#fff"/>
        <path id="Tracé_103" data-name="Tracé 103" d="M54.121,34.71,41.14,116.066H34.12l13-81.356Z" transform="translate(15.986 16.272)" fill="#c3cdea"/>
        <path id="Tracé_104" data-name="Tracé 104" d="M61.669,34.71l-13,81.356H18.7L3.06,34.71Z" transform="translate(1.434 16.272)" fill="#758dc7"/>
        <rect id="Rectangle_355" data-name="Rectangle 355" width="74.366" height="6.373" rx="2.17" transform="translate(0 56.973)" fill="#fff"/>
      </g>
    </g>
    <g id="Calque_2-3" data-name="Calque 2" transform="translate(1322.949 2629.999) rotate(164)">
      <g id="Calque_1-3" data-name="Calque 1" transform="translate(0 0)">
        <path id="Tracé_110" data-name="Tracé 110" d="M5.038,1.876,5.709,0A24.862,24.862,0,0,0,2.355,1.876,20.013,20.013,0,0,0,.274,3.422L0,3.641l.219.151A2.916,2.916,0,0,0,.9,4.134a3.08,3.08,0,0,0,1.04.178A3.135,3.135,0,0,0,4.915,2.231Z" transform="translate(28.105 49.626)" fill="#758dc7"/>
        <path id="Tracé_111" data-name="Tracé 111" d="M41.754,9.025c-.465-.438-.945-.876-1.437-1.287A33.239,33.239,0,0,0,7.981,1.879,32.7,32.7,0,0,0,0,5.986a24.382,24.382,0,0,0,6.735,4.285A32.856,32.856,0,0,0,17.906,12.3,78.429,78.429,0,0,0,40.3,9.491Q41.056,9.285,41.754,9.025Z" transform="translate(28.981 78.111)" fill="#758dc7"/>
        <path id="Tracé_112" data-name="Tracé 112" d="M4.641.356,4.764,0H.233L0,1.547v.37a2.916,2.916,0,0,0,.684.342,3.08,3.08,0,0,0,1.04.178A3.135,3.135,0,0,0,4.641.356Z" transform="translate(28.379 51.501)" fill="#758dc7"/>
        <path id="Tracé_113" data-name="Tracé 113" d="M14.717,4.134A31.747,31.747,0,0,0,8.638,9.61l-.808,5.476L6.325,25.271l-.26,1.7L1.834,55.2,0,67.518H12.7l8.748-59.1L22.684,0a32.7,32.7,0,0,0-7.967,4.134Z" transform="translate(14.278 79.99)" fill="#758dc7"/>
        <path id="Tracé_114" data-name="Tracé 114" d="M7.57,8.844A33.02,33.02,0,0,0,1.588,1.287C1.123.849.643.411.151,0V1.78L0,59.893,1.533,49.639,5.791,21.082Z" transform="translate(69.092 85.849)" fill="#758dc7"/>
        <path id="Tracé_115" data-name="Tracé 115" d="M12.143,4.611A3.149,3.149,0,1,0,6.27,2.517L0,20l.37,2.45L.7,24.612a3.149,3.149,0,0,0,.849.452,3.08,3.08,0,0,0,1.04.178,3.149,3.149,0,0,0,2.971-2.095Z" transform="translate(14.265 42.796)" fill="#a9b4dd"/>
        <path id="Tracé_116" data-name="Tracé 116" d="M8.086,4.075A3.149,3.149,0,0,0,2.158,1.967L.173,7.566a3.19,3.19,0,0,0,1.013,3.518l.219.151a2.916,2.916,0,0,0,.684.342,3.08,3.08,0,0,0,1.04.178A3.135,3.135,0,0,0,6.1,9.674l.123-.356.671-1.876Z" transform="translate(26.919 42.128)" fill="#a9b4dd"/>
        <path id="Tracé_117" data-name="Tracé 117" d="M4.894,29.424V2.634a2.45,2.45,0,1,0-4.887,0V29.424a2.45,2.45,0,1,0,4.887,0Z" transform="translate(82.543 6.785)" fill="#a9b4dd"/>
        <path id="Tracé_118" data-name="Tracé 118" d="M94.3,61.262h0L81.81,145.687H69.161v-.068l1.52-10.185,4.2-28.5,1.6-10.678a4.216,4.216,0,0,0-.589-2.9,33.128,33.128,0,0,0-5.161-6.215c-.465-.438-.945-.876-1.437-1.287A33.239,33.239,0,0,0,36.962,79.99,32.7,32.7,0,0,0,28.981,84.1a33.24,33.24,0,0,0-9.254,9.8,3.546,3.546,0,0,0-.465,2.382l1.369,8.9h0l-.26,1.684-4.258,28.324-1.834,12.321h0L1.369,60.769,0,51.9V9.323A9.35,9.35,0,0,1,9.323,0H86.615a9.419,9.419,0,0,1,9.391,9.391V49.735h0Zm-69.818-17.8a3.162,3.162,0,0,0-3.943,1.848L14.265,62.8l-.37,1.04a3.19,3.19,0,0,0,1.068,3.573,3.148,3.148,0,0,0,.849.452,3.08,3.08,0,0,0,1.04.178,3.149,3.149,0,0,0,2.971-2.095l6.585-18.536A3.135,3.135,0,0,0,24.5,43.4ZM32.267,42.1a3.3,3.3,0,0,0-3.286,2.259l-1.917,5.476a3.19,3.19,0,0,0,1.013,3.518l.219.151a2.916,2.916,0,0,0,.684.342,3.08,3.08,0,0,0,1.04.178,3.135,3.135,0,0,0,2.971-2.081l.123-.356.671-1.876L35,46.2A3.149,3.149,0,0,0,32.294,42.1ZM87.409,9.446a2.437,2.437,0,0,0-2.738-2.423A2.587,2.587,0,0,0,82.59,9.638V36.21a2.45,2.45,0,0,0,2.738,2.423,2.56,2.56,0,0,0,2.095-2.6Z" fill="#a9b4dd"/>
        <path id="Tracé_119" data-name="Tracé 119" d="M1.244,4.613.916,2.45.546,0,.176,1.04A3.19,3.19,0,0,0,1.244,4.613Z" transform="translate(13.719 62.795)" fill="#a9b4dd"/>
        <path id="Tracé_120" data-name="Tracé 120" d="M12.636,42.274,10.8,29.967,6.571,1.7,6.325,0l-.26,1.7L1.834,29.967,0,42.274Z" transform="translate(14.278 105.234)" fill="#a9b4dd"/>
        <path id="Tracé_121" data-name="Tracé 121" d="M10.786.163a3.162,3.162,0,0,0-3.97,1.917L.546,19.561.176,20.6a3.19,3.19,0,0,0,1.068,3.573,3.149,3.149,0,0,0,.849.452,3.08,3.08,0,0,0,1.04.178A3.149,3.149,0,0,0,6.1,22.71L12.689,4.174a3.135,3.135,0,0,0-1.9-4.011Z" transform="translate(13.719 43.234)" fill="#c3cdea"/>
        <path id="Tracé_122" data-name="Tracé 122" d="M6.183.181a3.162,3.162,0,0,0-4.025,1.9L.173,7.683A3.19,3.19,0,0,0,1.186,11.2l.219.151a2.916,2.916,0,0,0,.684.342,3.08,3.08,0,0,0,1.04.178A3.135,3.135,0,0,0,6.1,9.791l.123-.356L6.895,7.56,8.086,4.137A3.135,3.135,0,0,0,6.183.181Z" transform="translate(26.919 42.066)" fill="#c3cdea"/>
        <path id="Tracé_123" data-name="Tracé 123" d="M4.894,29.424V2.634a2.45,2.45,0,1,0-4.887,0V29.424a2.45,2.45,0,1,0,4.887,0Z" transform="translate(82.543 6.785)" fill="#c3cdea"/>
      </g>
    </g>
    <g id="Calque_2-4" data-name="Calque 2" transform="matrix(-0.966, 0.259, -0.259, -0.966, 1209.03, 2698.316)">
      <g id="Calque_1-4" data-name="Calque 1" transform="translate(0 0)">
        <path id="Tracé_104-2" data-name="Tracé 104" d="M68.036,34.71,53.627,124.9H20.4L3.06,34.71Z" transform="translate(1.922 21.81)" fill="#758dc7"/>
        <ellipse id="Ellipse_29-2" data-name="Ellipse 29" cx="0.83" cy="1.628" rx="0.83" ry="1.628" transform="matrix(0.887, -0.462, 0.462, 0.887, 64.904, 1.236)" fill="#fff"/>
        <path id="Tracé_103-2" data-name="Tracé 103" d="M56.294,34.71,41.9,124.9H34.12L48.528,34.71Z" transform="translate(21.429 21.81)" fill="#c3cdea"/>
        <rect id="Rectangle_355-2" data-name="Rectangle 355" width="82.444" height="7.066" rx="2.17" transform="translate(0 63.162)" fill="#fff"/>
      </g>
    </g>
    <g id="Calque_2-5" data-name="Calque 2" transform="translate(1188.13 2557.223) rotate(40)">
      <g id="Calque_1-5" data-name="Calque 1" transform="translate(0 0)">
        <path id="Tracé_128" data-name="Tracé 128" d="M15.893,0A15.9,15.9,0,1,0,31.8,15.9,15.9,15.9,0,0,0,15.893,0Zm0,28.957A13.061,13.061,0,1,1,28.954,15.9,13.061,13.061,0,0,1,15.893,28.957Z" transform="translate(0.01 0)" fill="#c4c4c4"/>
        <path id="Tracé_129" data-name="Tracé 129" d="M54.63,0a15.9,15.9,0,1,0,15.9,15.9A15.9,15.9,0,0,0,54.63,0Zm0,28.957A13.061,13.061,0,1,1,67.684,15.9,13.061,13.061,0,0,1,54.63,28.957Z" transform="translate(-9.763 0)" fill="#c4c4c4"/>
        <path id="Tracé_130" data-name="Tracé 130" d="M15.893,38.73a15.9,15.9,0,1,0,15.9,15.9A15.9,15.9,0,0,0,15.893,38.73Zm0,28.957A13.054,13.054,0,1,1,28.954,54.63,13.054,13.054,0,0,1,15.893,67.687Z" transform="translate(0.01 -9.773)" fill="#c4c4c4"/>
        <path id="Tracé_131" data-name="Tracé 131" d="M54.63,38.73a15.9,15.9,0,1,0,15.9,15.9,15.9,15.9,0,0,0-15.9-15.9Zm0,28.957A13.054,13.054,0,1,1,67.684,54.633,13.054,13.054,0,0,1,54.63,67.687Z" transform="translate(-9.763 -9.773)" fill="#c4c4c4"/>
        <path id="Tracé_132" data-name="Tracé 132" d="M15.893,77.46a15.9,15.9,0,1,0,15.9,15.9,15.9,15.9,0,0,0-15.9-15.9Zm0,28.964A13.061,13.061,0,1,1,28.954,93.363,13.061,13.061,0,0,1,15.893,106.424Z" transform="translate(0.01 -19.547)" fill="#c4c4c4"/>
        <path id="Tracé_133" data-name="Tracé 133" d="M54.63,77.46a15.9,15.9,0,1,0,15.9,15.9,15.9,15.9,0,0,0-15.9-15.9Zm0,28.964A13.061,13.061,0,1,1,67.684,93.365,13.061,13.061,0,0,1,54.63,106.424Z" transform="translate(-9.763 -19.547)" fill="#c4c4c4"/>
        <ellipse id="Ellipse_30" data-name="Ellipse 30" cx="1.69" cy="1.69" rx="1.69" ry="1.69" transform="translate(3.267 2.437)" fill="#c4c4c4"/>
        <ellipse id="Ellipse_31" data-name="Ellipse 31" cx="1.69" cy="1.69" rx="1.69" ry="1.69" transform="translate(24.934 2.437)" fill="#c4c4c4"/>
        <ellipse id="Ellipse_32" data-name="Ellipse 32" cx="1.69" cy="1.69" rx="1.69" ry="1.69" transform="translate(32.463 2.437)" fill="#c4c4c4"/>
        <ellipse id="Ellipse_33" data-name="Ellipse 33" cx="1.69" cy="1.69" rx="1.69" ry="1.69" transform="translate(32.463 26.018)" fill="#c4c4c4"/>
        <ellipse id="Ellipse_34" data-name="Ellipse 34" cx="1.69" cy="1.69" rx="1.69" ry="1.69" transform="translate(32.463 31.319)" fill="#c4c4c4"/>
        <ellipse id="Ellipse_35" data-name="Ellipse 35" cx="1.69" cy="1.69" rx="1.69" ry="1.69" transform="translate(32.463 54.923)" fill="#c4c4c4"/>
        <ellipse id="Ellipse_36" data-name="Ellipse 36" cx="1.69" cy="1.69" rx="1.69" ry="1.69" transform="translate(32.463 60.762)" fill="#c4c4c4"/>
        <ellipse id="Ellipse_37" data-name="Ellipse 37" cx="1.69" cy="1.69" rx="1.69" ry="1.69" transform="translate(32.463 83.819)" fill="#c4c4c4"/>
        <ellipse id="Ellipse_38" data-name="Ellipse 38" cx="1.69" cy="1.69" rx="1.69" ry="1.69" transform="translate(24.934 60.762)" fill="#c4c4c4"/>
        <ellipse id="Ellipse_39" data-name="Ellipse 39" cx="1.69" cy="1.69" rx="1.69" ry="1.69" transform="translate(24.934 83.498)" fill="#c4c4c4"/>
        <ellipse id="Ellipse_40" data-name="Ellipse 40" cx="1.69" cy="1.69" rx="1.69" ry="1.69" transform="translate(24.934 54.923)" fill="#c4c4c4"/>
        <ellipse id="Ellipse_41" data-name="Ellipse 41" cx="1.69" cy="1.69" rx="1.69" ry="1.69" transform="translate(24.934 26.018)" fill="#c4c4c4"/>
        <ellipse id="Ellipse_42" data-name="Ellipse 42" cx="1.69" cy="1.69" rx="1.69" ry="1.69" transform="translate(24.934 31.319)" fill="#c4c4c4"/>
        <ellipse id="Ellipse_43" data-name="Ellipse 43" cx="1.69" cy="1.69" rx="1.69" ry="1.69" transform="translate(54.108 2.437)" fill="#c4c4c4"/>
        <ellipse id="Ellipse_44" data-name="Ellipse 44" cx="1.69" cy="1.69" rx="1.69" ry="1.69" transform="translate(54.108 25.577)" fill="#c4c4c4"/>
        <ellipse id="Ellipse_45" data-name="Ellipse 45" cx="1.69" cy="1.69" rx="1.69" ry="1.69" transform="translate(3.267 25.577)" fill="#c4c4c4"/>
        <ellipse id="Ellipse_46" data-name="Ellipse 46" cx="1.69" cy="1.69" rx="1.69" ry="1.69" transform="translate(3.267 31.798)" fill="#c4c4c4"/>
        <ellipse id="Ellipse_47" data-name="Ellipse 47" cx="1.69" cy="1.69" rx="1.69" ry="1.69" transform="translate(54.108 31.798)" fill="#c4c4c4"/>
        <ellipse id="Ellipse_48" data-name="Ellipse 48" cx="1.69" cy="1.69" rx="1.69" ry="1.69" transform="translate(54.108 54.923)" fill="#c4c4c4"/>
        <ellipse id="Ellipse_49" data-name="Ellipse 49" cx="1.69" cy="1.69" rx="1.69" ry="1.69" transform="translate(54.108 60.762)" fill="#c4c4c4"/>
        <ellipse id="Ellipse_50" data-name="Ellipse 50" cx="1.69" cy="1.69" rx="1.69" ry="1.69" transform="translate(54.108 83.498)" fill="#c4c4c4"/>
        <ellipse id="Ellipse_51" data-name="Ellipse 51" cx="1.69" cy="1.69" rx="1.69" ry="1.69" transform="translate(3.267 83.498)" fill="#c4c4c4"/>
        <ellipse id="Ellipse_52" data-name="Ellipse 52" cx="1.69" cy="1.69" rx="1.69" ry="1.69" transform="translate(3.267 60.373)" fill="#c4c4c4"/>
        <ellipse id="Ellipse_53" data-name="Ellipse 53" cx="1.69" cy="1.69" rx="1.69" ry="1.69" transform="translate(3.267 54.541)" fill="#c4c4c4"/>
      </g>
    </g>
    <g id="Calque_2-6" data-name="Calque 2" transform="matrix(-0.921, 0.391, -0.391, -0.921, 1159.809, 2705.231)">
      <g id="Calque_1-6" data-name="Calque 1">
        <path id="Tracé_124" data-name="Tracé 124" d="M106.44,13.268h22.284L134.881,0H112.8Z" transform="translate(-57.129)" fill="#758dc7"/>
        <rect id="Rectangle_357" data-name="Rectangle 357" width="22.293" height="59.258" transform="translate(49.306 13.25)" fill="#758dc7"/>
        <rect id="Rectangle_358" data-name="Rectangle 358" width="38.665" height="59.258" transform="translate(10.646 13.25)" fill="#a9b4dd"/>
        <path id="Tracé_125" data-name="Tracé 125" d="M49.311,13.438H10.674L0,.17H38.285Z" transform="translate(0 -0.091)" fill="#c4d0ec"/>
        <path id="Tracé_126" data-name="Tracé 126" d="M106.44,28.81h22.288l-4.679,7.8" transform="translate(-57.129 -15.463)" fill="#8289a0" opacity="0.54"/>
        <path id="Tracé_127" data-name="Tracé 127" d="M106.44,28.81h22.288l-4.888,7.037" transform="translate(-57.129 -15.463)" fill="#a9b4dd"/>
        <rect id="Rectangle_359" data-name="Rectangle 359" width="22.293" height="13.129" transform="translate(49.306 40.217)" fill="#b35972"/>
        <rect id="Rectangle_360" data-name="Rectangle 360" width="38.665" height="13.129" transform="translate(10.646 40.217)" fill="#da647f"/>
      </g>
    </g>
    <g id="Calque_2-7" data-name="Calque 2" transform="translate(1174.896 2596.005) rotate(-142)">
      <g id="Calque_1-7" data-name="Calque 1" transform="translate(0 0)">
        <path id="Tracé_110-2" data-name="Tracé 110" d="M5.038,1.876,5.709,0A24.862,24.862,0,0,0,2.355,1.876,20.013,20.013,0,0,0,.274,3.422L0,3.641l.219.151A2.916,2.916,0,0,0,.9,4.134a3.08,3.08,0,0,0,1.04.178A3.135,3.135,0,0,0,4.915,2.231Z" transform="translate(28.105 49.626)" fill="#758dc7"/>
        <path id="Tracé_111-2" data-name="Tracé 111" d="M41.754,9.025c-.465-.438-.945-.876-1.437-1.287A33.239,33.239,0,0,0,7.981,1.879,32.7,32.7,0,0,0,0,5.986a24.382,24.382,0,0,0,6.735,4.285A32.856,32.856,0,0,0,17.906,12.3,78.429,78.429,0,0,0,40.3,9.491Q41.056,9.285,41.754,9.025Z" transform="translate(28.981 78.111)" fill="#758dc7"/>
        <path id="Tracé_112-2" data-name="Tracé 112" d="M4.641.356,4.764,0H.233L0,1.547v.37a2.916,2.916,0,0,0,.684.342,3.08,3.08,0,0,0,1.04.178A3.135,3.135,0,0,0,4.641.356Z" transform="translate(28.379 51.501)" fill="#758dc7"/>
        <path id="Tracé_113-2" data-name="Tracé 113" d="M14.717,4.134A31.747,31.747,0,0,0,8.638,9.61l-.808,5.476L6.325,25.271l-.26,1.7L1.834,55.2,0,67.518H12.7l8.748-59.1L22.684,0a32.7,32.7,0,0,0-7.967,4.134Z" transform="translate(14.278 79.99)" fill="#758dc7"/>
        <path id="Tracé_114-2" data-name="Tracé 114" d="M7.57,8.844A33.02,33.02,0,0,0,1.588,1.287C1.123.849.643.411.151,0V1.78L0,59.893,1.533,49.639,5.791,21.082Z" transform="translate(69.092 85.849)" fill="#758dc7"/>
        <path id="Tracé_115-2" data-name="Tracé 115" d="M12.143,4.611A3.149,3.149,0,1,0,6.27,2.517L0,20l.37,2.45L.7,24.612a3.149,3.149,0,0,0,.849.452,3.08,3.08,0,0,0,1.04.178,3.149,3.149,0,0,0,2.971-2.095Z" transform="translate(14.265 42.796)" fill="#a9b4dd"/>
        <path id="Tracé_116-2" data-name="Tracé 116" d="M8.086,4.075A3.149,3.149,0,0,0,2.158,1.967L.173,7.566a3.19,3.19,0,0,0,1.013,3.518l.219.151a2.916,2.916,0,0,0,.684.342,3.08,3.08,0,0,0,1.04.178A3.135,3.135,0,0,0,6.1,9.674l.123-.356.671-1.876Z" transform="translate(26.919 42.128)" fill="#a9b4dd"/>
        <path id="Tracé_117-2" data-name="Tracé 117" d="M4.894,29.424V2.634a2.45,2.45,0,1,0-4.887,0V29.424a2.45,2.45,0,1,0,4.887,0Z" transform="translate(82.543 6.785)" fill="#a9b4dd"/>
        <path id="Tracé_118-2" data-name="Tracé 118" d="M94.3,61.262h0L81.81,145.687H69.161v-.068l1.52-10.185,4.2-28.5,1.6-10.678a4.216,4.216,0,0,0-.589-2.9,33.128,33.128,0,0,0-5.161-6.215c-.465-.438-.945-.876-1.437-1.287A33.239,33.239,0,0,0,36.962,79.99,32.7,32.7,0,0,0,28.981,84.1a33.24,33.24,0,0,0-9.254,9.8,3.546,3.546,0,0,0-.465,2.382l1.369,8.9h0l-.26,1.684-4.258,28.324-1.834,12.321h0L1.369,60.769,0,51.9V9.323A9.35,9.35,0,0,1,9.323,0H86.615a9.419,9.419,0,0,1,9.391,9.391V49.735h0Zm-69.818-17.8a3.162,3.162,0,0,0-3.943,1.848L14.265,62.8l-.37,1.04a3.19,3.19,0,0,0,1.068,3.573,3.148,3.148,0,0,0,.849.452,3.08,3.08,0,0,0,1.04.178,3.149,3.149,0,0,0,2.971-2.095l6.585-18.536A3.135,3.135,0,0,0,24.5,43.4ZM32.267,42.1a3.3,3.3,0,0,0-3.286,2.259l-1.917,5.476a3.19,3.19,0,0,0,1.013,3.518l.219.151a2.916,2.916,0,0,0,.684.342,3.08,3.08,0,0,0,1.04.178,3.135,3.135,0,0,0,2.971-2.081l.123-.356.671-1.876L35,46.2A3.149,3.149,0,0,0,32.294,42.1ZM87.409,9.446a2.437,2.437,0,0,0-2.738-2.423A2.587,2.587,0,0,0,82.59,9.638V36.21a2.45,2.45,0,0,0,2.738,2.423,2.56,2.56,0,0,0,2.095-2.6Z" fill="#a9b4dd"/>
        <path id="Tracé_119-2" data-name="Tracé 119" d="M1.244,4.613.916,2.45.546,0,.176,1.04A3.19,3.19,0,0,0,1.244,4.613Z" transform="translate(13.719 62.795)" fill="#a9b4dd"/>
        <path id="Tracé_120-2" data-name="Tracé 120" d="M12.636,42.274,10.8,29.967,6.571,1.7,6.325,0l-.26,1.7L1.834,29.967,0,42.274Z" transform="translate(14.278 105.234)" fill="#a9b4dd"/>
        <path id="Tracé_121-2" data-name="Tracé 121" d="M10.786.163a3.162,3.162,0,0,0-3.97,1.917L.546,19.561.176,20.6a3.19,3.19,0,0,0,1.068,3.573,3.149,3.149,0,0,0,.849.452,3.08,3.08,0,0,0,1.04.178A3.149,3.149,0,0,0,6.1,22.71L12.689,4.174a3.135,3.135,0,0,0-1.9-4.011Z" transform="translate(13.719 43.234)" fill="#c3cdea"/>
        <path id="Tracé_122-2" data-name="Tracé 122" d="M6.183.181a3.162,3.162,0,0,0-4.025,1.9L.173,7.683A3.19,3.19,0,0,0,1.186,11.2l.219.151a2.916,2.916,0,0,0,.684.342,3.08,3.08,0,0,0,1.04.178A3.135,3.135,0,0,0,6.1,9.791l.123-.356L6.895,7.56,8.086,4.137A3.135,3.135,0,0,0,6.183.181Z" transform="translate(26.919 42.066)" fill="#c3cdea"/>
        <path id="Tracé_123-2" data-name="Tracé 123" d="M4.894,29.424V2.634a2.45,2.45,0,1,0-4.887,0V29.424a2.45,2.45,0,1,0,4.887,0Z" transform="translate(82.543 6.785)" fill="#c3cdea"/>
      </g>
    </g>
    <g id="Calque_1-3-2" data-name="Calque 1-3" transform="translate(352.979 2072.925) rotate(16)">
      <path id="Tracé_24" data-name="Tracé 24" d="M873.085,331.717a73.456,73.456,0,0,1-50.518-.212l.233-3.316Z" transform="translate(5.588 6.211)" fill="#fff"/>
      <path id="Tracé_25" data-name="Tracé 25" d="M871.171,323.151l-.83,11.832a12.319,12.319,0,0,1-7.879-6.511A12.377,12.377,0,0,1,871.171,323.151Z" transform="translate(26.442 3.578)" fill="#463075"/>
      <path id="Tracé_26" data-name="Tracé 26" d="M884.676,328.457a72.852,72.852,0,0,1-11.7,5.444l-50.257-3.527.437-6.234,6.441.452-.262,3.732,14.266,1a3.717,3.717,0,0,0,2.717-.906l.119-.117a3.715,3.715,0,0,0,1.156-2.447Z" transform="translate(5.666 4.095)" fill="#f09990"/>
      <path id="Tracé_27" data-name="Tracé 27" d="M890.88,332.2l-.537.352-37.086-2.6a3.741,3.741,0,0,0-3.47-3.994l-10.531-.74a3.72,3.72,0,0,0-2.625.789,3.761,3.761,0,0,0-1.291,2.563l-6.51-.457-.667,9.5a68.066,68.066,0,0,1-8.746-3.836,73.4,73.4,0,0,1-7.539-4.573l2.47-2.147L812,324.277a73.439,73.439,0,0,1,78.883,7.91Z" transform="translate(0 0)" fill="#253676"/>
      <path id="Tracé_28" data-name="Tracé 28" d="M885.061,331.091l-.1.061-.145.087-.131.075-.161.128-37.084-2.6a3.742,3.742,0,0,0-3.47-3.992l-10.533-.74a3.719,3.719,0,0,0-2.625.789,3.761,3.761,0,0,0-1.291,2.563L823.01,327l.41-5.833a73.155,73.155,0,0,1,19.389-2.736A75.54,75.54,0,0,1,885.061,331.091Z" transform="translate(5.82 1.11)" fill="#659cd4"/>
      <path id="Tracé_29" data-name="Tracé 29" d="M845.319,326.9a3.727,3.727,0,0,1-1.157,2.447l-.12.116a3.713,3.713,0,0,1-2.717.907l-14.263-1,.262-3.732a3.755,3.755,0,0,1,1.291-2.561,3.716,3.716,0,0,1,2.7-.909l10.533.74A3.741,3.741,0,0,1,845.319,326.9Z" transform="translate(7.938 3.056)" fill="#463075"/>
      <circle id="Ellipse_22" data-name="Ellipse 22" cx="3.187" cy="3.187" r="3.187" transform="translate(818.285 324.463)" fill="#1d1d1b" stroke="#fff" stroke-miterlimit="10" stroke-width="0.393"/>
    </g>
    <g id="Calque_2-8" data-name="Calque 2" transform="translate(1123.772 2659.353) rotate(135)">
      <g id="Calque_1-8" data-name="Calque 1" transform="translate(0 0)">
        <path id="Tracé_128-2" data-name="Tracé 128" d="M15.893,0A15.9,15.9,0,1,0,31.8,15.9,15.9,15.9,0,0,0,15.893,0Zm0,28.957A13.061,13.061,0,1,1,28.954,15.9,13.061,13.061,0,0,1,15.893,28.957Z" transform="translate(0.01 0)" fill="#c4c4c4"/>
        <path id="Tracé_129-2" data-name="Tracé 129" d="M54.63,0a15.9,15.9,0,1,0,15.9,15.9A15.9,15.9,0,0,0,54.63,0Zm0,28.957A13.061,13.061,0,1,1,67.684,15.9,13.061,13.061,0,0,1,54.63,28.957Z" transform="translate(-9.763 0)" fill="#c4c4c4"/>
        <path id="Tracé_130-2" data-name="Tracé 130" d="M15.893,38.73a15.9,15.9,0,1,0,15.9,15.9A15.9,15.9,0,0,0,15.893,38.73Zm0,28.957A13.054,13.054,0,1,1,28.954,54.63,13.054,13.054,0,0,1,15.893,67.687Z" transform="translate(0.01 -9.773)" fill="#c4c4c4"/>
        <path id="Tracé_131-2" data-name="Tracé 131" d="M54.63,38.73a15.9,15.9,0,1,0,15.9,15.9,15.9,15.9,0,0,0-15.9-15.9Zm0,28.957A13.054,13.054,0,1,1,67.684,54.633,13.054,13.054,0,0,1,54.63,67.687Z" transform="translate(-9.763 -9.773)" fill="#c4c4c4"/>
        <path id="Tracé_132-2" data-name="Tracé 132" d="M15.893,77.46a15.9,15.9,0,1,0,15.9,15.9,15.9,15.9,0,0,0-15.9-15.9Zm0,28.964A13.061,13.061,0,1,1,28.954,93.363,13.061,13.061,0,0,1,15.893,106.424Z" transform="translate(0.01 -19.547)" fill="#c4c4c4"/>
        <path id="Tracé_133-2" data-name="Tracé 133" d="M54.63,77.46a15.9,15.9,0,1,0,15.9,15.9,15.9,15.9,0,0,0-15.9-15.9Zm0,28.964A13.061,13.061,0,1,1,67.684,93.365,13.061,13.061,0,0,1,54.63,106.424Z" transform="translate(-9.763 -19.547)" fill="#c4c4c4"/>
        <ellipse id="Ellipse_30-2" data-name="Ellipse 30" cx="1.69" cy="1.69" rx="1.69" ry="1.69" transform="translate(3.267 2.437)" fill="#c4c4c4"/>
        <ellipse id="Ellipse_31-2" data-name="Ellipse 31" cx="1.69" cy="1.69" rx="1.69" ry="1.69" transform="translate(24.934 2.437)" fill="#c4c4c4"/>
        <ellipse id="Ellipse_32-2" data-name="Ellipse 32" cx="1.69" cy="1.69" rx="1.69" ry="1.69" transform="translate(32.463 2.437)" fill="#c4c4c4"/>
        <ellipse id="Ellipse_33-2" data-name="Ellipse 33" cx="1.69" cy="1.69" rx="1.69" ry="1.69" transform="translate(32.463 26.018)" fill="#c4c4c4"/>
        <ellipse id="Ellipse_34-2" data-name="Ellipse 34" cx="1.69" cy="1.69" rx="1.69" ry="1.69" transform="translate(32.463 31.319)" fill="#c4c4c4"/>
        <ellipse id="Ellipse_35-2" data-name="Ellipse 35" cx="1.69" cy="1.69" rx="1.69" ry="1.69" transform="translate(32.463 54.923)" fill="#c4c4c4"/>
        <ellipse id="Ellipse_36-2" data-name="Ellipse 36" cx="1.69" cy="1.69" rx="1.69" ry="1.69" transform="translate(32.463 60.762)" fill="#c4c4c4"/>
        <ellipse id="Ellipse_37-2" data-name="Ellipse 37" cx="1.69" cy="1.69" rx="1.69" ry="1.69" transform="translate(32.463 83.819)" fill="#c4c4c4"/>
        <ellipse id="Ellipse_38-2" data-name="Ellipse 38" cx="1.69" cy="1.69" rx="1.69" ry="1.69" transform="translate(24.934 60.762)" fill="#c4c4c4"/>
        <ellipse id="Ellipse_39-2" data-name="Ellipse 39" cx="1.69" cy="1.69" rx="1.69" ry="1.69" transform="translate(24.934 83.498)" fill="#c4c4c4"/>
        <ellipse id="Ellipse_40-2" data-name="Ellipse 40" cx="1.69" cy="1.69" rx="1.69" ry="1.69" transform="translate(24.934 54.923)" fill="#c4c4c4"/>
        <ellipse id="Ellipse_41-2" data-name="Ellipse 41" cx="1.69" cy="1.69" rx="1.69" ry="1.69" transform="translate(24.934 26.018)" fill="#c4c4c4"/>
        <ellipse id="Ellipse_42-2" data-name="Ellipse 42" cx="1.69" cy="1.69" rx="1.69" ry="1.69" transform="translate(24.934 31.319)" fill="#c4c4c4"/>
        <ellipse id="Ellipse_43-2" data-name="Ellipse 43" cx="1.69" cy="1.69" rx="1.69" ry="1.69" transform="translate(54.108 2.437)" fill="#c4c4c4"/>
        <ellipse id="Ellipse_44-2" data-name="Ellipse 44" cx="1.69" cy="1.69" rx="1.69" ry="1.69" transform="translate(54.108 25.577)" fill="#c4c4c4"/>
        <ellipse id="Ellipse_45-2" data-name="Ellipse 45" cx="1.69" cy="1.69" rx="1.69" ry="1.69" transform="translate(3.267 25.577)" fill="#c4c4c4"/>
        <ellipse id="Ellipse_46-2" data-name="Ellipse 46" cx="1.69" cy="1.69" rx="1.69" ry="1.69" transform="translate(3.267 31.798)" fill="#c4c4c4"/>
        <ellipse id="Ellipse_47-2" data-name="Ellipse 47" cx="1.69" cy="1.69" rx="1.69" ry="1.69" transform="translate(54.108 31.798)" fill="#c4c4c4"/>
        <ellipse id="Ellipse_48-2" data-name="Ellipse 48" cx="1.69" cy="1.69" rx="1.69" ry="1.69" transform="translate(54.108 54.923)" fill="#c4c4c4"/>
        <ellipse id="Ellipse_49-2" data-name="Ellipse 49" cx="1.69" cy="1.69" rx="1.69" ry="1.69" transform="translate(54.108 60.762)" fill="#c4c4c4"/>
        <ellipse id="Ellipse_50-2" data-name="Ellipse 50" cx="1.69" cy="1.69" rx="1.69" ry="1.69" transform="translate(54.108 83.498)" fill="#c4c4c4"/>
        <ellipse id="Ellipse_51-2" data-name="Ellipse 51" cx="1.69" cy="1.69" rx="1.69" ry="1.69" transform="translate(3.267 83.498)" fill="#c4c4c4"/>
        <ellipse id="Ellipse_52-2" data-name="Ellipse 52" cx="1.69" cy="1.69" rx="1.69" ry="1.69" transform="translate(3.267 60.373)" fill="#c4c4c4"/>
        <ellipse id="Ellipse_53-2" data-name="Ellipse 53" cx="1.69" cy="1.69" rx="1.69" ry="1.69" transform="translate(3.267 54.541)" fill="#c4c4c4"/>
      </g>
    </g>
    <path id="Tracé_2387" data-name="Tracé 2387" d="M2816.954,2665.307a3.388,3.388,0,0,0-2.915.045c-1.819.725-3.316,2.09-5.1,2.9-2.106.958-4.78,1.016-6.571-.449-2.261-1.85-1.895-5.074-.022-7.061a18.553,18.553,0,0,1,4.5-3.06c5.443-3.115,9.3-9.906,8.456-16.245a9.26,9.26,0,0,0-.3-1.241c-.645-1.872-2.94-1.393-3.738.02-1.522,2.693-3.312,5.754-6.963,4.8a2.657,2.657,0,0,1-1.655-1.148h.088c-.006-.07-.019-.135-.021-.207a6.968,6.968,0,0,1,2.286-4.892,52.566,52.566,0,0,0,4.739-4.938c2.006-2.6,4.231-6.779,3.067-10.174a1.95,1.95,0,0,0-1.6-1.393,2.3,2.3,0,0,0-1.752.927c-.878,1-1.363,2.291-2.193,3.332a4.34,4.34,0,0,1-4.119,1.758,3.259,3.259,0,0,1-2.194-4.269,12.633,12.633,0,0,1,1.778-3.243c2.335-3.569,2.572-8.873.1-12.452a6.214,6.214,0,0,0-.568-.658c-.968-.936-2.211.064-2.258,1.166-.09,2.1-.228,4.509-2.733,5.062a1.494,1.494,0,0,1-1.665-.523,2,2,0,0,1-.17-.777,9.989,9.989,0,0,0-.7-2.915,4.833,4.833,0,0,0-2.735-2.818,3.5,3.5,0,0,0-4.606,3.068c-.147,2.031,1.418,3.72,2.726,5.28a2.615,2.615,0,0,1,.807,1.745,1.771,1.771,0,0,1-1.717,1.479c-2.764.151-3.852-3.577-6.618-3.4-.8.05-1.216,1.7-.926,2.889a7.918,7.918,0,0,0,4.316,5.124c.279.151.574.3.888.443q.888.334,1.748.712c.191.084.381.171.572.266a13.763,13.763,0,0,1,4.242,2.7c1.331,1.466,1.211,3.308.558,5.08a2.3,2.3,0,0,1-1.052,1.384,2.02,2.02,0,0,1-2.121-.561c-1.089-1.02-1.92-2.936-3.573-3.162-.8-.11-1.527,1.423-1.478,2.65.081,2.006,1.011,4.478,4.436,6.784.173.109.334.211.5.315.276.1.547.2.809.316a7.376,7.376,0,0,1,.763.377,6.62,6.62,0,0,1,1.85,1.936,3.493,3.493,0,0,1-.178,2.517,2.6,2.6,0,0,1-3.237.79c-3.721-1.649-2.656-7.259-6.4-8.88-1.086-.471-2.727,1.41-3.144,3.166-.592,2.5-.415,5.75,2.23,9.6q.4.578.869,1.174.939,1.032,1.814,2.1c.193.239.385.48.571.733,1.451,1.97,3.1,3.959,3.755,6.368.764,2.81-.624,5.143-2.663,7.028a3.389,3.389,0,0,1-2.3,1.11,2.969,2.969,0,0,1-2.4-2.152c-.746-2.064-.554-5.129-2.568-6.53-.971-.675-2.952.845-3.706,2.484-1.235,2.683-1.669,6.542,1.278,11.852.153.258.3.5.448.749.3.313.581.632.849.954a11.233,11.233,0,0,1,.748,1,10.23,10.23,0,0,1,1.095,6.479q-.07.472-.179.938c-.612,2.616-4.4,9.281-7.879,7.008a4.336,4.336,0,0,1-1.295-1.427c-1.617-2.685-.67-5.123-.3-7.947.612-4.68-4.774-4.309-7.138-1.7-3.934,4.344-2.989,10.827-2.046,16.095.456,2.542.85,4.663-.48,7.039a5.871,5.871,0,0,1-5.431,3.244,5.246,5.246,0,0,1-3.746-2.027,7.264,7.264,0,0,1-1.292-4.266c-.035-1.678,1.491-6.29-.611-7.074-3.3-1.233-5.72,2.513-6.836,5.049-1.65,3.744-1.417,7.41-.445,11.331.6,2.426,1.5,6.181-.314,8.283-1.4,1.623-3.934,1.653-5.662,2.923-2.187,1.607-3.017,5.281-.1,6.342a11.151,11.151,0,0,1,4.389,2.772,25.043,25.043,0,0,0,2.269,2.54,7.706,7.706,0,0,0,3.476,1.455,5.791,5.791,0,0,0,2.359.061c2.732-.618,3.7-4.693,5.3-6.613a6.567,6.567,0,0,1,1.106-1.063c2.392-1.8,6.4-2.3,9.3-1.9,3.012.421,5.643,2.133,8.609,2.732,5.122,1.033,11.4-2.017,14.182-6.4,1.42-2.236.008-4.951-2.674-4.695-1.484.141-2.79.905-4.234,1.183a6.8,6.8,0,0,1-4.423-.883c-2.1-1.135-4.655-3.285-4.68-5.884-.024-2.458,2.766-4.047,5.029-4.228a8.513,8.513,0,0,1,1.163-.134,9.849,9.849,0,0,1,1.266.023c5.5.453,11.481,2.66,17.113.145a13.271,13.271,0,0,0,1.293-.667c3.138-2.073,8.236-4.263,7.39-7.986-.876-3.856-4.788-1.387-7.295-.96-4.889.832-9.014-3.8-6.827-8.469,1.156-2.469,3.765-4.07,6.265-4.882a77.289,77.289,0,0,0,9.508-3.3c4.367-2.07,10.073-6.054,10.816-11.279A2.875,2.875,0,0,0,2816.954,2665.307Z" transform="translate(-1509.065 -5.588)" fill="#5281cc"/>
    <path id="Tracé_2388" data-name="Tracé 2388" d="M2741.631,2722.893c-9.389.251-6.772-10.8-10.423-16.044-1.843-3.51-8.629-5.858-13.16-1.866-1.4,1.092-2.418,3.24-1.327,4.637a19.507,19.507,0,0,1,2.321,3.173,10.093,10.093,0,0,1,1.148,4.063,6.074,6.074,0,0,1-4.781,6.269,4.079,4.079,0,0,1-2.7-.155,4.754,4.754,0,0,1-1.613-1.473,19.346,19.346,0,0,1-3.306-7.956c-.639-2.963-1.269-6.021-3.193-8.457a28.569,28.569,0,0,0-7.631-6.634,5.658,5.658,0,0,0-3.16-.931c-1.2.121-1.648.978-2.114,1.959-1.7,3.581,5.835,8.042,2.02,12.374a5.344,5.344,0,0,1-3.907,1.984,5.725,5.725,0,0,1-1.1-.052q-.558-.259-1.1-.545c-.362-.19-.72-.39-1.078-.607-4.207-2.289-7.03-6.087-9.252-10.23-2.194-4.091-3.964-8.437-6.881-12.094a8.646,8.646,0,0,0-1.724-1.694c-.319-.225-.657-.42-.995-.615-1.561-.9-3.839-2.325-5.587-1.1a3.431,3.431,0,0,0-.778.77,4.362,4.362,0,0,0,.446,4.6,66.3,66.3,0,0,1,4.2,5.792c1.117,1.807,2.363,4.407,1.3,6.5a3.176,3.176,0,0,1-2.935,1.774c-1.82-.129-3.123-1.941-4.241-3.2-1.2-1.351-2.34-2.761-3.539-4.116-2.267-2.56-4.922-5.193-8.382-5.951a13.985,13.985,0,0,0-3.419-.112,2.32,2.32,0,0,0-.718.143,3.951,3.951,0,0,0-.779.38c-1.753,1.09-3.96,3.728-2.778,5.907a3.366,3.366,0,0,0,1.565,1.375c1.285.6,3.627.464,4.4,1.843a1.7,1.7,0,0,1,.039,1.595,2.753,2.753,0,0,1-1.295,1.064,14.137,14.137,0,0,1-3.216,1.085c-1.141.255-2.236.63-3.359.918-2.249.576-4.005,1.5-3.423,3.969.319,1.359.548,2.743,1.662,3.713a4.46,4.46,0,0,0,3.059.942,23.541,23.541,0,0,0,4.974-.818c2.312-.534,4.5-1.436,6.131.918a2.443,2.443,0,0,1,.52,1.385,2.015,2.015,0,0,1-.482,1.2,13.456,13.456,0,0,1-3.514,2.516c-1.034.665-2.892,2-2.864,3.432a3.165,3.165,0,0,0,2.184,2.794c8.934,3.369,11.175-8.735,19.323-9.252,2.489.3,5.729,2.724,6.14,5.553.07,3.545-5.623,2.595-6.269,5.8-.27,4.262,5.084,5.929,7.537,4.461,4.039-2.031,8.221-5.75,12.084-7.644a9.327,9.327,0,0,1,5.574-1.095,6.287,6.287,0,0,1,3.929,2.215,4.055,4.055,0,0,1,.8,3.794,4.887,4.887,0,0,1-3.1,2.627c-1.837.665-3.863.918-5.534,2a2.346,2.346,0,0,0-1.137,1.577,2.32,2.32,0,0,0,.2,1.167,7.789,7.789,0,0,0,6.572,4.364,14.234,14.234,0,0,0,6.8-2.023c5.045-2.642,9.739-6.826,15.762-6.742,1.134.016,2.7.084,3.48,1.037a2.739,2.739,0,0,1,.475,2.009,7.1,7.1,0,0,1-2.336,4.342c-2.916,2.763-7.767,3.675-8.854,8-.7,2.792,3.067,3.029,4.925,2.766,3.519-.5,6.117-2.436,8.841-4.536,2.468-1.9,4.818-3.953,7.277-5.868a39.189,39.189,0,0,1,7.592-4.838,25.486,25.486,0,0,1,9.025-2.106c4.025-.3,7.34-6.065,11.507-8.244,1.408-.736.147-3.6-4.966-4.488C2749.8,2721.73,2742.564,2722.69,2741.631,2722.893Z" transform="translate(-1509.065 -5.588)" fill="#3a4589"/>
  </g>
</svg>
