<svg xmlns="http://www.w3.org/2000/svg" width="98.174" height="61.476" viewBox="0 0 98.174 61.476">
  <g id="Groupe_138" data-name="Groupe 138" transform="translate(-746.664 -2044.936)" opacity="0.355">
    <g id="Calque_1-3" data-name="Calque 1-3" transform="translate(790.313 2068.152)">
      <path id="Tracé_24" data-name="Tracé 24" d="M823.516,2080.445a10.848,10.848,0,0,0-7.463.031l.034.49Z" transform="translate(-813.648 -2079.799)" fill="#5a73cc" stroke="#5a73cc" stroke-linecap="round" stroke-linejoin="round" stroke-width="0.2"/>
      <path id="Tracé_25" data-name="Tracé 25" d="M830.871,2082.38l-.123-1.748a.927.927,0,1,0,.123,1.748Z" transform="translate(-818.205 -2080.079)" fill="#5a73cc" stroke="#5a73cc" stroke-linecap="round" stroke-linejoin="round" stroke-width="0.2"/>
      <path id="Tracé_26" data-name="Tracé 26" d="M825.256,2081.562a10.751,10.751,0,0,0-1.728-.8l-7.425.521.065.921.952-.067-.039-.551,2.108-.148a.548.548,0,0,1,.4.134l.017.017a.553.553,0,0,1,.171.362Z" transform="translate(-813.665 -2080.122)" fill="#5a73cc" stroke="#5a73cc" stroke-linecap="round" stroke-linejoin="round" stroke-width="0.2"/>
      <path id="Tracé_27" data-name="Tracé 27" d="M824.1,2081.643l-.08-.052-5.478.385a.552.552,0,0,1-.513.589l-1.556.109a.524.524,0,0,1-.578-.495l-.962.067-.1-1.4a10.091,10.091,0,0,0-1.292.567,10.734,10.734,0,0,0-1.114.675l.365.317-.347.41a10.848,10.848,0,0,0,11.653-1.168Z" transform="translate(-812.427 -2080.151)" fill="#5a73cc" stroke="#5a73cc" stroke-linecap="round" stroke-linejoin="round" stroke-width="0.2"/>
      <path id="Tracé_28" data-name="Tracé 28" d="M825.369,2082.022l-.015-.009-.021-.013-.019-.01-.024-.019-5.478.385a.552.552,0,0,1-.513.59l-1.556.109a.524.524,0,0,1-.578-.495l-.962.067.06.862a10.832,10.832,0,0,0,2.865.4A11.156,11.156,0,0,0,825.369,2082.022Z" transform="translate(-813.699 -2080.53)" fill="#5a73cc" stroke="#5a73cc" stroke-linecap="round" stroke-linejoin="round" stroke-width="0.2"/>
      <path id="Tracé_29" data-name="Tracé 29" d="M820.274,2082.289a.552.552,0,0,0-.171-.362l-.018-.017a.546.546,0,0,0-.4-.134l-2.107.148.038.551a.558.558,0,0,0,.191.379.551.551,0,0,0,.4.134l1.556-.109A.552.552,0,0,0,820.274,2082.289Z" transform="translate(-814.161 -2080.464)" fill="#5a73cc" stroke="#5a73cc" stroke-linecap="round" stroke-linejoin="round" stroke-width="0.2"/>
      <circle id="Ellipse_22" data-name="Ellipse 22" cx="0.471" cy="0.471" r="0.471" transform="translate(0.947 1.694)" stroke-width="0.2" stroke="#5a73cc" stroke-linecap="round" stroke-linejoin="round" fill="#5a73cc"/>
    </g>
    <g id="Calque_1-3-2" data-name="Calque 1-3" transform="translate(767.795 2061.965)">
      <path id="Tracé_24-2" data-name="Tracé 24" d="M789.59,2071.17a10.854,10.854,0,0,0-7.462-.075l.027.491Z" transform="translate(-779.705 -2070.47)" fill="#5a73cc" stroke="#5a73cc" stroke-linecap="round" stroke-linejoin="round" stroke-width="0.2"/>
      <path id="Tracé_25-2" data-name="Tracé 25" d="M796.915,2073.191l-.1-1.75a.927.927,0,1,0,.1,1.75Z" transform="translate(-784.256 -2070.797)" fill="#5a73cc" stroke="#5a73cc" stroke-linecap="round" stroke-linejoin="round" stroke-width="0.2"/>
      <path id="Tracé_26-2" data-name="Tracé 26" d="M791.316,2072.338a10.73,10.73,0,0,0-1.718-.829l-7.431.416.052.922.952-.053-.031-.552,2.109-.118a.549.549,0,0,1,.4.139l.017.018a.551.551,0,0,1,.166.364Z" transform="translate(-779.719 -2070.82)" fill="#5a73cc" stroke="#5a73cc" stroke-linecap="round" stroke-linejoin="round" stroke-width="0.2"/>
      <path id="Tracé_27-2" data-name="Tracé 27" d="M790.151,2072.367l-.078-.053-5.484.306a.552.552,0,0,1-.521.583l-1.557.087a.524.524,0,0,1-.572-.5l-.962.054-.079-1.4a10.018,10.018,0,0,0-1.3.548,11.061,11.061,0,0,0-1.124.66l.361.322-.353.4a10.848,10.848,0,0,0,11.669-1Z" transform="translate(-778.475 -2070.796)" fill="#5a73cc" stroke="#5a73cc" stroke-linecap="round" stroke-linejoin="round" stroke-width="0.2"/>
      <path id="Tracé_28-2" data-name="Tracé 28" d="M791.422,2072.812l-.015-.009-.021-.013-.019-.011-.023-.019-5.483.306a.553.553,0,0,1-.521.583l-1.557.087a.524.524,0,0,1-.572-.5l-.962.054.048.862a10.8,10.8,0,0,0,2.858.445A11.161,11.161,0,0,0,791.422,2072.812Z" transform="translate(-779.746 -2071.241)" fill="#5a73cc" stroke="#5a73cc" stroke-linecap="round" stroke-linejoin="round" stroke-width="0.2"/>
      <path id="Tracé_29-2" data-name="Tracé 29" d="M786.327,2072.956a.551.551,0,0,0-.166-.363l-.017-.018a.55.55,0,0,0-.4-.139l-2.109.118.031.552a.557.557,0,0,0,.583.521l1.557-.087A.553.553,0,0,0,786.327,2072.956Z" transform="translate(-780.213 -2071.132)" fill="#5a73cc" stroke="#5a73cc" stroke-linecap="round" stroke-linejoin="round" stroke-width="0.2"/>
      <circle id="Ellipse_22-2" data-name="Ellipse 22" cx="0.471" cy="0.471" r="0.471" transform="translate(0.944 1.627)" stroke-width="0.2" stroke="#5a73cc" stroke-linecap="round" stroke-linejoin="round" fill="#5a73cc"/>
    </g>
    <g id="Calque_1-3-3" data-name="Calque 1-3" transform="translate(761.293 2081.803)">
      <path id="Tracé_24-3" data-name="Tracé 24" d="M780.862,2101.093a11.934,11.934,0,0,0-8.205.034l.038.539Z" transform="translate(-770.013 -2100.383)" fill="#5a73cc" stroke="#5a73cc" stroke-linecap="round" stroke-linejoin="round" stroke-width="0.2"/>
      <path id="Tracé_25-3" data-name="Tracé 25" d="M788.95,2103.22l-.135-1.921a1.019,1.019,0,1,0,.135,1.921Z" transform="translate(-775.024 -2100.691)" fill="#5a73cc" stroke="#5a73cc" stroke-linecap="round" stroke-linejoin="round" stroke-width="0.2"/>
      <path id="Tracé_26-3" data-name="Tracé 26" d="M782.777,2102.321a11.86,11.86,0,0,0-1.9-.884l-8.163.573.071,1.012,1.047-.073-.042-.606,2.317-.162a.6.6,0,0,1,.441.147l.02.019a.6.6,0,0,1,.188.4Z" transform="translate(-770.032 -2100.738)" fill="#5a73cc" stroke="#5a73cc" stroke-linecap="round" stroke-linejoin="round" stroke-width="0.2"/>
      <path id="Tracé_27-3" data-name="Tracé 27" d="M781.5,2102.41l-.088-.057-6.023.423a.608.608,0,0,1-.564.649l-1.71.12a.576.576,0,0,1-.636-.544l-1.058.074-.108-1.543a11.079,11.079,0,0,0-1.421.624,11.9,11.9,0,0,0-1.224.743l.4.348-.381.451a11.928,11.928,0,0,0,12.812-1.285Z" transform="translate(-768.671 -2100.77)" fill="#5a73cc" stroke="#5a73cc" stroke-linecap="round" stroke-linejoin="round" stroke-width="0.2"/>
      <path id="Tracé_28-3" data-name="Tracé 28" d="M782.9,2102.827l-.017-.01-.023-.014-.021-.012-.027-.021-6.023.423a.608.608,0,0,1-.564.648l-1.71.12a.576.576,0,0,1-.636-.544l-1.058.074.067.947a11.9,11.9,0,0,0,3.149.445A12.274,12.274,0,0,0,782.9,2102.827Z" transform="translate(-770.069 -2101.187)" fill="#5a73cc" stroke="#5a73cc" stroke-linecap="round" stroke-linejoin="round" stroke-width="0.2"/>
      <path id="Tracé_29-3" data-name="Tracé 29" d="M777.3,2103.12a.6.6,0,0,0-.188-.4l-.019-.019a.6.6,0,0,0-.441-.147l-2.317.162.043.606a.611.611,0,0,0,.21.416.6.6,0,0,0,.439.147l1.71-.12A.608.608,0,0,0,777.3,2103.12Z" transform="translate(-770.578 -2101.115)" fill="#5a73cc" stroke="#5a73cc" stroke-linecap="round" stroke-linejoin="round" stroke-width="0.2"/>
      <circle id="Ellipse_22-3" data-name="Ellipse 22" cx="0.518" cy="0.518" r="0.518" transform="translate(1.041 1.862)" stroke-width="0.2" stroke="#5a73cc" stroke-linecap="round" stroke-linejoin="round" fill="#5a73cc"/>
    </g>
    <g id="Calque_1-3-4" data-name="Calque 1-3" transform="translate(830.108 2067.754)">
      <path id="Tracé_24-4" data-name="Tracé 24" d="M884.5,2079.716a11.928,11.928,0,0,0-8.193.455l.065.536Z" transform="translate(-873.736 -2079.199)" fill="#5a73cc" stroke="#5a73cc" stroke-linecap="round" stroke-linejoin="round" stroke-width="0.2"/>
      <path id="Tracé_25-4" data-name="Tracé 25" d="M892.692,2081.509l-.234-1.912a1.019,1.019,0,1,0,.234,1.912Z" transform="translate(-878.764 -2079.333)" fill="#5a73cc" stroke="#5a73cc" stroke-linecap="round" stroke-linejoin="round" stroke-width="0.2"/>
      <path id="Tracé_26-4" data-name="Tracé 26" d="M886.468,2080.748a11.79,11.79,0,0,0-1.943-.785l-8.123.99.123,1.008,1.041-.127-.074-.6,2.306-.281a.6.6,0,0,1,.448.124l.02.018a.608.608,0,0,1,.208.387Z" transform="translate(-873.768 -2079.456)" fill="#5a73cc" stroke="#5a73cc" stroke-linecap="round" stroke-linejoin="round" stroke-width="0.2"/>
      <path id="Tracé_27-4" data-name="Tracé 27" d="M885.221,2081.046l-.09-.052-5.993.731a.609.609,0,0,1-.53.677l-1.7.208a.577.577,0,0,1-.663-.511l-1.052.129-.187-1.535a11.057,11.057,0,0,0-1.387.7,11.943,11.943,0,0,0-1.185.8l.419.328-.358.47a11.929,11.929,0,0,0,12.73-1.94Z" transform="translate(-872.431 -2079.702)" fill="#5a73cc" stroke="#5a73cc" stroke-linecap="round" stroke-linejoin="round" stroke-width="0.2"/>
      <path id="Tracé_28-4" data-name="Tracé 28" d="M886.623,2081.2l-.017-.01-.025-.012-.021-.011-.028-.019-5.994.731a.608.608,0,0,1-.529.677l-1.7.208a.577.577,0,0,1-.663-.511l-1.052.129.115.942a11.849,11.849,0,0,0,3.167.283A12.278,12.278,0,0,0,886.623,2081.2Z" transform="translate(-873.832 -2079.855)" fill="#5a73cc" stroke="#5a73cc" stroke-linecap="round" stroke-linejoin="round" stroke-width="0.2"/>
      <path id="Tracé_29-4" data-name="Tracé 29" d="M881.029,2081.978a.607.607,0,0,0-.208-.387l-.021-.018a.6.6,0,0,0-.448-.124l-2.306.281.074.6a.612.612,0,0,0,.677.53l1.7-.208A.609.609,0,0,0,881.029,2081.978Z" transform="translate(-874.322 -2079.955)" fill="#5a73cc" stroke="#5a73cc" stroke-linecap="round" stroke-linejoin="round" stroke-width="0.2"/>
      <circle id="Ellipse_22-4" data-name="Ellipse 22" cx="0.518" cy="0.518" r="0.518" transform="translate(1.052 2.143)" stroke-width="0.2" stroke="#5a73cc" stroke-linecap="round" stroke-linejoin="round" fill="#5a73cc"/>
    </g>
    <g id="Calque_1-3-5" data-name="Calque 1-3" transform="translate(830.812 2094.054)">
      <path id="Tracé_24-5" data-name="Tracé 24" d="M885.685,2119.564a11.934,11.934,0,0,0-8.2.035l.038.539Z" transform="translate(-874.836 -2118.854)" fill="#5a73cc" stroke="#5a73cc" stroke-linecap="round" stroke-linejoin="round" stroke-width="0.2"/>
      <path id="Tracé_25-5" data-name="Tracé 25" d="M893.772,2121.692l-.135-1.921a1.019,1.019,0,1,0,.135,1.921Z" transform="translate(-879.846 -2119.163)" fill="#5a73cc" stroke="#5a73cc" stroke-linecap="round" stroke-linejoin="round" stroke-width="0.2"/>
      <path id="Tracé_26-5" data-name="Tracé 26" d="M887.6,2120.793a11.887,11.887,0,0,0-1.9-.884l-8.163.573.071,1.012,1.047-.073-.042-.606,2.317-.162a.6.6,0,0,1,.442.147l.019.019a.6.6,0,0,1,.188.4Z" transform="translate(-874.854 -2119.21)" fill="#5a73cc" stroke="#5a73cc" stroke-linecap="round" stroke-linejoin="round" stroke-width="0.2"/>
      <path id="Tracé_27-5" data-name="Tracé 27" d="M886.325,2120.882l-.088-.057-6.023.423a.608.608,0,0,1-.564.649l-1.71.12a.577.577,0,0,1-.636-.544l-1.058.074-.108-1.543a11.11,11.11,0,0,0-1.421.624,12.044,12.044,0,0,0-1.224.742l.4.349-.381.451a11.927,11.927,0,0,0,12.812-1.285Z" transform="translate(-873.493 -2119.242)" fill="#5a73cc" stroke="#5a73cc" stroke-linecap="round" stroke-linejoin="round" stroke-width="0.2"/>
      <path id="Tracé_28-5" data-name="Tracé 28" d="M887.723,2121.3l-.017-.01-.023-.014-.021-.012-.027-.021-6.023.423a.607.607,0,0,1-.563.648l-1.711.12a.6.6,0,0,1-.427-.128.609.609,0,0,1-.21-.416l-1.057.074.066.947a11.878,11.878,0,0,0,3.149.445A12.272,12.272,0,0,0,887.723,2121.3Z" transform="translate(-874.891 -2119.658)" fill="#5a73cc" stroke="#5a73cc" stroke-linecap="round" stroke-linejoin="round" stroke-width="0.2"/>
      <path id="Tracé_29-5" data-name="Tracé 29" d="M882.121,2121.592a.6.6,0,0,0-.188-.4l-.019-.019a.606.606,0,0,0-.441-.148l-2.317.163.042.606a.611.611,0,0,0,.21.416.6.6,0,0,0,.439.147l1.71-.12A.608.608,0,0,0,882.121,2121.592Z" transform="translate(-875.4 -2119.586)" fill="#5a73cc" stroke="#5a73cc" stroke-linecap="round" stroke-linejoin="round" stroke-width="0.2"/>
      <circle id="Ellipse_22-5" data-name="Ellipse 22" cx="0.518" cy="0.518" r="0.518" transform="translate(1.041 1.862)" stroke-width="0.2" stroke="#5a73cc" stroke-linecap="round" stroke-linejoin="round" fill="#5a73cc"/>
    </g>
    <g id="Calque_1-3-6" data-name="Calque 1-3" transform="translate(775.394 2075.425)">
      <path id="Tracé_24-6" data-name="Tracé 24" d="M802.414,2092.121a11.931,11.931,0,0,0-8.136-1.066l-.035.539Z" transform="translate(-791.385 -2090.765)" fill="#5a73cc" stroke="#5a73cc" stroke-linecap="round" stroke-linejoin="round" stroke-width="0.2"/>
      <path id="Tracé_25-6" data-name="Tracé 25" d="M810.139,2095.174l.124-1.922a1.019,1.019,0,1,0-.124,1.922Z" transform="translate(-796.305 -2091.603)" fill="#5a73cc" stroke="#5a73cc" stroke-linecap="round" stroke-linejoin="round" stroke-width="0.2"/>
      <path id="Tracé_26-6" data-name="Tracé 26" d="M804.142,2093.656a11.82,11.82,0,0,0-1.765-1.131l-8.166-.527-.065,1.013,1.047.068.039-.607,2.318.15a.6.6,0,0,1,.417.205l.017.021a.607.607,0,0,1,.133.419Z" transform="translate(-791.352 -2091.18)" fill="#5a73cc" stroke="#5a73cc" stroke-linecap="round" stroke-linejoin="round" stroke-width="0.2"/>
      <path id="Tracé_27-6" data-name="Tracé 27" d="M802.8,2093.466l-.079-.068-6.025-.389a.608.608,0,0,1-.646.567l-1.711-.11a.577.577,0,0,1-.557-.625l-1.058-.068.1-1.543a11,11,0,0,0-1.492.427,11.834,11.834,0,0,0-1.313.572l.351.4-.438.4a11.929,11.929,0,0,0,12.869.444Z" transform="translate(-789.933 -2090.922)" fill="#5a73cc" stroke="#5a73cc" stroke-linecap="round" stroke-linejoin="round" stroke-width="0.2"/>
      <path id="Tracé_28-6" data-name="Tracé 28" d="M804.189,2094.249l-.015-.012-.022-.017-.019-.014-.023-.025-6.025-.388a.608.608,0,0,1-.645.567l-1.712-.11a.6.6,0,0,1-.405-.184.609.609,0,0,1-.152-.44l-1.058-.068-.061.948a11.865,11.865,0,0,0,3.061.863A12.274,12.274,0,0,0,804.189,2094.249Z" transform="translate(-791.32 -2091.705)" fill="#5a73cc" stroke="#5a73cc" stroke-linecap="round" stroke-linejoin="round" stroke-width="0.2"/>
      <path id="Tracé_29-6" data-name="Tracé 29" d="M798.648,2093.508a.607.607,0,0,0-.133-.419l-.017-.021a.6.6,0,0,0-.418-.205l-2.317-.15-.039.606a.611.611,0,0,0,.567.646l1.711.11A.608.608,0,0,0,798.648,2093.508Z" transform="translate(-791.883 -2091.421)" fill="#5a73cc" stroke="#5a73cc" stroke-linecap="round" stroke-linejoin="round" stroke-width="0.2"/>
      <circle id="Ellipse_22-6" data-name="Ellipse 22" cx="0.518" cy="0.518" r="0.518" transform="translate(1.081 1.247)" stroke-width="0.2" stroke="#5a73cc" stroke-linecap="round" stroke-linejoin="round" fill="#5a73cc"/>
    </g>
    <g id="Calque_1-3-7" data-name="Calque 1-3" transform="translate(783.807 2055.061)">
      <path id="Tracé_24-7" data-name="Tracé 24" d="M814.839,2060.83a11.926,11.926,0,0,0-8.2-.082l.031.539Z" transform="translate(-803.971 -2060.06)" fill="#5a73cc" stroke="#5a73cc" stroke-linecap="round" stroke-linejoin="round" stroke-width="0.2"/>
      <path id="Tracé_25-7" data-name="Tracé 25" d="M822.893,2063.051l-.107-1.923a1.019,1.019,0,1,0,.107,1.923Z" transform="translate(-808.974 -2060.42)" fill="#5a73cc" stroke="#5a73cc" stroke-linecap="round" stroke-linejoin="round" stroke-width="0.2"/>
      <path id="Tracé_26-7" data-name="Tracé 26" d="M816.737,2062.114a11.871,11.871,0,0,0-1.888-.911l-8.17.458.056,1.013,1.047-.059-.034-.606,2.319-.13a.6.6,0,0,1,.439.153l.019.019a.6.6,0,0,1,.182.4Z" transform="translate(-803.986 -2060.445)" fill="#5a73cc" stroke="#5a73cc" stroke-linecap="round" stroke-linejoin="round" stroke-width="0.2"/>
      <path id="Tracé_27-7" data-name="Tracé 27" d="M815.456,2062.146l-.086-.058-6.029.337a.607.607,0,0,1-.572.641l-1.712.1a.576.576,0,0,1-.628-.553l-1.058.059-.086-1.544a11.061,11.061,0,0,0-1.43.6,11.966,11.966,0,0,0-1.235.725l.4.354-.388.446a11.929,11.929,0,0,0,12.829-1.1Z" transform="translate(-802.618 -2060.418)" fill="#5a73cc" stroke="#5a73cc" stroke-linecap="round" stroke-linejoin="round" stroke-width="0.2"/>
      <path id="Tracé_28-7" data-name="Tracé 28" d="M816.853,2062.635l-.016-.011-.024-.014-.021-.013-.026-.021-6.029.338a.607.607,0,0,1-.572.64l-1.712.1a.577.577,0,0,1-.628-.553l-1.058.059.053.948a11.867,11.867,0,0,0,3.142.489A12.271,12.271,0,0,0,816.853,2062.635Z" transform="translate(-804.015 -2060.908)" fill="#5a73cc" stroke="#5a73cc" stroke-linecap="round" stroke-linejoin="round" stroke-width="0.2"/>
      <path id="Tracé_29-7" data-name="Tracé 29" d="M811.251,2062.794a.608.608,0,0,0-.182-.4l-.019-.019a.6.6,0,0,0-.439-.153l-2.319.129.034.607a.612.612,0,0,0,.641.573l1.712-.1A.607.607,0,0,0,811.251,2062.794Z" transform="translate(-804.529 -2060.788)" fill="#5a73cc" stroke="#5a73cc" stroke-linecap="round" stroke-linejoin="round" stroke-width="0.2"/>
      <circle id="Ellipse_22-7" data-name="Ellipse 22" cx="0.518" cy="0.518" r="0.518" transform="translate(1.037 1.789)" stroke-width="0.2" stroke="#5a73cc" stroke-linecap="round" stroke-linejoin="round" fill="#5a73cc"/>
    </g>
    <g id="Calque_1-3-8" data-name="Calque 1-3" transform="translate(809.564 2083.762)">
      <path id="Tracé_24-8" data-name="Tracé 24" d="M852.543,2107.888a10.857,10.857,0,0,1-7.462-.032l.034-.49Z" transform="translate(-842.676 -2104.694)" fill="#5a73cc" stroke="#5a73cc" stroke-linecap="round" stroke-linejoin="round" stroke-width="0.2"/>
      <path id="Tracé_25-8" data-name="Tracé 25" d="M859.9,2105.658l-.123,1.748a.927.927,0,1,1,.123-1.748Z" transform="translate(-847.233 -2104.118)" fill="#5a73cc" stroke="#5a73cc" stroke-linecap="round" stroke-linejoin="round" stroke-width="0.2"/>
      <path id="Tracé_26-8" data-name="Tracé 26" d="M854.285,2106.631a10.784,10.784,0,0,1-1.729.8l-7.424-.521.064-.921.952.066-.038.552,2.107.147a.545.545,0,0,0,.4-.133l.018-.017a.553.553,0,0,0,.171-.361Z" transform="translate(-842.693 -2104.232)" fill="#5a73cc" stroke="#5a73cc" stroke-linecap="round" stroke-linejoin="round" stroke-width="0.2"/>
      <path id="Tracé_27-8" data-name="Tracé 27" d="M853.126,2105.685l-.08.052-5.479-.384a.552.552,0,0,0-.512-.59l-1.556-.109a.549.549,0,0,0-.388.117.555.555,0,0,0-.191.379l-.962-.068-.1,1.4a10.038,10.038,0,0,1-1.292-.566,10.881,10.881,0,0,1-1.114-.676l.365-.317-.347-.41a10.848,10.848,0,0,1,11.653,1.169Z" transform="translate(-841.455 -2103.337)" fill="#5a73cc" stroke="#5a73cc" stroke-linecap="round" stroke-linejoin="round" stroke-width="0.2"/>
      <path id="Tracé_28-8" data-name="Tracé 28" d="M854.4,2105.927l-.015.009-.021.012-.019.011-.024.019-5.478-.385a.552.552,0,0,0-.513-.59l-1.556-.109a.549.549,0,0,0-.388.117.556.556,0,0,0-.191.379l-.962-.068.061-.862a10.8,10.8,0,0,1,2.864-.4A11.163,11.163,0,0,1,854.4,2105.927Z" transform="translate(-842.727 -2103.579)" fill="#5a73cc" stroke="#5a73cc" stroke-linecap="round" stroke-linejoin="round" stroke-width="0.2"/>
      <path id="Tracé_29-8" data-name="Tracé 29" d="M849.3,2106.02a.549.549,0,0,1-.17.361l-.018.018a.551.551,0,0,1-.4.134l-2.107-.148.038-.552a.557.557,0,0,1,.59-.513l1.556.11A.552.552,0,0,1,849.3,2106.02Z" transform="translate(-843.19 -2104.004)" fill="#5a73cc" stroke="#5a73cc" stroke-linecap="round" stroke-linejoin="round" stroke-width="0.2"/>
      <circle id="Ellipse_22-8" data-name="Ellipse 22" cx="0.471" cy="0.471" r="0.471" transform="translate(0.947 1.205)" stroke-width="0.2" stroke="#5a73cc" stroke-linecap="round" stroke-linejoin="round" fill="#5a73cc"/>
    </g>
    <g id="Calque_1-3-9" data-name="Calque 1-3" transform="translate(782.373 2102.088)">
      <path id="Tracé_24-9" data-name="Tracé 24" d="M812.648,2135.973a11.932,11.932,0,0,1-8.2-.034l.038-.539Z" transform="translate(-801.799 -2132.461)" fill="#5a73cc" stroke="#5a73cc" stroke-linecap="round" stroke-linejoin="round" stroke-width="0.2"/>
      <path id="Tracé_25-9" data-name="Tracé 25" d="M820.735,2133.521l-.135,1.922a1.019,1.019,0,1,1,.135-1.922Z" transform="translate(-806.809 -2131.828)" fill="#5a73cc" stroke="#5a73cc" stroke-linecap="round" stroke-linejoin="round" stroke-width="0.2"/>
      <path id="Tracé_26-9" data-name="Tracé 26" d="M814.562,2134.591a11.74,11.74,0,0,1-1.9.884l-8.162-.572.071-1.013,1.046.074-.042.606,2.317.162a.6.6,0,0,0,.441-.147l.019-.019a.606.606,0,0,0,.188-.4Z" transform="translate(-801.818 -2131.953)" fill="#5a73cc" stroke="#5a73cc" stroke-linecap="round" stroke-linejoin="round" stroke-width="0.2"/>
      <path id="Tracé_27-9" data-name="Tracé 27" d="M813.288,2133.55l-.088.057-6.023-.423a.607.607,0,0,0-.564-.649l-1.71-.12a.576.576,0,0,0-.636.544l-1.057-.074-.108,1.542a11.078,11.078,0,0,1-1.421-.623,11.993,11.993,0,0,1-1.224-.743l.4-.349-.381-.45a11.927,11.927,0,0,1,12.812,1.284Z" transform="translate(-800.456 -2130.969)" fill="#5a73cc" stroke="#5a73cc" stroke-linecap="round" stroke-linejoin="round" stroke-width="0.2"/>
      <path id="Tracé_28-9" data-name="Tracé 28" d="M814.686,2133.817l-.017.01-.023.014-.021.012-.026.021-6.023-.422a.607.607,0,0,0-.563-.649l-1.711-.12a.577.577,0,0,0-.636.544l-1.057-.073.066-.948a11.9,11.9,0,0,1,3.149-.444A12.268,12.268,0,0,1,814.686,2133.817Z" transform="translate(-801.854 -2131.236)" fill="#5a73cc" stroke="#5a73cc" stroke-linecap="round" stroke-linejoin="round" stroke-width="0.2"/>
      <path id="Tracé_29-9" data-name="Tracé 29" d="M809.084,2133.919a.605.605,0,0,1-.188.4l-.02.019a.6.6,0,0,1-.441.147l-2.317-.162.042-.606a.61.61,0,0,1,.649-.564l1.71.12A.607.607,0,0,1,809.084,2133.919Z" transform="translate(-802.363 -2131.703)" fill="#5a73cc" stroke="#5a73cc" stroke-linecap="round" stroke-linejoin="round" stroke-width="0.2"/>
      <circle id="Ellipse_22-9" data-name="Ellipse 22" cx="0.518" cy="0.518" r="0.518" transform="translate(1.041 1.325)" stroke-width="0.2" stroke="#5a73cc" stroke-linecap="round" stroke-linejoin="round" fill="#5a73cc"/>
    </g>
    <g id="Calque_1-3-10" data-name="Calque 1-3" transform="translate(823.13 2045.216)">
      <path id="Tracé_24-10" data-name="Tracé 24" d="M874.389,2049.529a11.936,11.936,0,0,1-8.136,1.066l-.034-.539Z" transform="translate(-863.361 -2046.668)" fill="#5a73cc" stroke="#5a73cc" stroke-linecap="round" stroke-linejoin="round" stroke-width="0.2"/>
      <path id="Tracé_25-10" data-name="Tracé 25" d="M882.114,2046.189l.124,1.922a1.019,1.019,0,1,1-.124-1.922Z" transform="translate(-868.281 -2045.544)" fill="#5a73cc" stroke="#5a73cc" stroke-linecap="round" stroke-linejoin="round" stroke-width="0.2"/>
      <path id="Tracé_26-10" data-name="Tracé 26" d="M876.118,2047.841a11.786,11.786,0,0,1-1.765,1.131l-8.166.527-.066-1.013,1.047-.068.039.607,2.318-.15a.605.605,0,0,0,.418-.2l.017-.021a.607.607,0,0,0,.133-.419Z" transform="translate(-863.328 -2046.1)" fill="#5a73cc" stroke="#5a73cc" stroke-linecap="round" stroke-linejoin="round" stroke-width="0.2"/>
      <path id="Tracé_27-10" data-name="Tracé 27" d="M874.778,2046.889l-.079.068-6.026.389a.607.607,0,0,0-.645-.567l-1.712.11a.6.6,0,0,0-.405.184.611.611,0,0,0-.152.44l-1.058.068.1,1.543a11.1,11.1,0,0,1-1.492-.427,11.874,11.874,0,0,1-1.312-.572l.351-.4-.438-.4a11.928,11.928,0,0,1,12.868-.445Z" transform="translate(-861.909 -2045.216)" fill="#5a73cc" stroke="#5a73cc" stroke-linecap="round" stroke-linejoin="round" stroke-width="0.2"/>
      <path id="Tracé_28-10" data-name="Tracé 28" d="M876.165,2047.11l-.015.012-.021.017-.019.015-.023.025-6.026.389a.607.607,0,0,0-.645-.567l-1.712.11a.6.6,0,0,0-.405.184.611.611,0,0,0-.152.44l-1.058.068-.061-.948a11.87,11.87,0,0,1,3.061-.863A12.269,12.269,0,0,1,876.165,2047.11Z" transform="translate(-863.296 -2045.437)" fill="#5a73cc" stroke="#5a73cc" stroke-linecap="round" stroke-linejoin="round" stroke-width="0.2"/>
      <path id="Tracé_29-10" data-name="Tracé 29" d="M870.623,2048.138a.6.6,0,0,1-.133.419l-.017.021a.6.6,0,0,1-.417.2l-2.318.15-.039-.607a.611.611,0,0,1,.567-.645l1.712-.11A.607.607,0,0,1,870.623,2048.138Z" transform="translate(-863.858 -2046.009)" fill="#5a73cc" stroke="#5a73cc" stroke-linecap="round" stroke-linejoin="round" stroke-width="0.2"/>
      <circle id="Ellipse_22-10" data-name="Ellipse 22" cx="0.518" cy="0.518" r="0.518" transform="translate(1.08 1.934)" stroke-width="0.2" stroke="#5a73cc" stroke-linecap="round" stroke-linejoin="round" fill="#5a73cc"/>
    </g>
    <g id="Calque_1-3-11" data-name="Calque 1-3" transform="translate(746.764 2063.556)">
      <path id="Tracé_24-11" data-name="Tracé 24" d="M758.831,2078.1a11.931,11.931,0,0,1-8.193-.455l.066-.536Z" transform="translate(-748.069 -2074.297)" fill="#5a73cc" stroke="#5a73cc" stroke-linecap="round" stroke-linejoin="round" stroke-width="0.2"/>
      <path id="Tracé_25-11" data-name="Tracé 25" d="M767.024,2076.1l-.233,1.912a1.019,1.019,0,1,1,.233-1.912Z" transform="translate(-753.097 -2073.958)" fill="#5a73cc" stroke="#5a73cc" stroke-linecap="round" stroke-linejoin="round" stroke-width="0.2"/>
      <path id="Tracé_26-11" data-name="Tracé 26" d="M760.8,2076.817a11.8,11.8,0,0,1-1.944.785l-8.122-.99.123-1.007,1.041.127-.074.6,2.305.281a.6.6,0,0,0,.448-.124l.021-.018a.6.6,0,0,0,.208-.387Z" transform="translate(-748.101 -2073.791)" fill="#5a73cc" stroke="#5a73cc" stroke-linecap="round" stroke-linejoin="round" stroke-width="0.2"/>
      <path id="Tracé_27-11" data-name="Tracé 27" d="M759.554,2075.844l-.09.053-5.994-.731a.608.608,0,0,0-.529-.677l-1.7-.208a.576.576,0,0,0-.663.511l-1.052-.129-.188,1.535a11.073,11.073,0,0,1-1.387-.7,11.877,11.877,0,0,1-1.185-.8l.419-.328-.357-.469a11.928,11.928,0,0,1,12.729,1.94Z" transform="translate(-746.764 -2072.87)" fill="#5a73cc" stroke="#5a73cc" stroke-linecap="round" stroke-linejoin="round" stroke-width="0.2"/>
      <path id="Tracé_28-11" data-name="Tracé 28" d="M760.955,2076.126l-.017.009-.024.013-.022.011-.027.019-5.994-.731a.608.608,0,0,0-.529-.677l-1.7-.208a.577.577,0,0,0-.663.511l-1.052-.129.115-.942a11.862,11.862,0,0,1,3.168-.283A12.274,12.274,0,0,1,760.955,2076.126Z" transform="translate(-748.165 -2073.152)" fill="#5a73cc" stroke="#5a73cc" stroke-linecap="round" stroke-linejoin="round" stroke-width="0.2"/>
      <path id="Tracé_29-11" data-name="Tracé 29" d="M755.361,2075.88a.607.607,0,0,1-.208.387l-.02.018a.6.6,0,0,1-.448.124l-2.305-.281.074-.6a.612.612,0,0,1,.677-.53l1.7.208A.609.609,0,0,1,755.361,2075.88Z" transform="translate(-748.655 -2073.584)" fill="#5a73cc" stroke="#5a73cc" stroke-linecap="round" stroke-linejoin="round" stroke-width="0.2"/>
      <circle id="Ellipse_22-11" data-name="Ellipse 22" cx="0.518" cy="0.518" r="0.518" transform="translate(1.052 1.14)" stroke-width="0.2" stroke="#5a73cc" stroke-linecap="round" stroke-linejoin="round" fill="#5a73cc"/>
    </g>
  </g>
</svg>
