<svg xmlns="http://www.w3.org/2000/svg" width="52.217" height="27.237" viewBox="0 0 52.217 27.237">
  <g id="Groupe_97" data-name="Groupe 97" transform="translate(-133.671 -914.649)">
    <g id="Calque_1-2" data-name="Calque 1-2" transform="translate(-104.901 5.691)">
      <path id="Tracé_11" data-name="Tracé 11" d="M238.572,912.679l.3,3.177,25.563-2.379a4.41,4.41,0,0,1,4.8,3.983h0l1.209,12.988a4.3,4.3,0,0,0,.285,1.2,4.41,4.41,0,0,0,4.287,2.8l15.777-1.468-.3-3.176-3.912.364a1.61,1.61,0,0,1-1.737-1.371l-1.475-15.853a4.319,4.319,0,0,0-.86-2.22,4.372,4.372,0,0,0-1.6-1.328,4.893,4.893,0,0,0-.545-.226l-.213-.065-.189-.045-.173-.036-.025,0c-.161-.025-.325-.047-.493-.058l-.23-.008a1,1,0,0,1-.232,0l-40.234,3.744Z" fill="#253676"/>
      <path id="Tracé_12" data-name="Tracé 12" d="M250.158,914.8l14.273-1.328a4.412,4.412,0,0,1,4.8,3.983h0l.456,4.9-.205.019-5.823-4.818.494,5.313-13.317,1.24-.752-8.085A4.236,4.236,0,0,1,250.158,914.8Z" fill="#1d1d1b"/>
      <path id="Tracé_13" data-name="Tracé 13" d="M250.851,924.113l.752,8.081a4.41,4.41,0,0,0,4.8,3.982l18.61-1.732a4.409,4.409,0,0,1-4.287-2.8,4.307,4.307,0,0,1-.285-1.2l-.753-8.087-.205.019.056.046-4.88,5.869-.5-5.42Z" fill="#fff"/>
      <path id="Tracé_14" data-name="Tracé 14" d="M241.978,916.748l1.511,16.242,7.365-8.877Z" fill="#1d1d1b"/>
      <path id="Tracé_15" data-name="Tracé 15" d="M263.677,917.56l1,10.733,4.862-5.867-.056-.046Z" fill="#659cd4"/>
      <circle id="Ellipse_19" data-name="Ellipse 19" cx="3.9" cy="3.9" r="3.9" transform="translate(273.209 917.77)" fill="#1d1d1b" stroke="#fff" stroke-miterlimit="10" stroke-width="0.474"/>
    </g>
    <g id="Groupe_96" data-name="Groupe 96">
      <g id="Calque_1-2-2" data-name="Calque 1-2" transform="translate(-104.901 5.691)" opacity="0.36" style="mix-blend-mode: multiply;isolation: isolate">
        <path id="Tracé_11-2" data-name="Tracé 11" d="M238.572,912.679l.3,3.177,25.563-2.379a4.41,4.41,0,0,1,4.8,3.983h0l1.209,12.988a4.3,4.3,0,0,0,.285,1.2,4.41,4.41,0,0,0,4.287,2.8l15.777-1.468-.3-3.176-3.912.364a1.61,1.61,0,0,1-1.737-1.371l-1.475-15.853a4.319,4.319,0,0,0-.86-2.22,4.372,4.372,0,0,0-1.6-1.328,4.893,4.893,0,0,0-.545-.226l-.213-.065-.189-.045-.173-.036-.025,0c-.161-.025-.325-.047-.493-.058l-.23-.008a1,1,0,0,1-.232,0l-40.234,3.744Z" fill="#3a4589"/>
        <path id="Tracé_12-2" data-name="Tracé 12" d="M250.158,914.8l14.273-1.328a4.412,4.412,0,0,1,4.8,3.983h0l.456,4.9-.205.019-5.823-4.818.494,5.313-13.317,1.24-.752-8.085A4.236,4.236,0,0,1,250.158,914.8Z" fill="#3a4589"/>
        <path id="Tracé_13-2" data-name="Tracé 13" d="M250.851,924.113l.752,8.081a4.41,4.41,0,0,0,4.8,3.982l18.61-1.732a4.409,4.409,0,0,1-4.287-2.8,4.307,4.307,0,0,1-.285-1.2l-.753-8.087-.205.019.056.046-4.88,5.869-.5-5.42Z" fill="#3a4589"/>
        <path id="Tracé_14-2" data-name="Tracé 14" d="M241.978,916.748l1.511,16.242,7.365-8.877Z" fill="#3a4589"/>
        <path id="Tracé_15-2" data-name="Tracé 15" d="M263.677,917.56l1,10.733,4.862-5.867-.056-.046Z" fill="#3a4589"/>
        <circle id="Ellipse_19-2" data-name="Ellipse 19" cx="3.9" cy="3.9" r="3.9" transform="translate(273.209 917.77)" fill="#3a4589"/>
      </g>
    </g>
  </g>
</svg>
