<svg xmlns="http://www.w3.org/2000/svg" width="79.975" height="60.267" viewBox="0 0 79.975 60.267">
  <g id="Calque_1-2" data-name="Calque 1-2" transform="translate(-467.782 -1043.812)">
    <path id="Tracé_11" data-name="Tracé 11" d="M469.865,1043.812l-1.115,5.445,43.82,8.973a7.684,7.684,0,0,1,5.987,9.069h0L514,1089.563a7.563,7.563,0,0,0-.132,2.144,7.685,7.685,0,0,0,5.732,6.834l27.044,5.538,1.115-5.446-6.706-1.373a2.8,2.8,0,0,1-2.2-3.163l5.564-27.177a7.516,7.516,0,0,0-.31-4.136,7.613,7.613,0,0,0-2-3.023,8.107,8.107,0,0,0-.794-.652l-.322-.216-.292-.171-.271-.147-.044-.009c-.255-.124-.517-.243-.792-.345l-.379-.13a1.692,1.692,0,0,1-.388-.113l-68.97-14.122Z" fill="#253676"/>
    <path id="Tracé_12" data-name="Tracé 12" d="M488.1,1053.22l24.467,5.01a7.684,7.684,0,0,1,5.986,9.069h0l-1.72,8.4-.351-.072-7.269-10.98-1.865,9.109-22.829-4.675,2.837-13.857A7.475,7.475,0,0,1,488.1,1053.22Z" fill="#1d1d1b"/>
    <path id="Tracé_13" data-name="Tracé 13" d="M484.547,1069.088l-2.836,13.851a7.684,7.684,0,0,0,5.986,9.068l31.9,6.533a7.685,7.685,0,0,1-5.732-6.835,7.556,7.556,0,0,1,.132-2.143l2.838-13.863-.351-.072.07.106-11.106,7.315,1.9-9.291Z" fill="#fff"/>
    <path id="Tracé_14" data-name="Tracé 14" d="M473.483,1052.318l-5.7,27.841,16.771-11.07Z" fill="#1d1d1b"/>
    <path id="Tracé_15" data-name="Tracé 15" d="M509.248,1064.655l-3.768,18.4,11.075-7.321-.07-.1Z" fill="#659cd4"/>
    <circle id="Ellipse_19" data-name="Ellipse 19" cx="6.794" cy="6.794" r="6.794" transform="translate(522.765 1071.51)" fill="#1d1d1b" stroke="#fff" stroke-miterlimit="10" stroke-width="0.826"/>
  </g>
</svg>
