<svg xmlns="http://www.w3.org/2000/svg" width="106.053" height="67.054" viewBox="0 0 106.053 67.054">
  <g id="Calque_1" data-name="Calque 1" transform="translate(-75.135 -502.929)">
    <path id="Tracé_45" data-name="Tracé 45" d="M149.426,504.158l-55.611,9.433a10.923,10.923,0,0,0-8.943,12.6l5.886,34.7a10.923,10.923,0,0,0,12.6,8.943l55.612-9.433a.117.117,0,0,0,.1-.135l-9.5-56.006A.116.116,0,0,0,149.426,504.158Z" fill="#d9637f"/>
    <path id="Tracé_2" data-name="Tracé 2" d="M149.561,504.254l9.5,56.006a.117.117,0,0,0,.135.1l6.668-1.131a9.685,9.685,0,0,0,1.03-.284h0c.232-.079.458-.161.682-.255.135-.054.264-.115.407-.174l.243-.111.462-.24.084-.045a11.024,11.024,0,0,0,3.431-3,.115.115,0,0,1,.072-.044l7.694-1.3a1.466,1.466,0,0,0-.491-2.891l-8.824,1.5a1.466,1.466,0,0,1-.491-2.89l8.825-1.5a1.466,1.466,0,0,0-.49-2.891l-4.3.729a.116.116,0,0,1-.135-.1l-5.724-33.739a10.921,10.921,0,0,0-11.475-9.036,10.45,10.45,0,0,0-1.1.13l-6.107,1.036A.118.118,0,0,0,149.561,504.254Z" fill="#1d1d1b"/>
    <path id="Tracé_3" data-name="Tracé 3" d="M135.135,513.425l8.393,49.479a.118.118,0,0,0,.135.1l15.3-2.6a.116.116,0,0,0,.1-.135l-9.492-55.956a.117.117,0,0,0-.178-.079l-4.118,2.629-10.088,6.445A.116.116,0,0,0,135.135,513.425Z" fill="#fff"/>
    <path id="Tracé_4" data-name="Tracé 4" d="M123.082,531.858l6.389,4.535a.116.116,0,0,1,.027.163l-4.536,6.385a.116.116,0,0,0-.02.087l3.8,22.384a.117.117,0,0,0,.135.1l10.873-1.844a.117.117,0,0,0,.1-.135l-8.112-47.824a.117.117,0,0,0-.178-.079l-10.093,6.446a.116.116,0,0,0-.052.118l1.627,9.592A.118.118,0,0,0,123.082,531.858Z" fill="#fff"/>
    <path id="Tracé_5" data-name="Tracé 5" d="M106.834,531.5l6.2,36.579a.117.117,0,0,0,.135.1l12.287-2.084a.117.117,0,0,0,.1-.135L122.291,546.7l-.542.768-3.194-18.829.764.543-.85-5.013a.117.117,0,0,0-.178-.079l-11.4,7.284A.116.116,0,0,0,106.834,531.5Z" fill="#fff"/>
    <path id="Tracé_6" data-name="Tracé 6" d="M87.907,543.5a.116.116,0,0,0-.052.118l2.939,17.326a10.913,10.913,0,0,0,12.547,8.889l6.421-1.089a.118.118,0,0,0,.1-.135L103.9,533.479a.116.116,0,0,0-.178-.079Z" fill="#fff"/>
    <path id="Tracé_7" data-name="Tracé 7" d="M84.866,526.148,87.8,543.472a.116.116,0,0,0,.092.1l70.795,14.508,6.312,1.3a.108.108,0,0,0,.044,0l.8-.136.009,0c.347-.08.688-.173,1.026-.282h0a10.938,10.938,0,0,0,6.9-6.924.12.12,0,0,0-.134-.154l-3.028.513a1.466,1.466,0,0,1-.49-2.89l4.1-.7a.121.121,0,0,0,.1-.116,10.39,10.39,0,0,0-.15-1.88L168.281,512a10.922,10.922,0,0,0-11.416-9.046,10.45,10.45,0,0,0-1.1.13L93.793,513.595A10.917,10.917,0,0,0,84.866,526.148Z" fill="#1d1d1b" opacity="0.36" style="isolation: isolate"/>
    <path id="Tracé_8" data-name="Tracé 8" d="M118.555,528.643l3.194,18.829.542-.768.542-.765,2.1-2.959,4.564-6.424a.116.116,0,0,0-.027-.163l-6.428-4.564-3.724-2.643Z" fill="#f09990"/>
    <circle id="Ellipse_18" data-name="Ellipse 18" cx="7.035" cy="7.035" r="7.035" transform="translate(148.179 511.696)" fill="#1d1d1b" stroke="#fff" stroke-miterlimit="10" stroke-width="0.892"/>
    <path id="Tracé_9" data-name="Tracé 9" d="M75.137,539.644l2,11.76a.117.117,0,0,0,.186.074l3.549-2.675a.118.118,0,0,0,.045-.113L79.6,540.96a.115.115,0,0,0-.08-.091l-4.232-1.356A.118.118,0,0,0,75.137,539.644Z"/>
    <path id="Tracé_10" data-name="Tracé 10" d="M82.3,541.941l.837,4.934a.117.117,0,0,0,.186.074l4.342-3.275a.117.117,0,0,0-.035-.205l-5.179-1.659A.117.117,0,0,0,82.3,541.941Z"/>
  </g>
</svg>
