<svg xmlns="http://www.w3.org/2000/svg" width="123.98" height="130.473" viewBox="0 0 123.98 130.473">
  <g id="Calque_2" data-name="Calque 2" transform="matrix(0.809, 0.588, -0.588, 0.809, 74.151, -17.799)">
    <g id="Calque_1" data-name="Calque 1" transform="translate(0 0)">
      <path id="Tracé_102" data-name="Tracé 102" d="M51.459,3.909,26.083,18.594A2.173,2.173,0,0,0,25,20.474V90.728a.925.925,0,0,1-.925.925H21.56a.94.94,0,0,1-.94-.925V19.211a4.406,4.406,0,0,1,2.217-3.833L49.271.12a.925.925,0,0,1,1.278.352l1.263,2.173a.925.925,0,0,1-.352,1.263Z" transform="translate(9.661 0.006)" fill="#d7d7d7"/>
      <ellipse id="Ellipse_29" data-name="Ellipse 29" cx="0.749" cy="1.469" rx="0.749" ry="1.469" transform="matrix(0.887, -0.462, 0.462, 0.887, 58.544, 1.115)" fill="#fff"/>
      <path id="Tracé_103" data-name="Tracé 103" d="M54.121,34.71,41.14,116.066H34.12l13-81.356Z" transform="translate(15.986 16.272)" fill="#c3cdea"/>
      <path id="Tracé_104" data-name="Tracé 104" d="M61.669,34.71l-13,81.356H18.7L3.06,34.71Z" transform="translate(1.434 16.272)" fill="#758dc7"/>
      <rect id="Rectangle_355" data-name="Rectangle 355" width="74.366" height="6.373" rx="2.17" transform="translate(0 56.973)" fill="#fff"/>
    </g>
  </g>
</svg>
