<svg xmlns="http://www.w3.org/2000/svg" width="152.584" height="153.978" viewBox="0 0 152.584 153.978">
  <g id="Calque_2" data-name="Calque 2" transform="translate(-7.716 62.675) rotate(-47)">
    <g id="Calque_1" data-name="Calque 1">
      <path id="Tracé_105" data-name="Tracé 105" d="M10.648,101.975V29.759a20.7,20.7,0,0,1,.276-2.3,21.987,21.987,0,0,1,1.426-4.784,12.418,12.418,0,0,1,.529-1.127c.207-.437.437-.874.667-1.288a22.172,22.172,0,0,1,1.311-2.116,9.982,9.982,0,0,1,.782-1.012,10.487,10.487,0,0,1,.828-.989l.9-.966.874-.828H7.59A22.677,22.677,0,0,0,0,31.139v70.836c0,7.314,6.555,13.247,14.673,13.247H25.3C17.2,115.222,10.648,109.288,10.648,101.975Zm73.044-70.33H73.044a5.129,5.129,0,0,1,5.336,4.9V78.608a5.106,5.106,0,0,1-5.336,4.807H83.692a5.106,5.106,0,0,0,5.336-4.807V36.544a5.129,5.129,0,0,0-5.336-4.9Z" transform="translate(0 18.653)" fill="#c3cdea"/>
      <path id="Tracé_106" data-name="Tracé 106" d="M55,1.51,21.929,25.13,15.535,30.1l-.506.345-1.081.667H3.3a13.339,13.339,0,0,1,1.357-.874l7.751-4.37Z" transform="translate(4.29 1.963)" fill="#c3cdea" opacity="0.27"/>
      <path id="Tracé_107" data-name="Tracé 107" d="M35.2,68.8V26.732a5.129,5.129,0,0,1,5.336-4.83H29.886a5.129,5.129,0,0,0-5.336,4.83V68.8A5.106,5.106,0,0,0,29.886,73.6H40.534A5.106,5.106,0,0,1,35.2,68.8Z" transform="translate(31.912 28.464)" fill="#a9b4dd"/>
      <path id="Tracé_108" data-name="Tracé 108" d="M82.891,14.38h-70.7l-.874.828-.9.966-.828.989c-.276.322-.529.667-.782,1.012s-.874,1.311-1.265,1.978a11.909,11.909,0,0,0-.667,1.288c-.207.437-.368.759-.529,1.127a21.987,21.987,0,0,0-1.426,4.738,20.7,20.7,0,0,0-.276,2.3q0,.69,0,1.38v70.836c0,7.314,6.555,13.247,14.673,13.247h51.54c8.119,0,14.7-5.934,14.7-13.247V29.605A44.64,44.64,0,0,0,82.891,14.38Zm0,64.189a5.106,5.106,0,0,1-5.336,4.807h-21.8a5.106,5.106,0,0,1-5.336-4.807V36.5a5.129,5.129,0,0,1,5.336-4.83H77.648a5.129,5.129,0,0,1,5.336,4.83Z" transform="translate(6.044 18.692)" fill="#a9b4dd"/>
      <path id="Tracé_109" data-name="Tracé 109" d="M78.628,31.109H7.93l1.081-.667.506-.345,6.394-4.968L48.983,1.51H60.988l16.444,27.6v.184A6.224,6.224,0,0,1,78.628,31.109Z" transform="translate(10.308 1.963)" fill="#a9b4dd" opacity="0.31"/>
      <rect id="Rectangle_356" data-name="Rectangle 356" width="12.925" height="3.473" transform="translate(58.785)" fill="#a9b4dd"/>
      <line id="Ligne_115" data-name="Ligne 115" x1="0.023" transform="translate(7.59 33.095)" fill="none"/>
    </g>
  </g>
</svg>
