<svg xmlns="http://www.w3.org/2000/svg" width="481.876" height="502.913" viewBox="0 0 481.876 502.913">
  <g id="Groupe_522" data-name="Groupe 522" transform="translate(-5859.844 -4052.693)">
    <path id="Tracé_2208" data-name="Tracé 2208" d="M6193.529,4385.552c-15.838,5.236-46.652,5.217-72.744-4.014a192.224,192.224,0,0,1-26.465-11.818l-.033.031c-10.816-6.135-21.125-14.086-30.346-20.232-29.5-19.656-26.311-28.875-37.65-32.965-17.328-6.246-26.762,3.508-25.551,8.51,1.207,4.984,27.658,37.533,75.729,61.18-2.424.309-4.4.533-6.109.625-19.1.4-40.3-17.367-56.488-28.562-31.951-22.1-29.592-32.479-42.346-37.076-19.486-7.029-30.1,3.945-28.736,9.568,1.453,6,37.926,49.43,95.109,73.918-19.6,2.734-46.9-11.736-70.227-29.283-24.211-18.209-42.318-39.512-52.594-40.822-20.547-2.625-25.432,10.166-25.432,10.166a22.535,22.535,0,0,0-1.078,9.346c26.48,9.615,53.752,50.984,121.256,75.09,90.035,32.152,179.5-25.545,190.982-36.619a18.328,18.328,0,0,0,5.254-10.361C6198.443,4386.38,6193.529,4385.552,6193.529,4385.552Z" transform="translate(4.909 44.894)" fill="#dadae5"/>
    <path id="Tracé_2209" data-name="Tracé 2209" d="M6111.578,4370.177a20.228,20.228,0,0,1,2.648-3.908c6.059-6.941,17.826-11.025,26.813-11.658,9.34-.658,18.363,2.82,27.684,2.729,16.094-.16,33.059-13.359,38.643-28.336,2.852-7.643-3.139-14.922-11.057-12.437-4.381,1.375-7.83,4.51-12,6.268-4.352,1.836-9.375,1.492-13.891.168-7.068-2.076-16.127-6.926-17.863-14.738-1.641-7.391,5.75-13.961,12.453-15.953a26.975,26.975,0,0,1,3.418-1.148,30.524,30.524,0,0,1,3.83-.738c16.873-2.152,36.293.68,51.654-10.5a40.141,40.141,0,0,0,3.473-2.836c8.127-8.25,22.088-18.105,17.162-28.783-5.1-11.059-15.314-1.119-22.6,1.77-14.2,5.633-29.582-5.686-25.98-21.154,1.908-8.178,8.744-14.67,15.756-18.713,9.008-5.189,18.227-9.687,26.541-16.027,11.834-9.027,26.48-24.68,25.381-40.9-.23-3.395-2.141-6.912-5.371-7.98-2.945-.973-6.176.277-8.754,2-5.018,3.344-8.658,8.416-13.512,12-5.732,4.232-13.752,6.115-20.086,2.844-8-4.127-8.949-14.076-4.578-21.258,2.916-4.791,7.412-8.358,11.6-12.093,14.41-12.866,21.682-35.79,15.1-54.349a28.285,28.285,0,0,0-1.709-3.546c-3.139-5.229-9.748-2.319-11.25,2.446-2.867,9.089-6.3,19.454-17.908,18.928-2.83-.128-6.027-1.486-6.674-4.245a9.2,9.2,0,0,1,.174-3.6,45.287,45.287,0,0,0,.389-13.567c-.818-6.06-3.557-12.161-8.65-15.543a15.868,15.868,0,0,0-23.76,8c-3.027,8.71,1.83,17.938,5.719,26.3,1.258,2.7,2.443,5.767,1.475,8.586-1.213,3.54-5.588,5.221-9.25,4.449-12.264-2.591-12.639-20.174-24.941-22.67-3.574-.724-7.32,5.99-7.451,11.55-.187,7.906,2.422,17.591,12.85,27.488q1.564,1.488,3.367,2.98c2.328,1.674,4.6,3.391,6.807,5.172.736.593,1.467,1.2,2.188,1.841,5.633,5.011,11.875,9.946,15.385,16.786,4.1,7.982,1.406,15.9-3.531,22.881-1.559,2.2-3.574,4.361-6.232,4.814-3.467.594-6.764-1.959-8.617-4.947-3.566-5.742-4.949-15.1-11.91-18.033-3.357-1.416-8.354,4.428-9.578,9.852-2.008,8.873-.848,20.775,11.422,34.893.625.682,1.211,1.318,1.83,1.971,1.092.756,2.152,1.531,3.168,2.332a33.884,33.884,0,0,1,2.895,2.549,31.5,31.5,0,0,1,7.439,18.822c.059.975.078,1.957.059,2.938-.172,8.273-7.314,30.773-19.262,26.15a13.333,13.333,0,0,1-4.814-3.473c-6.586-7.055-5.291-15-5.982-23.754-1.148-14.49-17.137-9.93-22.592-.555-9.08,15.6-2.094,34.529,4.117,49.8,3,7.369,5.539,13.508,3.053,21.516-2.07,6.65-7.16,12.258-14.295,13.246a16.139,16.139,0,0,1-12.58-3.717c-3.523-3.039-5.557-7.5-6.617-12.027-1.18-5.033.473-19.9-6.361-20.922-10.742-1.6-15.629,11.229-17.373,19.58-2.578,12.332.465,23.23,5.9,34.428,3.363,6.924,8.473,17.662,4.346,25.156-3.187,5.783-10.8,7.494-15.193,12.422-5.564,6.242-5.717,17.838,3.734,19.176a34.351,34.351,0,0,1,15,5.551c2.867,2.01,5.348,4.6,8.459,6.2a23.757,23.757,0,0,0,11.4,2.162,17.846,17.846,0,0,0,7.146-1.32C6107.666,4389.884,6107.988,4376.981,6111.578,4370.177Z" transform="translate(32.645 -0.001)" fill="#ccf"/>
    <path id="Tracé_2210" data-name="Tracé 2210" d="M6068.721,4371.333c-4.877-5.588-14.346-8.875-21.576-9.383-7.52-.531-14.779,2.268-22.281,2.2-12.951-.129-26.609-10.752-31.1-22.807-2.295-6.15,2.525-12.008,8.9-10.01,3.523,1.105,6.3,3.631,9.658,5.047,3.5,1.477,7.543,1.2,11.176.133,5.691-1.666,12.98-5.57,14.377-11.859,1.32-5.951-4.627-11.238-10.023-12.842a21.411,21.411,0,0,0-2.75-.92,24.134,24.134,0,0,0-3.082-.6c-13.58-1.732-29.207.545-41.57-8.449a32.232,32.232,0,0,1-2.793-2.281c-6.543-6.641-17.779-14.572-13.814-23.166,4.107-8.9,12.324-.9,18.184,1.424,11.43,4.533,23.813-4.576,20.91-17.027-1.533-6.58-7.037-11.8-12.682-15.057-7.25-4.18-14.666-7.8-21.357-12.9-9.525-7.266-21.314-19.861-20.428-32.912.186-2.734,1.723-5.564,4.324-6.424,2.367-.781,4.967.223,7.045,1.607,4.037,2.693,6.967,6.775,10.873,9.658,4.613,3.4,11.068,4.918,16.166,2.289,6.436-3.324,7.2-11.33,3.684-17.111-2.346-3.855-5.967-6.727-9.334-9.732-11.6-10.354-17.451-28.8-12.148-43.738a22.276,22.276,0,0,1,1.375-2.855c2.525-4.209,7.844-1.865,9.051,1.969,2.309,7.314,5.074,15.66,14.416,15.234,2.277-.105,4.848-1.2,5.367-3.416a7.422,7.422,0,0,0-.135-2.9,36.371,36.371,0,0,1-.314-10.92c.658-4.875,2.861-9.787,6.963-12.508a12.765,12.765,0,0,1,19.121,6.443c2.436,7.006-1.477,14.436-4.605,21.164-1.01,2.176-1.965,4.643-1.187,6.908.979,2.85,4.5,4.2,7.445,3.582,9.871-2.084,10.174-16.236,20.076-18.246,2.875-.582,5.887,4.822,5.994,9.3.15,6.363-1.949,14.156-10.34,22.123-.842.8-1.742,1.594-2.711,2.4q-2.81,2.019-5.479,4.16c-.592.48-1.182.965-1.762,1.484-4.531,4.031-9.555,8-12.381,13.51-3.3,6.424-1.133,12.793,2.844,18.412,1.254,1.773,2.877,3.51,5.018,3.875,2.787.48,5.441-1.576,6.934-3.98,2.869-4.623,3.98-12.154,9.582-14.516,2.705-1.139,6.725,3.566,7.713,7.93,1.615,7.141.682,16.721-9.193,28.084-.506.545-.977,1.061-1.473,1.584q-1.321.911-2.551,1.879a27.285,27.285,0,0,0-2.328,2.049,25.378,25.378,0,0,0-5.99,15.148q-.07,1.181-.047,2.365c.141,6.658,5.889,24.766,15.5,21.047a10.731,10.731,0,0,0,3.875-2.795c5.3-5.682,4.258-12.078,4.816-19.117.924-11.662,13.793-7.992,18.182-.447,7.309,12.555,1.684,27.789-3.312,40.08-2.412,5.93-4.459,10.869-2.457,17.314,1.662,5.352,5.764,9.865,11.5,10.66a13,13,0,0,0,10.129-2.99,18.005,18.005,0,0,0,5.324-9.682c.949-4.047-.383-16.016,5.119-16.838,8.648-1.289,12.578,9.035,13.982,15.758,2.074,9.928-.373,18.7-4.748,27.707-2.709,5.572-6.82,14.217-3.5,20.246,2.568,4.656,8.693,6.033,12.232,10,4.475,5.023,4.6,14.355-3.01,15.434a30.744,30.744,0,0,0-8.4,2.34c-2.09.951-8.965,1.811-11.328,1.914C6082.8,4387.86,6069.572,4372.31,6068.721,4371.333Z" transform="translate(15.187 11.362)" fill="#e6e6ff"/>
    <path id="Tracé_2211" data-name="Tracé 2211" d="M6273.688,4514.275c25.631,18.529,61.672,2.346,65.828-29.006,3.973-29.924,3.451-61.512-8.91-84.709-31.738-59.57-88.236-75.031-102.76-85.422s-70.135-25.826-91.137-53.879-36.379-7.238-26.318,22.836,26.879,34.992,53.26,49.1c27.7,14.807,46.336,52.654,31.08,67.359-11.186,10.781-98.271,66.949-185.92,35.646s-105.621-92.5-145.025-70.359c-12.709,5.779,8.172,22.1,22.26,32.781,20.658,15.648,22.535,20.857,48.393,40.922s30.393,32.57,125.438,47.658C6132.107,4498.662,6218,4474.021,6273.688,4514.275Z" transform="translate(0 33.491)" fill="#fff"/>
  </g>
</svg>
