<svg id="Groupe_360" data-name="Groupe 360" xmlns="http://www.w3.org/2000/svg" xmlns:xlink="http://www.w3.org/1999/xlink" width="139.482" height="133.761" viewBox="0 0 139.482 133.761">
  <defs>
    <linearGradient id="linear-gradient" x1="-0.804" y1="0.096" x2="-0.804" y2="0.878" gradientUnits="objectBoundingBox">
      <stop offset="0" stop-color="#3a4589"/>
      <stop offset="1" stop-color="#262f59"/>
    </linearGradient>
  </defs>
  <path id="Tracé_395" data-name="Tracé 395" d="M117.052,247.742c-4.578,1.526-13.5,1.526-21.059-1.153a55.531,55.531,0,0,1-7.664-3.425h0c-3.12-1.763-6.1-4.069-8.783-5.867-8.546-5.7-7.63-8.376-10.885-9.529-5.019-1.8-7.732,1.017-7.393,2.476s8,10.852,21.907,17.7a13.183,13.183,0,0,1-1.763.17c-5.528.1-11.665-5.019-16.345-8.274-9.258-6.409-8.58-9.393-12.242-10.75-5.629-2.035-8.715,1.153-8.308,2.781.407,1.729,10.987,14.31,27.536,21.4-5.663.78-13.564-3.391-20.313-8.478-7.02-5.256-12.242-11.428-15.226-11.8-5.934-.746-7.359,2.95-7.359,2.95a6.831,6.831,0,0,0-.305,2.713c7.664,2.781,15.565,14.751,35.1,21.737,26.078,9.292,51.952-7.393,55.275-10.614a5.5,5.5,0,0,0,1.526-2.984A6.149,6.149,0,0,1,117.052,247.742Z" transform="translate(-19.069 -150.225)" fill="#d9d9ff"/>
  <path id="Tracé_396" data-name="Tracé 396" d="M158.981,83.814a7.43,7.43,0,0,0,2.645-.034c.373-.1.78-.2,1.153-.271a31.463,31.463,0,0,1,9.563.746c.339.136.678.271,1.051.441.407.136.746.237,1.119.373a18.156,18.156,0,0,0,8.919.373c2.17-.373,4.171-.644,3.73-3.154-.17-.983-2.815-1.356-4-1.492-2-.237-3.8-2.476-3.968-5.087s3.357-5.188,8.546-5.256c5.222-.034,8.817-.78,13.632-5.053,1.628-1.458,3.188-2.747,1.492-4.646-.644-.746-3.086.339-4.205.848-1.831.848-4.442.441-6.07-2.2-1.628-2.679,7.325-13.632,12.412-14.785,5.087-1.119,8.444-2.577,12.276-7.766,1.289-1.763,2.543-3.357.475-4.849-.814-.576-2.95.983-3.934,1.7-1.628,1.221-4.442.848-6.375-.916s-1.187-6.07,2.509-9.733,5.8-6.68,6.274-13.124c.17-2.17.373-4.2-2.17-4.375-.983-.068-2,2.408-2.408,3.527-.712,1.9-3.323,3.086-5.9,2.611-3.832-.678,1.8-4.51.136-7.7-2.2-4.239-4.815-4.544-7.223-2.611-3.12,2.442,2.272,9.7-.305,11.055-1.967,1.017-4.951-5.6-7.867-6.545-.916-.305-2.136,1.356-2.34,2.815-.407,2.916.509,6.952,6.545,11.36,3.595,2.611,3.357,12.547.746,12.581s-3.764-6.443-6.443-7.969c-.848-.475-2.34.916-2.848,2.306-.983,2.781-.882,6.884,4.171,12.411,2.984,3.255-1.119,14.548-3.357,13.327s2.136-7.155,1.424-10.139c-.237-.95-2.272-1.085-3.628-.509-2.713,1.187-5.629,4.069-6.206,11.53-.339,4.408-3.086,16.684-10.275,7.257-1.594-2.069,3.527-6.579,3.391-9.665-.034-.983-2-1.526-3.459-1.221-2.882.61-6.341,2.882-8.342,10.106-.407,1.492-3.357,9.631-6.341,10.343-6.206,1.424-4.035,6.986-.61,10.58a11.873,11.873,0,0,0,.95.916,11.233,11.233,0,0,0,1.8,1.221,5.716,5.716,0,0,0,.95.407,5.272,5.272,0,0,0,1.051.237C158.1,83.747,158.54,83.814,158.981,83.814Z" transform="translate(-98.876 -0.235)" fill="url(#linear-gradient)"/>
  <path id="Tracé_397" data-name="Tracé 397" d="M100.721,87.075c-1.56-1.526-3.154-3.12-4.781-4.442-.237-.237-.475-.475-.712-.678-.475-.441-.983-.882-1.458-1.323-3.8-3.9-11.733-3.7-11.6-9.393a7.49,7.49,0,0,1,.1-1.323,3.462,3.462,0,0,1,.339-.95c.237-.2.509-.407.746-.576,1.662-.746,3.289-.271,4.849.271.305.1.61.237.916.339,5.8,3.7,6.274-2.95,6.613-7.155-.1-1.831-2.476-.1-3.561-.746-.441-.068-.882-.17-1.356-.271-3.595-.95-7.087-3.493-7.054-6.952.068-1.933,1.729-2.34,3.662-2.272a7.752,7.752,0,0,1,.848.068c2.475.61,3.73,3.188,6.206,3.527a.765.765,0,0,0,.543-.068,1.87,1.87,0,0,0,.61-.475c1.187-1.39.983-3.968.712-5.833a6.254,6.254,0,0,0-.136-.78,6.323,6.323,0,0,0-.237-.746c-.034-.271-.068-.543-.1-.78-.034-.271-.068-.509-.1-.78-.644-2.374-3.527-2.272-5.7-2.306a6.342,6.342,0,0,1-1.153-.1,9.4,9.4,0,0,1-.882-.339c-.305-.136-.576-.271-.848-.407-.441-.2-.848-.373-1.289-.61-2.442-1.424-5.46-3.086-5.934-5.833a5.566,5.566,0,0,1-.068-.78c0-2.136,1.933-4.714,3.866-4.069,1.085,0,.746,2.035,1.865,2.577.2.136.407.237.61.373,1.594.95,3.222,2.069,5.29,1.967a5.263,5.263,0,0,0,.712-.136,4.333,4.333,0,0,0,.746-.305,2.562,2.562,0,0,0,.746-.373,3.043,3.043,0,0,0,.644-.543,12.309,12.309,0,0,0,1.831-3.323,5.533,5.533,0,0,0-.305-3.188,6.776,6.776,0,0,0-.339-.712,1.616,1.616,0,0,0-1.153-1.39,5,5,0,0,1-1.424,0A7.464,7.464,0,0,1,91.735,26a7.244,7.244,0,0,1-4.408-2.442,5.854,5.854,0,0,1-.644-.95c-1.255-2.611-.814-8.173,2.1-8.274,2.476.1,3.527,5.494,7.155,4.341a5.411,5.411,0,0,0,.78-.339,3.055,3.055,0,0,0,1.594-1.526c1.085-3.222.678-8.376,4.646-9.529,2.035-.746,4.951-.848,5.561,1.526,1.051,5.358-5.731,9.529-2.509,13.836,2.238,2.916,5.7-2.035,9.156-1.628,1.7.237,4.239,1.119,3.255,2.95-1.085,2.136-2.916,3.12-5.019,3.866a41.223,41.223,0,0,0-6.375,2.34c-1.492.746-2.679,2.984-1.458,4.035a2.538,2.538,0,0,0,.678.373,8.643,8.643,0,0,0,3.323.509,3.823,3.823,0,0,0,.61-.1,2.662,2.662,0,0,0,.746-.17,4.12,4.12,0,0,0,.678-.305c.475-.339.983-.78,1.526-1.187.17-.136.373-.271.576-.441,1.763-1.289,4.544-1.051,4.951.882.2,1.492-1.729,2.984-3.188,3.968l-.509.305a5.4,5.4,0,0,0-.441.441,15.522,15.522,0,0,1-2.374,1.865l-.814.509-.814.509a8.749,8.749,0,0,0-3.459,2.611c-.17.2-.339.441-.509.678a4.561,4.561,0,0,0-.475.373,4.4,4.4,0,0,0-1.458,2.815,3.683,3.683,0,0,0,.034.61c.068.136.136.305.2.441a2.879,2.879,0,0,0,1.865,1.017,2.336,2.336,0,0,0,.678-.034,10.455,10.455,0,0,0,5.765-4.578l.339-.339a6.308,6.308,0,0,0,.882-1.051,1.642,1.642,0,0,1,.61-.237c1.831-1.187,3.527,1.187,3.73,3.391a5.009,5.009,0,0,1,.034.712,6.726,6.726,0,0,1-3.493,5.6l-.61.407c-.2.136-.407.237-.644.373-.17.136-.373.271-.543.407a32.71,32.71,0,0,0-3.8,2.984,7.453,7.453,0,0,0-.475.61,18.638,18.638,0,0,0-1.221,1.933c-.1.17-.17.373-.271.543a17.988,17.988,0,0,0-.95,2.2,9.347,9.347,0,0,0-.271.916c-.78,2.17-.17,5.6,2.408,5.392a1.261,1.261,0,0,0,1.017-.271,3.042,3.042,0,0,0,.678-.882c.577-1.289,1.526-2.035,1.763-3.493a8.149,8.149,0,0,0,.373-.78c.136-.271.271-.509.407-.746a7.448,7.448,0,0,1,.644-1.017,2.033,2.033,0,0,1,2.34-1.492,3.694,3.694,0,0,1,2.17,1.933,4.812,4.812,0,0,1,.339.983,8.987,8.987,0,0,1-1.289,4.985c-.2.373-.441.746-.678,1.119A23.493,23.493,0,0,0,111.81,76.6c-.136.373-.271.746-.373,1.119a6.853,6.853,0,0,0-.2,1.153,11.279,11.279,0,0,1,.1,2.136,4.449,4.449,0,0,0,.814.95,6.35,6.35,0,0,0,.983.678c.305.068.678.136,1.017.237.373.1.746.2,1.153.339,1.831.78,5.155.475,5.46,2.747.1,2.882-5.053,3.323-8.139,3.968h-2.1c-.407-.034-.78-.1-1.187-.17-.373-.068-.78-.136-1.153-.237-.407-.068-.814-.17-1.187-.237s-.78-.136-1.153-.17c-.305-.1-.576-.17-.848-.237a8.851,8.851,0,0,1-3.561-1.424A2.9,2.9,0,0,1,100.721,87.075Z" transform="translate(-52.825 -4.581)" fill="#4858a8"/>
  <path id="Tracé_398" data-name="Tracé 398" d="M119.846,237.765a12.148,12.148,0,0,0,19.058-8.41c1.153-8.647.983-17.8-2.577-24.518-9.19-17.261-25.535-21.737-29.74-24.721-4.2-3.018-20.313-7.46-26.383-15.6s-10.546-2.1-7.63,6.613S80.34,181.269,88,185.339c8,4.273,13.429,15.226,8.986,19.5-3.222,3.12-28.451,19.363-53.817,10.309S12.585,188.391,1.191,194.8c-3.662,1.662,2.374,6.409,6.443,9.5,5.968,4.544,6.511,6.036,14.005,11.835s8.783,9.427,36.319,13.8C78.848,233.255,103.7,226.1,119.846,237.765Z" transform="translate(-0.058 -106.27)" fill="#f3f3ff"/>
</svg>
