<svg xmlns="http://www.w3.org/2000/svg" width="147.356" height="126.112" viewBox="0 0 147.356 126.112">
  <g id="Calque_1-2" data-name="Calque 1-2" transform="matrix(0.966, 0.259, -0.259, 0.966, -158.176, -1129.718)">
    <path id="Tracé_11" data-name="Tracé 11" d="M470.538,1043.812l-1.788,8.729L539,1066.927a12.32,12.32,0,0,1,9.6,14.54h0l-7.309,35.694a12.121,12.121,0,0,0-.212,3.438,12.32,12.32,0,0,0,9.19,10.956l43.357,8.878,1.788-8.731-10.751-2.2a4.5,4.5,0,0,1-3.53-5.071l8.92-43.57a12.051,12.051,0,0,0-.5-6.631,12.207,12.207,0,0,0-3.2-4.847,12.989,12.989,0,0,0-1.273-1.045l-.516-.346-.468-.274-.434-.236-.071-.014c-.409-.2-.829-.39-1.27-.553l-.608-.208a2.708,2.708,0,0,1-.622-.181l-110.574-22.641Z" transform="translate(0.584)" fill="#253676"/>
    <path id="Tracé_12" data-name="Tracé 12" d="M490.263,1053.22l39.226,8.032a12.319,12.319,0,0,1,9.6,14.539h0l-2.758,13.469-.563-.115-11.654-17.6-2.99,14.6-36.6-7.495,4.548-22.216A11.985,11.985,0,0,1,490.263,1053.22Z" transform="translate(10.098 5.675)" fill="#1d1d1b"/>
    <path id="Tracé_13" data-name="Tracé 13" d="M486.353,1069.088l-4.547,22.206a12.319,12.319,0,0,0,9.6,14.538l51.144,10.474a12.321,12.321,0,0,1-9.19-10.958,12.112,12.112,0,0,1,.212-3.436l4.55-22.225-.563-.115.112.17-17.805,11.727,3.049-14.9Z" transform="translate(8.307 15.247)" fill="#fff"/>
    <path id="Tracé_14" data-name="Tracé 14" d="M476.922,1052.318l-9.14,44.635,26.887-17.748Z" transform="translate(0 5.131)" fill="#1d1d1b"/>
    <path id="Tracé_15" data-name="Tracé 15" d="M511.521,1064.655l-6.041,29.5,17.756-11.737-.112-.168Z" transform="translate(22.74 12.573)" fill="#659cd4"/>
    <circle id="Ellipse_19" data-name="Ellipse 19" cx="10.892" cy="10.892" r="10.892" transform="translate(555.931 1088.218)" fill="#1d1d1b" stroke="#fff" stroke-miterlimit="10" stroke-width="0.826"/>
  </g>
</svg>
