<svg xmlns="http://www.w3.org/2000/svg" width="108.792" height="104.385" viewBox="0 0 108.792 104.385">
  <g id="Calque_1-5" data-name="Calque 1-5" transform="translate(-177.382 -2247.055)">
    <path id="Tracé_40" data-name="Tracé 40" d="M202.931,2344.411a52.112,52.112,0,0,0,71.214-18.969q.652-1.126,1.248-2.284a44.15,44.15,0,0,1-60.1-35.274,43.452,43.452,0,0,1,.19-12.74,44.25,44.25,0,0,1,16.644-27.988,51.3,51.3,0,0,0-15.52,1.4h0a51.431,51.431,0,0,0-7.586,2.48,52.135,52.135,0,0,0-31.639,40.742,36.9,36.9,0,0,1,25.242,18.426,3.177,3.177,0,0,0,.422.8,2.194,2.194,0,0,1,.286.691.074.074,0,0,1,.028.068c.268.645.608,1.274.875,1.92A36.6,36.6,0,0,1,202.931,2344.411Z" fill="#262675"/>
    <path id="Tracé_41" data-name="Tracé 41" d="M181.222,2320.4l.16.385a51.536,51.536,0,0,0,4.739,8.747l16.159-17.314h0l-23.841-.832a51.378,51.378,0,0,0,2.782,9.014Z" fill="#262675"/>
    <path id="Tracé_42" data-name="Tracé 42" d="M216.641,2248.543h0a51.326,51.326,0,0,1,15.486-1.387,44.248,44.248,0,0,0-16.646,27.989,43.452,43.452,0,0,0-.189,12.74,44.135,44.135,0,0,0,60.1,35.274,51.945,51.945,0,0,1-8.623,12.12c-21.239,8.8-46.422-2.677-58.214-25.756-.716-1.376-1.379-2.814-1.988-4.284C197.842,2284.179,202.516,2261.377,216.641,2248.543Z" fill="none"/>
    <path id="Tracé_43" data-name="Tracé 43" d="M218.288,2299.051a44.12,44.12,0,0,0,57.106,24.1,52.166,52.166,0,0,0,5.807-25.1l-26.307,10.9a23.162,23.162,0,0,1-17.733-42.8l22.349-9.261a52.177,52.177,0,0,0-27.381-9.742,44.255,44.255,0,0,0-16.648,27.989,43.459,43.459,0,0,0-.19,12.741,44.211,44.211,0,0,0,2.994,11.169Z" fill="#fff"/>
    <path id="Tracé_44" data-name="Tracé 44" d="M224.664,2296.411a23.152,23.152,0,0,0,30.231,12.545l26.3-10.9a51.8,51.8,0,0,0-1.459-11.142l3.895-1.614a3.592,3.592,0,0,0,0-6.635l-.311-.11a3.675,3.675,0,0,0-2.437.107l-6.363,2.637a3.605,3.605,0,1,1-3.149-6.486,3.561,3.561,0,0,1,.393-.163l6.367-2.638a3.607,3.607,0,0,0-2.727-6.678l-4.984,2.066a51.69,51.69,0,0,0-10.87-10.5l-22.384,9.276a23.162,23.162,0,0,0-12.5,30.241Z" fill="#1d1d1b" stroke="#1d1d1b" stroke-miterlimit="10" stroke-width="0.629"/>
    <circle id="Ellipse_24" data-name="Ellipse 24" cx="9.257" cy="9.257" r="9.257" transform="translate(244.587 2275.062)" fill="none" stroke="#fff" stroke-miterlimit="10" stroke-width="1"/>
  </g>
</svg>
