<svg xmlns="http://www.w3.org/2000/svg" width="64.915" height="62.202" viewBox="0 0 64.915 62.202">
  <g id="Groupe_688" data-name="Groupe 688" transform="translate(-149.979 -2005.128)">
    <g id="Calque_1-5" data-name="Calque 1-5" transform="translate(-1508.74 -6.084)">
      <path id="Tracé_40" data-name="Tracé 40" d="M1658.719,2047.558a30.915,30.915,0,0,0,35.792,25.108h0q.761-.132,1.513-.3a26.2,26.2,0,0,1-6.912-40.761,25.851,25.851,0,0,1,5.859-4.776,26.256,26.256,0,0,1,19.065-3.12,30.4,30.4,0,0,0-6.558-6.516h0a30.458,30.458,0,0,0-4.022-2.5,30.93,30.93,0,0,0-30.58,1.177,21.882,21.882,0,0,1,1.263,18.5,2.006,2.006,0,0,0-.2.5,1.275,1.275,0,0,1-.2.394.043.043,0,0,1-.02.039c-.192.368-.347.762-.538,1.13A21.712,21.712,0,0,1,1658.719,2047.558Z" fill="#262675"/>
      <path id="Tracé_41" data-name="Tracé 41" d="M1661.346,2028.533l-.114.22a30.727,30.727,0,0,0-2.164,5.491l14.031.732h0l-8.72-11.147a30.57,30.57,0,0,0-3.033,4.7Z" fill="#262675"/>
      <path id="Tracé_42" data-name="Tracé 42" d="M1707.5,2017.2h0a30.446,30.446,0,0,1,6.54,6.505,26.253,26.253,0,0,0-19.066,3.12,25.805,25.805,0,0,0-5.859,4.776,26.185,26.185,0,0,0,6.913,40.761,30.84,30.84,0,0,1-8.8.709c-12.1-6.289-16.5-22.108-10.517-36.272.352-.85.752-1.7,1.187-2.538C1684.136,2022.26,1696.277,2015.682,1707.5,2017.2Z" fill="none"/>
      <path id="Tracé_43" data-name="Tracé 43" d="M1685.183,2037.223a26.175,26.175,0,0,0,10.844,35.138,30.926,30.926,0,0,0,13.618-6.942l-14.99-7.789a13.741,13.741,0,1,1,12.671-24.387h0l12.736,6.618a30.948,30.948,0,0,0-6.024-16.155,26.256,26.256,0,0,0-19.067,3.118,25.809,25.809,0,0,0-5.859,4.777,26.244,26.244,0,0,0-3.931,5.622Z" fill="#fff"/>
      <path id="Tracé_44" data-name="Tracé 44" d="M1688.816,2039.112a13.736,13.736,0,0,0,5.838,18.519l14.988,7.788a30.682,30.682,0,0,0,4.505-4.914l2.219,1.153a2.131,2.131,0,0,0,3.013-2.533l-.069-.184a2.184,2.184,0,0,0-.979-1.066l-3.626-1.884a2.139,2.139,0,0,1,1.745-3.905,2.089,2.089,0,0,1,.224.116l3.628,1.885a2.131,2.131,0,0,0,3.036-2.529,2.105,2.105,0,0,0-1.044-1.258l-2.84-1.475a30.652,30.652,0,0,0,.624-8.946l-12.756-6.628a13.741,13.741,0,0,0-18.507,5.862Z" fill="#1d1d1b" stroke="#1d1d1b" stroke-miterlimit="10" stroke-width="0.373"/>
      <circle id="Ellipse_24" data-name="Ellipse 24" cx="5.492" cy="5.492" r="5.492" transform="translate(1699.953 2042.26)" fill="none" stroke="#fff" stroke-miterlimit="10" stroke-width="0.915"/>
    </g>
    <g id="Calque_1-5-2" data-name="Calque 1-5" transform="translate(10.099 -37.309)" opacity="0.5" style="mix-blend-mode: multiply;isolation: isolate">
      <path id="Tracé_40-2" data-name="Tracé 40" d="M139.973,2079.06a30.915,30.915,0,0,0,35.793,25.108q.76-.133,1.513-.3a26.195,26.195,0,0,1-6.912-40.761,25.809,25.809,0,0,1,5.859-4.776,26.254,26.254,0,0,1,19.065-3.12,30.43,30.43,0,0,0-6.558-6.516h0a30.521,30.521,0,0,0-4.022-2.5,30.93,30.93,0,0,0-30.58,1.177,21.886,21.886,0,0,1,1.263,18.5,1.969,1.969,0,0,0-.2.5,1.307,1.307,0,0,1-.2.394.045.045,0,0,1-.02.039c-.192.368-.347.762-.538,1.13A21.714,21.714,0,0,1,139.973,2079.06Z" fill="#3a4589"/>
      <path id="Tracé_41-2" data-name="Tracé 41" d="M142.6,2060.035l-.114.22a30.653,30.653,0,0,0-2.164,5.491l14.031.732h0l-8.72-11.147a30.52,30.52,0,0,0-3.033,4.7Z" fill="#3a4589"/>
      <path id="Tracé_42-2" data-name="Tracé 42" d="M188.751,2048.7h0a30.447,30.447,0,0,1,6.54,6.505,26.252,26.252,0,0,0-19.066,3.12,25.783,25.783,0,0,0-5.859,4.776,26.183,26.183,0,0,0,6.913,40.761,30.808,30.808,0,0,1-8.8.709c-12.1-6.289-16.5-22.108-10.517-36.272.352-.85.752-1.7,1.187-2.538C165.39,2053.762,177.531,2047.184,188.751,2048.7Z" fill="#3a4589"/>
      <path id="Tracé_43-2" data-name="Tracé 43" d="M166.437,2068.725a26.174,26.174,0,0,0,10.844,35.138,30.939,30.939,0,0,0,13.618-6.942l-14.99-7.789a13.741,13.741,0,1,1,12.671-24.387l12.736,6.618a30.96,30.96,0,0,0-6.024-16.155,26.254,26.254,0,0,0-19.067,3.118,25.787,25.787,0,0,0-5.859,4.777,26.177,26.177,0,0,0-3.931,5.622Z" fill="#3a4589"/>
      <path id="Tracé_44-2" data-name="Tracé 44" d="M170.07,2070.614a13.735,13.735,0,0,0,5.838,18.519l14.988,7.788a30.782,30.782,0,0,0,4.505-4.914l2.219,1.153a2.131,2.131,0,0,0,3.013-2.533l-.069-.184a2.184,2.184,0,0,0-.979-1.066l-3.626-1.884a2.139,2.139,0,0,1,1.745-3.905,2.057,2.057,0,0,1,.224.116l3.628,1.885a2.131,2.131,0,0,0,3.036-2.529,2.109,2.109,0,0,0-1.044-1.258l-2.84-1.475a30.693,30.693,0,0,0,.624-8.946l-12.756-6.628a13.741,13.741,0,0,0-18.507,5.862Z" fill="#3a4589"/>
      <circle id="Ellipse_24-2" data-name="Ellipse 24" cx="5.492" cy="5.492" r="5.492" transform="translate(181.206 2073.762)" fill="#3a4589"/>
    </g>
  </g>
</svg>
