<svg xmlns="http://www.w3.org/2000/svg" width="81.085" height="69.395" viewBox="0 0 81.085 69.395">
  <g id="Calque_1-2" data-name="Calque 1-2" transform="matrix(-0.966, 0.259, -0.259, -0.966, 81.91, 51.134)">
    <path id="Tracé_11" data-name="Tracé 11" d="M.984,53.167,0,48.364l38.658-7.916a6.779,6.779,0,0,0,5.282-8h0L39.917,12.806a6.669,6.669,0,0,1-.116-1.891,6.78,6.78,0,0,1,5.057-6.029L68.716,0,69.7,4.8,63.784,6.016a2.474,2.474,0,0,0-1.943,2.79l4.909,23.975a6.631,6.631,0,0,1-.273,3.649,6.717,6.717,0,0,1-1.76,2.667,7.153,7.153,0,0,1-.7.575l-.284.191-.258.151-.239.13-.039.008c-.225.109-.456.214-.7.3l-.334.115a1.494,1.494,0,0,0-.342.1L.976,53.128Z" transform="translate(0.854 0)" fill="#253676"/>
    <path id="Tracé_12" data-name="Tracé 12" d="M3.159,19.832l21.585-4.42a6.779,6.779,0,0,0,5.281-8h0L28.507,0,28.2.063,21.785,9.75,20.14,1.714,0,5.838,2.5,18.063A6.593,6.593,0,0,0,3.159,19.832Z" transform="translate(14.768 25.036)" fill="#1d1d1b"/>
    <path id="Tracé_13" data-name="Tracé 13" d="M2.641,25.982.139,13.763a6.779,6.779,0,0,1,5.281-8L33.562,0a6.78,6.78,0,0,0-5.057,6.03,6.665,6.665,0,0,0,.116,1.89l2.5,12.23-.31.064.062-.094-9.8-6.453,1.678,8.2Z" transform="translate(12.149 4.886)" fill="#fff"/>
    <path id="Tracé_14" data-name="Tracé 14" d="M5.029,24.561,0,0,14.8,9.766Z" transform="translate(0 21.102)" fill="#1d1d1b"/>
    <path id="Tracé_15" data-name="Tracé 15" d="M3.324,16.231,0,0,9.77,6.458l-.062.093Z" transform="translate(33.257 18.548)" fill="#659cd4"/>
    <ellipse id="Ellipse_19" data-name="Ellipse 19" cx="5.994" cy="5.994" rx="5.994" ry="5.994" transform="translate(48.505 16.744)" fill="#1d1d1b" stroke="#fff" stroke-miterlimit="10" stroke-width="0.826"/>
  </g>
</svg>
