<svg xmlns="http://www.w3.org/2000/svg" width="59.241" height="37.456" viewBox="0 0 59.241 37.456">
  <g id="Groupe_689" data-name="Groupe 689" transform="translate(-403.811 -1951.222)">
    <g id="Calque_1" data-name="Calque 1" transform="translate(2.099 -21.309)">
      <path id="Tracé_45" data-name="Tracé 45" d="M419.455,1973.217l31.064,5.269a6.1,6.1,0,0,1,4.995,7.036l-3.288,19.382a6.1,6.1,0,0,1-7.036,5l-31.064-5.27a.065.065,0,0,1-.053-.075l5.306-31.285A.066.066,0,0,1,419.455,1973.217Z" fill="#d9637f"/>
      <path id="Tracé_2" data-name="Tracé 2" d="M419.379,1973.27l-5.306,31.285a.066.066,0,0,1-.076.054l-3.724-.632a5.23,5.23,0,0,1-.576-.159h0c-.129-.044-.255-.089-.381-.142-.075-.03-.147-.064-.227-.1l-.136-.062-.258-.134-.047-.025a6.159,6.159,0,0,1-1.916-1.675.068.068,0,0,0-.041-.025l-4.3-.729a.819.819,0,0,1,.274-1.615l4.929.837a.819.819,0,0,0,.274-1.615l-4.929-.836a.819.819,0,0,1,.274-1.615l2.4.407a.065.065,0,0,0,.075-.053l3.2-18.847a6.1,6.1,0,0,1,6.411-5.047,5.781,5.781,0,0,1,.614.072l3.412.579A.066.066,0,0,1,419.379,1973.27Z" fill="#1d1d1b"/>
      <path id="Tracé_3" data-name="Tracé 3" d="M427.438,1978.393l-4.688,27.639a.066.066,0,0,1-.076.053l-8.549-1.45a.065.065,0,0,1-.053-.075l5.3-31.257a.065.065,0,0,1,.1-.044l2.3,1.468,5.635,3.6A.066.066,0,0,1,427.438,1978.393Z" fill="#fff"/>
      <path id="Tracé_4" data-name="Tracé 4" d="M434.17,1988.69l-3.568,2.533a.065.065,0,0,0-.016.091l2.534,3.567a.063.063,0,0,1,.011.048l-2.121,12.5a.065.065,0,0,1-.075.054l-6.074-1.031a.065.065,0,0,1-.053-.075l4.531-26.714a.066.066,0,0,1,.1-.044l5.637,3.6a.066.066,0,0,1,.03.066l-.909,5.358A.068.068,0,0,1,434.17,1988.69Z" fill="#fff"/>
      <path id="Tracé_5" data-name="Tracé 5" d="M443.247,1988.488l-3.466,20.433a.066.066,0,0,1-.076.053l-6.863-1.164a.066.066,0,0,1-.053-.075l1.823-10.752.3.429,1.784-10.518-.427.3.475-2.8a.066.066,0,0,1,.1-.044l6.37,4.069A.065.065,0,0,1,443.247,1988.488Z" fill="#fff"/>
      <path id="Tracé_6" data-name="Tracé 6" d="M453.819,1995.191a.064.064,0,0,1,.029.066l-1.641,9.679a6.1,6.1,0,0,1-7.009,4.965l-3.587-.608a.066.066,0,0,1-.054-.076l3.329-19.622a.066.066,0,0,1,.1-.044Z" fill="#fff"/>
      <path id="Tracé_7" data-name="Tracé 7" d="M455.518,1985.5l-1.642,9.678a.066.066,0,0,1-.051.053l-39.545,8.1-3.527.725a.061.061,0,0,1-.024,0l-.447-.076h-.005c-.194-.045-.385-.1-.574-.158h0a6.111,6.111,0,0,1-3.854-3.867.067.067,0,0,1,.075-.086l1.691.286a.819.819,0,0,0,.274-1.614l-2.292-.389a.067.067,0,0,1-.056-.065,5.775,5.775,0,0,1,.084-1.05l3.3-19.442a6.1,6.1,0,0,1,6.377-5.053,5.781,5.781,0,0,1,.614.072l34.617,5.872A6.1,6.1,0,0,1,455.518,1985.5Z" fill="#1d1d1b" opacity="0.36" style="isolation: isolate"/>
      <path id="Tracé_8" data-name="Tracé 8" d="M436.7,1986.894l-1.784,10.518-.3-.429-.3-.428-1.173-1.652-2.55-3.589a.065.065,0,0,1,.016-.091l3.59-2.549,2.08-1.477Z" fill="#f09990"/>
      <circle id="Ellipse_18" data-name="Ellipse 18" cx="3.93" cy="3.93" r="3.93" transform="translate(412.292 1977.427)" fill="#1d1d1b" stroke="#fff" stroke-miterlimit="10" stroke-width="0.733"/>
      <path id="Tracé_9" data-name="Tracé 9" d="M460.952,1993.039l-1.114,6.569a.066.066,0,0,1-.1.042l-1.983-1.495a.067.067,0,0,1-.025-.063l.733-4.318a.065.065,0,0,1,.044-.051l2.364-.757A.066.066,0,0,1,460.952,1993.039Z"/>
      <path id="Tracé_10" data-name="Tracé 10" d="M456.953,1994.322l-.467,2.757a.066.066,0,0,1-.1.041l-2.426-1.83a.065.065,0,0,1,.02-.114l2.893-.927A.065.065,0,0,1,456.953,1994.322Z"/>
    </g>
    <g id="Calque_1-2" data-name="Calque 1" transform="translate(2.099 -21.309)" opacity="0.5" style="mix-blend-mode: multiply;isolation: isolate">
      <path id="Tracé_45-2" data-name="Tracé 45" d="M419.455,1973.217l31.064,5.269a6.1,6.1,0,0,1,4.995,7.036l-3.288,19.382a6.1,6.1,0,0,1-7.036,5l-31.064-5.27a.065.065,0,0,1-.053-.075l5.306-31.285A.066.066,0,0,1,419.455,1973.217Z" fill="#3a4589"/>
      <path id="Tracé_2-2" data-name="Tracé 2" d="M419.379,1973.27l-5.306,31.285a.066.066,0,0,1-.076.054l-3.724-.632a5.23,5.23,0,0,1-.576-.159h0c-.129-.044-.255-.089-.381-.142-.075-.03-.147-.064-.227-.1l-.136-.062-.258-.134-.047-.025a6.159,6.159,0,0,1-1.916-1.675.068.068,0,0,0-.041-.025l-4.3-.729a.819.819,0,0,1,.274-1.615l4.929.837a.819.819,0,0,0,.274-1.615l-4.929-.836a.819.819,0,0,1,.274-1.615l2.4.407a.065.065,0,0,0,.075-.053l3.2-18.847a6.1,6.1,0,0,1,6.411-5.047,5.781,5.781,0,0,1,.614.072l3.412.579A.066.066,0,0,1,419.379,1973.27Z" fill="#3a4589"/>
      <path id="Tracé_3-2" data-name="Tracé 3" d="M427.438,1978.393l-4.688,27.639a.066.066,0,0,1-.076.053l-8.549-1.45a.065.065,0,0,1-.053-.075l5.3-31.257a.065.065,0,0,1,.1-.044l2.3,1.468,5.635,3.6A.066.066,0,0,1,427.438,1978.393Z" fill="#3a4589"/>
      <path id="Tracé_4-2" data-name="Tracé 4" d="M434.17,1988.69l-3.568,2.533a.065.065,0,0,0-.016.091l2.534,3.567a.063.063,0,0,1,.011.048l-2.121,12.5a.065.065,0,0,1-.075.054l-6.074-1.031a.065.065,0,0,1-.053-.075l4.531-26.714a.066.066,0,0,1,.1-.044l5.637,3.6a.066.066,0,0,1,.03.066l-.909,5.358A.068.068,0,0,1,434.17,1988.69Z" fill="#3a4589"/>
      <path id="Tracé_5-2" data-name="Tracé 5" d="M443.247,1988.488l-3.466,20.433a.066.066,0,0,1-.076.053l-6.863-1.164a.066.066,0,0,1-.053-.075l1.823-10.752.3.429,1.784-10.518-.427.3.475-2.8a.066.066,0,0,1,.1-.044l6.37,4.069A.065.065,0,0,1,443.247,1988.488Z" fill="#3a4589"/>
      <path id="Tracé_6-2" data-name="Tracé 6" d="M453.819,1995.191a.064.064,0,0,1,.029.066l-1.641,9.679a6.1,6.1,0,0,1-7.009,4.965l-3.587-.608a.066.066,0,0,1-.054-.076l3.329-19.622a.066.066,0,0,1,.1-.044Z" fill="#3a4589"/>
      <path id="Tracé_7-2" data-name="Tracé 7" d="M455.518,1985.5l-1.642,9.678a.066.066,0,0,1-.051.053l-39.545,8.1-3.527.725a.061.061,0,0,1-.024,0l-.447-.076h-.005c-.194-.045-.385-.1-.574-.158h0a6.111,6.111,0,0,1-3.854-3.867.067.067,0,0,1,.075-.086l1.691.286a.819.819,0,0,0,.274-1.614l-2.292-.389a.067.067,0,0,1-.056-.065,5.775,5.775,0,0,1,.084-1.05l3.3-19.442a6.1,6.1,0,0,1,6.377-5.053,5.781,5.781,0,0,1,.614.072l34.617,5.872A6.1,6.1,0,0,1,455.518,1985.5Z" transform="translate(0 0)" fill="#3a4589" opacity="0.36" style="isolation: isolate"/>
      <path id="Tracé_8-2" data-name="Tracé 8" d="M436.7,1986.894l-1.784,10.518-.3-.429-.3-.428-1.173-1.652-2.55-3.589a.065.065,0,0,1,.016-.091l3.59-2.549,2.08-1.477Z" fill="#3a4589"/>
      <circle id="Ellipse_18-2" data-name="Ellipse 18" cx="3.93" cy="3.93" r="3.93" transform="translate(412.292 1977.427)" fill="#3a4589"/>
      <path id="Tracé_9-2" data-name="Tracé 9" d="M460.952,1993.039l-1.114,6.569a.066.066,0,0,1-.1.042l-1.983-1.495a.067.067,0,0,1-.025-.063l.733-4.318a.065.065,0,0,1,.044-.051l2.364-.757A.066.066,0,0,1,460.952,1993.039Z" fill="#3a4589"/>
      <path id="Tracé_10-2" data-name="Tracé 10" d="M456.953,1994.322l-.467,2.757a.066.066,0,0,1-.1.041l-2.426-1.83a.065.065,0,0,1,.02-.114l2.893-.927A.065.065,0,0,1,456.953,1994.322Z" fill="#3a4589"/>
    </g>
  </g>
</svg>
