<svg xmlns="http://www.w3.org/2000/svg" width="178.845" height="171.351" viewBox="0 0 178.845 171.351">
  <g id="Groupe_90" data-name="Groupe 90" transform="translate(-1053.806 -1898.866)">
    <path id="Tracé_144" data-name="Tracé 144" d="M1144.6,2016.99l-1.025.785a2.494,2.494,0,0,0-.515,3.427l14.5,20.349a2.486,2.486,0,0,1,.442,1.123l4.139,31.609a2.5,2.5,0,0,0,.564,1.281l18.671,22.205a2.493,2.493,0,0,0,3.515.3h0a2.494,2.494,0,0,0,.339-3.469l-16.805-20.942a2.489,2.489,0,0,1-.541-1.358l-2.431-29.888a2.486,2.486,0,0,0-.455-1.245l-16.848-23.647A2.5,2.5,0,0,0,1144.6,2016.99Z" transform="translate(-21.472 -28.442)" fill="#14387a"/>
    <path id="Tracé_145" data-name="Tracé 145" d="M1193.953,2056.889l-14.06-24.652a2.587,2.587,0,0,0-.339-.464l-1.789-1.945-.378-.411-17.768-19.32a2.558,2.558,0,0,0-3.589-.174l-.873.782a2.558,2.558,0,0,0-.177,3.637l17.653,19.2a2.56,2.56,0,0,1,.313.418l15.831,26.479a2.548,2.548,0,0,0,.46.566l21.143,19.527a2.558,2.558,0,0,0,3.528-.054h0a2.558,2.558,0,0,0,.009-3.641l-19.545-19.4A2.551,2.551,0,0,1,1193.953,2056.889Z" transform="translate(-24.304 -26.7)" fill="#262675"/>
    <path id="Tracé_146" data-name="Tracé 146" d="M1204.012,2048.086l-22.284-22.139a2.572,2.572,0,0,1-.255-.3l-15.137-20.513a2.561,2.561,0,0,0-3.638-.5l-.915.717a2.56,2.56,0,0,0-.482,3.536l15.515,21.025h0l2.046,2.773a2.588,2.588,0,0,0,.293.333l19.124,18.228a2.549,2.549,0,0,1,.434.544l14.517,24.412a2.559,2.559,0,0,0,3.651.8h0a2.56,2.56,0,0,0,.813-3.306l-13.222-25A2.537,2.537,0,0,0,1204.012,2048.086Z" transform="translate(-25.875 -25.449)" fill="#14387a"/>
    <path id="Tracé_147" data-name="Tracé 147" d="M1180.8,1993.812l-.779.614a2.658,2.658,0,0,0-.483,3.678l15.209,20.343a2.638,2.638,0,0,1,.315.547l11.037,25.84.177.416a2.664,2.664,0,0,0,.795,1.039l.939.744,21.254,16.83a2.659,2.659,0,0,0,3.608-.286h0a2.658,2.658,0,0,0-.308-3.883l-19.72-15.615a2.657,2.657,0,0,1-.794-1.04l-10.472-24.516-1.427-3.339-.289-.676a2.62,2.62,0,0,0-.33-.566l-14.974-19.655A2.658,2.658,0,0,0,1180.8,1993.812Z" transform="translate(-30.278 -22.823)" fill="#14387a"/>
    <path id="Tracé_148" data-name="Tracé 148" d="M1219.921,2037.821l-25.982-17.111a2.632,2.632,0,0,1-.514-.443l-17.693-19.722a2.644,2.644,0,0,0-3.718-.218l-.748.66a2.646,2.646,0,0,0-.22,3.751l18.2,20.292-.006.007.029.018,1.285,1.433a2.642,2.642,0,0,0,.56.472l23.209,14.613a2.652,2.652,0,0,1,.924.992l13.231,24.771a2.646,2.646,0,0,0,3.769.975h0a2.645,2.645,0,0,0,.955-3.354l-12.349-26.059A2.655,2.655,0,0,0,1219.921,2037.821Z" transform="translate(-28.189 -24.377)" fill="#262675"/>
    <path id="Tracé_149" data-name="Tracé 149" d="M1231.836,2027.526l-12.138-26.268a2.3,2.3,0,0,0-.32-.506l-19.015-22.765a2.28,2.28,0,0,0-3.221-.281l-1.32,1.115a2.28,2.28,0,0,0-.28,3.2l16.851,20.176a2.31,2.31,0,0,1,.315.5l13.1,28.021a2.283,2.283,0,0,0,1.227,1.155l28.707,11.364a2.279,2.279,0,0,0,2.784-.93h0a2.28,2.28,0,0,0-1.056-3.29l-24.455-10.345A2.282,2.282,0,0,1,1231.836,2027.526Z" transform="translate(-34.149 -18.936)" fill="#14387a"/>
    <path id="Tracé_150" data-name="Tracé 150" d="M1252.848,2009.762l-26.106-18.663a.685.685,0,0,1-.1-.084l-19.221-19.8a.715.715,0,0,0-1-.026l-3.562,3.3a.716.716,0,0,0-.028,1.024l21.921,22.584a.746.746,0,0,0,.11.093l23.869,16.286a.723.723,0,0,1,.2.2l15.465,23.847a2.309,2.309,0,0,0,3.236.651h0a2.309,2.309,0,0,0,.693-3.074l-15.277-26.114a.752.752,0,0,0-.052-.076h0A.719.719,0,0,0,1252.848,2009.762Z" transform="translate(-35.991 -17.443)" fill="#262675"/>
    <path id="Tracé_151" data-name="Tracé 151" d="M1237.408,2020.611l-27.9-13.554a2.655,2.655,0,0,1-1-.854l-14.183-20.088a2.645,2.645,0,0,0-3.763-.578l-.787.6a2.645,2.645,0,0,0-.557,3.629l15.266,21.622h0l1.455,2.061a2.644,2.644,0,0,0,1.155.92l22.5,9.253a2.654,2.654,0,0,1,.845.557l19.792,19.377a2.645,2.645,0,0,0,3.677.023h0a2.644,2.644,0,0,0,.191-3.622l-15.825-18.677A2.651,2.651,0,0,0,1237.408,2020.611Z" transform="translate(-32.629 -20.829)" fill="#262675"/>
    <path id="Tracé_152" data-name="Tracé 152" d="M1053.806,1914.192h0l9.9,11.541a63.584,63.584,0,0,1,78.246,14.653l8.837,10.3-37.822,32.455,11.567,13.48,37.822-32.455h0l10.414-8.936-29.341-34.193A63.561,63.561,0,0,0,1053.806,1914.192Z" fill="#a54e6a"/>
    <path id="Tracé_153" data-name="Tracé 153" d="M1120.486,1928.925a63.672,63.672,0,0,0-53.617,2.982L1098,1968.185l15.913-13.655a18.182,18.182,0,1,0,6.573-25.606Z" transform="translate(-3.159 -6.173)" fill="#262675"/>
    <circle id="Ellipse_54" data-name="Ellipse 54" cx="12.018" cy="12.018" r="12.018" transform="translate(1114.904 1926.657)" stroke="#fff" stroke-miterlimit="10" stroke-width="0.776"/>
    <path id="Tracé_154" data-name="Tracé 154" d="M1151.065,1966.418a18.191,18.191,0,0,1-27.222-4.1l-15.913,13.655,18.13,21.128,37.822-32.455-6.913-8.056A18.1,18.1,0,0,1,1151.065,1966.418Z" transform="translate(-13.089 -13.959)" fill="#fff"/>
  </g>
</svg>
