<svg xmlns="http://www.w3.org/2000/svg" width="1371.062" height="222.09" viewBox="0 0 1371.062 222.09">
  <g id="Groupe_687" data-name="Groupe 687" transform="translate(1.557 -2556.602)">
    <g id="Groupe_92" data-name="Groupe 92" transform="translate(3.099 -39.309)">
      <path id="Tracé_10" data-name="Tracé 10" d="M1366.149,2705.079c-134.663-58.447-167.6-.071-224.57-11.616-352.709-71.444-391.038-9.543-545.592,5.232-222.129-18.772-395.539-83.351-598.643-6.151v82.59H1366.149Z" transform="translate(-2 -55.81)" fill="#eee2c4" fill-rule="evenodd"/>
      <path id="Tracé_11" data-name="Tracé 11" d="M866.592,2659.885c-118.893.676-169.924,31.679-269.683,47.154,30.385,3.185,165.355,24.191,237.459,2.972,65.019-19.139,125.631-42.495,32.224-50.126ZM156.076,2657.1c-49.413,2.844-100.115,13.2-158.724,35.505v15.491c51.137,12.591,318.681,8.643,205.734-25.117-31.625-9.447,18.222-18.589-47.01-25.879Zm1111.548,21.84c-58.5-3.114-86.485,22.623-126.037,14.585,51.166,12.612,119.606,22.024,151.773,12.561,15.52-4.573,10.1-22.023-25.736-27.146Z" fill="#eee2c4" fill-rule="evenodd"/>
    </g>
    <g id="Groupe_93" data-name="Groupe 93" transform="translate(2.099 -60.521)">
      <path id="Tracé_12" data-name="Tracé 12" d="M-1.406,2776.735c109.5,0,199.76-76.171,287.421-76.171,92.529,0,243.618,116.42,385.375,116.356,116.541-.108,203.132-114.251,299.333-116.862,105.726-2.818,198.776,98.149,396.683,98.149v123.883H-1.406Z" transform="translate(0 -82.877)" fill="#eee2c4" fill-rule="evenodd"/>
      <path id="Tracé_9" data-name="Tracé 9" d="M388.816,2712.589c30.752,5.486,61.05,11.661,97.158,18.817,33.644,6.668,71.815,12.672,124.408,18.355-115.27,29.779-328,45.1-345.1-13.51-5.047-24.735,3.265-27.78,27.195-35.916,0,0,20.505.739,41.7,3.454C356.416,2706.638,380.83,2711.165,388.816,2712.589Z" transform="translate(0 39.212)" fill="#eee2c4" fill-rule="evenodd"/>
      <path id="Tracé_171" data-name="Tracé 171" d="M1041.231,2705.177c30.605,4.559,88.014,15.5,122.728,21.667-92.15,26.578-195.255,24.941-211.17,11.376s5.043-31.278,24.135-38.216c0,0,12.491-.2,27.469,1.108C1017.294,2702.242,1032.012,2703.8,1041.231,2705.177Z" transform="translate(0 24.06)" fill="#eee2c4" fill-rule="evenodd"/>
    </g>
  </g>
</svg>
