<svg xmlns="http://www.w3.org/2000/svg" width="167" height="203" viewBox="0 0 167 203">
  <g id="Groupe_682" data-name="Groupe 682" transform="translate(-58 -116)">
    <g id="Calque_2" data-name="Calque 2" transform="matrix(-0.899, -0.438, 0.438, -0.899, 144.29, 290.666)">
      <g id="Calque_1" data-name="Calque 1" transform="translate(0 0)">
        <path id="Tracé_110" data-name="Tracé 110" d="M5.038,1.876,5.709,0A24.862,24.862,0,0,0,2.355,1.876,20.013,20.013,0,0,0,.274,3.422L0,3.641l.219.151A2.916,2.916,0,0,0,.9,4.134a3.08,3.08,0,0,0,1.04.178A3.135,3.135,0,0,0,4.915,2.231Z" transform="translate(28.105 49.626)" fill="#758dc7"/>
        <path id="Tracé_111" data-name="Tracé 111" d="M41.754,9.025c-.465-.438-.945-.876-1.437-1.287A33.239,33.239,0,0,0,7.981,1.879,32.7,32.7,0,0,0,0,5.986a24.382,24.382,0,0,0,6.735,4.285A32.856,32.856,0,0,0,17.906,12.3,78.429,78.429,0,0,0,40.3,9.491Q41.056,9.285,41.754,9.025Z" transform="translate(28.981 78.111)" fill="#758dc7"/>
        <path id="Tracé_112" data-name="Tracé 112" d="M4.641.356,4.764,0H.233L0,1.547v.37a2.916,2.916,0,0,0,.684.342,3.08,3.08,0,0,0,1.04.178A3.135,3.135,0,0,0,4.641.356Z" transform="translate(28.379 51.501)" fill="#758dc7"/>
        <path id="Tracé_113" data-name="Tracé 113" d="M14.717,4.134A31.747,31.747,0,0,0,8.638,9.61l-.808,5.476L6.325,25.271l-.26,1.7L1.834,55.2,0,67.518H12.7l8.748-59.1L22.684,0a32.7,32.7,0,0,0-7.967,4.134Z" transform="translate(14.278 79.99)" fill="#758dc7"/>
        <path id="Tracé_114" data-name="Tracé 114" d="M7.57,8.844A33.02,33.02,0,0,0,1.588,1.287C1.123.849.643.411.151,0V1.78L0,59.893,1.533,49.639,5.791,21.082Z" transform="translate(69.092 85.849)" fill="#758dc7"/>
        <path id="Tracé_115" data-name="Tracé 115" d="M12.143,4.611A3.149,3.149,0,1,0,6.27,2.517L0,20l.37,2.45L.7,24.612a3.149,3.149,0,0,0,.849.452,3.08,3.08,0,0,0,1.04.178,3.149,3.149,0,0,0,2.971-2.095Z" transform="translate(14.265 42.796)" fill="#a9b4dd"/>
        <path id="Tracé_116" data-name="Tracé 116" d="M8.086,4.075A3.149,3.149,0,0,0,2.158,1.967L.173,7.566a3.19,3.19,0,0,0,1.013,3.518l.219.151a2.916,2.916,0,0,0,.684.342,3.08,3.08,0,0,0,1.04.178A3.135,3.135,0,0,0,6.1,9.674l.123-.356.671-1.876Z" transform="translate(26.919 42.128)" fill="#a9b4dd"/>
        <path id="Tracé_117" data-name="Tracé 117" d="M4.894,29.424V2.634a2.45,2.45,0,1,0-4.887,0V29.424a2.45,2.45,0,1,0,4.887,0Z" transform="translate(82.543 6.785)" fill="#a9b4dd"/>
        <path id="Tracé_118" data-name="Tracé 118" d="M94.3,61.262h0L81.81,145.687H69.161v-.068l1.52-10.185,4.2-28.5,1.6-10.678a4.216,4.216,0,0,0-.589-2.9,33.128,33.128,0,0,0-5.161-6.215c-.465-.438-.945-.876-1.437-1.287A33.239,33.239,0,0,0,36.962,79.99,32.7,32.7,0,0,0,28.981,84.1a33.24,33.24,0,0,0-9.254,9.8,3.546,3.546,0,0,0-.465,2.382l1.369,8.9h0l-.26,1.684-4.258,28.324-1.834,12.321h0L1.369,60.769,0,51.9V9.323A9.35,9.35,0,0,1,9.323,0H86.615a9.419,9.419,0,0,1,9.391,9.391V49.735h0Zm-69.818-17.8a3.162,3.162,0,0,0-3.943,1.848L14.265,62.8l-.37,1.04a3.19,3.19,0,0,0,1.068,3.573,3.148,3.148,0,0,0,.849.452,3.08,3.08,0,0,0,1.04.178,3.149,3.149,0,0,0,2.971-2.095l6.585-18.536A3.135,3.135,0,0,0,24.5,43.4ZM32.267,42.1a3.3,3.3,0,0,0-3.286,2.259l-1.917,5.476a3.19,3.19,0,0,0,1.013,3.518l.219.151a2.916,2.916,0,0,0,.684.342,3.08,3.08,0,0,0,1.04.178,3.135,3.135,0,0,0,2.971-2.081l.123-.356.671-1.876L35,46.2A3.149,3.149,0,0,0,32.294,42.1ZM87.409,9.446a2.437,2.437,0,0,0-2.738-2.423A2.587,2.587,0,0,0,82.59,9.638V36.21a2.45,2.45,0,0,0,2.738,2.423,2.56,2.56,0,0,0,2.095-2.6Z" fill="#a9b4dd"/>
        <path id="Tracé_119" data-name="Tracé 119" d="M1.244,4.613.916,2.45.546,0,.176,1.04A3.19,3.19,0,0,0,1.244,4.613Z" transform="translate(13.719 62.795)" fill="#a9b4dd"/>
        <path id="Tracé_120" data-name="Tracé 120" d="M12.636,42.274,10.8,29.967,6.571,1.7,6.325,0l-.26,1.7L1.834,29.967,0,42.274Z" transform="translate(14.278 105.234)" fill="#a9b4dd"/>
        <path id="Tracé_121" data-name="Tracé 121" d="M10.786.163a3.162,3.162,0,0,0-3.97,1.917L.546,19.561.176,20.6a3.19,3.19,0,0,0,1.068,3.573,3.149,3.149,0,0,0,.849.452,3.08,3.08,0,0,0,1.04.178A3.149,3.149,0,0,0,6.1,22.71L12.689,4.174a3.135,3.135,0,0,0-1.9-4.011Z" transform="translate(13.719 43.234)" fill="#c3cdea"/>
        <path id="Tracé_122" data-name="Tracé 122" d="M6.183.181a3.162,3.162,0,0,0-4.025,1.9L.173,7.683A3.19,3.19,0,0,0,1.186,11.2l.219.151a2.916,2.916,0,0,0,.684.342,3.08,3.08,0,0,0,1.04.178A3.135,3.135,0,0,0,6.1,9.791l.123-.356L6.895,7.56,8.086,4.137A3.135,3.135,0,0,0,6.183.181Z" transform="translate(26.919 42.066)" fill="#c3cdea"/>
        <path id="Tracé_123" data-name="Tracé 123" d="M4.894,29.424V2.634a2.45,2.45,0,1,0-4.887,0V29.424a2.45,2.45,0,1,0,4.887,0Z" transform="translate(82.543 6.785)" fill="#c3cdea"/>
      </g>
    </g>
    <g id="Groupe_111" data-name="Groupe 111" transform="translate(-689 -1708.441)">
      <circle id="Ellipse_57" data-name="Ellipse 57" cx="58" cy="58" r="58" transform="translate(798 1911.441)" fill="#fff" opacity="0.306"/>
      <circle id="Ellipse_58" data-name="Ellipse 58" cx="39" cy="39" r="39" transform="translate(817 1930.441)" fill="#fff" opacity="0.303"/>
      <circle id="Ellipse_59" data-name="Ellipse 59" cx="19.5" cy="19.5" r="19.5" transform="translate(837 1949.441)" fill="#fff" opacity="0.302"/>
    </g>
  </g>
</svg>
