<svg xmlns="http://www.w3.org/2000/svg" width="176.953" height="174.665" viewBox="0 0 176.953 174.665">
  <g id="Groupe_683" data-name="Groupe 683" transform="translate(-1132 -116)">
    <g id="Calque_2" data-name="Calque 2" transform="matrix(0.899, -0.438, 0.438, 0.899, 1158, 158.086)">
      <g id="Calque_1" data-name="Calque 1">
        <path id="Tracé_110" data-name="Tracé 110" d="M25.568,70.787l.671,1.876a24.862,24.862,0,0,1-3.354-1.876A20.014,20.014,0,0,1,20.8,69.24l-.274-.219.219-.151a2.916,2.916,0,0,1,.684-.342,3.08,3.08,0,0,1,1.04-.178,3.135,3.135,0,0,1,2.971,2.081Z" transform="translate(7.575 25.22)" fill="#758dc7"/>
        <path id="Tracé_111" data-name="Tracé 111" d="M62.924,44.986c-.465.438-.945.876-1.437,1.287a33.239,33.239,0,0,1-32.335,5.859,32.7,32.7,0,0,1-7.981-4.107,24.382,24.382,0,0,1,6.735-4.285,32.856,32.856,0,0,1,11.171-2.026,78.429,78.429,0,0,1,22.4,2.806Q62.226,44.726,62.924,44.986Z" transform="translate(7.811 15.386)" fill="#758dc7"/>
        <path id="Tracé_112" data-name="Tracé 112" d="M25.371,70.431l.123.356H20.963L20.73,69.24v-.37a2.916,2.916,0,0,1,.684-.342,3.08,3.08,0,0,1,1.04-.178,3.135,3.135,0,0,1,2.916,2.081Z" transform="translate(7.649 25.22)" fill="#758dc7"/>
        <path id="Tracé_113" data-name="Tracé 113" d="M25.147,63.384a31.747,31.747,0,0,1-6.078-5.476l-.808-5.476L16.755,42.247l-.26-1.7-4.23-28.228L10.43,0h12.7l8.748,59.1,1.232,8.419a32.705,32.705,0,0,1-7.967-4.134Z" transform="translate(3.848)" fill="#758dc7"/>
        <path id="Tracé_114" data-name="Tracé 114" d="M58.04,52.339A33.02,33.02,0,0,1,52.058,59.9c-.465.438-.945.876-1.437,1.287V59.4L50.47,1.29,52,11.544,56.261,40.1Z" transform="translate(18.622 0.476)" fill="#758dc7"/>
        <path id="Tracé_115" data-name="Tracé 115" d="M22.563,78.681a3.149,3.149,0,1,1-5.873,2.095L10.42,63.293l.37-2.45.329-2.163a3.149,3.149,0,0,1,.849-.452,3.08,3.08,0,0,1,1.04-.178,3.149,3.149,0,0,1,2.971,2.095Z" transform="translate(3.845 21.419)" fill="#a9b4dd"/>
        <path id="Tracé_116" data-name="Tracé 116" d="M27.749,76.07a3.149,3.149,0,0,1-5.928,2.108l-1.985-5.6a3.19,3.19,0,0,1,1.013-3.518l.219-.151a2.916,2.916,0,0,1,.684-.342,3.08,3.08,0,0,1,1.04-.178,3.135,3.135,0,0,1,2.971,2.081l.123.356.671,1.876Z" transform="translate(7.255 25.234)" fill="#a9b4dd"/>
        <path id="Tracé_117" data-name="Tracé 117" d="M65.189,82.01V108.8a2.45,2.45,0,1,1-4.887,0V82.01a2.45,2.45,0,1,1,4.887,0Z" transform="translate(22.248 29.288)" fill="#a9b4dd"/>
        <path id="Tracé_118" data-name="Tracé 118" d="M94.3,86.246h0L81.81,1.821H69.161v.068l1.52,10.185,4.2,28.5,1.6,10.678a4.216,4.216,0,0,1-.589,2.9,33.129,33.129,0,0,1-5.161,6.215c-.465.438-.945.876-1.437,1.287a33.239,33.239,0,0,1-32.335,5.859,32.7,32.7,0,0,1-7.981-4.107,33.24,33.24,0,0,1-9.254-9.8,3.546,3.546,0,0,1-.465-2.382l1.369-8.9h0l-.26-1.684L16.113,12.321,14.278,0h0L1.369,86.739,0,95.61v42.575a9.35,9.35,0,0,0,9.323,9.323H86.615a9.419,9.419,0,0,0,9.391-9.391V97.773h0Zm-69.818,17.8a3.162,3.162,0,0,1-3.943-1.848l-6.27-17.482-.37-1.04A3.19,3.19,0,0,1,14.963,80.1a3.149,3.149,0,0,1,.849-.452,3.08,3.08,0,0,1,1.04-.178,3.149,3.149,0,0,1,2.971,2.095L26.408,100.1a3.135,3.135,0,0,1-1.9,4.011Zm7.789,1.369a3.3,3.3,0,0,1-3.286-2.259l-1.917-5.476a3.19,3.19,0,0,1,1.013-3.518l.219-.151a2.916,2.916,0,0,1,.684-.342,3.08,3.08,0,0,1,1.04-.178,3.135,3.135,0,0,1,2.971,2.081l.123.356.671,1.876L35,101.3a3.149,3.149,0,0,1-2.711,4.107Zm55.142,32.65a2.437,2.437,0,0,1-2.738,2.423,2.587,2.587,0,0,1-2.081-2.615V111.3a2.45,2.45,0,0,1,2.738-2.423,2.56,2.56,0,0,1,2.095,2.6Z" fill="#a9b4dd"/>
        <path id="Tracé_119" data-name="Tracé 119" d="M11.265,58.51l-.329,2.163-.37,2.45-.37-1.04A3.19,3.19,0,0,1,11.265,58.51Z" transform="translate(3.698 21.589)" fill="#a9b4dd"/>
        <path id="Tracé_120" data-name="Tracé 120" d="M23.066,0,21.231,12.307,17,40.577l-.246,1.7-.26-1.7-4.23-28.269L10.43,0Z" transform="translate(3.848)" fill="#a9b4dd"/>
        <path id="Tracé_121" data-name="Tracé 121" d="M20.807,82.692a3.162,3.162,0,0,1-3.97-1.917l-6.27-17.482-.37-1.04a3.19,3.19,0,0,1,1.068-3.573,3.149,3.149,0,0,1,.849-.452,3.08,3.08,0,0,1,1.04-.178,3.149,3.149,0,0,1,2.971,2.095L22.71,78.681a3.135,3.135,0,0,1-1.9,4.011Z" transform="translate(3.698 21.419)" fill="#c3cdea"/>
        <path id="Tracé_122" data-name="Tracé 122" d="M25.847,80.041a3.162,3.162,0,0,1-4.025-1.9l-1.985-5.6a3.19,3.19,0,0,1,1.013-3.518l.219-.151a2.916,2.916,0,0,1,.684-.342,3.08,3.08,0,0,1,1.04-.178,3.135,3.135,0,0,1,2.971,2.081l.123.356.671,1.876,1.191,3.422A3.135,3.135,0,0,1,25.847,80.041Z" transform="translate(7.255 25.22)" fill="#c3cdea"/>
        <path id="Tracé_123" data-name="Tracé 123" d="M65.189,82.01V108.8a2.45,2.45,0,1,1-4.887,0V82.01a2.45,2.45,0,1,1,4.887,0Z" transform="translate(22.248 29.288)" fill="#c3cdea"/>
      </g>
    </g>
    <g id="Groupe_110" data-name="Groupe 110" transform="translate(334 -1773.441)">
      <circle id="Ellipse_57" data-name="Ellipse 57" cx="58" cy="58" r="58" transform="translate(798 1911.441)" fill="#fff" opacity="0.299"/>
      <circle id="Ellipse_58" data-name="Ellipse 58" cx="39" cy="39" r="39" transform="translate(817 1930.441)" fill="#fff" opacity="0.3"/>
      <circle id="Ellipse_59" data-name="Ellipse 59" cx="19.5" cy="19.5" r="19.5" transform="translate(837 1949.441)" fill="#fff" opacity="0.302"/>
    </g>
  </g>
</svg>
