<svg xmlns="http://www.w3.org/2000/svg" width="200.786" height="79.097" viewBox="0 0 200.786 79.097">
  <g id="Groupe_340" data-name="Groupe 340" transform="translate(-813.976 -254)">
    <g id="Calque_1-3" data-name="Calque 1-3" transform="translate(2.099 -21.309)">
      <path id="Tracé_24" data-name="Tracé 24" d="M855.743,330.506a48.24,48.24,0,0,1-33.176-.139l.153-2.178Z" fill="#fff"/>
      <path id="Tracé_25" data-name="Tracé 25" d="M868.182,323.151l-.545,7.77a8.09,8.09,0,0,1-5.174-4.276A8.128,8.128,0,0,1,868.182,323.151Z" fill="#463075"/>
      <path id="Tracé_26" data-name="Tracé 26" d="M863.407,326.975a47.838,47.838,0,0,1-7.685,3.575l-33.005-2.316L823,324.14l4.23.3-.172,2.451,9.369.657a2.441,2.441,0,0,0,1.784-.6l.078-.077a2.44,2.44,0,0,0,.759-1.607Z" fill="#f09990"/>
      <path id="Tracé_27" data-name="Tracé 27" d="M863.76,326.745l-.353.231-24.355-1.709a2.457,2.457,0,0,0-2.279-2.623l-6.916-.486a2.442,2.442,0,0,0-1.724.518,2.47,2.47,0,0,0-.848,1.683l-4.275-.3-.438,6.236a44.7,44.7,0,0,1-5.744-2.519,48.213,48.213,0,0,1-4.951-3l1.622-1.41-1.542-1.822a48.229,48.229,0,0,1,51.8,5.2Z" fill="#253676"/>
      <path id="Tracé_28" data-name="Tracé 28" d="M863.76,326.745l-.066.04-.095.057-.086.049-.106.084-24.354-1.709a2.458,2.458,0,0,0-2.279-2.622l-6.917-.486a2.442,2.442,0,0,0-1.724.518,2.47,2.47,0,0,0-.848,1.683l-4.275-.3.269-3.831a48.045,48.045,0,0,1,12.733-1.8A49.609,49.609,0,0,1,863.76,326.745Z" fill="#659cd4"/>
      <path id="Tracé_29" data-name="Tracé 29" d="M839.052,325.267a2.448,2.448,0,0,1-.76,1.607l-.079.076a2.438,2.438,0,0,1-1.784.6l-9.367-.658.172-2.451a2.466,2.466,0,0,1,.848-1.682,2.441,2.441,0,0,1,1.775-.6l6.917.486A2.456,2.456,0,0,1,839.052,325.267Z" fill="#463075"/>
      <circle id="Ellipse_22" data-name="Ellipse 22" cx="2.093" cy="2.093" r="2.093" transform="translate(816.085 321.663)" fill="#1d1d1b" stroke="#fff" stroke-miterlimit="10" stroke-width="0.393"/>
    </g>
    <g id="Calque_1-3-2" data-name="Calque 1-3" transform="translate(2.099 -21.309)">
      <path id="Tracé_24-2" data-name="Tracé 24" d="M896.4,286.874a48.238,48.238,0,0,1-32.894,4.31l-.141-2.179Z" fill="#fff"/>
      <path id="Tracé_25-2" data-name="Tracé 25" d="M907.743,277.918l.5,7.773a8.09,8.09,0,0,1-5.7-3.544A8.125,8.125,0,0,1,907.743,277.918Z" fill="#463075"/>
      <path id="Tracé_26-2" data-name="Tracé 26" d="M903.524,282.348a47.771,47.771,0,0,1-7.137,4.573l-33.017,2.13-.264-4.1,4.231-.273.159,2.452,9.371-.6a2.445,2.445,0,0,0,1.689-.83l.067-.086a2.444,2.444,0,0,0,.537-1.694Z" fill="#f09990"/>
      <path id="Tracé_27-2" data-name="Tracé 27" d="M903.843,282.072l-.319.276L879.16,283.92a2.457,2.457,0,0,0-2.61-2.294l-6.919.447a2.438,2.438,0,0,0-1.639.744,2.464,2.464,0,0,0-.615,1.781l-4.277.276.4,6.238a44.6,44.6,0,0,1-6.03-1.726,48.336,48.336,0,0,1-5.31-2.312l1.419-1.614-1.772-1.6a48.226,48.226,0,0,1,52.032-1.8Z" fill="#253676"/>
      <path id="Tracé_28-2" data-name="Tracé 28" d="M903.843,282.072l-.06.049-.087.069-.078.06-.094.1-24.364,1.571a2.456,2.456,0,0,0-2.609-2.293l-6.92.447a2.438,2.438,0,0,0-1.639.744,2.464,2.464,0,0,0-.615,1.781l-4.277.276-.247-3.832a48.1,48.1,0,0,1,12.377-3.489A49.619,49.619,0,0,1,903.843,282.072Z" fill="#659cd4"/>
      <path id="Tracé_29-2" data-name="Tracé 29" d="M879.16,283.92a2.45,2.45,0,0,1-.538,1.694l-.068.087a2.439,2.439,0,0,1-1.688.829l-9.371.605-.158-2.452a2.466,2.466,0,0,1,.615-1.782,2.44,2.44,0,0,1,1.679-.828l6.919-.447A2.457,2.457,0,0,1,879.16,283.92Z" fill="#463075"/>
      <circle id="Ellipse_22-2" data-name="Ellipse 22" cx="2.093" cy="2.093" r="2.093" transform="translate(856.179 283.129)" fill="#1d1d1b" stroke="#fff" stroke-miterlimit="10" stroke-width="0.393"/>
    </g>
    <g id="Calque_1-3-3" data-name="Calque 1-3" transform="translate(2.099 -21.309)">
      <path id="Tracé_24-3" data-name="Tracé 24" d="M920.959,351.3a48.247,48.247,0,0,1-33.174.331l.122-2.18Z" fill="#fff"/>
      <path id="Tracé_25-3" data-name="Tracé 25" d="M933.293,343.766l-.435,7.776a8.086,8.086,0,0,1-5.234-4.2A8.121,8.121,0,0,1,933.293,343.766Z" fill="#463075"/>
      <path id="Tracé_26-3" data-name="Tracé 26" d="M928.572,347.657a47.721,47.721,0,0,1-7.633,3.683L887.9,349.492l.23-4.1,4.233.237-.137,2.453,9.377.524a2.436,2.436,0,0,0,1.775-.62l.078-.078a2.449,2.449,0,0,0,.736-1.618Z" fill="#f09990"/>
      <path id="Tracé_27-3" data-name="Tracé 27" d="M928.923,347.422l-.35.235L904.2,346.294a2.457,2.457,0,0,0-2.316-2.591l-6.922-.387a2.438,2.438,0,0,0-1.717.542,2.468,2.468,0,0,0-.824,1.7l-4.279-.24-.349,6.242a44.672,44.672,0,0,1-5.78-2.438,48.284,48.284,0,0,1-4.993-2.932l1.6-1.433-1.567-1.8a48.23,48.23,0,0,1,51.872,4.46Z" fill="#253676"/>
      <path id="Tracé_28-3" data-name="Tracé 28" d="M928.923,347.422l-.066.041-.095.058-.084.05-.106.086L904.2,346.293a2.457,2.457,0,0,0-2.315-2.59l-6.923-.387a2.438,2.438,0,0,0-1.717.542,2.468,2.468,0,0,0-.824,1.7l-4.279-.24.215-3.834a48.108,48.108,0,0,1,12.706-1.978A49.622,49.622,0,0,1,928.923,347.422Z" fill="#659cd4"/>
      <path id="Tracé_29-3" data-name="Tracé 29" d="M904.2,346.294a2.445,2.445,0,0,1-.737,1.617l-.078.078a2.441,2.441,0,0,1-1.775.621l-9.376-.525.137-2.453a2.467,2.467,0,0,1,.825-1.695,2.441,2.441,0,0,1,1.766-.621l6.923.387A2.457,2.457,0,0,1,904.2,346.294Z" fill="#463075"/>
      <circle id="Ellipse_22-3" data-name="Ellipse 22" cx="2.093" cy="2.093" r="2.093" transform="translate(881.21 342.986)" fill="#1d1d1b" stroke="#fff" stroke-miterlimit="10" stroke-width="0.393"/>
    </g>
    <g id="Calque_1-3-4" data-name="Calque 1-3" transform="translate(2.099 -21.309)">
      <path id="Tracé_24-4" data-name="Tracé 24" d="M999.863,295.513a48.249,48.249,0,0,1-33.125-1.84l.264-2.168Z" fill="#fff"/>
      <path id="Tracé_25-4" data-name="Tracé 25" d="M1012.663,288.8l-.943,7.732a8.09,8.09,0,0,1-4.948-4.536A8.131,8.131,0,0,1,1012.663,288.8Z" fill="#463075"/>
      <path id="Tracé_26-4" data-name="Tracé 26" d="M1007.7,292.38a47.837,47.837,0,0,1-7.858,3.176L967,291.551l.5-4.074,4.209.513-.3,2.439,9.322,1.137a2.44,2.44,0,0,0,1.812-.5l.082-.073a2.445,2.445,0,0,0,.841-1.566Z" fill="#f09990"/>
      <path id="Tracé_27-4" data-name="Tracé 27" d="M1008.063,292.168l-.365.212-24.235-2.955a2.458,2.458,0,0,0-2.141-2.737l-6.883-.839a2.442,2.442,0,0,0-1.748.428,2.47,2.47,0,0,0-.933,1.637L967.5,287.4l-.756,6.205a44.628,44.628,0,0,1-5.608-2.81,48.412,48.412,0,0,1-4.79-3.253l1.692-1.325-1.446-1.9a48.229,48.229,0,0,1,51.469,7.845Z" fill="#253676"/>
      <path id="Tracé_28-4" data-name="Tracé 28" d="M1008.063,292.168l-.069.037-.1.052-.088.044-.11.078-24.235-2.955a2.457,2.457,0,0,0-2.14-2.736l-6.884-.839a2.442,2.442,0,0,0-1.748.428,2.47,2.47,0,0,0-.933,1.637L967.5,287.4l.465-3.812a48.039,48.039,0,0,1,12.808-1.142A49.619,49.619,0,0,1,1008.063,292.168Z" fill="#659cd4"/>
      <path id="Tracé_29-4" data-name="Tracé 29" d="M983.463,289.425a2.444,2.444,0,0,1-.842,1.565l-.082.073a2.44,2.44,0,0,1-1.812.5l-9.322-1.137.3-2.439a2.469,2.469,0,0,1,.933-1.637,2.442,2.442,0,0,1,1.8-.5l6.883.839A2.458,2.458,0,0,1,983.463,289.425Z" fill="#463075"/>
      <circle id="Ellipse_22-4" data-name="Ellipse 22" cx="2.093" cy="2.093" r="2.093" transform="translate(960.601 284.753)" fill="#1d1d1b" stroke="#fff" stroke-miterlimit="10" stroke-width="0.393"/>
    </g>
    <g id="Calque_1-3-5" data-name="Calque 1-3" transform="translate(2.099 -21.309)">
      <path id="Tracé_24-5" data-name="Tracé 24" d="M945.372,311.367a48.243,48.243,0,0,1-32.684,5.692l-.232-2.171Z" fill="#fff"/>
      <path id="Tracé_25-5" data-name="Tracé 25" d="M956.325,301.941l.829,7.745a8.088,8.088,0,0,1-5.845-3.3A8.124,8.124,0,0,1,956.325,301.941Z" fill="#463075"/>
      <path id="Tracé_26-5" data-name="Tracé 26" d="M952.3,306.545a47.806,47.806,0,0,1-6.937,4.869l-32.9,3.52-.437-4.081,4.216-.451.262,2.443,9.338-1a2.44,2.44,0,0,0,1.652-.9l.063-.089a2.447,2.447,0,0,0,.466-1.715Z" fill="#f09990"/>
      <path id="Tracé_27-5" data-name="Tracé 27" d="M952.6,306.256l-.308.289-24.276,2.6a2.457,2.457,0,0,0-2.7-2.182l-6.894.738a2.437,2.437,0,0,0-1.606.812,2.463,2.463,0,0,0-.539,1.806l-4.262.456.665,6.216a44.776,44.776,0,0,1-6.1-1.471,48.269,48.269,0,0,1-5.4-2.086l1.349-1.673-1.838-1.523a48.231,48.231,0,0,1,51.911-3.989Z" fill="#253676"/>
      <path id="Tracé_28-5" data-name="Tracé 28" d="M952.6,306.256l-.059.051-.083.073-.076.063-.09.1-24.275,2.6a2.458,2.458,0,0,0-2.7-2.181l-6.9.738a2.437,2.437,0,0,0-1.606.812,2.463,2.463,0,0,0-.539,1.806l-4.262.456-.408-3.819a48.046,48.046,0,0,1,12.219-4.006A49.618,49.618,0,0,1,952.6,306.256Z" fill="#659cd4"/>
      <path id="Tracé_29-5" data-name="Tracé 29" d="M928.02,309.142a2.441,2.441,0,0,1-.466,1.715l-.064.089a2.436,2.436,0,0,1-1.651.9l-9.337,1-.262-2.443a2.467,2.467,0,0,1,.54-1.806,2.437,2.437,0,0,1,1.642-.9l6.894-.738A2.457,2.457,0,0,1,928.02,309.142Z" fill="#463075"/>
      <circle id="Ellipse_22-5" data-name="Ellipse 22" cx="2.093" cy="2.093" r="2.093" transform="translate(905.113 309.23)" fill="#1d1d1b" stroke="#fff" stroke-miterlimit="10" stroke-width="0.393"/>
    </g>
  </g>
</svg>
