<svg xmlns="http://www.w3.org/2000/svg" width="147.726" height="92.119" viewBox="0 0 147.726 92.119">
  <g id="Groupe_686" data-name="Groupe 686" transform="translate(-748.863 -2023.907)">
    <g id="Calque_1-3" data-name="Calque 1-3" transform="translate(2.099 -21.309)">
      <path id="Tracé_24" data-name="Tracé 24" d="M827.3,2080.773a16.356,16.356,0,0,0-11.252.047l.052.739Z" fill="#5281cc"/>
      <path id="Tracé_25" data-name="Tracé 25" d="M831.524,2083.267l-.185-2.635a1.4,1.4,0,1,0,.185,2.635Z" fill="#5281cc"/>
      <path id="Tracé_26" data-name="Tracé 26" d="M829.9,2081.97a16.223,16.223,0,0,0-2.606-1.212l-11.195.785.1,1.389,1.435-.1-.059-.831,3.178-.223a.827.827,0,0,1,.6.2l.026.026a.833.833,0,0,1,.258.545Z" fill="#5281cc"/>
      <path id="Tracé_27" data-name="Tracé 27" d="M830.024,2082.048l-.12-.078-8.26.58a.833.833,0,0,1-.773.889l-2.346.165a.791.791,0,0,1-.872-.746l-1.45.1-.149-2.115a15.243,15.243,0,0,0-1.948.855,16.179,16.179,0,0,0-1.679,1.018l.55.478-.523.618a16.358,16.358,0,0,0,17.57-1.761Z" fill="#5281cc"/>
      <path id="Tracé_28" data-name="Tracé 28" d="M830.024,2082.048l-.023-.013-.032-.02-.029-.016-.036-.029-8.26.58a.833.833,0,0,1-.773.889l-2.346.165a.791.791,0,0,1-.872-.746l-1.45.1.091,1.3a16.338,16.338,0,0,0,4.319.609A16.823,16.823,0,0,0,830.024,2082.048Z" fill="#5281cc"/>
      <path id="Tracé_29" data-name="Tracé 29" d="M821.644,2082.55a.833.833,0,0,0-.258-.545l-.027-.026a.824.824,0,0,0-.6-.2l-3.177.223.058.831a.842.842,0,0,0,.288.571.829.829,0,0,0,.6.2l2.346-.165A.833.833,0,0,0,821.644,2082.55Z" fill="#5281cc"/>
      <circle id="Ellipse_22" data-name="Ellipse 22" cx="0.71" cy="0.71" r="0.71" transform="translate(813.854 2082.352)" fill="#5281cc"/>
    </g>
    <g id="Calque_1-3-2" data-name="Calque 1-3" transform="translate(2.099 -21.309)">
      <path id="Tracé_24-2" data-name="Tracé 24" d="M793.379,2071.525a16.361,16.361,0,0,0-11.251-.113l.041.74Z" fill="#5a73cc"/>
      <path id="Tracé_25-2" data-name="Tracé 25" d="M797.563,2074.079l-.148-2.638a1.4,1.4,0,1,0,.148,2.638Z" fill="#5a73cc"/>
      <path id="Tracé_26-2" data-name="Tracé 26" d="M795.962,2072.759a16.161,16.161,0,0,0-2.59-1.25l-11.2.627.078,1.39,1.436-.08-.046-.832,3.18-.178a.827.827,0,0,1,.6.21l.026.027a.83.83,0,0,1,.25.548Z" fill="#5a73cc"/>
      <path id="Tracé_27-2" data-name="Tracé 27" d="M796.08,2072.839l-.118-.08-8.268.462a.834.834,0,0,1-.785.879l-2.348.131a.79.79,0,0,1-.862-.759l-1.451.082-.119-2.117a15.1,15.1,0,0,0-1.96.826,16.638,16.638,0,0,0-1.694,1l.544.486-.532.61a16.358,16.358,0,0,0,17.594-1.512Z" fill="#5a73cc"/>
      <path id="Tracé_28-2" data-name="Tracé 28" d="M796.08,2072.839l-.022-.014-.032-.02-.029-.017-.035-.029-8.268.462a.834.834,0,0,1-.785.879l-2.348.131a.79.79,0,0,1-.862-.759l-1.451.082.072,1.3a16.3,16.3,0,0,0,4.31.671A16.833,16.833,0,0,0,796.08,2072.839Z" fill="#5a73cc"/>
      <path id="Tracé_29-2" data-name="Tracé 29" d="M787.694,2073.221a.83.83,0,0,0-.25-.548l-.026-.027a.83.83,0,0,0-.6-.21l-3.18.178.047.832a.839.839,0,0,0,.879.785l2.348-.131A.834.834,0,0,0,787.694,2073.221Z" fill="#5a73cc"/>
      <circle id="Ellipse_22-2" data-name="Ellipse 22" cx="0.71" cy="0.71" r="0.71" transform="translate(779.898 2072.923)" fill="#5a73cc"/>
    </g>
    <g id="Calque_1-3-3" data-name="Calque 1-3" transform="translate(2.099 -21.309)">
      <path id="Tracé_24-3" data-name="Tracé 24" d="M785.029,2101.454a18,18,0,0,0-12.372.051l.057.813Z" fill="#5a73cc"/>
      <path id="Tracé_25-3" data-name="Tracé 25" d="M789.668,2104.2l-.2-2.9a1.536,1.536,0,1,0,.2,2.9Z" fill="#5a73cc"/>
      <path id="Tracé_26-3" data-name="Tracé 26" d="M787.887,2102.77a17.871,17.871,0,0,0-2.866-1.333l-12.308.864.107,1.526,1.578-.11-.064-.914,3.493-.245a.907.907,0,0,1,.665.222l.03.028a.912.912,0,0,1,.283.6Z" fill="#5a73cc"/>
      <path id="Tracé_27-3" data-name="Tracé 27" d="M788.019,2102.856l-.132-.086-9.082.637a.916.916,0,0,1-.85.978l-2.579.181a.869.869,0,0,1-.959-.82l-1.595.112-.163-2.326a16.7,16.7,0,0,0-2.142.94,17.96,17.96,0,0,0-1.846,1.12l.6.525-.575.68a17.986,17.986,0,0,0,19.318-1.937Z" fill="#5a73cc"/>
      <path id="Tracé_28-3" data-name="Tracé 28" d="M788.019,2102.856l-.025-.015-.035-.021-.032-.018-.04-.032-9.082.638a.916.916,0,0,1-.85.977l-2.579.181a.869.869,0,0,1-.959-.82l-1.595.112.1,1.428a17.931,17.931,0,0,0,4.748.671A18.507,18.507,0,0,0,788.019,2102.856Z" fill="#5a73cc"/>
      <path id="Tracé_29-3" data-name="Tracé 29" d="M778.8,2103.407a.909.909,0,0,0-.284-.6l-.029-.028a.909.909,0,0,0-.665-.222l-3.494.245.065.914a.92.92,0,0,0,.316.627.909.909,0,0,0,.662.222l2.579-.181A.916.916,0,0,0,778.8,2103.407Z" fill="#5a73cc"/>
      <circle id="Ellipse_22-3" data-name="Ellipse 22" cx="0.78" cy="0.78" r="0.78" transform="translate(770.24 2103.19)" fill="#5a73cc"/>
    </g>
    <g id="Calque_1-3-4" data-name="Calque 1-3" transform="translate(2.099 -21.309)">
      <path id="Tracé_24-4" data-name="Tracé 24" d="M888.659,2079.979a17.987,17.987,0,0,0-12.353.686l.1.808Z" fill="#5a73cc"/>
      <path id="Tracé_25-4" data-name="Tracé 25" d="M893.432,2082.48l-.352-2.883a1.536,1.536,0,1,0,.352,2.883Z" fill="#5a73cc"/>
      <path id="Tracé_26-4" data-name="Tracé 26" d="M891.58,2081.147a17.767,17.767,0,0,0-2.93-1.184l-12.248,1.493.186,1.52,1.569-.192-.111-.909,3.477-.424a.909.909,0,0,1,.676.187l.03.027a.916.916,0,0,1,.314.584Z" fill="#5a73cc"/>
      <path id="Tracé_27-4" data-name="Tracé 27" d="M891.716,2081.226l-.136-.079-9.037,1.1a.917.917,0,0,1-.8,1.021l-2.566.313a.87.87,0,0,1-1-.771l-1.587.194-.282-2.314a16.677,16.677,0,0,0-2.091,1.048,17.977,17.977,0,0,0-1.787,1.213l.632.494-.54.708a17.987,17.987,0,0,0,19.194-2.925Z" fill="#5a73cc"/>
      <path id="Tracé_28-4" data-name="Tracé 28" d="M891.717,2081.226l-.026-.014-.037-.019-.032-.017-.042-.029-9.037,1.1a.917.917,0,0,1-.8,1.021l-2.567.313a.87.87,0,0,1-1-.771l-1.587.194.174,1.421a17.877,17.877,0,0,0,4.776.426A18.509,18.509,0,0,0,891.717,2081.226Z" fill="#5a73cc"/>
      <path id="Tracé_29-4" data-name="Tracé 29" d="M882.543,2082.249a.916.916,0,0,0-.314-.584l-.031-.027a.906.906,0,0,0-.675-.187l-3.477.424.111.909a.923.923,0,0,0,1.021.8l2.566-.313A.917.917,0,0,0,882.543,2082.249Z" fill="#5a73cc"/>
      <circle id="Ellipse_22-4" data-name="Ellipse 22" cx="0.78" cy="0.78" r="0.78" transform="translate(874.017 2082.43)" fill="#5a73cc"/>
    </g>
    <g id="Calque_1-3-5" data-name="Calque 1-3" transform="translate(2.099 -21.309)">
      <path id="Tracé_24-5" data-name="Tracé 24" d="M889.851,2119.925a18,18,0,0,0-12.371.052l.057.813Z" fill="#5a73cc"/>
      <path id="Tracé_25-5" data-name="Tracé 25" d="M894.49,2122.668l-.2-2.9a1.536,1.536,0,1,0,.2,2.9Z" fill="#5a73cc"/>
      <path id="Tracé_26-5" data-name="Tracé 26" d="M892.709,2121.242a17.913,17.913,0,0,0-2.866-1.333l-12.308.864.107,1.526,1.578-.11-.064-.914,3.493-.245a.91.91,0,0,1,.666.222l.029.028a.912.912,0,0,1,.283.6Z" fill="#5a73cc"/>
      <path id="Tracé_27-5" data-name="Tracé 27" d="M892.841,2121.328l-.132-.086-9.082.637a.916.916,0,0,1-.85.978l-2.579.181a.869.869,0,0,1-.959-.82l-1.6.112-.163-2.326a16.737,16.737,0,0,0-2.142.94,18.138,18.138,0,0,0-1.846,1.119l.605.526-.575.68a17.984,17.984,0,0,0,19.318-1.938Z" fill="#5a73cc"/>
      <path id="Tracé_28-5" data-name="Tracé 28" d="M892.841,2121.328l-.025-.015-.035-.021-.032-.018-.04-.032-9.082.638a.916.916,0,0,1-.849.977l-2.58.181a.869.869,0,0,1-.959-.82l-1.594.112.1,1.428a17.93,17.93,0,0,0,4.748.671A18.507,18.507,0,0,0,892.841,2121.328Z" fill="#5a73cc"/>
      <path id="Tracé_29-5" data-name="Tracé 29" d="M883.627,2121.879a.909.909,0,0,0-.284-.6l-.029-.028a.914.914,0,0,0-.665-.223l-3.493.246.064.914a.92.92,0,0,0,.316.627.91.91,0,0,0,.662.222l2.579-.181A.916.916,0,0,0,883.627,2121.879Z" fill="#5a73cc"/>
      <circle id="Ellipse_22-5" data-name="Ellipse 22" cx="0.78" cy="0.78" r="0.78" transform="translate(875.062 2121.662)" fill="#5a73cc"/>
    </g>
    <g id="Calque_1-3-6" data-name="Calque 1-3" transform="translate(2.099 -21.309)">
      <path id="Tracé_24-6" data-name="Tracé 24" d="M806.563,2092.81A17.986,17.986,0,0,0,794.3,2091.2l-.053.812Z" fill="#5a73cc"/>
      <path id="Tracé_25-6" data-name="Tracé 25" d="M810.792,2096.15l.187-2.9a1.536,1.536,0,1,0-.187,2.9Z" fill="#5a73cc"/>
      <path id="Tracé_26-6" data-name="Tracé 26" d="M809.218,2094.5a17.8,17.8,0,0,0-2.661-1.705L794.244,2092l-.1,1.528,1.578.1.059-.915,3.495.226a.906.906,0,0,1,.629.309l.025.032a.916.916,0,0,1,.2.632Z" fill="#5a73cc"/>
      <path id="Tracé_27-6" data-name="Tracé 27" d="M809.337,2094.6l-.119-.1-9.085-.586a.917.917,0,0,1-.974.855l-2.58-.166a.87.87,0,0,1-.84-.942l-1.6-.1.15-2.326a16.588,16.588,0,0,0-2.249.644,17.8,17.8,0,0,0-1.98.862l.529.6-.661.6a17.986,17.986,0,0,0,19.4.67Z" fill="#5a73cc"/>
      <path id="Tracé_28-6" data-name="Tracé 28" d="M809.337,2094.6l-.022-.018-.033-.026-.029-.022-.035-.037-9.085-.586a.916.916,0,0,1-.973.855l-2.581-.166a.87.87,0,0,1-.84-.942l-1.6-.1-.092,1.429a17.892,17.892,0,0,0,4.615,1.3A18.508,18.508,0,0,0,809.337,2094.6Z" fill="#5a73cc"/>
      <path id="Tracé_29-6" data-name="Tracé 29" d="M800.133,2093.912a.916.916,0,0,0-.2-.632l-.025-.032a.906.906,0,0,0-.63-.309l-3.494-.226-.059.914a.921.921,0,0,0,.855.974l2.58.166A.917.917,0,0,0,800.133,2093.912Z" fill="#5a73cc"/>
      <circle id="Ellipse_22-6" data-name="Ellipse 22" cx="0.78" cy="0.78" r="0.78" transform="translate(791.563 2092.646)" fill="#5a73cc"/>
    </g>
    <g id="Calque_1-3-7" data-name="Calque 1-3" transform="translate(2.099 -21.309)">
      <path id="Tracé_24-7" data-name="Tracé 24" d="M819.005,2061.22a17.984,17.984,0,0,0-12.371-.123l.046.813Z" fill="#5a73cc"/>
      <path id="Tracé_25-7" data-name="Tracé 25" d="M823.6,2064.028l-.162-2.9a1.536,1.536,0,1,0,.162,2.9Z" fill="#5a73cc"/>
      <path id="Tracé_26-7" data-name="Tracé 26" d="M821.844,2062.577A17.888,17.888,0,0,0,819,2061.2l-12.319.69.085,1.528,1.579-.089-.051-.914,3.5-.2a.911.911,0,0,1,.662.231l.029.029a.91.91,0,0,1,.274.6Z" fill="#5a73cc"/>
      <path id="Tracé_27-7" data-name="Tracé 27" d="M821.975,2062.665l-.13-.088-9.091.508a.915.915,0,0,1-.863.966l-2.582.145a.869.869,0,0,1-.947-.834l-1.6.089-.13-2.328a16.7,16.7,0,0,0-2.156.91,18,18,0,0,0-1.862,1.093l.6.534-.585.672a17.986,17.986,0,0,0,19.344-1.664Z" fill="#5a73cc"/>
      <path id="Tracé_28-7" data-name="Tracé 28" d="M821.975,2062.665l-.024-.016-.036-.021-.031-.019-.039-.032-9.091.509a.915.915,0,0,1-.863.965l-2.582.145a.869.869,0,0,1-.947-.834l-1.6.089.08,1.43a17.908,17.908,0,0,0,4.738.737A18.5,18.5,0,0,0,821.975,2062.665Z" fill="#5a73cc"/>
      <path id="Tracé_29-7" data-name="Tracé 29" d="M812.754,2063.085a.916.916,0,0,0-.275-.6l-.029-.029a.91.91,0,0,0-.662-.231l-3.5.2.051.915a.923.923,0,0,0,.966.864l2.582-.145A.916.916,0,0,0,812.754,2063.085Z" fill="#5a73cc"/>
      <circle id="Ellipse_22-7" data-name="Ellipse 22" cx="0.78" cy="0.78" r="0.78" transform="translate(804.182 2062.758)" fill="#5a73cc"/>
    </g>
    <g id="Calque_1-3-8" data-name="Calque 1-3" transform="translate(2.099 -21.309)">
      <path id="Tracé_24-8" data-name="Tracé 24" d="M856.333,2108.153a16.367,16.367,0,0,1-11.252-.048l.052-.738Z" fill="#5a73cc"/>
      <path id="Tracé_25-8" data-name="Tracé 25" d="M860.552,2105.658l-.185,2.635a1.4,1.4,0,1,1,.185-2.635Z" fill="#5a73cc"/>
      <path id="Tracé_26-8" data-name="Tracé 26" d="M858.933,2106.955a16.277,16.277,0,0,1-2.607,1.213l-11.194-.786.1-1.388,1.435.1-.058.832,3.177.222a.823.823,0,0,0,.6-.2l.027-.026a.834.834,0,0,0,.258-.545Z" fill="#5a73cc"/>
      <path id="Tracé_27-8" data-name="Tracé 27" d="M859.053,2106.877l-.12.078-8.261-.579a.832.832,0,0,0-.772-.89l-2.346-.165a.828.828,0,0,0-.585.176.838.838,0,0,0-.288.571l-1.45-.1-.148,2.115a15.152,15.152,0,0,1-1.948-.854,16.416,16.416,0,0,1-1.68-1.019l.551-.478-.523-.618a16.356,16.356,0,0,1,17.57,1.762Z" fill="#5a73cc"/>
      <path id="Tracé_28-8" data-name="Tracé 28" d="M859.053,2106.877l-.023.014-.032.019-.029.017-.036.028-8.26-.58a.833.833,0,0,0-.773-.889l-2.346-.165a.828.828,0,0,0-.585.176.838.838,0,0,0-.288.571l-1.45-.1.092-1.3a16.292,16.292,0,0,1,4.318-.61A16.834,16.834,0,0,1,859.053,2106.877Z" fill="#5a73cc"/>
      <path id="Tracé_29-8" data-name="Tracé 29" d="M850.672,2106.376a.828.828,0,0,1-.257.545l-.027.026a.831.831,0,0,1-.6.2l-3.177-.223.058-.832a.836.836,0,0,1,.288-.57.827.827,0,0,1,.6-.2l2.346.165A.832.832,0,0,1,850.672,2106.376Z" fill="#5a73cc"/>
      <circle id="Ellipse_22-8" data-name="Ellipse 22" cx="0.71" cy="0.71" r="0.71" transform="translate(842.883 2105.154)" fill="#5a73cc"/>
    </g>
    <g id="Calque_1-3-9" data-name="Calque 1-3" transform="translate(2.099 -21.309)">
      <path id="Tracé_24-9" data-name="Tracé 24" d="M816.814,2136.264a18,18,0,0,1-12.371-.052l.057-.812Z" fill="#5a73cc"/>
      <path id="Tracé_25-9" data-name="Tracé 25" d="M821.453,2133.521l-.2,2.9a1.536,1.536,0,1,1,.2-2.9Z" fill="#5a73cc"/>
      <path id="Tracé_26-9" data-name="Tracé 26" d="M819.672,2134.947a17.7,17.7,0,0,1-2.866,1.333l-12.307-.863.107-1.527,1.577.111-.064.914,3.494.245a.909.909,0,0,0,.665-.222l.029-.029a.912.912,0,0,0,.283-.6Z" fill="#5a73cc"/>
      <path id="Tracé_27-9" data-name="Tracé 27" d="M819.8,2134.861l-.132.086-9.082-.637a.915.915,0,0,0-.85-.978l-2.579-.181a.869.869,0,0,0-.959.82l-1.594-.111-.163,2.325a16.742,16.742,0,0,1-2.143-.939,18,18,0,0,1-1.846-1.12l.6-.526-.575-.679a17.984,17.984,0,0,1,19.318,1.937Z" fill="#5a73cc"/>
      <path id="Tracé_28-9" data-name="Tracé 28" d="M819.8,2134.861l-.025.015-.035.022-.032.018-.04.031-9.082-.637a.915.915,0,0,0-.849-.978l-2.58-.181a.869.869,0,0,0-.959.82l-1.594-.111.1-1.429a17.911,17.911,0,0,1,4.748-.67A18.5,18.5,0,0,1,819.8,2134.861Z" fill="#5a73cc"/>
      <path id="Tracé_29-9" data-name="Tracé 29" d="M810.59,2134.31a.912.912,0,0,1-.283.6l-.03.029a.907.907,0,0,1-.665.222l-3.493-.245.064-.914a.921.921,0,0,1,.978-.85l2.579.181A.915.915,0,0,1,810.59,2134.31Z" fill="#5a73cc"/>
      <circle id="Ellipse_22-9" data-name="Ellipse 22" cx="0.78" cy="0.78" r="0.78" transform="translate(802.026 2132.966)" fill="#5a73cc"/>
    </g>
    <g id="Calque_1-3-10" data-name="Calque 1-3" transform="translate(2.099 -21.309)">
      <path id="Tracé_24-10" data-name="Tracé 24" d="M878.538,2049.529a18,18,0,0,1-12.267,1.607l-.052-.813Z" fill="#5a73cc"/>
      <path id="Tracé_25-10" data-name="Tracé 25" d="M882.767,2046.189l.187,2.9a1.536,1.536,0,1,1-.187-2.9Z" fill="#5a73cc"/>
      <path id="Tracé_26-10" data-name="Tracé 26" d="M881.194,2047.841a17.769,17.769,0,0,1-2.662,1.7l-12.312.794-.1-1.527,1.578-.1.059.915,3.495-.226a.911.911,0,0,0,.63-.309l.025-.032a.915.915,0,0,0,.2-.632Z" fill="#5a73cc"/>
      <path id="Tracé_27-10" data-name="Tracé 27" d="M881.313,2047.738l-.119.1-9.086.586a.915.915,0,0,0-.973-.855l-2.581.166a.91.91,0,0,0-.611.278.922.922,0,0,0-.229.664l-1.595.1.15,2.326a16.729,16.729,0,0,1-2.249-.644,17.912,17.912,0,0,1-1.979-.862l.529-.6-.661-.6a17.986,17.986,0,0,1,19.4-.671Z" fill="#5a73cc"/>
      <path id="Tracé_28-10" data-name="Tracé 28" d="M881.313,2047.738l-.023.018-.032.026-.029.022-.035.037-9.086.586a.915.915,0,0,0-.973-.855l-2.581.166a.91.91,0,0,0-.611.278.922.922,0,0,0-.229.664l-1.595.1-.092-1.429a17.9,17.9,0,0,1,4.616-1.3A18.5,18.5,0,0,1,881.313,2047.738Z" fill="#5a73cc"/>
      <path id="Tracé_29-10" data-name="Tracé 29" d="M872.108,2048.427a.911.911,0,0,1-.2.632l-.025.032a.907.907,0,0,1-.629.309l-3.495.226-.059-.915a.921.921,0,0,1,.855-.973l2.581-.166A.915.915,0,0,1,872.108,2048.427Z" fill="#5a73cc"/>
      <circle id="Ellipse_22-10" data-name="Ellipse 22" cx="0.78" cy="0.78" r="0.78" transform="translate(863.538 2048.132)" fill="#5a73cc"/>
    </g>
    <g id="Calque_1-3-11" data-name="Calque 1-3" transform="translate(2.099 -21.309)">
      <path id="Tracé_24-11" data-name="Tracé 24" d="M762.991,2078.6a17.989,17.989,0,0,1-12.353-.686l.1-.808Z" fill="#5a73cc"/>
      <path id="Tracé_25-11" data-name="Tracé 25" d="M767.764,2076.1l-.351,2.883a1.536,1.536,0,1,1,.351-2.883Z" fill="#5a73cc"/>
      <path id="Tracé_26-11" data-name="Tracé 26" d="M765.913,2077.433a17.788,17.788,0,0,1-2.931,1.184l-12.247-1.493.185-1.519,1.57.191-.111.909,3.476.424a.907.907,0,0,0,.676-.187l.031-.027a.91.91,0,0,0,.313-.584Z" fill="#5a73cc"/>
      <path id="Tracé_27-11" data-name="Tracé 27" d="M766.049,2077.354l-.136.079-9.038-1.1a.917.917,0,0,0-.8-1.021L753.51,2075a.869.869,0,0,0-1,.771l-1.586-.194-.283,2.314a16.746,16.746,0,0,1-2.091-1.048,17.9,17.9,0,0,1-1.786-1.213l.631-.494-.539-.708a17.985,17.985,0,0,1,19.193,2.925Z" fill="#5a73cc"/>
      <path id="Tracé_28-11" data-name="Tracé 28" d="M766.049,2077.354l-.026.014-.036.019-.033.017-.041.029-9.038-1.1a.916.916,0,0,0-.8-1.02L753.51,2075a.869.869,0,0,0-1,.771l-1.586-.194.173-1.421a17.881,17.881,0,0,1,4.777-.426A18.5,18.5,0,0,1,766.049,2077.354Z" fill="#5a73cc"/>
      <path id="Tracé_29-11" data-name="Tracé 29" d="M756.875,2076.331a.916.916,0,0,1-.314.584l-.03.027a.908.908,0,0,1-.676.187l-3.476-.423.111-.91a.923.923,0,0,1,1.02-.8l2.567.313A.917.917,0,0,1,756.875,2076.331Z" fill="#5a73cc"/>
      <circle id="Ellipse_22-11" data-name="Ellipse 22" cx="0.78" cy="0.78" r="0.78" transform="translate(748.35 2074.589)" fill="#5a73cc"/>
    </g>
  </g>
</svg>
