<svg xmlns="http://www.w3.org/2000/svg" width="253.634" height="1367.539" viewBox="0 0 253.634 1367.539">
  <g id="Groupe_699" data-name="Groupe 699" transform="translate(24.901 -1296.999)">
    <path id="Tracé_169" data-name="Tracé 169" d="M178.439,2612.765c125.239,80.308-112.771-166.127-80.423-261.325,29.223-86,28.886-140.265,50.04-280.478,11.347-75.206,117.454-267.031,67.1-308.169-74.836-61.133-32.7-191.846-120.528-177.266S0,1496.658,0,1496.658L-.074,2678.51C-.074,2718.774,125.181,2578.614,178.439,2612.765Z" transform="translate(0.099 -21.309)" fill="#3a4589"/>
    <path id="Tracé_170" data-name="Tracé 170" d="M49.507,2071.89h0a258.5,258.5,0,0,0,28.669-139.935h0a326.709,326.709,0,0,1,28.515-161.085l24.633-53.959a261.077,261.077,0,0,0,21.58-76.185l8.588-69.023a74.421,74.421,0,0,0-20.779-61.359l-40.455-41.154a99.413,99.413,0,0,1-23.558-38.68l-1.365-4.157a223.981,223.981,0,0,0-55.9-89.964L0,1317.308v742.414C0,2087.16,36.788,2096.2,49.507,2071.89Z" transform="translate(-24.901 -20.309)" fill="#1b1f47"/>
  </g>
</svg>
