<svg xmlns="http://www.w3.org/2000/svg" width="178.329" height="1624.171" viewBox="0 0 178.329 1624.171">
  <g id="Groupe_705" data-name="Groupe 705" transform="translate(-1189.783 -875.352)">
    <g id="Groupe_690" data-name="Groupe 690" transform="translate(0 -98)">
      <path id="Tracé_155" data-name="Tracé 155" d="M1366.014,2618.832s-148.563-155.141-117.706-246.487-50.867-132.552-52.22-223.422c-.469-31.517,84.5-130.149,60.527-176.835-56.967-110.935-20.15-195.791-1.186-219.9,49.623-63.077,39.107-95.1,36.957-149.033-1.6-40.045,28.89-101.744,73.628-112.506Z" transform="translate(2.099 -21.309)" fill="#3a4589"/>
      <g id="Groupe_613" data-name="Groupe 613" transform="translate(-1508.74 -6.084)">
        <path id="Tracé_2361" data-name="Tracé 2361" d="M2779.852,1704.337c-1.8.043-5.092-1.312-7.705-3.76a28.032,28.032,0,0,1-2.6-2.83l0,0c-1.039-1.341-1.988-2.915-2.856-4.187-2.776-4.07-2.257-5.232-3.391-6.307-1.733-1.642-2.931-.679-2.9.08s2.234,6.512,6.92,11.96c-.266-.062-.482-.118-.666-.18-2.051-.782-3.977-4.221-5.491-6.511-2.992-4.522-2.538-5.883-3.814-7.092-1.949-1.847-3.3-.764-3.259.089.039.911,3.1,8.642,8.746,14.609-2.15-.474-4.791-3.715-6.947-7.216-2.238-3.633-3.764-7.435-4.838-8.071-2.147-1.272-2.917.319-2.917.319a3.682,3.682,0,0,0-.3,1.272c2.647,2.519,4.765,9.556,11.521,15.921,9.011,8.491,19.7,4.273,21.14,3.214a2.226,2.226,0,0,0,.762-1.232A1.79,1.79,0,0,1,2779.852,1704.337Z" fill="#5281cc"/>
        <path id="Tracé_2362" data-name="Tracé 2362" d="M2765.662,1710.5c-2.3.924-7.433.531-12.363-1.782a46.4,46.4,0,0,1-5.156-2.872l0,.006c-2.191-1.455-4.412-3.292-6.337-4.728-6.159-4.595-6.215-6.535-8.362-7.557-3.281-1.56-4.231.416-3.712,1.505s6.99,8.411,16.493,14.1c-.383.036-.7.059-.977.058-3.153-.157-7.812-4.24-11.217-6.849-6.723-5.151-6.99-7.35-9.405-8.5-3.69-1.755-4.758.467-4.174,1.693.623,1.306,9.454,11.095,20.528,17.078-3.088.339-8.552-3.114-13.55-7.177-5.187-4.218-9.555-9.021-11.348-9.433-3.587-.823-3.587,1.862-3.587,1.862a6.324,6.324,0,0,0,.414,1.994c5.019,2.4,12.188,11.629,24.955,17.66,17.03,8.043,28.252-3.219,29.46-5.452a3.392,3.392,0,0,0,.215-2.159A2.246,2.246,0,0,1,2765.662,1710.5Z" fill="#5281cc"/>
        <path id="Tracé_2363" data-name="Tracé 2363" d="M2772.619,1690.592c-1.678-2.452-6.106-5.754-10.909-7.223a35.137,35.137,0,0,0-5.15-1.137v-.008c-2.255-.277-4.643-.238-6.67-.342-6.481-.334-7.076,1.335-9.172.707-3.2-.959-3.444-3.374-2.7-3.964s8.259-2.437,17.864-.686c-.313-.3-.571-.549-.807-.745-2.7-2.1-7.772-1.822-11.375-1.946-7.114-.245-7.959,1.5-10.316.8-3.6-1.079-3.873-3.8-3.035-4.459.893-.708,11.091-3.048,22.1-.441-2.5-2.5-8.077-3.34-13.431-3.316-5.557.025-10.59,1.149-12.216.237-3.251-1.826-2.493-4.191-2.493-4.191a4.176,4.176,0,0,1,.912-1.461c4.9,1.456,13.543-1.574,25.992,2.194,16.6,5.027,22.868,22.926,23.254,25.752a3.286,3.286,0,0,1-.429,2.054A3.689,3.689,0,0,0,2772.619,1690.592Z" fill="#5281cc"/>
        <path id="Tracé_2364" data-name="Tracé 2364" d="M2777.714,1686.562c.277-2.992-1.074-8.435-3.924-12.7a36.208,36.208,0,0,0-3.346-4.235l0-.007c-1.61-1.683-3.532-3.207-5.074-4.608-4.929-4.479-6.5-3.573-7.75-5.424-1.915-2.828-.521-4.857.458-4.829s8.159,3.489,14.64,11.1c-.048-.44-.093-.8-.151-1.1-.762-3.388-4.979-6.473-7.759-8.915-5.49-4.822-7.308-4.018-8.718-6.1-2.153-3.181-.585-5.463.516-5.432,1.174.033,10.811,4.86,17.847,14.049-.351-3.563-4.225-7.848-8.494-11.315-4.431-3.6-9.167-6.005-9.859-7.771-1.385-3.532.77-4.871.77-4.871a4.334,4.334,0,0,1,1.684-.538c2.938,4.32,11.791,7.6,19.206,18.625,9.892,14.707,3.12,32.656,1.571,35.1a3.338,3.338,0,0,1-1.689,1.313A3.667,3.667,0,0,0,2777.714,1686.562Z" fill="#5281cc"/>
        <path id="Tracé_2365" data-name="Tracé 2365" d="M2778.559,1679.131a15.356,15.356,0,0,0,2.241-8.412,22.828,22.828,0,0,0-.361-3.444l.005,0c-.3-1.457-.816-2.922-1.172-4.2-1.139-4.08-2.3-4.06-2.349-5.5-.067-2.2,1.391-2.91,1.914-2.587s3.238,4.533,4.141,10.87c.125-.264.224-.48.3-.671.753-2.154-.478-5.222-1.15-7.475-1.325-4.449-2.592-4.565-2.641-6.184-.075-2.474,1.564-3.273,2.153-2.91.627.388,4.208,6.141,4.869,13.544,1.037-2.124.406-5.762-.722-9.062-1.171-3.425-2.919-6.272-2.687-7.488.464-2.431,2.1-2.512,2.1-2.512a2.7,2.7,0,0,1,1.1.224c.109,3.365,3.8,8,4.032,16.558.313,11.419-9.557,19.44-11.241,20.335a2.2,2.2,0,0,1-1.372.212A2.551,2.551,0,0,0,2778.559,1679.131Z" fill="#5281cc"/>
        <path id="Tracé_2366" data-name="Tracé 2366" d="M2763.647,1715.343a15.359,15.359,0,0,1-8.243,2.8,23.053,23.053,0,0,1-3.461-.129l0,.005c-1.473-.2-2.97-.62-4.266-.889-4.147-.864-4.205-2.028-5.644-1.975-2.2.08-2.81,1.582-2.453,2.083s4.74,2.926,11.123,3.4c-.254.143-.463.256-.649.342-2.1.9-5.242-.127-7.535-.646-4.528-1.025-4.729-2.28-6.348-2.221-2.473.09-3.16,1.779-2.758,2.342.428.6,6.408,3.788,13.839,3.952-2.05,1.177-5.722.791-9.091-.114-3.495-.939-6.453-2.492-7.65-2.179-2.4.625-2.366,2.261-2.366,2.261a2.7,2.7,0,0,0,.3,1.084c3.364-.115,8.232,3.254,16.79,2.915,11.414-.452,18.757-10.838,19.536-12.578a2.191,2.191,0,0,0,.12-1.383A2.548,2.548,0,0,1,2763.647,1715.343Z" fill="#5281cc"/>
        <path id="Tracé_2367" data-name="Tracé 2367" d="M2767.076,1682.1a15.349,15.349,0,0,0-4.363-7.533,23.027,23.027,0,0,0-2.69-2.181v-.005c-1.239-.82-2.643-1.488-3.8-2.138-3.69-2.08-4.5-1.241-5.549-2.228-1.6-1.508-1.073-3.041-.475-3.182s5.5.916,10.614,4.758c-.1-.275-.181-.5-.263-.685-.992-2.056-4.031-3.354-6.1-4.473-4.084-2.208-5.061-1.4-6.241-2.505-1.8-1.7-1.208-3.42-.535-3.58.718-.169,7.318,1.367,13.02,6.134-.769-2.236-3.788-4.362-6.919-5.9-3.25-1.594-6.5-2.371-7.194-3.4-1.391-2.047-.293-3.26-.293-3.26a2.7,2.7,0,0,1,.938-.62c2.456,2.3,8.339,2.969,14.559,8.856,8.3,7.853,6.988,20.505,6.43,22.328a2.19,2.19,0,0,1-.82,1.12A2.548,2.548,0,0,0,2767.076,1682.1Z" fill="#5281cc"/>
        <path id="Tracé_2368" data-name="Tracé 2368" d="M2767.064,1703.762a15.358,15.358,0,0,1-7.808-3.849,23.026,23.026,0,0,1-2.356-2.539l0,0c-.9-1.181-1.662-2.538-2.388-3.645-2.321-3.542-1.539-4.407-2.594-5.387-1.612-1.5-3.106-.868-3.207-.262s1.282,5.421,5.458,10.272c-.281-.079-.508-.147-.7-.217-2.117-.851-3.616-3.8-4.871-5.786-2.477-3.926-1.731-4.956-2.918-6.058-1.813-1.686-3.493-.977-3.607-.295-.121.728,1.854,7.21,6.992,12.58-2.282-.617-4.6-3.487-6.348-6.508-1.808-3.136-2.8-6.325-3.868-6.951-2.136-1.25-3.272-.074-3.272-.074a2.709,2.709,0,0,0-.557.977c2.461,2.3,3.521,8.122,9.812,13.934,8.391,7.751,20.927,5.6,22.708,4.92a2.187,2.187,0,0,0,1.063-.893A2.549,2.549,0,0,1,2767.064,1703.762Z" fill="#5281cc"/>
        <path id="Tracé_2369" data-name="Tracé 2369" d="M2725.163,1726.821c3.38-4.211,8.1,1.77,19.214,1.33s18.26-10.55,19.018-12.244a2.146,2.146,0,0,0,.112-1.373c-4.893-2.7-11.075-4.316-15.9-7.343-9.741-6.111-9.653-7.7-11.556-11.114s-1.865-4.078-3.4-6.765c-1.049-1.834-2.579-4.606-.912-4.646,5.368-.588,4.478,6.981,12.646,14.527s20.371,5.451,22.106,4.79c2.366-.9,2.09-5.935-.261-8.86-.74-.921-1.412-1.682-1.969-2.425-2.037-1.3-3.457-2.594-4.308-3.037-1.892-.986-6.545-6.075-10.67-6.8s-2.739-3.484,1.009-4.039,5.182.971,8.112,3.018c3.076,2.15,8.116,2.089,8.857-.332.544-1.775,1.817-14.091-6.259-21.736s-15.568-6.249-15.341-11.644c-.072-1.667,2.8-.326,4.7.6,2.785,1.354,3.441,1.272,6.978,2.942s5.113,1.476,11.863,10.786c3.642,5.024,5.718,11.767,9.229,16.6a2.006,2.006,0,0,0,.681-.215c1.639-.871,11.248-8.68,10.943-19.8s-6.59-15.427-2.614-19.082c1.128-1.229,2.208,1.748,2.9,3.745,1.011,2.926,1.533,3.332,2.854,7.014s2.572,4.659.761,16.015c-1.191,7.466-5.829,15.091-5.435,22.073,0,0,1.031,8.179,3.906,8.932,3.437.9-4.873,19.022-9.826,25.069a5.1,5.1,0,0,1-1.475,1.506,2.358,2.358,0,0,1-.716.4h0a4.848,4.848,0,0,1-3.177.273c-7.968-1.978-16.39,4.585-24.908,6.536-11.208,2.567-12.268,1.383-16.03.313s-4.2-1.565-7.189-2.378C2727.055,1728.907,2724.012,1728.029,2725.163,1726.821Z" fill="#3a4589"/>
      </g>
    </g>
    <path id="Tracé_174" data-name="Tracé 174" d="M1365.73,896.763c-3.2-1.381-17.73,11.49-32.5,22.567-24.067,18.05-33.221,60.266-67.253,83.077-48.791,32.7-84.989,67.483-77.248,96.133,16.674,61.714,39.892,65.454,46.631,102.731s-29.779,117.06,30.444,151.641c27.762,15.941,100.159,92.879,100.159,92.879Z" transform="translate(2.099 -21.309)" fill="#1b1f47"/>
  </g>
</svg>
