<svg xmlns="http://www.w3.org/2000/svg" width="425.865" height="1906.918" viewBox="0 0 425.865 1906.918">
  <g id="Groupe_700" data-name="Groupe 700" transform="translate(-2.099 -778.556)">
    <path id="Tracé_167" data-name="Tracé 167" d="M425.865,2696.526s-60.591-38.018-79.93-91.888c-14.553-40.536,20.044-102.56-22.4-94.363-81.776,15.79-151.378-152.988-72.489-222.643,35.76-31.575,8.259-40.607,5.682-124.659-3.225-105.207,125.3-243.233,36.79-337.7-96.6-103.11-189.9-168.6-173.8-205.907S2.837,1202.884,2.837,1202.884l.145,1503.9Z" transform="translate(2.099 -21.309)" fill="#5281cc"/>
    <path id="Tracé_168" data-name="Tracé 168" d="M263.1,2652.868s6.581-33.353-24.328-112.413-108.025-166.793-97.159-229.739S308.259,1963.263,228.5,1831.85,178,1477.736,168.507,1395s-56.25-113.366-70.491-165.62,44.739-105.239,5.3-146.326S0,799.865,0,799.865V2685.91Z" transform="translate(2.099 -21.309)" fill="#4858a8"/>
    <g id="Groupe_696" data-name="Groupe 696">
      <path id="Tracé_2348" data-name="Tracé 2348" d="M1680.91,2003.454a7.269,7.269,0,0,0,4.593-2.039c1.169-1.107,1.777-2.654,2.872-3.823a7.829,7.829,0,0,1,8.08-1.6,1.55,1.55,0,0,1,.29,2.846c-.683.4-1.481.467-2.189.791a3.594,3.594,0,0,0-1.636,1.739c-.559,1.136-1,2.847-.21,3.975.745,1.067,2.436.9,3.468.278a4.565,4.565,0,0,0,.542-.3,5.117,5.117,0,0,0,.539-.4c2.234-1.886,4.133-4.674,7.334-5.32a6.792,6.792,0,0,1,.762-.11c1.99-.07,4.861-.692,5.64,1.173.807,1.931-1.638,2.069-2.85,2.655a3.22,3.22,0,0,0-.342,5.749,5.427,5.427,0,0,0,4.2.18,41.129,41.129,0,0,1,5.115-1.5c2.519-.449,6.2-.485,8.128,1.54a1.521,1.521,0,0,1,.387,1.608,1.791,1.791,0,0,1-1.271.876c-1.007.247-2.072.118-3.09.316a3.381,3.381,0,0,0-2.695,2.213,2.538,2.538,0,0,0,2.16,3.051,9.834,9.834,0,0,0,2.879-.063,9.083,9.083,0,0,1,8.637,4.406,4.914,4.914,0,0,1,.25.629c.3,1.005-.839,1.5-1.617,1.14-1.484-.694-3.2-1.464-4.479.067a1.164,1.164,0,0,0-.238,1.338,1.567,1.567,0,0,0,.476.4,7.779,7.779,0,0,1,1.763,1.528,3.761,3.761,0,0,1,.963,2.9,2.727,2.727,0,0,1-3.776,2.078c-1.455-.629-2.058-2.317-2.665-3.781a2.035,2.035,0,0,0-.916-1.185,1.379,1.379,0,0,0-1.638.654c-1.1,1.854,1.085,3.946-.029,5.794-.324.536-1.609.23-2.329-.4a6.169,6.169,0,0,1-1.987-4.823c0-.247,0-.5.014-.773q.088-.734.137-1.463c.01-.162.019-.325.021-.491a10.7,10.7,0,0,0-.337-3.9,3.675,3.675,0,0,0-3.308-2.213,1.791,1.791,0,0,0-1.334.23,1.572,1.572,0,0,0-.375,1.666c.312,1.119,1.337,2.382.9,3.6-.211.59-1.532.543-2.361.068-1.357-.777-2.73-2.308-3.091-5.5-.013-.158-.026-.306-.037-.46.032-.226.057-.451.073-.672a5.645,5.645,0,0,0,.014-.663,5.417,5.417,0,0,0-1.518-3.13c-.117-.121-.239-.238-.365-.349-1.068-.94-4.747-2.651-5.551-.6a2.3,2.3,0,0,0-.12,1.013c.128,1.654,1.286,2.415,2.313,3.519,1.7,1.83-.735,3.324-2.556,2.925-3.031-.663-4.616-3.749-5.827-6.31a5.084,5.084,0,0,0-2.37-2.888,3.111,3.111,0,0,0-3.339.27,2.777,2.777,0,0,0-.992,2.025,3.849,3.849,0,0,0,.754,2.237c.5.734,2.575,2.253,1.91,3.237-1.046,1.547-3.238.674-4.5-.076a8.9,8.9,0,0,1-3.673-4.749c-.486-1.231-1.252-3.126-2.68-3.475-1.1-.269-2.2.5-3.34.48-1.437-.021-.3-4.61,1.285-6.662C1677.293,2002.976,1680.633,2003.447,1680.91,2003.454Z" transform="translate(-1508.74 -6.084)" fill="#5281cc"/>
      <path id="Tracé_2349" data-name="Tracé 2349" d="M1671.62,2007.2c1.138-3.292,6.985-3.835,7.857-3.464,2.413,1.027,3.124,3.954,5.4,5.362a5.117,5.117,0,0,0,7.312-2.017c.483-.889.529-2.245-.36-2.728a11.24,11.24,0,0,1-1.937-1.133,5.756,5.756,0,0,1-1.524-1.866,3.467,3.467,0,0,1,1.076-4.368,2.334,2.334,0,0,1,1.449-.533,2.716,2.716,0,0,1,1.179.4,11.053,11.053,0,0,1,3.54,3.413,11.342,11.342,0,0,0,3.594,3.7,16.306,16.306,0,0,0,5.5,1.737,3.231,3.231,0,0,0,1.866-.232c.6-.336.64-.887.661-1.506.077-2.261-4.883-2.882-3.871-6.017a3.051,3.051,0,0,1,1.593-1.927,3.326,3.326,0,0,1,.588-.223c.234.006.468.018.7.035s.466.041.7.073a13.613,13.613,0,0,1,7.169,3.25c2.079,1.642,3.993,3.514,6.352,4.765a4.921,4.921,0,0,0,1.288.494c.217.046.439.071.66.1,1.022.116,2.538.344,3.174-.7a1.963,1.963,0,0,0,.232-.579,2.487,2.487,0,0,0-1.28-2.307,37.878,37.878,0,0,1-3.515-2.077c-1-.691-2.239-1.769-2.162-3.106a1.81,1.81,0,0,1,1.133-1.595c.982-.346,2.076.3,2.946.708.937.433,1.852.912,2.788,1.349,1.769.824,3.757,1.6,5.741,1.208a7.937,7.937,0,0,0,1.814-.719,1.329,1.329,0,0,0,.344-.237,2.329,2.329,0,0,0,.321-.377c.67-.969,1.224-2.851.11-3.723a1.917,1.917,0,0,0-1.131-.364c-.81-.023-2,.582-2.72.035a.967.967,0,0,1-.384-.826,1.576,1.576,0,0,1,.436-.851,8.1,8.1,0,0,1,1.437-1.3c.539-.393,1.027-.838,1.549-1.244,1.046-.814,1.755-1.695.889-2.856a3.66,3.66,0,0,0-1.715-1.566,2.551,2.551,0,0,0-1.815.2,13.5,13.5,0,0,0-2.417,1.559c-1.089.8-2.031,1.776-3.418.914a1.4,1.4,0,0,1-.587-.606,1.159,1.159,0,0,1-.021-.739,7.691,7.691,0,0,1,1.267-2.116c.39-.583,1.058-1.706.719-2.447a1.807,1.807,0,0,0-1.779-.966c-5.442.269-3.862,7.113-8.009,9.237a4.341,4.341,0,0,1-4.476-1.51c-.843-1.84,2.353-2.637,1.962-4.461-.828-2.292-4.009-1.947-4.959-.621-1.652,1.982-2.995,4.879-4.587,6.749a5.317,5.317,0,0,1-2.668,1.841,3.584,3.584,0,0,1-2.56-.266,2.311,2.311,0,0,1-1.283-1.8,2.789,2.789,0,0,1,1.025-2.08,14.782,14.782,0,0,0,2.442-2.305,1.342,1.342,0,0,0,.236-1.084,1.325,1.325,0,0,0-.368-.566,4.448,4.448,0,0,0-4.433-.79,8.128,8.128,0,0,0-3.1,2.6c-2.04,2.531-3.545,5.788-6.717,7.114a2.62,2.62,0,0,1-2.057.249,1.563,1.563,0,0,1-.705-.944,4.053,4.053,0,0,1,.235-2.8c.9-2.109,3.229-3.69,2.815-6.2-.267-1.621-2.293-.888-3.206-.328a10.69,10.69,0,0,0-3.6,4.385c-.859,1.557-1.623,3.164-2.474,4.726a22.385,22.385,0,0,1-2.873,4.258,14.521,14.521,0,0,1-4.245,3.155c-3.227,1.7-4.383,5.538-1.893,7.9C1669.348,2005.9,1670.808,2009.552,1671.62,2007.2Z" transform="translate(-1508.74 -6.084)" fill="#3a4589"/>
      <path id="Tracé_2350" data-name="Tracé 2350" d="M1675.913,1995.882c4.584-4.714,10.781,2.579,15.176,3.424,2.639.859,7.187-1.281,7.508-5.5.166-1.23-.372-2.806-1.6-2.972a13.8,13.8,0,0,1-2.714-.456,7.068,7.068,0,0,1-2.56-1.476,4.251,4.251,0,0,1-.668-5.478,2.851,2.851,0,0,1,1.429-1.242,3.328,3.328,0,0,1,1.529-.051,13.548,13.548,0,0,1,5.545,2.373c1.768,1.173,3.578,2.4,5.733,2.678a19.993,19.993,0,0,0,7.067-.4,3.958,3.958,0,0,0,2.039-1.078c.542-.647.348-1.295.1-2.015-.9-2.626-6.854-1.179-7.059-5.215a3.74,3.74,0,0,1,.988-2.9,4.021,4.021,0,0,1,.577-.512c.271-.095.544-.184.818-.265s.551-.156.837-.222a16.7,16.7,0,0,1,9.637.606c3.1.978,6.11,2.292,9.359,2.7a6.07,6.07,0,0,0,1.692.006c.27-.042.535-.11.8-.178,1.222-.312,3.06-.71,3.336-2.179a2.369,2.369,0,0,0,.015-.766,3.054,3.054,0,0,0-2.473-2.089,46.509,46.509,0,0,1-4.936-.85c-1.443-.36-3.338-1.055-3.831-2.621a2.219,2.219,0,0,1,.6-2.323c.975-.825,2.514-.554,3.687-.471,1.263.089,2.522.24,3.785.333,2.388.175,5.005.2,7.11-1.114a9.785,9.785,0,0,0,1.768-1.614,1.626,1.626,0,0,0,.29-.423,2.773,2.773,0,0,0,.205-.571c.346-1.4.163-3.8-1.495-4.318a2.346,2.346,0,0,0-1.456.076c-.938.326-2.044,1.539-3.1,1.224a1.189,1.189,0,0,1-.8-.78,1.939,1.939,0,0,1,.129-1.166,9.972,9.972,0,0,1,1.083-2.116c.447-.685.812-1.408,1.235-2.1.845-1.389,1.274-2.708-.225-3.663a4.49,4.49,0,0,0-2.647-1.049,3.125,3.125,0,0,0-1.994,1.023,16.48,16.48,0,0,0-2.093,2.841c-.9,1.4-1.556,2.921-3.522,2.537a1.718,1.718,0,0,1-.937-.441,1.4,1.4,0,0,1-.345-.837,9.4,9.4,0,0,1,.531-2.979c.193-.838.471-2.418-.242-3.12a2.217,2.217,0,0,0-2.46-.333c-6.124,2.678-1.332,9.84-5.163,14.081-1.4,1.063-4.2,1.435-5.792.217-1.768-1.742,1.551-4.048.308-5.97-1.947-2.268-5.445-.487-5.958,1.447-1.031,2.992-1.31,6.9-2.321,9.738a6.517,6.517,0,0,1-2.258,3.272,4.4,4.4,0,0,1-3.052.81,2.836,2.836,0,0,1-2.256-1.509,3.422,3.422,0,0,1,.269-2.832,18.065,18.065,0,0,0,1.8-3.707,1.427,1.427,0,0,0-.87-1.835,5.454,5.454,0,0,0-5.427,1.025,9.974,9.974,0,0,0-2.42,4.337c-1.237,3.79-1.545,8.181-4.6,11.082a3.21,3.21,0,0,1-2.251,1.181,1.913,1.913,0,0,1-1.22-.775,4.973,4.973,0,0,1-.951-3.318c.111-2.809,3.949-5.366,2.382-8.062-1.013-1.743-3.018-.02-3.821,1.02-1.52,1.969-3.727,3.938-4.066,6.322-.307,2.16-.483,4.336-.779,6.5a27.428,27.428,0,0,1-1.442,6.135,17.825,17.825,0,0,1-3.494,5.466c-1.729,1.962-3.583,9.989-1.536,8.065.683-.642,2.735,4.133,3.013,3.156A25.4,25.4,0,0,1,1675.913,1995.882Z" transform="translate(-1508.74 -6.084)" fill="#5281cc"/>
      <g id="Groupe_611" data-name="Groupe 611" transform="translate(-1508.74 -6.084)">
        <path id="Tracé_2351" data-name="Tracé 2351" d="M1661.458,2015.362a7.694,7.694,0,0,1-2.617,4.626c-1.284,1.117-2.974,1.6-4.317,2.632a8.279,8.279,0,0,0-2.51,8.341,1.639,1.639,0,0,0,2.966.6c.486-.679.643-1.511,1.056-2.223a3.806,3.806,0,0,1,2-1.544c1.254-.472,3.1-.759,4.206.185,1.047.894.693,2.656-.063,3.679a4.955,4.955,0,0,1-.37.54,5.464,5.464,0,0,1-.476.526c-2.213,2.159-5.342,3.872-6.349,7.175a7.162,7.162,0,0,0-.194.792c-.277,2.087-1.226,5.045.658,6.056,1.95,1.047,2.345-1.513,3.086-2.729a3.4,3.4,0,0,1,6.086.229,5.742,5.742,0,0,1-.24,4.44,43.22,43.22,0,0,0-2.1,5.23c-.731,2.6-1.144,6.479.789,8.713a1.609,1.609,0,0,0,1.653.571,1.9,1.9,0,0,0,1.053-1.248c.362-1.034.335-2.169.648-3.219a3.575,3.575,0,0,1,2.6-2.611,2.684,2.684,0,0,1,2.99,2.585,10.4,10.4,0,0,1-.36,3.024,9.6,9.6,0,0,0,3.754,9.541,5.15,5.15,0,0,0,.636.328c1.028.416,1.668-.73,1.365-1.586-.578-1.633-1.213-3.513.529-4.707a1.231,1.231,0,0,1,1.433-.113,1.672,1.672,0,0,1,.369.541,8.25,8.25,0,0,0,1.428,2.012,3.977,3.977,0,0,0,2.956,1.31,2.883,2.883,0,0,0,2.573-3.761c-.513-1.6-2.228-2.4-3.707-3.192a2.157,2.157,0,0,1-1.154-1.085,1.461,1.461,0,0,1,.856-1.658c2.065-.966,4.043,1.546,6.1.562.6-.286.406-1.67-.183-2.491a6.514,6.514,0,0,0-4.872-2.585c-.26-.03-.531-.051-.815-.064-.521.011-1.038.011-1.554-.006-.172-.006-.344-.014-.519-.028a11.307,11.307,0,0,1-4.07-.754,3.884,3.884,0,0,1-1.99-3.708,1.9,1.9,0,0,1,.378-1.381,1.663,1.663,0,0,1,1.792-.224c1.146.444,2.37,1.651,3.7,1.315.642-.162.728-1.557.313-2.478-.68-1.508-2.15-3.109-5.476-3.816-.165-.03-.32-.059-.481-.086-.241.011-.48.014-.715.008a6.015,6.015,0,0,1-.7-.053,5.722,5.722,0,0,1-3.139-1.918c-.116-.135-.226-.276-.33-.42-.88-1.22-2.305-5.268-.065-5.9a2.419,2.419,0,0,1,1.078-.022c1.729.3,2.41,1.6,3.468,2.793,1.752,1.978,3.574-.433,3.34-2.391-.388-3.257-3.474-5.241-6.046-6.778-1.241-.742-2.282-1.355-2.8-2.79a3.289,3.289,0,0,1,.626-3.486,2.934,2.934,0,0,1,2.233-.837,4.063,4.063,0,0,1,2.276,1.022c.722.6,2.109,2.941,3.213,2.341,1.735-.942,1.04-3.339.38-4.743a9.424,9.424,0,0,0-4.623-4.352c-1.246-.637-3.163-1.637-3.384-3.176-.17-1.188,1.744-4.853,1.843-6.049.05-.611,9.651-13.3,5.6-12.02-.987.312-4.532,4.379-5,4.859-2.035,2.106-4.881-3.27-5.124-3.1C1665,1998.079,1661.479,2015.069,1661.458,2015.362Z" fill="#3a4589"/>
      </g>
    </g>
    <g id="Groupe_612" data-name="Groupe 612" transform="translate(-1508.74 -6.084)">
      <path id="Tracé_2352" data-name="Tracé 2352" d="M1831.5,1849.708a7.607,7.607,0,0,0,4.828-1.282,16.388,16.388,0,0,0,1.806-1.324l0,0c.745-.65,1.465-1.443,2.1-2.073,2.045-2.014,1.879-2.736,2.648-3.223,1.175-.744,1.752-.059,1.647.372a19.657,19.657,0,0,1-5.3,6.058c.159-.006.289-.013.4-.028,1.261-.217,2.748-1.965,3.872-3.1,2.219-2.249,2.113-3.078,2.978-3.625,1.322-.837,1.97-.066,1.853.417a23.176,23.176,0,0,1-6.644,7.367c1.283-.029,3.157-1.585,4.784-3.343,1.688-1.825,2.988-3.827,3.673-4.069,1.371-.486,1.632.51,1.632.51a2.132,2.132,0,0,1,.026.761c-1.8,1.142-3.8,4.926-8.377,7.8a10.736,10.736,0,0,1-12.447-.542,1.305,1.305,0,0,1-.3-.79A1.042,1.042,0,0,0,1831.5,1849.708Z" fill="#7cb1f2"/>
      <path id="Tracé_2353" data-name="Tracé 2353" d="M1838.917,1854.826c1.213.788,4.19,1.14,7.268.373a27.08,27.08,0,0,0,3.271-1.061v0c1.416-.586,2.892-1.386,4.154-1.991,4.038-1.933,4.288-3.036,5.631-3.378,2.051-.523,2.372.713,1.952,1.278s-4.941,4.021-11.014,6.2a5.646,5.646,0,0,0,.552.143c1.82.265,4.943-1.545,7.183-2.653,4.423-2.188,4.822-3.414,6.332-3.8,2.307-.589,2.668.8,2.2,1.437-.5.676-6.653,5.279-13.656,7.452,1.727.542,5.239-.817,8.553-2.578,3.44-1.827,6.477-4.081,7.549-4.115,2.143-.067,1.841,1.468,1.841,1.468a3.678,3.678,0,0,1-.462,1.093c-3.139.807-8.275,5.277-16.252,7.287-10.64,2.682-15.788-5.018-16.227-6.431a1.976,1.976,0,0,1,.12-1.259A1.305,1.305,0,0,0,1838.917,1854.826Z" fill="#7cb1f2"/>
      <path id="Tracé_2354" data-name="Tracé 2354" d="M1837.181,1842.665a13.162,13.162,0,0,1,7.048-2.9,20.51,20.51,0,0,1,3.073-.071v0c1.32.1,2.681.386,3.851.555,3.743.538,3.895,1.559,5.164,1.436,1.938-.187,2.348-1.541,1.988-1.962s-4.446-2.322-10.134-2.4c.213-.139.388-.25.545-.336,1.779-.9,4.648-.167,6.722.168,4.094.66,4.38,1.754,5.807,1.616,2.18-.211,2.641-1.734,2.237-2.208-.431-.505-6-2.99-12.585-2.739,1.712-1.144,4.994-1,8.051-.384,3.174.64,5.925,1.849,6.957,1.51,2.064-.678,1.9-2.115,1.9-2.115a2.437,2.437,0,0,0-.358-.938c-2.965.281-7.564-2.424-15.1-1.67-10.058,1.005-15.652,10.532-16.191,12.1a1.913,1.913,0,0,0,.014,1.223A2.144,2.144,0,0,1,1837.181,1842.665Z" fill="#7cb1f2"/>
      <path id="Tracé_2355" data-name="Tracé 2355" d="M1834.721,1839.788a13.238,13.238,0,0,1,3.673-6.818,21.117,21.117,0,0,1,2.389-2.045l0,0c1.11-.781,2.38-1.436,3.419-2.063,3.322-2.006,4.116-1.311,5.041-2.228,1.412-1.4.844-2.719.281-2.813s-5.057,1.076-9.618,4.7c.077-.246.143-.445.211-.613.816-1.851,3.574-3.14,5.438-4.223,3.681-2.139,4.63-1.475,5.67-2.507,1.589-1.576.95-3.057.317-3.163-.675-.113-6.728,1.562-11.783,6.023.6-2,3.3-4.011,6.128-5.512,2.938-1.559,5.916-2.4,6.511-3.333,1.188-1.863.108-2.871.108-2.871a2.536,2.536,0,0,0-.9-.5c-2.166,2.139-7.6,3.016-13.076,8.485-7.309,7.294-5.457,18.317-4.847,19.887a1.947,1.947,0,0,0,.818.941A2.144,2.144,0,0,1,1834.721,1839.788Z" fill="#7cb1f2"/>
      <path id="Tracé_2356" data-name="Tracé 2356" d="M1835.075,1835.445a8.946,8.946,0,0,1-.335-5.06,13.42,13.42,0,0,1,.594-1.929l0,0c.333-.8.8-1.578,1.143-2.267,1.11-2.2,1.774-2.061,1.961-2.879.286-1.25-.467-1.82-.8-1.694a12.949,12.949,0,0,0-3.59,5.748c-.042-.165-.074-.3-.095-.417-.188-1.317.861-2.931,1.5-4.144,1.258-2.394,1.995-2.318,2.2-3.238.322-1.406-.526-2.047-.9-1.905-.4.15-3.1,3.036-4.307,7.194-.354-1.331.416-3.34,1.432-5.1,1.055-1.827,2.374-3.257,2.379-3.978.008-1.442-.917-1.672-.917-1.672a1.561,1.561,0,0,0-.655,0c-.441,1.911-3.071,4.144-4.168,9.011-1.464,6.492,3.276,12.189,4.137,12.889a1.276,1.276,0,0,0,.761.276A1.484,1.484,0,0,1,1835.075,1835.445Z" fill="#7cb1f2"/>
      <path id="Tracé_2357" data-name="Tracé 2357" d="M1839.524,1857.824a8.946,8.946,0,0,0,4.4,2.528,13.353,13.353,0,0,0,1.993.315v0c.864.053,1.767-.02,2.538-.028,2.468-.027,2.632-.686,3.449-.494,1.248.294,1.428,1.221,1.168,1.467a12.963,12.963,0,0,1-6.742.694c.13.11.237.2.333.269,1.1.748,3.011.517,4.38.478,2.7-.076,2.96-.771,3.879-.555,1.4.33,1.606,1.373,1.313,1.649-.313.295-4.09,1.444-8.356.7,1.04.9,3.182,1.1,5.209.958,2.1-.143,3.97-.7,4.619-.384,1.3.627,1.1,1.558,1.1,1.558a1.566,1.566,0,0,1-.292.587c-1.91-.445-5.072.933-9.926-.223-6.474-1.543-9.5-8.306-9.753-9.389a1.281,1.281,0,0,1,.087-.8A1.493,1.493,0,0,0,1839.524,1857.824Z" fill="#7cb1f2"/>
      <path id="Tracé_2358" data-name="Tracé 2358" d="M1841.3,1838.436a8.946,8.946,0,0,1,3.342-3.815,13.345,13.345,0,0,1,1.783-.944v0c.8-.329,1.679-.553,2.411-.795,2.344-.773,2.712-.2,3.423-.649,1.086-.682.956-1.618.63-1.766a12.956,12.956,0,0,0-6.6,1.526c.087-.146.159-.264.228-.362.8-1.064,2.681-1.464,3.989-1.871,2.583-.8,3.05-.228,3.85-.73,1.221-.766,1.075-1.819.708-1.985-.391-.178-4.337-.043-8.133,2.041.691-1.192,2.656-2.067,4.619-2.593,2.037-.546,3.982-.624,4.494-1.131,1.026-1.014.535-1.83.535-1.83a1.569,1.569,0,0,0-.466-.461c-1.664,1.04-5.1.759-9.32,3.425-5.626,3.555-6.3,10.935-6.188,12.04a1.27,1.27,0,0,0,.343.732A1.487,1.487,0,0,1,1841.3,1838.436Z" fill="#7cb1f2"/>
      <path id="Tracé_2359" data-name="Tracé 2359" d="M1838.874,1850.819a8.948,8.948,0,0,0,4.9-1.322,13.432,13.432,0,0,0,1.632-1.186l0,0c.649-.574,1.236-1.264,1.776-1.815,1.726-1.764,1.376-2.346,2.089-2.788,1.09-.675,1.873-.147,1.863.211a12.962,12.962,0,0,1-4.276,5.258c.169-.014.307-.027.425-.045,1.306-.248,2.494-1.764,3.435-2.759,1.858-1.966,1.548-2.639,2.35-3.136,1.226-.759,2.107-.164,2.095.238-.012.43-1.871,3.913-5.412,6.4,1.374-.1,3.025-1.475,4.361-3.006,1.386-1.59,2.312-3.3,2.993-3.538,1.362-.475,1.879.325,1.879.325a1.565,1.565,0,0,1,.208.622c-1.665,1.036-2.926,4.246-7.176,6.86-5.669,3.487-12.593.847-13.535.258a1.277,1.277,0,0,1-.507-.63A1.486,1.486,0,0,0,1838.874,1850.819Z" fill="#7cb1f2"/>
      <path id="Tracé_2360" data-name="Tracé 2360" d="M1860.232,1868.715c-1.459-2.787-4.831.1-11.134-1.4s-9.25-8.086-9.494-9.14a1.254,1.254,0,0,1,.091-.8c3.1-.995,6.817-1.221,9.916-2.409,6.256-2.4,6.385-3.313,7.857-5.052s1.525-2.121,2.706-3.485c.806-.93,1.993-2.342,1.044-2.553-3-.94-3.345,3.487-8.864,6.881s-12.258.824-13.175.251c-1.251-.782-.527-3.628,1.146-5.035.527-.443,1-.8,1.4-1.165,1.311-.515,2.268-1.094,2.8-1.251,1.193-.351,4.425-2.736,6.864-2.684s1.958-1.683-.122-2.422-3.071-.029-4.977.812c-2,.883-4.874.281-5.025-1.187-.111-1.075.547-8.259,6.024-11.72s9.6-1.821,10.08-4.93c.228-.945-1.563-.5-2.752-.187-1.745.461-2.111.34-4.32.9s-3.089.268-7.995,4.83c-2.648,2.463-4.593,6.084-7.144,8.451a1.161,1.161,0,0,1-.365-.2c-.839-.682-5.453-6.227-4.028-12.547s5.5-8.078,3.642-10.614c-.507-.83-1.459.75-2.078,1.814-.908,1.559-1.252,1.733-2.421,3.688s-1.995,2.375-2.237,9.07c-.16,4.4,1.634,9.282.623,13.23,0,0-1.51,4.559-3.238,4.666-2.067.128.645,11.422,2.8,15.436a2.977,2.977,0,0,0,.674,1.027,1.37,1.37,0,0,0,.364.308h0a2.828,2.828,0,0,0,1.785.514c4.778-.235,8.854,4.465,13.5,6.538,6.119,2.729,6.858,2.172,9.129,1.983s2.578-.422,4.377-.55C1858.916,1869.695,1860.754,1869.535,1860.232,1868.715Z" fill="#5281cc"/>
    </g>
    <g id="Groupe_616" data-name="Groupe 616" transform="translate(-1508.74 -6.084)">
      <g id="Groupe_614" data-name="Groupe 614">
        <path id="Tracé_2370" data-name="Tracé 2370" d="M1625.36,1081.36c-1.818-5.415,5.072-5.86,7.474-8.917a5.453,5.453,0,0,0-1.258-7.985c-.884-.618-2.315-.83-2.933.054a11.926,11.926,0,0,1-1.432,1.915,6.132,6.132,0,0,1-2.158,1.39,3.694,3.694,0,0,1-4.5-1.663,2.483,2.483,0,0,1-.391-1.6,2.9,2.9,0,0,1,.569-1.2,11.781,11.781,0,0,1,4.039-3.339,12.084,12.084,0,0,0,4.349-3.362,17.352,17.352,0,0,0,2.5-5.619,3.442,3.442,0,0,0-.021-2c-.284-.676-.862-.784-1.516-.881-2.385-.352-3.637,4.825-6.836,3.378a3.248,3.248,0,0,1-1.849-1.918,3.491,3.491,0,0,1-.166-.65c.034-.247.075-.493.121-.737s.1-.488.161-.735a14.508,14.508,0,0,1,4.3-7.2c1.988-2,4.2-3.807,5.808-6.155a5.269,5.269,0,0,0,.677-1.3c.075-.226.128-.457.181-.688.245-1.068.669-2.647-.356-3.445a2.056,2.056,0,0,0-.586-.315,2.651,2.651,0,0,0-2.6,1.079,40.233,40.233,0,0,1-2.621,3.473c-.851.972-2.142,2.159-3.548,1.917a1.931,1.931,0,0,1-1.554-1.391c-.249-1.081.573-2.162,1.1-3.035.571-.94,1.189-1.852,1.763-2.791,1.085-1.774,2.144-3.787,1.968-5.934a8.49,8.49,0,0,0-.543-2.008,1.423,1.423,0,0,0-.211-.392,2.469,2.469,0,0,0-.36-.385c-.946-.826-2.872-1.639-3.929-.564a2.04,2.04,0,0,0-.521,1.155c-.122.854.376,2.192-.289,2.885a1.036,1.036,0,0,1-.921.307,1.678,1.678,0,0,1-.849-.564,8.648,8.648,0,0,1-1.2-1.677c-.352-.618-.765-1.188-1.132-1.79-.736-1.205-1.585-2.062-2.918-1.284a3.9,3.9,0,0,0-1.863,1.628,2.709,2.709,0,0,0,0,1.946,14.245,14.245,0,0,0,1.361,2.747c.722,1.25,1.637,2.364.558,3.729a1.484,1.484,0,0,1-.713.549,1.224,1.224,0,0,1-.784-.066,8.184,8.184,0,0,1-2.089-1.6c-.571-.483-1.68-1.325-2.506-1.054a1.926,1.926,0,0,0-1.236,1.767c-.368,5.8,7.07,4.944,8.821,9.589a4.628,4.628,0,0,1-2.136,4.56c-2.049.672-2.51-2.808-4.489-2.613-2.526.6-2.542,4.012-1.252,5.177,1.9,1.987,4.808,3.757,6.6,5.666a5.669,5.669,0,0,1,1.629,3.046,3.819,3.819,0,0,1-.589,2.679,2.462,2.462,0,0,1-2.063,1.143,2.972,2.972,0,0,1-2.079-1.335,15.734,15.734,0,0,0-2.148-2.862,1.43,1.43,0,0,0-1.12-.38,1.4,1.4,0,0,0-.643.322,4.738,4.738,0,0,0-1.368,4.6,8.664,8.664,0,0,0,2.387,3.594c2.435,2.463,5.7,4.448,6.727,7.965a2.8,2.8,0,0,1,.017,2.209,1.667,1.667,0,0,1-1.084.633,4.319,4.319,0,0,1-2.941-.585c-2.126-1.2-3.52-3.862-6.226-3.725-1.749.089-1.216,2.323-.732,3.357.916,1.957,2.506,3.123,4.212,4.333,1.546,1.1,3.157,2.1,4.708,3.187a23.884,23.884,0,0,1,4.165,3.553,15.486,15.486,0,0,1,2.832,4.874c1.415,3.621,6.944,2.488,9.745.135C1629.8,1084.751,1626.182,1082.827,1625.36,1081.36Z" fill="#5281cc"/>
      </g>
      <g id="Groupe_615" data-name="Groupe 615">
        <path id="Tracé_2371" data-name="Tracé 2371" d="M1624.662,1099.556a2.946,2.946,0,0,1,.421.541,6.138,6.138,0,0,1,.407,4.226c-.328,1.32-1.213,2.41-1.619,3.7a6.614,6.614,0,0,0,2.18,6.608,1.309,1.309,0,0,0,2.213-.969c.007-.667-.271-1.284-.327-1.939a3.043,3.043,0,0,1,.6-1.925c.6-.884,1.68-1.917,2.837-1.806,1.094.1,1.67,1.421,1.644,2.436a3.756,3.756,0,0,1,.005.523,4.253,4.253,0,0,1-.07.562c-.459,2.427-1.722,4.981-.867,7.6a5.757,5.757,0,0,0,.236.606c.774,1.493,1.509,3.863,3.2,3.662,1.757-.209.842-2.065.77-3.2a2.72,2.72,0,0,1,4.087-2.639,4.585,4.585,0,0,1,1.877,3.016,34.812,34.812,0,0,0,1.023,4.384c.716,2.039,2.22,4.764,4.509,5.34a1.285,1.285,0,0,0,1.343-.384,1.515,1.515,0,0,0,.117-1.3c-.237-.843-.774-1.573-1.051-2.4a2.858,2.858,0,0,1,.508-2.9,2.145,2.145,0,0,1,3.142.322,8.3,8.3,0,0,1,1.15,2.144,7.67,7.67,0,0,0,6.828,4.523,4.205,4.205,0,0,0,.566-.077c.863-.2.757-1.242.167-1.663-1.127-.8-2.4-1.743-1.811-3.323.145-.385.476-.765.886-.73a1.3,1.3,0,0,1,.489.185,6.586,6.586,0,0,0,1.857.662,3.174,3.174,0,0,0,2.534-.5,2.3,2.3,0,0,0-.039-3.64c-1.067-.809-2.56-.552-3.889-.39a1.72,1.72,0,0,1-1.251-.182,1.164,1.164,0,0,1-.2-1.477c.908-1.578,3.353-.84,4.25-2.428.26-.46-.5-1.279-1.261-1.546a5.206,5.206,0,0,0-4.373.541c-.183.1-.37.21-.562.331-.336.246-.675.483-1.02.708-.115.075-.231.149-.352.22a9.036,9.036,0,0,1-3.009,1.371,3.1,3.1,0,0,1-3-1.514,1.516,1.516,0,0,1-.385-1.077,1.326,1.326,0,0,1,1.07-.968c.953-.235,2.307-.006,3.025-.836.346-.4-.237-1.352-.931-1.765-1.135-.675-2.831-1.049-5.331.012-.122.056-.237.108-.355.164q-.229.177-.464.333a4.766,4.766,0,0,1-.482.286,4.575,4.575,0,0,1-2.933.183c-.137-.036-.274-.077-.408-.124-1.135-.4-3.922-2.391-2.747-3.833a1.93,1.93,0,0,1,.695-.509c1.27-.593,2.31-.058,3.549.239,2.053.492,2.14-1.921,1.091-3.095-1.747-1.954-4.675-1.838-7.063-1.666a4.286,4.286,0,0,1-3.108-.544,2.627,2.627,0,0,1-1.188-2.567,2.342,2.342,0,0,1,1.078-1.571,3.252,3.252,0,0,1,1.958-.375c.748.064,2.727.959,3.175.061.7-1.412-.85-2.662-1.925-3.278a7.522,7.522,0,0,0-5.019-.73c-1.107.154-2.819.378-3.669-.528-.656-.7-.551-1.828-1.034-2.656-.612-1.048-2.207-1.59-2.816-.344a5,5,0,0,1-1.439,1.822,11.182,11.182,0,0,0-1.236.89,3.434,3.434,0,0,0-.81,1.477,2.581,2.581,0,0,0-.138,1.046C1622.116,1098.132,1623.883,1098.755,1624.662,1099.556Z" fill="#5281cc"/>
        <path id="Tracé_2372" data-name="Tracé 2372" d="M1635.317,1095.984a6.381,6.381,0,0,0,3.75-2.329c.884-1.1,1.227-2.524,2.038-3.674a6.881,6.881,0,0,1,6.839-2.368,1.362,1.362,0,0,1,.595,2.442c-.546.426-1.232.585-1.809.953a3.162,3.162,0,0,0-1.213,1.711c-.349,1.056-.525,2.6.3,3.484.777.839,2.228.485,3.051-.177a3.984,3.984,0,0,0,.436-.326,4.655,4.655,0,0,0,.421-.412c1.716-1.912,3.032-4.567,5.739-5.516a5.923,5.923,0,0,1,.651-.187c1.723-.3,4.146-1.19,5.049.339.936,1.583-1.175,2-2.16,2.655a2.828,2.828,0,0,0,.4,5.044,4.772,4.772,0,0,0,3.677-.351,36.06,36.06,0,0,1,4.27-1.92c2.138-.7,5.34-1.171,7.26.358a1.335,1.335,0,0,1,.53,1.352,1.571,1.571,0,0,1-1,.916c-.847.336-1.79.353-2.651.648a2.97,2.97,0,0,0-2.078,2.252,2.23,2.23,0,0,0,2.248,2.394,8.638,8.638,0,0,0,2.5-.4,7.978,7.978,0,0,1,8.048,2.791,4.331,4.331,0,0,1,.294.516c.38.839-.549,1.41-1.27,1.188-1.375-.424-2.958-.888-3.89.6a1.024,1.024,0,0,0-.045,1.194,1.381,1.381,0,0,0,.462.287,6.867,6.867,0,0,1,1.719,1.117,3.3,3.3,0,0,1,1.188,2.41,2.4,2.4,0,0,1-3.034,2.264c-1.342-.372-2.072-1.768-2.776-2.969a1.787,1.787,0,0,0-.94-.92,1.211,1.211,0,0,0-1.347.767c-.732,1.746,1.42,3.3.674,5.045-.217.506-1.372.395-2.074-.066a5.415,5.415,0,0,1-2.312-3.957q-.049-.321-.081-.674c-.008-.433-.027-.862-.058-1.29-.011-.142-.023-.285-.041-.43a9.409,9.409,0,0,0-.764-3.352,3.226,3.226,0,0,0-3.146-1.526,1.578,1.578,0,0,0-1.134.361,1.382,1.382,0,0,0-.125,1.495c.408.936,1.452,1.911,1.218,3.028-.112.539-1.267.658-2.046.344-1.275-.512-2.654-1.678-3.354-4.415-.031-.136-.06-.264-.088-.4q0-.3-.018-.594a5.084,5.084,0,0,0-.068-.579,4.756,4.756,0,0,0-1.7-2.54c-.116-.091-.237-.178-.36-.26-1.043-.689-4.451-1.733-4.9.148a2.023,2.023,0,0,0,.018.9c.311,1.424,1.41,1.946,2.437,2.783,1.7,1.387-.237,2.982-1.87,2.855-2.718-.212-4.47-2.706-5.834-4.788a4.464,4.464,0,0,0-2.411-2.227,2.731,2.731,0,0,0-2.872.638,2.439,2.439,0,0,0-.619,1.882,3.381,3.381,0,0,0,.926,1.856c.524.578,2.513,1.649,2.053,2.586-.723,1.472-2.737.978-3.924.477a7.815,7.815,0,0,1-3.77-3.689c-.572-1.012-1.467-2.569-2.752-2.7-.992-.1-1.859.7-2.849.821-1.252.155-2.706-.822-2.061-2.111a5.764,5.764,0,0,0,.535-1.546,9.406,9.406,0,0,1,.913-1.953C1631.263,1096.394,1635.075,1096.012,1635.317,1095.984Z" fill="#4858a8"/>
        <path id="Tracé_2373" data-name="Tracé 2373" d="M1631.136,1097.352c3.858-2.693,5.13,1.493,8.167,2.515a4.5,4.5,0,0,0,5.857-3.18c.236-.857.005-2.027-.852-2.264a9.8,9.8,0,0,1-1.882-.584,5.07,5.07,0,0,1-1.676-1.293,3.047,3.047,0,0,1,.052-3.952,2.042,2.042,0,0,1,1.134-.744,2.374,2.374,0,0,1,1.09.111,9.7,9.7,0,0,1,3.708,2.216,9.959,9.959,0,0,0,3.812,2.451,14.316,14.316,0,0,0,5.054.392,2.836,2.836,0,0,0,1.55-.57c.447-.407.371-.886.266-1.42-.384-1.95-4.752-1.495-4.51-4.379a2.682,2.682,0,0,1,.981-1.966,2.893,2.893,0,0,1,.459-.308c.2-.041.4-.078.605-.109s.407-.058.615-.078a11.97,11.97,0,0,1,6.782,1.356,38.414,38.414,0,0,0,6.383,2.814,4.356,4.356,0,0,0,1.2.166c.195,0,.39-.026.584-.049.9-.1,2.24-.21,2.577-1.226a1.715,1.715,0,0,0,.084-.543,2.185,2.185,0,0,0-1.554-1.719,33.176,33.176,0,0,1-3.422-1.078c-.989-.393-2.268-1.069-2.467-2.228a1.588,1.588,0,0,1,.651-1.59c.772-.492,1.838-.152,2.662.019.889.185,1.767.413,2.655.6a8.372,8.372,0,0,0,5.153-.108,7.037,7.037,0,0,0,1.41-.976,1.147,1.147,0,0,0,.246-.272,2.019,2.019,0,0,0,.2-.386c.381-.962.481-2.684-.646-3.208a1.684,1.684,0,0,0-1.041-.086c-.7.141-1.6.9-2.321.571a.849.849,0,0,1-.492-.63,1.389,1.389,0,0,1,.2-.816,7.168,7.168,0,0,1,.971-1.4c.384-.444.713-.922,1.079-1.373.733-.9,1.164-1.8.192-2.621a3.216,3.216,0,0,0-1.778-1,2.236,2.236,0,0,0-1.513.535,11.844,11.844,0,0,0-1.759,1.815c-.771.906-1.384,1.924-2.743,1.462a1.223,1.223,0,0,1-.623-.4,1.015,1.015,0,0,1-.164-.628,6.716,6.716,0,0,1,.663-2.062c.218-.577.566-1.671.128-2.238a1.587,1.587,0,0,0-1.714-.472c-4.6,1.312-1.89,6.855-5.016,9.5a3.813,3.813,0,0,1-4.131-.4c-1.088-1.407,1.489-2.725.791-4.208-1.164-1.8-3.818-.869-4.367.455-1.019,2.024-1.592,4.771-2.582,6.688a4.678,4.678,0,0,1-1.917,2.106,3.154,3.154,0,0,1-2.244.281,2.031,2.031,0,0,1-1.457-1.287,2.45,2.45,0,0,1,.464-1.984,12.934,12.934,0,0,0,1.631-2.458,1.179,1.179,0,0,0-.014-.975,1.166,1.166,0,0,0-.428-.411,3.908,3.908,0,0,0-3.95.206,7.136,7.136,0,0,0-2.133,2.846c-1.242,2.571-1.882,5.658-4.333,7.423a2.3,2.3,0,0,1-1.711.622,1.37,1.37,0,0,1-.791-.667,3.559,3.559,0,0,1-.356-2.446c.348-1.983,2.029-3.8,1.176-5.864-.552-1.334-2.14-.3-2.81.357a9.391,9.391,0,0,0-2.2,4.468c-.426,1.5-.759,3.031-1.177,4.536a19.634,19.634,0,0,1-1.612,4.216,12.77,12.77,0,0,1-3.005,3.544c-2.422,2.1,1.24,6.9,3.841,8.424C1629.909,1098.362,1630.223,1098.4,1631.136,1097.352Z" fill="#5281cc"/>
        <path id="Tracé_2374" data-name="Tracé 2374" d="M1626.738,1097.28c1.82-4.884,6.961-1.243,10.42-2.032a4.976,4.976,0,0,0,3.693-6.384c-.272-.946-1.166-1.917-2.111-1.645a10.909,10.909,0,0,1-2.115.535,5.62,5.62,0,0,1-2.329-.253,3.37,3.37,0,0,1-2.232-3.762,2.263,2.263,0,0,1,.64-1.357,2.64,2.64,0,0,1,1.093-.525,10.756,10.756,0,0,1,4.78-.049,11.028,11.028,0,0,0,5.015.114,15.83,15.83,0,0,0,5-2.549,3.134,3.134,0,0,0,1.135-1.433c.187-.642-.161-1.051-.569-1.494-1.489-1.62-5.349,1.332-6.786-1.531a2.963,2.963,0,0,1-.21-2.422,3.172,3.172,0,0,1,.256-.556q.249-.233.508-.453c.173-.146.351-.289.536-.428a13.246,13.246,0,0,1,7.186-2.636,42.588,42.588,0,0,0,7.652-1.029,4.819,4.819,0,0,0,1.229-.536c.183-.117.353-.251.524-.384.787-.617,1.993-1.492,1.725-2.647a1.9,1.9,0,0,0-.234-.56,2.419,2.419,0,0,0-2.461-.726,36.827,36.827,0,0,1-3.852.959c-1.162.2-2.759.3-3.617-.679a1.76,1.76,0,0,1-.3-1.878c.445-.91,1.647-1.2,2.525-1.519.945-.339,1.906-.631,2.852-.967,1.789-.634,3.695-1.454,4.8-3.077a7.708,7.708,0,0,0,.768-1.736,1.289,1.289,0,0,0,.076-.4,2.249,2.249,0,0,0-.035-.48c-.2-1.128-1.095-2.811-2.462-2.656a1.876,1.876,0,0,0-1.032.52c-.577.536-.992,1.77-1.862,1.88a.943.943,0,0,1-.829-.311,1.534,1.534,0,0,1-.278-.887,7.851,7.851,0,0,1,.109-1.881c.106-.64.14-1.281.226-1.919.17-1.277.06-2.371-1.332-2.585a3.553,3.553,0,0,0-2.256.084,2.474,2.474,0,0,0-1.119,1.378,13.105,13.105,0,0,0-.613,2.729c-.2,1.3-.2,2.616-1.745,2.965a1.359,1.359,0,0,1-.821-.02,1.124,1.124,0,0,1-.518-.5,7.454,7.454,0,0,1-.565-2.33c-.127-.67-.43-1.9-1.171-2.187a1.756,1.756,0,0,0-1.891.544c-3.589,3.9,2.174,7.564.748,11.864a4.221,4.221,0,0,1-4.132,2.006c-1.839-.7-.168-3.432-1.683-4.43-2.136-1.024-4.106,1.385-3.86,2.952.206,2.5,1.251,5.424,1.424,7.805a5.176,5.176,0,0,1-.594,3.1,3.486,3.486,0,0,1-1.956,1.561,2.25,2.25,0,0,1-2.119-.374,2.714,2.714,0,0,1-.708-2.141,14.331,14.331,0,0,0,.12-3.263,1.3,1.3,0,0,0-.575-.912,1.276,1.276,0,0,0-.641-.141,4.325,4.325,0,0,0-3.611,2.475,7.9,7.9,0,0,0-.371,3.919c.312,3.145,1.49,6.429.2,9.511-.244.58-.6,1.37-1.256,1.575a1.517,1.517,0,0,1-1.133-.173,3.94,3.94,0,0,1-1.749-2.1c-.816-2.074,1.152-5.153-.845-6.609-1.291-.941-2.2.948-2.446,1.959-.475,1.915-1.447,4.047-.932,5.885.466,1.665,1.033,3.3,1.508,4.963a21.742,21.742,0,0,1,.912,4.911,14.128,14.128,0,0,1-.79,5.082c-1.076,3.38,1.633,7.14,4.969,7.08C1626.079,1103.625,1626.479,1098.791,1626.738,1097.28Z" fill="#4858a8"/>
      </g>
    </g>
    <g id="Groupe_622" data-name="Groupe 622" transform="translate(-1508.74 -6.084)">
      <g id="Groupe_620" data-name="Groupe 620">
        <path id="Tracé_2380" data-name="Tracé 2380" d="M1830.582,2498.742c-1.941.678-4.329-.393-5.87-1.732-1.106-.961-.911-.926-.333-.9a18.588,18.588,0,0,0,4.513-1.425,3.106,3.106,0,0,0,1.509-2.544c-.123-.959-1.3-1.429-2.187-1.378a3.36,3.36,0,0,0-.46.01,3.7,3.7,0,0,0-.492.077c-2.121.472-4.332,1.652-6.662.974a4.858,4.858,0,0,1-.539-.191c-1.334-.639-3.438-1.219-3.308-2.715.134-1.55,1.791-.8,2.791-.766a2.392,2.392,0,0,0,2.206-3.666,4.036,4.036,0,0,0-2.7-1.567,30.38,30.38,0,0,1-3.882-.777c-1.813-.573-4.25-1.819-4.82-3.816a1.13,1.13,0,0,1,.3-1.191,1.336,1.336,0,0,1,1.139-.139c.747.185,1.4.637,2.142.857a2.511,2.511,0,0,0,2.537-.527,1.887,1.887,0,0,0-.37-2.753,7.292,7.292,0,0,0-1.917-.951,6.747,6.747,0,0,1-4.166-5.877,3.659,3.659,0,0,1,.052-.5c.151-.764,1.071-.7,1.458-.193.737.968,1.6,2.065,2.971,1.5.334-.138.659-.439.618-.8a1.18,1.18,0,0,0-.177-.425,5.828,5.828,0,0,1-.634-1.613,2.8,2.8,0,0,1,.367-2.242,2.027,2.027,0,0,1,3.2-.067c.741.916.557,2.235.451,3.408a1.508,1.508,0,0,0,.195,1.095,1.024,1.024,0,0,0,1.3.135c1.362-.842.647-2.971,2.017-3.8.4-.241,1.138.4,1.4,1.066a4.577,4.577,0,0,1-.355,3.859q-.123.246-.275.5c-.207.3-.406.606-.594.916-.063.1-.125.207-.184.316a7.939,7.939,0,0,0-1.122,2.682,2.73,2.73,0,0,0,1.415,2.6,1.334,1.334,0,0,0,.957.309,1.167,1.167,0,0,0,.821-.968c.18-.844-.059-2.028.651-2.682.342-.316,1.2.171,1.578.769.625.979,1,2.46.137,4.687-.046.109-.089.211-.135.316-.1.138-.192.277-.279.418a4.187,4.187,0,0,0-.238.431,4.023,4.023,0,0,0-.079,2.584c.035.12.075.238.12.355.379.987,2.21,3.381,3.446,2.309a1.7,1.7,0,0,0,.428-.626c.486-1.133-.014-2.032-.309-3.113-.489-1.791,1.63-1.935,2.691-1.044,1.766,1.481,1.745,4.058,1.66,6.162a3.772,3.772,0,0,0,.565,2.717,2.308,2.308,0,0,0,2.29.973,2.061,2.061,0,0,0,1.351-.991,2.859,2.859,0,0,0,.275-1.731c-.077-.656-.919-2.371-.141-2.79,1.221-.657,2.363.673,2.935,1.6a6.614,6.614,0,0,1,.78,4.392c-.1.978-.253,2.489.567,3.211.633.557,1.622.433,2.363.836.939.509,5.98,6.692,5.632,6.835C1848.475,2501.842,1831.706,2498.35,1830.582,2498.742Z" fill="#5281cc"/>
      </g>
      <g id="Groupe_621" data-name="Groupe 621">
        <path id="Tracé_2381" data-name="Tracé 2381" d="M1846.416,2497.173a2.358,2.358,0,0,0-.291-.465,4.91,4.91,0,0,0-3.062-1.467c-1.081-.117-2.143.249-3.224.2a5.288,5.288,0,0,1-4.364-3.453,1.047,1.047,0,0,1,1.337-1.4c.5.178.889.557,1.366.779a2.429,2.429,0,0,0,1.611.078c.829-.21,1.9-.734,2.135-1.634.222-.851-.607-1.645-1.377-1.9a3.08,3.08,0,0,0-.392-.148,3.5,3.5,0,0,0-.441-.1c-1.949-.322-4.214-.076-5.949-1.438a4.768,4.768,0,0,1-.391-.344c-.908-.992-2.486-2.2-1.869-3.414.639-1.261,1.782-.064,2.614.3a2.176,2.176,0,0,0,3.106-2.344,3.672,3.672,0,0,0-1.749-2.239,27.584,27.584,0,0,1-3.011-1.973c-1.335-1.1-2.968-2.977-2.771-4.854a1.026,1.026,0,0,1,.657-.9,1.211,1.211,0,0,1,1.007.269c.568.41.969,1.014,1.517,1.45a2.284,2.284,0,0,0,2.319.416,1.716,1.716,0,0,0,.622-2.448,6.68,6.68,0,0,0-1.294-1.453,6.134,6.134,0,0,1-1.521-6.371,3.5,3.5,0,0,1,.214-.4c.386-.593,1.141-.227,1.3.332.294,1.067.648,2.285,2,2.273a.786.786,0,0,0,.792-.464,1.055,1.055,0,0,0,0-.419,5.236,5.236,0,0,1,.013-1.576,2.536,2.536,0,0,1,1.07-1.767,1.842,1.842,0,0,1,2.723,1.03c.314,1.024-.289,2.074-.776,3.028a1.379,1.379,0,0,0-.208.99.932.932,0,0,0,1.054.556c1.435-.249,1.553-2.288,2.992-2.525.418-.069.823.727.815,1.372a4.164,4.164,0,0,1-1.608,3.135c-.125.111-.26.221-.4.332q-.415.276-.812.571c-.088.066-.175.133-.262.2a7.241,7.241,0,0,0-1.856,1.883,2.481,2.481,0,0,0,.312,2.67,1.211,1.211,0,0,0,.7.585,1.061,1.061,0,0,0,1.021-.537c.438-.651.638-1.731,1.459-2.042.4-.15.95.549,1.069,1.184a4.489,4.489,0,0,1-1.474,4c-.076.076-.146.147-.221.22q-.2.125-.377.258a3.9,3.9,0,0,0-.347.283,3.66,3.66,0,0,0-.944,2.152c-.011.113-.017.227-.019.341-.015.961.718,3.6,2.124,3.117a1.547,1.547,0,0,0,.573-.383c.795-.79.678-1.719.8-2.731.195-1.676,2.031-1.079,2.624.032.987,1.849.1,4.016-.69,5.762a3.429,3.429,0,0,0-.446,2.483,2.1,2.1,0,0,0,1.6,1.6,1.874,1.874,0,0,0,1.476-.377,2.593,2.593,0,0,0,.819-1.368c.158-.579.03-2.311.827-2.4,1.254-.141,1.766,1.369,1.933,2.346a6.008,6.008,0,0,1-.832,3.97c-.419.789-1.058,2.013-.611,2.9.345.685,1.221.916,1.71,1.507.619.748.587,2.094-.515,2.209a3.991,3.991,0,0,0-1.764.58,8.88,8.88,0,0,1-1.008.684,2.759,2.759,0,0,1-1.333.2,2.071,2.071,0,0,1-.823-.184C1846.785,2499.476,1846.8,2497.978,1846.416,2497.173Z" fill="#4858a8"/>
        <path id="Tracé_2382" data-name="Tracé 2382" d="M1852,2490.6a5.1,5.1,0,0,1,2.965-1.916c1.1-.262,2.244-.024,3.353-.218a5.5,5.5,0,0,0,4.048-4.136,1.089,1.089,0,0,0-1.562-1.265c-.495.25-.844.691-1.307.983a2.525,2.525,0,0,1-1.652.292,2.937,2.937,0,0,1-2.418-1.405c-.341-.848.411-1.777,1.171-2.146a3.223,3.223,0,0,1,.384-.2,3.409,3.409,0,0,1,.442-.163c1.969-.589,4.338-.633,5.949-2.267a4.75,4.75,0,0,0,.358-.406c.806-1.143,2.277-2.591,1.48-3.767-.826-1.217-1.847.168-2.658.655a2.263,2.263,0,0,1-3.512-2.011,3.822,3.822,0,0,1,1.51-2.539,28.826,28.826,0,0,0,2.848-2.431c1.233-1.309,2.67-3.461,2.221-5.372a1.071,1.071,0,0,0-.8-.846,1.262,1.262,0,0,0-1,.41c-.532.5-.866,1.173-1.374,1.7a2.374,2.374,0,0,1-2.338.733,1.783,1.783,0,0,1-.963-2.443,6.894,6.894,0,0,1,1.144-1.669,6.38,6.38,0,0,0,.731-6.773,3.323,3.323,0,0,0-.273-.389c-.477-.561-1.207-.085-1.293.513-.163,1.139-.368,2.442-1.762,2.607a.818.818,0,0,1-.878-.375,1.1,1.1,0,0,1-.05-.432,5.48,5.48,0,0,0-.221-1.625,2.644,2.644,0,0,0-1.336-1.682,1.917,1.917,0,0,0-2.674,1.421c-.19,1.1.571,2.1,1.2,3.022a1.429,1.429,0,0,1,.345.994.968.968,0,0,1-1.015.711c-1.512-.067-1.9-2.155-3.418-2.211-.44-.016-.754.858-.66,1.523a4.33,4.33,0,0,0,2.071,3.023q.216.147.46.289.465.231.912.482c.1.057.2.114.3.177a7.51,7.51,0,0,1,2.162,1.7,2.582,2.582,0,0,1,.029,2.8,1.257,1.257,0,0,1-.648.7,1.1,1.1,0,0,1-1.124-.42c-.538-.614-.886-1.7-1.773-1.915-.429-.1-.909.692-.949,1.362a4.671,4.671,0,0,0,2.048,3.934c.087.068.17.133.256.2.145.069.287.141.423.216a3.911,3.911,0,0,1,.4.247,3.8,3.8,0,0,1,1.257,2.1c.026.115.048.231.065.349.142.989-.267,3.81-1.782,3.494a1.607,1.607,0,0,1-.642-.319c-.923-.711-.925-1.684-1.18-2.713-.421-1.7-2.237-.847-2.7.378-.775,2.037.43,4.155,1.47,5.853a3.573,3.573,0,0,1,.786,2.5,2.183,2.183,0,0,1-1.443,1.859,1.953,1.953,0,0,1-1.572-.195,2.7,2.7,0,0,1-1.025-1.3c-.239-.576-.335-2.381-1.169-2.368-1.312.02-1.642,1.645-1.686,2.675a6.257,6.257,0,0,0,1.38,3.986c.537.759,1.357,1.939,1.012,2.913-.266.751-1.139,1.1-1.566,1.779-.54.853,2.595,1.95,4.411,1.807C1850.89,2492.91,1851.9,2490.765,1852,2490.6Z" fill="#5281cc"/>
        <path id="Tracé_2383" data-name="Tracé 2383" d="M1848.483,2492.779c1.72-.293,2.681-.792,2.8-1.447.324-1.814-1.124-3.358-1.074-5.24a3.6,3.6,0,0,1,4-3.524c.708.058,1.524.553,1.465,1.261a7.881,7.881,0,0,0-.078,1.575,4.04,4.04,0,0,0,.51,1.613,2.437,2.437,0,0,0,2.983,1.048,1.643,1.643,0,0,0,.87-.647,1.9,1.9,0,0,0,.216-.849,7.748,7.748,0,0,0-.645-3.394,7.975,7.975,0,0,1-.793-3.536,11.479,11.479,0,0,1,1.095-3.9,2.266,2.266,0,0,1,.854-1.007c.429-.224.767-.036,1.14.19,1.359.825-.184,3.98,2.049,4.59a2.142,2.142,0,0,0,1.745-.2,2.333,2.333,0,0,0,.358-.26c.086-.14.169-.282.249-.425s.155-.289.227-.441a9.571,9.571,0,0,0,.846-5.465,30.833,30.833,0,0,1-.359-5.568,3.5,3.5,0,0,1,.2-.947c.057-.146.127-.286.2-.425.325-.645.774-1.625,1.629-1.6a1.365,1.365,0,0,1,.431.087,1.748,1.748,0,0,1,.864,1.64,26.629,26.629,0,0,0-.132,2.865,2.852,2.852,0,0,0,.995,2.466,1.273,1.273,0,0,0,1.374-.053c.581-.444.619-1.338.717-2,.106-.718.176-1.44.279-2.158a6.7,6.7,0,0,1,1.5-3.841,5.6,5.6,0,0,1,1.12-.79.962.962,0,0,1,.272-.11,1.667,1.667,0,0,1,.345-.045c.827-.021,2.148.377,2.232,1.368a1.348,1.348,0,0,1-.222.805c-.3.484-1.112.954-1.067,1.586a.681.681,0,0,0,.339.543,1.108,1.108,0,0,0,.668.071,5.677,5.677,0,0,0,1.316-.345c.439-.166.888-.281,1.328-.432.88-.3,1.671-.38,2.021.575a2.576,2.576,0,0,1,.261,1.61,1.793,1.793,0,0,1-.817.99,9.45,9.45,0,0,1-1.847.822c-.892.33-1.825.51-1.852,1.658a.978.978,0,0,0,.131.578.8.8,0,0,0,.426.3,5.378,5.378,0,0,0,1.731.069c.493-.005,1.411.034,1.716.519a1.269,1.269,0,0,1-.116,1.417c-2.251,3.1-5.668-.465-8.512,1.157a3.051,3.051,0,0,0-.834,3.213c.758,1.2,2.456-.37,3.378.562,1.029,1.368-.4,3.106-1.543,3.154-1.8.209-4.02-.115-5.732.1a3.747,3.747,0,0,0-2.108.861,2.515,2.515,0,0,0-.828,1.608,1.628,1.628,0,0,0,.566,1.448,1.961,1.961,0,0,0,1.617.2,10.314,10.314,0,0,1,2.3-.549.94.94,0,0,1,.728.278.928.928,0,0,1,.191.434,3.124,3.124,0,0,1-1.24,2.91,5.7,5.7,0,0,1-2.724.82c-2.272.226-4.766-.142-6.766,1.213-.376.255-.885.623-.937,1.114a1.1,1.1,0,0,0,.283.778,2.848,2.848,0,0,0,1.739.94c1.586.283,3.412-.48,4.728.728.85.781-.36,1.691-1.041,2.012a7.525,7.525,0,0,1-3.961.428c-1.246-.094-2.485-.263-3.73-.363a15.706,15.706,0,0,0-3.609.051,10.213,10.213,0,0,0-3.488,1.283c-2.242,1.242-4.572-1.659-5-4.032.039-.363-2.029-2.371-1.872-2.5C1844.9,2491.946,1846.762,2493.073,1848.483,2492.779Z" fill="#4858a8"/>
        <path id="Tracé_2384" data-name="Tracé 2384" d="M1850.3,2497.168c3.977-.024,3.393-5.784,4.866-8.056a3.8,3.8,0,0,1,5.544-.972c.606.443,1.068,1.338.626,1.945a8.271,8.271,0,0,0-.939,1.375,4.275,4.275,0,0,0-.429,1.735,2.571,2.571,0,0,0,2.11,2.587,1.729,1.729,0,0,0,1.141-.1,2.016,2.016,0,0,0,.662-.645,8.2,8.2,0,0,0,1.289-3.414,8.41,8.41,0,0,1,1.235-3.624,12.088,12.088,0,0,1,3.137-2.913,2.4,2.4,0,0,1,1.325-.438c.51.035.711.391.922.8.77,1.492-2.358,3.484-.683,5.265a2.262,2.262,0,0,0,1.68.786,2.44,2.44,0,0,0,.466-.037c.155-.079.308-.161.458-.246s.3-.175.448-.272a10.108,10.108,0,0,0,3.774-4.458,32.529,32.529,0,0,1,2.745-5.215,3.638,3.638,0,0,1,.706-.74c.132-.1.272-.188.413-.275.648-.4,1.592-1.037,2.349-.542a1.445,1.445,0,0,1,.34.315,1.846,1.846,0,0,1-.125,1.954,27.97,27.97,0,0,0-1.7,2.51c-.447.78-.939,1.9-.462,2.77a1.344,1.344,0,0,0,1.267.709c.768-.079,1.295-.864,1.751-1.411.49-.588.952-1.2,1.441-1.79a7.073,7.073,0,0,1,3.465-2.636,5.885,5.885,0,0,1,1.445-.094.963.963,0,0,1,.306.05,1.7,1.7,0,0,1,.335.15c.757.437,1.728,1.523,1.258,2.462a1.42,1.42,0,0,1-.644.6c-.535.273-1.528.247-1.835.841a.716.716,0,0,0,.006.676,1.169,1.169,0,0,0,.562.433,6.029,6.029,0,0,0,1.377.414c.486.092.955.236,1.434.342.96.213,1.716.579,1.5,1.633a2.711,2.711,0,0,1-.652,1.594,1.884,1.884,0,0,1-1.282.441,9.887,9.887,0,0,1-2.116-.277c-.986-.194-1.927-.545-2.583.474a1.035,1.035,0,0,0-.2.593.857.857,0,0,0,.221.5,5.716,5.716,0,0,0,1.522,1.016c.447.267,1.252.808,1.26,1.413a1.341,1.341,0,0,1-.885,1.213c-3.735,1.549-4.852-3.543-8.307-3.648a3.221,3.221,0,0,0-2.522,2.435c.019,1.5,2.416,1.02,2.733,2.368.174,1.8-2.069,2.579-3.128,1.992-1.737-.8-3.559-2.32-5.221-3.068a3.948,3.948,0,0,0-2.374-.386,2.661,2.661,0,0,0-1.632.992,1.716,1.716,0,0,0-.287,1.617,2.069,2.069,0,0,0,1.348,1.069,10.913,10.913,0,0,1,2.37.77.863.863,0,0,1,.436,1.148,3.3,3.3,0,0,1-2.721,1.938,6.018,6.018,0,0,1-2.906-.762c-2.172-1.048-4.217-2.754-6.765-2.635a1.942,1.942,0,0,0-1.459.487,1.163,1.163,0,0,0-.173.857,3.007,3.007,0,0,0,1.049,1.805c1.272,1.129,4,.527,4.516,2.34.335,1.172-1.256,1.325-2.047,1.239-1.5-.162-3.28-.024-4.462-.875-1.071-.771-2.094-1.607-3.161-2.383a16.573,16.573,0,0,0-3.28-1.942,10.79,10.79,0,0,0-3.85-.767c-1.58-.067-5.859-2.623-4.162-2.71.567-.029-.657-2.925-.114-2.637A15.337,15.337,0,0,0,1850.3,2497.168Z" fill="#5281cc"/>
      </g>
    </g>
  </g>
</svg>
