<svg xmlns="http://www.w3.org/2000/svg" width="497.064" height="1547.732" viewBox="0 0 497.064 1547.732">
  <g id="Groupe_706" data-name="Groupe 706" transform="translate(-882.049 -1167.57)">
    <path id="Tracé_142" data-name="Tracé 142" d="M879.95,2671.856s52.882-2.766,92.409-29.933c21.827-15,20.158-59.762,49.141-62.9,27.518-2.975,39.123-67.4,18.231-135.5-33.042-107.708,114.269-54.65,85.9-283.277s93.327-223.429,101.5-315.467c4.12-46.394-183.555-167.614-120.453-224.362,63.96-57.52,1.646-162.163,49.117-196.569,84.813-61.473,103.992-150.267,207.24-144.7V2736.611Z" transform="translate(2.099 -21.309)" fill="#5281cc"/>
    <path id="Tracé_143" data-name="Tracé 143" d="M1407.947,2674.64s-387.163,122.683-335.642-1.333c6.284-15.126,53.919-114.991,86.428-143.394,97.879-85.519,2.377-114.468,0-175.2-1.984-50.7,50-101.409,94.213-161.211,34.157-46.2,25.213-157.446-6.107-220.187s-119.327-335.558-61.1-375.841c88.865-61.478,44.092-113.406,34.228-166s187.981-237.6,187.981-237.6Z" transform="translate(-28.834 -26.309)" fill="#4858a8"/>
    <g id="Groupe_619" data-name="Groupe 619" transform="translate(-1508.74 -6.084)">
      <g id="Groupe_617" data-name="Groupe 617">
        <path id="Tracé_2375" data-name="Tracé 2375" d="M2649.549,2220.071c1.854-2.011,1.81-5.494.991-8.083-.587-1.859-.648-1.6-.916-.881a24.72,24.72,0,0,1-4.128,4.756c-1.08.633-2.735,1.19-3.9.495-1.107-.657-1.059-2.337-.525-3.4a4.364,4.364,0,0,1,.256-.557,5.2,5.2,0,0,1,.354-.56c1.7-2.339,4.309-4.413,4.715-7.616a6.756,6.756,0,0,0,.052-.76c-.074-1.967.331-4.843-1.564-5.476-1.963-.656-1.922,1.765-2.412,3a3.184,3.184,0,0,1-5.644.753,5.365,5.365,0,0,1-.481-4.129,40.62,40.62,0,0,0,1.1-5.151c.261-2.517.029-6.152-2.107-7.9a1.5,1.5,0,0,0-1.613-.264,1.77,1.77,0,0,0-.772,1.316c-.17,1.011.034,2.052-.088,3.069a3.342,3.342,0,0,1-1.986,2.818,2.51,2.51,0,0,1-3.165-1.908,9.726,9.726,0,0,1-.147-2.844,8.975,8.975,0,0,0-4.97-8.2,4.732,4.732,0,0,0-.638-.2c-1.012-.22-1.422.937-1.007,1.678.792,1.412,1.675,3.045.258,4.42a1.15,1.15,0,0,1-1.3.332,1.57,1.57,0,0,1-.426-.44,7.7,7.7,0,0,0-1.634-1.629,3.717,3.717,0,0,0-2.931-.738,2.7,2.7,0,0,0-1.775,3.873c.725,1.389,2.433,1.862,3.921,2.354a2.011,2.011,0,0,1,1.234.817,1.363,1.363,0,0,1-.526,1.663c-1.749,1.217-3.969-.784-5.71.448-.506.358-.111,1.6.562,2.267a6.1,6.1,0,0,0,4.9,1.61c.244-.014.5-.037.761-.07.478-.093.955-.174,1.433-.24.159-.022.319-.042.482-.057a10.6,10.6,0,0,1,3.87.05,3.633,3.633,0,0,1,2.421,3.1,1.779,1.779,0,0,1-.13,1.333,1.555,1.555,0,0,1-1.616.49c-1.126-.227-2.445-1.146-3.619-.625-.566.251-.424,1.55.1,2.333.865,1.281,2.474,2.524,5.65,2.648.157,0,.3,0,.457,0,.22-.047.44-.088.657-.12a5.739,5.739,0,0,1,.653-.062,5.351,5.351,0,0,1,3.2,1.27c.128.107.252.218.371.335,1,.985,2.957,4.489.994,5.429a2.265,2.265,0,0,1-.99.192c-1.641-.006-2.474-1.092-3.637-2.025-1.928-1.545-3.225.965-2.7,2.732.874,2.94,4.031,4.279,6.645,5.288a5.017,5.017,0,0,1,3.018,2.128,3.072,3.072,0,0,1-.024,3.311,2.744,2.744,0,0,1-1.925,1.125,3.81,3.81,0,0,1-2.26-.581c-.76-.44-2.408-2.376-3.33-1.649-1.449,1.143-.43,3.242.4,4.431a8.8,8.8,0,0,0,4.949,3.277c1.249.39,3.173,1.008,3.62,2.391.345,1.068-.33,2.21-.231,3.328.125,1.415,5.006,10.842,5.364,10.493C2643.862,2243.556,2648.475,2221.235,2649.549,2220.071Z" fill="#5281cc"/>
      </g>
      <g id="Groupe_618" data-name="Groupe 618">
        <path id="Tracé_2376" data-name="Tracé 2376" d="M2639.252,2238.57a3.159,3.159,0,0,1-.414-.6,6.535,6.535,0,0,1-.17-4.514c.43-1.382,1.438-2.485,1.949-3.831a7.04,7.04,0,0,0-1.906-7.155,1.393,1.393,0,0,0-2.412.892c-.048.708.209,1.38.228,2.08a3.24,3.24,0,0,1-.757,2.008c-.7.9-1.9,1.932-3.125,1.743-1.157-.179-1.687-1.613-1.6-2.689a4.076,4.076,0,0,1,.028-.557,4.571,4.571,0,0,1,.109-.592c.638-2.55,2.137-5.186,1.392-8.025a6.146,6.146,0,0,0-.213-.659c-.73-1.634-1.364-4.2-3.178-4.088-1.878.112-1.022,2.14-1.015,3.351a2.9,2.9,0,0,1-4.506,2.55,4.885,4.885,0,0,1-1.807-3.32,36.964,36.964,0,0,0-.815-4.72c-.634-2.211-2.063-5.2-4.459-5.952a1.367,1.367,0,0,0-1.451.324,1.611,1.611,0,0,0-.2,1.372c.2.911.724,1.72.967,2.619a3.037,3.037,0,0,1-.72,3.051,2.281,2.281,0,0,1-3.317-.536,8.843,8.843,0,0,1-1.088-2.349,8.165,8.165,0,0,0-6.974-5.228,4.446,4.446,0,0,0-.606.047c-.929.158-.882,1.272-.281,1.757,1.147.923,2.446,2,1.718,3.641a1.048,1.048,0,0,1-.986.722,1.421,1.421,0,0,1-.508-.227,6.983,6.983,0,0,0-1.931-.819,3.381,3.381,0,0,0-2.724.371,2.452,2.452,0,0,0-.183,3.87c1.083.925,2.684.745,4.106.655a1.832,1.832,0,0,1,1.319.27,1.239,1.239,0,0,1,.12,1.581c-1.062,1.62-3.614.686-4.665,2.317-.3.473.451,1.389,1.244,1.721a5.544,5.544,0,0,0,4.679-.3c.2-.095.406-.2.618-.317q.556-.361,1.127-.689c.127-.073.254-.144.388-.212a9.621,9.621,0,0,1,3.281-1.27,3.3,3.3,0,0,1,3.094,1.794,1.616,1.616,0,0,1,.343,1.168,1.415,1.415,0,0,1-1.2.962c-1.027.19-2.451-.137-3.265.7-.392.4.168,1.452.88,1.933,1.164.788,2.942,1.29,5.664.317.133-.052.258-.1.386-.152.17-.115.342-.224.514-.325a5.71,5.71,0,0,1,.529-.274,4.877,4.877,0,0,1,3.128-.012c.144.046.286.1.426.157,1.181.49,4.018,2.782,2.681,4.242a2.069,2.069,0,0,1-.77.5c-1.386.551-2.458-.082-3.756-.475-2.15-.649-2.392,1.909-1.35,3.221,1.735,2.184,4.853,2.242,7.4,2.207a4.569,4.569,0,0,1,3.269.77,2.8,2.8,0,0,1,1.1,2.8,2.5,2.5,0,0,1-1.242,1.6,3.461,3.461,0,0,1-2.1.276c-.79-.113-2.837-1.187-3.369-.261-.834,1.456.738,2.881,1.842,3.6A8,8,0,0,0,2630,2242.7c1.185-.094,3.018-.226,3.865.789.653.784.471,1.976.934,2.885.585,1.152,2.246,1.826,2.97.541a5.293,5.293,0,0,1,1.641-1.847,11.981,11.981,0,0,0,1.369-.869,3.676,3.676,0,0,0,.952-1.519,2.754,2.754,0,0,0,.211-1.1C2641.869,2240.241,2640.03,2239.469,2639.252,2238.57Z" fill="#4858a8"/>
        <path id="Tracé_2377" data-name="Tracé 2377" d="M2628.272,2241.908a6.8,6.8,0,0,0-3.909,2.606c-.9,1.205-1.218,2.727-2.042,3.977a7.321,7.321,0,0,1-7.191,2.754,1.45,1.45,0,0,1-.718-2.577c.567-.472,1.291-.665,1.892-1.075a3.367,3.367,0,0,0,1.231-1.862c.336-1.135.469-2.781-.435-3.7-.856-.865-2.387-.439-3.239.294a4.207,4.207,0,0,0-.453.362,4.921,4.921,0,0,0-.433.452c-1.76,2.092-3.068,4.962-5.915,6.064a6.461,6.461,0,0,1-.685.222c-1.822.379-4.369,1.407-5.382-.188-1.05-1.652,1.181-2.165,2.206-2.9a3.01,3.01,0,0,0-.6-5.351,5.076,5.076,0,0,0-3.9.5,38.533,38.533,0,0,1-4.476,2.189c-2.25.813-5.639,1.428-7.733-.132a1.422,1.422,0,0,1-.611-1.42,1.676,1.676,0,0,1,1.032-1.009c.889-.386,1.89-.437,2.8-.78a3.161,3.161,0,0,0,2.133-2.466,2.373,2.373,0,0,0-2.473-2.469,9.186,9.186,0,0,0-2.643.513,8.488,8.488,0,0,1-8.656-2.692,4.617,4.617,0,0,1-.33-.539c-.433-.879.535-1.519,1.31-1.307,1.477.4,3.176.843,4.116-.771a1.09,1.09,0,0,0,.007-1.271,1.489,1.489,0,0,0-.5-.29,7.31,7.31,0,0,1-1.867-1.128,3.517,3.517,0,0,1-1.346-2.522,2.55,2.55,0,0,1,3.149-2.513c1.441.349,2.264,1.809,3.055,3.062a1.906,1.906,0,0,0,1.031.947,1.289,1.289,0,0,0,1.406-.862c.718-1.882-1.624-3.464-.89-5.343.213-.546,1.446-.467,2.208,0a5.762,5.762,0,0,1,2.595,4.129q.064.341.109.714c.024.46.058.917.106,1.37.016.151.034.3.058.456a10.007,10.007,0,0,0,.929,3.54,3.433,3.433,0,0,0,3.4,1.514,1.672,1.672,0,0,0,1.193-.423,1.469,1.469,0,0,0,.082-1.594c-.466-.982-1.61-1.983-1.4-3.179.1-.577,1.326-.743,2.165-.436,1.373.5,2.881,1.694,3.719,4.581.037.143.073.278.107.418.007.214.019.424.039.631a5.737,5.737,0,0,0,.092.613,5.066,5.066,0,0,0,1.9,2.644c.127.093.258.181.392.263,1.133.7,4.793,1.691,5.209-.325a2.134,2.134,0,0,0-.05-.952c-.38-1.5-1.566-2.022-2.688-2.877-1.857-1.416.151-3.179,1.892-3.1,2.9.132,4.846,2.724,6.369,4.892a4.747,4.747,0,0,0,2.64,2.285,2.908,2.908,0,0,0,3.034-.777,2.592,2.592,0,0,0,.593-2.023,3.594,3.594,0,0,0-1.049-1.941c-.577-.6-2.729-1.669-2.272-2.681.719-1.59,2.877-1.133,4.157-.642a8.325,8.325,0,0,1,4.137,3.794c.642,1.058,1.648,2.683,3.02,2.778,1.058.073,1.952-.807,3-.971,1.327-.208,1.007,4.2-.129,6.341C2631.68,2241.776,2628.528,2241.87,2628.272,2241.908Z" fill="#5281cc"/>
        <path id="Tracé_2378" data-name="Tracé 2378" d="M2632.795,2238.768c-1.269,1.945-2.386,2.854-3.249,2.65-2.386-.564-3.5-3.149-5.828-4.084a4.784,4.784,0,0,0-6.419,3.015c-.3.9-.131,2.153.765,2.457a10.512,10.512,0,0,1,1.963.737,5.391,5.391,0,0,1,1.7,1.478,3.241,3.241,0,0,1-.3,4.2,2.179,2.179,0,0,1-1.25.721,2.54,2.54,0,0,1-1.151-.186,10.328,10.328,0,0,1-3.8-2.583,10.6,10.6,0,0,0-3.9-2.841,15.25,15.25,0,0,0-5.345-.729,3.013,3.013,0,0,0-1.682.509c-.5.405-.45.918-.371,1.493.288,2.095,4.955,1.882,4.519,4.93a2.852,2.852,0,0,1-1.162,2.028,3.1,3.1,0,0,1-.507.3c-.217.032-.433.058-.65.079s-.436.036-.659.044a12.737,12.737,0,0,1-7.12-1.86,40.9,40.9,0,0,0-6.607-3.385,4.63,4.63,0,0,0-1.265-.251c-.208-.008-.416,0-.623.016-.96.055-2.393.085-2.814,1.144a1.805,1.805,0,0,0-.123.571,2.327,2.327,0,0,0,1.545,1.923,35.127,35.127,0,0,1,3.568,1.356c1.027.48,2.343,1.276,2.483,2.52a1.69,1.69,0,0,1-.791,1.649c-.85.475-1.961.047-2.826-.185-.932-.251-1.851-.548-2.783-.8a8.919,8.919,0,0,0-5.481-.205,7.507,7.507,0,0,0-1.558.95,1.25,1.25,0,0,0-.279.274,2.156,2.156,0,0,0-.236.4c-.464,1-.677,2.821.488,3.448a1.791,1.791,0,0,0,1.1.156c.749-.107,1.754-.853,2.5-.463a.908.908,0,0,1,.484.7,1.471,1.471,0,0,1-.267.854,7.552,7.552,0,0,1-1.118,1.424c-.434.448-.813.936-1.23,1.392-.835.915-1.349,1.84-.367,2.772a3.419,3.419,0,0,0,1.827,1.171,2.382,2.382,0,0,0,1.641-.474,12.6,12.6,0,0,0,1.98-1.819c.876-.914,1.59-1.958,3-1.384a1.31,1.31,0,0,1,.637.466,1.081,1.081,0,0,1,.136.677,7.179,7.179,0,0,1-.832,2.15c-.268.6-.7,1.74-.275,2.369a1.689,1.689,0,0,0,1.791.609c4.972-1.109,2.433-7.166,5.918-9.779a4.057,4.057,0,0,1,4.363.682c1.068,1.562-1.75,2.8-1.1,4.421,1.125,1.981,4,1.159,4.667-.213,1.209-2.087,1.987-4.97,3.157-6.945a4.967,4.967,0,0,1,2.168-2.118,3.35,3.35,0,0,1,2.4-.161,2.162,2.162,0,0,1,1.468,1.458,2.606,2.606,0,0,1-.615,2.079,13.76,13.76,0,0,0-1.885,2.511,1.087,1.087,0,0,0,.383,1.5,4.157,4.157,0,0,0,4.209.026,7.6,7.6,0,0,0,2.443-2.891c1.479-2.655,2.35-5.894,5.062-7.618a2.449,2.449,0,0,1,1.856-.555,1.461,1.461,0,0,1,.8.758,3.791,3.791,0,0,1,.227,2.62c-.494,2.086-2.392,3.912-1.613,6.158.5,1.45,2.254.454,3.007-.207a10,10,0,0,0,2.618-4.609c.545-1.571.994-3.173,1.531-4.746a20.935,20.935,0,0,1,1.974-4.379,13.588,13.588,0,0,1,3.411-3.579c2.7-2.079.4-6.459-2.273-8.242-.464-.145-1.821-3.733-2.065-3.61C2633.675,2233.95,2634.063,2236.824,2632.795,2238.768Z" fill="#4858a8"/>
        <path id="Tracé_2379" data-name="Tracé 2379" d="M2637.19,2243.311c-2.135,4.843-8.857,1.081-12.41,1.676a5.053,5.053,0,0,0-4.121,6.254c.219.975,1.068,2.013,2.042,1.793a11.037,11.037,0,0,1,2.176-.417,5.678,5.678,0,0,1,2.346.394,3.421,3.421,0,0,1,2.041,3.945,2.3,2.3,0,0,1-.729,1.339,2.689,2.689,0,0,1-1.139.467,10.924,10.924,0,0,1-4.85-.233,11.194,11.194,0,0,0-5.077-.412,16.14,16.14,0,0,0-5.218,2.289,3.181,3.181,0,0,0-1.235,1.385c-.228.641.1,1.076.489,1.55,1.413,1.729,5.5-1.035,6.789,1.952a3.014,3.014,0,0,1,.07,2.468,3.292,3.292,0,0,1-.292.548q-.267.222-.543.43c-.184.138-.372.272-.569.4a13.45,13.45,0,0,1-7.44,2.248,43.23,43.23,0,0,0-7.819.591,4.888,4.888,0,0,0-1.278.471c-.191.108-.372.233-.553.358-.834.579-2.109,1.4-1.905,2.581a1.9,1.9,0,0,0,.2.582,2.458,2.458,0,0,0,2.452.882,37.075,37.075,0,0,1,3.962-.744c1.19-.134,2.814-.142,3.626.9a1.79,1.79,0,0,1,.2,1.923c-.5.9-1.741,1.123-2.649,1.39-.978.287-1.97.527-2.949.811-1.85.538-3.831,1.256-5.051,2.836a7.9,7.9,0,0,0-.881,1.715,1.328,1.328,0,0,0-.1.4,2.234,2.234,0,0,0,.006.488c.133,1.156.945,2.915,2.34,2.838a1.894,1.894,0,0,0,1.077-.466c.616-.509,1.11-1.735,2-1.8a.955.955,0,0,1,.822.364,1.557,1.557,0,0,1,.23.916,8,8,0,0,1-.222,1.9c-.145.642-.218,1.291-.342,1.932-.248,1.285-.2,2.4,1.2,2.7a3.613,3.613,0,0,0,2.292.048,2.513,2.513,0,0,0,1.217-1.331,13.314,13.314,0,0,0,.782-2.731c.285-1.306.353-2.64,1.945-2.9a1.372,1.372,0,0,1,.83.069,1.134,1.134,0,0,1,.5.535,7.564,7.564,0,0,1,.435,2.4c.09.687.324,1.956,1.058,2.286a1.786,1.786,0,0,0,1.95-.439c3.868-3.74-1.757-7.8-.058-12.073a4.286,4.286,0,0,1,4.308-1.789c1.823.818-.033,3.489,1.444,4.59,2.106,1.164,4.245-1.161,4.088-2.764-.061-2.547-.948-5.573-.982-8a5.255,5.255,0,0,1,.785-3.1,3.541,3.541,0,0,1,2.075-1.467,2.283,2.283,0,0,1,2.126.5,2.754,2.754,0,0,1,.592,2.212,14.517,14.517,0,0,0-.315,3.3,1.15,1.15,0,0,0,1.171,1.14,4.393,4.393,0,0,0,3.807-2.3,8.035,8.035,0,0,0,.608-3.951c-.131-3.206-1.131-6.606.363-9.654.281-.573.693-1.353,1.367-1.522a1.544,1.544,0,0,1,1.138.242c.813.484.818,2,.576,5.114-.175,2.257-.4,2.279,1.539,3.873,1.253,1.03,2.282-.832,2.6-1.842.594-1.913,1.706-4.018,1.292-5.911-.374-1.716-.852-3.407-1.236-5.121a22.147,22.147,0,0,1-.635-5.033,14.366,14.366,0,0,1,1.1-5.1c.754-1.965-.1-8.541-1.1-6.515-.335.676-3.224-2.35-3.159-1.535A20.456,20.456,0,0,1,2637.19,2243.311Z" fill="#5281cc"/>
      </g>
    </g>
  </g>
</svg>
