<svg xmlns="http://www.w3.org/2000/svg" width="308.972" height="438.731" viewBox="0 0 308.972 438.731">
  <g id="Groupe_698" data-name="Groupe 698" transform="translate(4 -2352)">
    <g id="Groupe_697" data-name="Groupe 697">
      <g id="Groupe_601" data-name="Groupe 601" transform="translate(-1509.257 -5.343)">
        <path id="Tracé_2327" data-name="Tracé 2327" d="M1564.581,2451.535c2.1-.982,5.141-4.447,6.757-8.785a36.366,36.366,0,0,0,1.385-4.774h.007c.431-2.15.623-4.519.9-6.491.872-6.308-.4-7.354.3-9.251,1.061-2.9,3-2.473,3.4-1.575s1.161,8.824-1.129,17.826c.271-.224.489-.412.667-.59,1.924-2.086,2.175-7.175,2.611-10.7.861-6.957-.447-8.271.334-10.405,1.194-3.26,3.376-2.781,3.825-1.771.478,1.076,1.381,11.789-1.72,21.944,2.216-1.786,3.408-7.058,3.891-12.351.5-5.494.079-10.772.956-12.127,1.754-2.708,3.561-1.31,3.561-1.31a4.774,4.774,0,0,1,1.075,1.3c-1.616,4.44-.019,13.8-4.177,25.061-5.547,15.014-20.345,16.279-22.625,15.883a2.87,2.87,0,0,1-1.591-.987A2.313,2.313,0,0,0,1564.581,2451.535Z" fill="#5281cc"/>
        <path id="Tracé_2328" data-name="Tracé 2328" d="M1584.552,2450.5c3.2-.255,8.911-3.662,13.288-9.176a60.2,60.2,0,0,0,4.316-6.292l.007.006c1.7-2.945,3.213-6.35,4.616-9.121,4.486-8.863,3.434-11.141,5.332-13.559,2.9-3.694,5.137-1.953,5.163-.393s-3.252,13.758-10.983,25.809c.465-.179.843-.333,1.165-.5,3.56-2,6.6-9.4,9.045-14.382,4.82-9.832,3.863-12.53,6-15.25,3.262-4.155,5.778-2.2,5.806-.443.031,1.871-4.56,18.285-13.939,31.582,3.771-1.383,8.11-8.525,11.558-16.1,3.578-7.867,5.87-15.941,7.71-17.45,3.679-3.016,5.224.092,5.224.092a8.154,8.154,0,0,1,.667,2.547c-4.429,5.665-7.418,20.475-18.729,34.8-15.086,19.11-34.557,12.53-37.241,10.639a4.39,4.39,0,0,1-1.492-2.375A2.908,2.908,0,0,0,1584.552,2450.5Z" fill="#5281cc"/>
        <path id="Tracé_2329" data-name="Tracé 2329" d="M1565.046,2431.462c.531-3.8,3.758-10.174,8.473-14.638a45.4,45.4,0,0,1,5.308-4.28l0-.01c2.451-1.618,5.238-2.947,7.524-4.234,7.311-4.115,8.96-2.525,11.025-4.458,3.156-2.952,2.045-5.888.843-6.142s-10.962,1.931-21.074,9.484c.187-.532.346-.964.505-1.327,1.912-3.989,7.95-6.581,12.049-8.8,8.094-4.376,10.078-2.84,12.4-5.014,3.549-3.32,2.3-6.622.949-6.908-1.441-.3-14.594,2.853-25.84,12.206,1.462-4.329,7.429-8.514,13.641-11.567,6.448-3.168,12.921-4.762,14.278-6.754,2.713-3.985.475-6.286.475-6.286a5.4,5.4,0,0,0-1.9-1.167c-4.837,4.506-16.583,5.97-28.827,17.5-16.33,15.373-13.283,39.7-12.1,43.191a4.25,4.25,0,0,0,1.679,2.132A4.766,4.766,0,0,1,1565.046,2431.462Z" fill="#5281cc"/>
        <path id="Tracé_2330" data-name="Tracé 2330" d="M1556.829,2429.729c-2.043-3.3-3.61-10.383-2.764-16.961a46.623,46.623,0,0,1,1.436-6.828l-.009,0c.9-2.874,2.243-5.746,3.222-8.253,3.13-8.022,5.466-7.875,5.852-10.739.589-4.376-2.192-5.923-3.31-5.327s-7.438,8.733-10.561,21.273c-.2-.536-.351-.976-.46-1.363-1.067-4.361,2.04-10.358,3.853-14.785,3.582-8.741,6.149-8.857,6.582-12.078.663-4.921-2.465-6.662-3.722-5.992-1.34.714-9.72,11.847-12.577,26.533-1.644-4.327.375-11.516,3.322-17.986,3.059-6.716,7.158-12.226,6.943-14.669-.43-4.885-3.694-5.2-3.694-5.2a5.594,5.594,0,0,0-2.259.346c-.916,6.692-9.279,15.58-11.519,32.612-2.988,22.718,15.179,39.6,18.376,41.536a4.318,4.318,0,0,0,2.711.549A4.745,4.745,0,0,1,1556.829,2429.729Z" fill="#5281cc"/>
        <path id="Tracé_2331" data-name="Tracé 2331" d="M1551.575,2421.612c-2.291-1.178-5.626-4.574-7.434-8.448a29.579,29.579,0,0,1-1.564-4.2h-.007c-.5-1.857-.736-3.853-1.058-5.534-1.028-5.378.332-6.025-.445-7.717-1.188-2.585-3.284-2.568-3.7-1.893s-1.139,7.111,1.461,14.966c-.3-.233-.536-.426-.731-.6-2.111-2.061-2.451-6.32-2.97-9.315-1.025-5.913.373-6.777-.5-8.68-1.336-2.907-3.694-2.888-4.166-2.129-.5.81-1.338,9.53,2.156,18.481-2.423-1.863-3.786-6.437-4.379-10.907-.615-4.639-.229-8.94-1.2-10.214-1.936-2.547-3.874-1.7-3.874-1.7a3.5,3.5,0,0,0-1.147.894c1.809,3.958.2,11.442,4.859,21.488,6.207,13.4,22.25,17.006,24.714,17.073a2.826,2.826,0,0,0,1.71-.544A3.3,3.3,0,0,1,1551.575,2421.612Z" fill="#5281cc"/>
        <path id="Tracé_2332" data-name="Tracé 2332" d="M1589.674,2454.953c2.5.614,7.248.237,11.154-1.5a29.68,29.68,0,0,0,3.931-2.141l.006,0c1.591-1.077,3.082-2.426,4.427-3.484,4.3-3.385,3.7-4.766,5.4-5.534,2.592-1.172,4.163.215,4.037,1s-3.8,6.116-10.918,10.34c.377.019.684.029.948.023,2.946-.171,6-3.164,8.352-5.084,4.652-3.792,4.162-5.361,6.07-6.224,2.916-1.318,4.683.242,4.542,1.125-.151.941-5.24,8.072-13.749,12.537,3.052.183,7.08-2.377,10.459-5.362,3.507-3.1,6.037-6.6,7.6-6.925,3.132-.653,4.04,1.257,4.04,1.257a3.471,3.471,0,0,1,.279,1.426c-3.961,1.8-7.658,8.5-17.76,13.035-13.474,6.045-27.95-1.754-29.854-3.32a2.83,2.83,0,0,1-.934-1.532A3.287,3.287,0,0,0,1589.674,2454.953Z" fill="#5281cc"/>
        <path id="Tracé_2333" data-name="Tracé 2333" d="M1566.578,2418.445c-.788-2.453-.744-7.213.717-11.231a29.671,29.671,0,0,1,1.86-4.072l-.005-.005c.963-1.663,2.2-3.244,3.165-4.66,3.076-4.531,4.5-4.026,5.142-5.772.988-2.668-.506-4.138-1.28-3.958s-5.834,4.223-9.55,11.616c-.045-.375-.077-.68-.089-.945-.036-2.95,2.736-6.2,4.487-8.687,3.456-4.906,5.056-4.527,5.783-6.491,1.111-3-.57-4.654-1.44-4.451-.928.216-7.685,5.792-11.544,14.592-.4-3.031,1.875-7.229,4.617-10.808,2.845-3.716,6.159-6.484,6.375-8.07.432-3.17-1.536-3.942-1.536-3.942a3.5,3.5,0,0,0-1.443-.179c-1.52,4.078-7.946,8.236-11.759,18.63-5.086,13.864,3.708,27.759,5.4,29.548a2.837,2.837,0,0,0,1.594.825A3.3,3.3,0,0,1,1566.578,2418.445Z" fill="#5281cc"/>
        <path id="Tracé_2334" data-name="Tracé 2334" d="M1579.054,2443.512c2.2-1.335,5.292-4.957,6.825-8.948a29.693,29.693,0,0,0,1.266-4.294h.007c.364-1.886.464-3.894.668-5.594.649-5.437-.754-5.987-.1-7.729,1-2.662,3.1-2.792,3.562-2.148s1.635,7.014-.408,15.032c.279-.253.5-.463.686-.655,1.962-2.2,2-6.476,2.311-9.5.608-5.971-.848-6.734-.109-8.693,1.13-2.994,3.483-3.14,4.007-2.416.559.772,2,9.413-.856,18.586,2.287-2.028,3.325-6.687,3.6-11.187.289-4.67-.4-8.934.48-10.272,1.753-2.677,3.745-1.968,3.745-1.968a3.473,3.473,0,0,1,1.206.811c-1.527,4.075.6,11.428-3.341,21.775-5.254,13.8-21,18.523-23.458,18.762a2.828,2.828,0,0,1-1.744-.422A3.289,3.289,0,0,0,1579.054,2443.512Z" fill="#5281cc"/>
        <path id="Tracé_2335" data-name="Tracé 2335" d="M1640.83,2446.1c-6.337-2.931-8.362,6.711-21.478,12.595s-27.209-1.708-29.062-3.232a2.768,2.768,0,0,1-.919-1.525c4.109-5.946,10.337-11.37,14.182-17.651,7.761-12.678,6.747-14.464,6.984-19.515s-.188-5.793.046-9.789c.159-2.726.336-6.816-1.618-5.9-6.553,2.408-1.167,10.658-6.281,24.093s-20.447,18.032-22.835,18.265c-3.258.317-5.834-5.668-4.8-10.407.327-1.492.666-2.76.884-3.941,1.609-2.679,2.51-4.991,3.24-5.994,1.624-2.23,4.082-10.8,8.443-14s1.166-5.61-3.493-4.095-5.44,4.1-7.654,8.161c-2.324,4.259-8.194,7.087-10.445,4.711-1.65-1.742-10.211-15.267-5.26-28.764s14.428-16.192,11.06-22.307c-.876-1.971-3.425,1.232-5.092,3.4-2.445,3.169-3.252,3.452-6.386,7.42s-5.07,4.651-7.527,19.312c-1.325,7.912.151,16.913-1.134,24.527a2.565,2.565,0,0,1-.911.142c-2.4-.064-18.016-3.576-24.059-16.62s-1.248-21.651-7.953-23.594c-2.013-.774-1.55,3.293-1.2,6,.512,3.97.142,4.741.731,9.762s-.3,6.875,8.334,18.979c5.674,7.958,15.431,14.116,18.992,22.427,0,0,3.512,10.061.617,12.587-3.461,3.021,16.586,19.217,25.8,23.368a6.6,6.6,0,0,0,2.574.894,3.012,3.012,0,0,0,1.058.049h0a6.263,6.263,0,0,0,3.836-1.511c8.086-6.875,21.611-4.123,32.6-6.766,14.453-3.477,15-5.457,18.738-8.861s3.964-4.229,6.954-6.889C1639.84,2449.6,1642.857,2446.835,1640.83,2446.1Z" fill="#1b1f47"/>
      </g>
      <g id="Groupe_609" data-name="Groupe 609" transform="translate(-1508.718 -3.709)">
        <g id="Groupe_602" data-name="Groupe 602">
          <path id="Tracé_2336" data-name="Tracé 2336" d="M1722.778,2694.461a10,10,0,0,1,6.825,1.115c1.943,1.065,3.292,2.913,5.157,4.088,3.221,2.029,8.286,1.577,11.314-.686a2.133,2.133,0,0,0-.606-3.89c-1.047-.287-2.135-.1-3.19-.29a4.949,4.949,0,0,1-2.783-1.746c-1.141-1.318-2.321-3.442-1.665-5.218.62-1.681,2.931-2.041,4.519-1.578a6.2,6.2,0,0,1,.827.21,6.985,6.985,0,0,1,.856.343c3.632,1.733,7.131,4.783,11.618,4.528a9.512,9.512,0,0,0,1.053-.12c2.673-.6,6.712-.772,7.1-3.526.4-2.853-2.9-2.184-4.72-2.542a4.431,4.431,0,0,1-2.458-7.535,7.473,7.473,0,0,1,5.53-1.7,56.57,56.57,0,0,0,7.331.211c3.51-.279,8.427-1.516,10.285-4.882a2.094,2.094,0,0,0-.046-2.276,2.471,2.471,0,0,0-2-.724c-1.426.023-2.8.566-4.223.656a4.652,4.652,0,0,1-4.36-2.006,3.493,3.493,0,0,1,1.813-4.814,13.5,13.5,0,0,1,3.855-.921c4.513-.713,8.9-4.34,9.962-8.875a6.6,6.6,0,0,0,.115-.924c.046-1.441-1.641-1.709-2.551-.954-1.734,1.441-3.745,3.062-5.985,1.471a1.6,1.6,0,0,1-.784-1.7,2.168,2.168,0,0,1,.495-.693,10.737,10.737,0,0,0,1.816-2.649,5.176,5.176,0,0,0,.27-4.2,3.753,3.753,0,0,0-5.75-1.451c-1.718,1.344-1.933,3.8-2.231,5.963a2.8,2.8,0,0,1-.806,1.9,1.9,1.9,0,0,1-2.409-.3c-2.108-2.086.069-5.631-2.058-7.7-.618-.6-2.223.255-2.961,1.343a8.483,8.483,0,0,0-.965,7.113q.122.5.288,1.024.374.945.692,1.9c.07.212.138.426.2.646a14.752,14.752,0,0,1,.91,5.309c-.208,2.112-1.756,3.341-3.633,4.1a2.471,2.471,0,0,1-1.856.159,2.162,2.162,0,0,1-1.08-2.087c.026-1.6.95-3.637-.059-5.112-.487-.712-2.229-.189-3.167.732-1.536,1.508-2.83,4.024-2.2,8.4.037.215.072.417.111.626q.182.435.331.869a7.917,7.917,0,0,1,.25.878,7.445,7.445,0,0,1-.931,4.7c-.113.2-.235.4-.365.592-1.094,1.623-5.4,5.183-7.179,2.734a3.148,3.148,0,0,1-.513-1.307c-.406-2.247.87-3.663,1.852-5.491,1.628-3.028-2.136-4.169-4.422-3-3.8,1.94-4.838,6.6-5.559,10.432-.347,1.849-.628,3.4-2.148,4.67a4.278,4.278,0,0,1-4.539.8,3.814,3.814,0,0,1-2.026-2.35,5.285,5.285,0,0,1,.224-3.24c.41-1.151,2.643-3.9,1.415-4.975-1.932-1.7-4.546.231-5.963,1.669a12.253,12.253,0,0,0-3.236,7.6c-.218,1.808-.577,4.6-2.357,5.56-1.375.742-3.108.108-4.613.525-1.906.529-13.575,9.593-13.007,10C1701.176,2697.817,1722.412,2694.567,1722.778,2694.461Z" fill="#3a4589"/>
        </g>
        <path id="Tracé_2337" data-name="Tracé 2337" d="M1696.9,2648.241c7.262-1.238,4.464-11.589,6.473-16.183.883-2.982,5.746-5.823,9.841-3.442,1.242.627,2.355,2.124,1.728,3.365a15.3,15.3,0,0,0-1.3,2.8,7.907,7.907,0,0,0-.264,3.3,4.766,4.766,0,0,0,4.634,4.1,3.2,3.2,0,0,0,2.054-.531,3.74,3.74,0,0,0,1.017-1.379,15.206,15.206,0,0,0,1.331-6.626c.039-2.377.057-4.826,1.167-6.993a22.391,22.391,0,0,1,4.859-6.267,4.438,4.438,0,0,1,2.29-1.2c.942-.09,1.417.5,1.925,1.185,1.856,2.495-3.263,7.076.332,9.828a4.2,4.2,0,0,0,3.308.931,4.511,4.511,0,0,0,.84-.208q.39-.285.764-.587c.249-.2.493-.41.736-.631,2.888-2.4,4.481-5.755,5.559-9.282,1.064-3.482,1.763-7.095,3.451-10.354a6.805,6.805,0,0,1,1.068-1.566c.211-.222.441-.424.672-.625,1.064-.93,2.6-2.374,4.13-1.7a2.673,2.673,0,0,1,.717.474,3.419,3.419,0,0,1,.358,3.608,52.1,52.1,0,0,0-2.349,5.1c-.584,1.561-1.146,3.751-.013,5.2a2.489,2.489,0,0,0,2.529.917c1.38-.376,2.107-1.969,2.775-3.1.72-1.223,1.379-2.481,2.1-3.706,1.354-2.316,2.995-4.746,5.542-5.857a10.949,10.949,0,0,1,2.613-.607,1.807,1.807,0,0,1,.574,0,3.189,3.189,0,0,1,.658.174c1.515.571,3.614,2.264,3.037,4.121a2.641,2.641,0,0,1-.994,1.3c-.9.659-2.72.91-3.1,2.088a1.332,1.332,0,0,0,.213,1.233,2.17,2.17,0,0,0,1.158.622,11.15,11.15,0,0,0,2.64.344c.917.022,1.817.144,2.725.194,1.818.1,3.309.542,3.239,2.532a5.028,5.028,0,0,1-.713,3.11,3.5,3.5,0,0,1-2.21,1.191,18.516,18.516,0,0,1-3.952.13c-1.86-.059-3.684-.419-4.578,1.64a1.917,1.917,0,0,0-.188,1.145,1.576,1.576,0,0,0,.554.85,10.54,10.54,0,0,0,3.087,1.4c.9.353,2.531,1.1,2.727,2.2a2.482,2.482,0,0,1-1.254,2.482c-6.361,3.954-9.931-5.017-16.278-4.172-1.868.614-3.993,2.968-3.878,5.208.486,2.738,4.722,1.139,5.708,3.506.857,3.238-3.008,5.337-5.119,4.581-3.417-.947-7.2-3.17-10.463-4.039a7.314,7.314,0,0,0-4.456.007,4.924,4.924,0,0,0-2.684,2.3,3.177,3.177,0,0,0-.04,3.041,3.833,3.833,0,0,0,2.785,1.549c1.515.231,3.113.117,4.563.7a1.838,1.838,0,0,1,1.115,1.04,1.819,1.819,0,0,1,.027.927,6.109,6.109,0,0,1-4.392,4.36,11.156,11.156,0,0,1-5.54-.52c-4.284-1.263-8.533-3.767-13.155-2.784-.87.185-2.062.476-2.519,1.328a2.149,2.149,0,0,0-.059,1.618,5.566,5.566,0,0,0,2.459,2.985c2.664,1.681,7.461-.239,8.955,2.92.966,2.041-1.9,2.8-3.368,2.879-2.783.154-6,.941-8.417-.26-2.19-1.088-4.31-2.307-6.494-3.406a30.776,30.776,0,0,0-6.578-2.564,19.953,19.953,0,0,0-7.266-.245c-2.909.351-11.5-3.034-8.421-3.7,1.027-.223-2.079-5.149-1-4.785A28.4,28.4,0,0,0,1696.9,2648.241Z" fill="#3a4589"/>
        <path id="Tracé_173" data-name="Tracé 173" d="M1504.718,2429.709s63.976,21.532,81.792,60.255,13.789,42,78.11,66.471,54.679,63.242,66.621,90.143,43.692,73.659,12.388,87.071-84.545,6.292-93.668,33.193-145.243,27.6-145.243,27.6Z" fill="#1b1f47"/>
        <g id="Groupe_605" data-name="Groupe 605">
          <g id="Groupe_603" data-name="Groupe 603">
            <path id="Tracé_2338" data-name="Tracé 2338" d="M1685.339,2561.878c-6.15-6.476,3.323-11.653,4.709-17.571,1.308-3.535-1.349-9.824-7.052-10.488-1.66-.292-3.828.352-4.121,2.013a18.662,18.662,0,0,1-.766,3.658,9.586,9.586,0,0,1-2.142,3.4,5.776,5.776,0,0,1-7.471.609,3.88,3.88,0,0,1-1.608-2.007,4.516,4.516,0,0,1,.015-2.077,18.421,18.421,0,0,1,3.52-7.4c1.688-2.336,3.449-4.726,3.947-7.636a27.187,27.187,0,0,0-.165-9.612,5.372,5.372,0,0,0-1.353-2.825c-.848-.772-1.739-.543-2.729-.249-3.613,1.075-1.972,9.239-7.46,9.3a5.076,5.076,0,0,1-3.887-1.5,5.365,5.365,0,0,1-.664-.811q-.171-.56-.315-1.124c-.095-.377-.182-.757-.256-1.148-1.058-4.429-.169-8.84,1.346-13.046,1.5-4.152,3.441-8.167,4.17-12.555a8.225,8.225,0,0,0,.1-2.3c-.043-.369-.12-.732-.2-1.095-.358-1.675-.8-4.191-2.777-4.646a3.239,3.239,0,0,0-1.039-.061,4.147,4.147,0,0,0-2.969,3.242,63,63,0,0,1-1.422,6.653c-.566,1.939-1.612,4.473-3.765,5.057a3.016,3.016,0,0,1-3.12-.946c-1.066-1.368-.615-3.442-.439-5.029.189-1.71.463-3.41.657-5.119.368-3.231.54-6.782-1.125-9.71a13.287,13.287,0,0,0-2.1-2.487,2.249,2.249,0,0,0-.557-.417,3.874,3.874,0,0,0-.765-.308c-1.885-.546-5.153-.428-5.942,1.794a3.2,3.2,0,0,0,.025,1.98c.391,1.291,1.978,2.859,1.493,4.279a1.611,1.611,0,0,1-1.1,1.043,2.622,2.622,0,0,1-1.576-.238,13.524,13.524,0,0,1-2.812-1.583c-.906-.645-1.868-1.18-2.785-1.79-1.839-1.223-3.606-1.878-4.983.1-.757,1.09-1.589,2.132-1.567,3.536a4.243,4.243,0,0,0,1.28,2.761,22.441,22.441,0,0,0,3.741,3c1.848,1.294,3.881,2.269,3.252,4.917a2.329,2.329,0,0,1-.648,1.248,1.921,1.921,0,0,1-1.156.423,12.771,12.771,0,0,1-4.013-.883c-1.127-.308-3.256-.77-4.247.159a3.008,3.008,0,0,0-.586,3.32c3.3,8.457,13.282,2.343,18.829,7.772,1.368,1.953,1.719,5.781-.019,7.871-2.46,2.3-5.41-2.324-8.086-.741-3.183,2.519-.956,7.363,1.642,8.164,4,1.562,9.292,2.152,13.088,3.678a8.856,8.856,0,0,1,4.319,3.243,5.97,5.97,0,0,1,.933,4.185,3.853,3.853,0,0,1-2.17,2.981,4.646,4.646,0,0,1-3.828-.52c-1.639-.875-3.106-2.147-4.934-2.639a1.94,1.94,0,0,0-2.537,1.08,7.412,7.412,0,0,0,1.1,7.422,13.544,13.544,0,0,0,5.755,3.518c5.076,1.885,11.018,2.542,14.79,6.852.71.811,1.656,1.96,1.481,3.119a2.609,2.609,0,0,1-1.118,1.614,6.753,6.753,0,0,1-4.555,1.11c-3.807-.3-7.537-3.152-11.282-1.171-2.42,1.279-.19,4.093,1.178,5.24,2.59,2.17,5.612,2.774,8.828,3.363,2.915.534,5.859.891,8.776,1.41a37.287,37.287,0,0,1,8.248,2.289,24.191,24.191,0,0,1,7.229,5.039c4.395,4.2,11.485-1.056,13.9-6.239C1693.875,2563.751,1687.472,2563.414,1685.339,2561.878Z" fill="#5281cc"/>
          </g>
          <g id="Groupe_604" data-name="Groupe 604">
            <path id="Tracé_2339" data-name="Tracé 2339" d="M1696.355,2588.128a4.588,4.588,0,0,1,.954.49,9.6,9.6,0,0,1,3.365,5.72c.406,2.088-.13,4.217.148,6.314.478,3.622,3.92,7.082,7.448,7.928a2.048,2.048,0,0,0,2.5-2.834c-.431-.949-1.232-1.64-1.744-2.532a4.749,4.749,0,0,1-.419-3.125c.273-1.65,1.116-3.824,2.829-4.431,1.621-.573,3.3.911,3.938,2.367a5.961,5.961,0,0,1,.352.739,6.819,6.819,0,0,1,.272.842c.95,3.744.846,8.2,3.788,11.351a8.777,8.777,0,0,0,.735.7c2.082,1.605,4.687,4.48,6.958,3.076,2.351-1.455-.169-3.482-1.021-5.043a4.252,4.252,0,0,1,4.052-6.437,7.167,7.167,0,0,1,4.65,3.036,54.216,54.216,0,0,0,4.343,5.538c2.36,2.419,6.29,5.289,9.914,4.594a2.006,2.006,0,0,0,1.65-1.43,2.366,2.366,0,0,0-.691-1.917c-.892-1.039-2.135-1.719-3.075-2.714a4.463,4.463,0,0,1-1.194-4.448,3.351,3.351,0,0,1,4.664-1.617,12.965,12.965,0,0,1,3.045,2.28c3.3,2.893,8.661,3.9,12.662,1.906a6.454,6.454,0,0,0,.752-.483c1.092-.851.254-2.26-.861-2.467-2.127-.4-4.558-.885-4.758-3.515a1.538,1.538,0,0,1,.773-1.62,2.065,2.065,0,0,1,.816-.06,10.325,10.325,0,0,0,3.068-.286,4.966,4.966,0,0,0,3.264-2.378,3.6,3.6,0,0,0-2.458-5.133c-2.045-.443-3.991.907-5.768,2.013a2.7,2.7,0,0,1-1.894.569,1.821,1.821,0,0,1-1.257-1.962c.246-2.836,4.2-3.4,4.421-6.245.065-.825-1.551-1.484-2.807-1.361a8.141,8.141,0,0,0-5.841,3.652q-.291.393-.579.841c-.313.57-.637,1.129-.978,1.676-.113.183-.229.364-.354.544a14.139,14.139,0,0,1-3.36,3.929c-1.686,1.143-3.543.754-5.253-.166a2.37,2.37,0,0,1-1.256-1.273,2.074,2.074,0,0,1,.877-2.077c1.2-.962,3.267-1.531,3.736-3.18.227-.8-1.228-1.761-2.483-1.888-2.055-.208-4.706.381-7.549,3.535-.136.159-.264.309-.394.466q-.209.4-.438.778a7.939,7.939,0,0,1-.494.723,7.153,7.153,0,0,1-4.037,2.194c-.218.041-.439.072-.661.094-1.869.189-7.135-.8-6.423-3.62a3.035,3.035,0,0,1,.65-1.181c1.409-1.678,3.237-1.6,5.189-2,3.233-.657,1.765-4.135-.5-5.106-3.765-1.617-7.839.479-11.109,2.3-1.578.878-2.891,1.62-4.764,1.279a4.1,4.1,0,0,1-3.378-2.856,3.662,3.662,0,0,1,.491-2.937,5.072,5.072,0,0,1,2.528-1.822c1.1-.4,4.5-.441,4.54-2.009.065-2.465-2.96-3.213-4.891-3.377a11.758,11.758,0,0,0-7.6,2.278c-1.468.948-3.747,2.4-5.549,1.672-1.391-.559-1.986-2.227-3.218-3.082-1.559-1.082-4.177-.8-4.218,1.369a7.8,7.8,0,0,1-.838,3.532,17.687,17.687,0,0,0-1.165,2.077,5.387,5.387,0,0,0-.173,2.629,4.05,4.05,0,0,0,.494,1.574C1691.807,2587.79,1694.723,2587.507,1696.355,2588.128Z" fill="#5281cc"/>
            <path id="Tracé_2340" data-name="Tracé 2340" d="M1709.1,2576.036a9.982,9.982,0,0,0,3.779-5.777c.525-2.148.073-4.386.465-6.551.677-3.739,4.423-7.164,8.13-7.868a2.129,2.129,0,0,1,2.455,3.068c-.493.964-1.36,1.642-1.936,2.544a4.946,4.946,0,0,0-.59,3.225c.2,1.728.971,4.029,2.72,4.743,1.655.676,3.478-.783,4.208-2.264a6.316,6.316,0,0,0,.4-.75,7.384,7.384,0,0,0,.324-.862c1.171-3.842,1.284-8.473,4.5-11.6a9.4,9.4,0,0,1,.8-.7c2.243-1.564,5.091-4.422,7.38-2.851,2.371,1.627-.347,3.608-1.309,5.188a4.423,4.423,0,0,0,3.891,6.888,7.457,7.457,0,0,0,4.981-2.924,56.289,56.289,0,0,1,4.785-5.539c2.571-2.4,6.8-5.183,10.526-4.283a2.091,2.091,0,0,1,1.644,1.568,2.461,2.461,0,0,1-.812,1.958c-.978,1.034-2.3,1.68-3.33,2.667a4.646,4.646,0,0,0-1.46,4.562,3.486,3.486,0,0,0,4.766,1.91,13.474,13.474,0,0,0,3.275-2.218c3.567-2.843,9.191-3.625,13.249-1.354a6.6,6.6,0,0,1,.757.538c1.093.938.153,2.361-1.016,2.521-2.229.306-4.778.694-5.117,3.416a1.6,1.6,0,0,0,.723,1.721,2.173,2.173,0,0,0,.844.1,10.679,10.679,0,0,1,3.174.448,5.166,5.166,0,0,1,3.274,2.631,3.747,3.747,0,0,1-2.807,5.211c-2.148.359-4.1-1.139-5.894-2.376a2.8,2.8,0,0,0-1.939-.684,1.894,1.894,0,0,0-1.4,1.976c.115,2.958,4.193,3.744,4.285,6.706.026.86-1.685,1.465-2.984,1.275a8.471,8.471,0,0,1-5.888-4.083q-.283-.423-.559-.9-.445-.912-.933-1.79c-.109-.2-.221-.389-.342-.582a14.7,14.7,0,0,0-3.3-4.248c-1.694-1.27-3.643-.959-5.465-.087a2.463,2.463,0,0,0-1.368,1.26,2.159,2.159,0,0,0,.809,2.2c1.2,1.058,3.318,1.751,3.724,3.488.2.838-1.363,1.768-2.674,1.838-2.144.115-4.869-.628-7.667-4.045-.133-.173-.259-.334-.386-.5-.132-.284-.271-.562-.417-.83a8.145,8.145,0,0,0-.477-.775,7.443,7.443,0,0,0-4.085-2.479q-.339-.08-.682-.131c-1.933-.288-7.452.48-6.852,3.444a3.152,3.152,0,0,0,.617,1.258c1.381,1.814,3.283,1.828,5.291,2.337,3.327.843,1.63,4.383-.768,5.28-3.992,1.493-8.12-.885-11.427-2.937-1.6-.99-2.924-1.826-4.886-1.565a4.27,4.27,0,0,0-3.651,2.8,3.815,3.815,0,0,0,.365,3.076,5.279,5.279,0,0,0,2.537,2.018c1.124.474,4.65.68,4.616,2.311-.054,2.564-3.234,3.192-5.247,3.266a12.218,12.218,0,0,1-7.778-2.742c-1.478-1.057-3.774-2.673-5.682-2.011-1.473.512-2.174,2.216-3.5,3.043-1.673,1.047-4.378.622-4.314-1.631a9.007,9.007,0,0,0-.262-2.545,14.667,14.667,0,0,1,.006-3.37C1703.625,2579.292,1708.776,2576.234,1709.1,2576.036Z" fill="#3a4589"/>
            <path id="Tracé_2341" data-name="Tracé 2341" d="M1704.076,2580.732c3.693-6.362,8.256-1.268,13.236-1.824,3.108.041,7.26-3.758,6.2-8.371-.231-1.371-1.33-2.877-2.7-2.647a15.326,15.326,0,0,1-3.054.414,7.886,7.886,0,0,1-3.228-.727,4.762,4.762,0,0,1-2.534-5.636,3.2,3.2,0,0,1,1.116-1.8,3.717,3.717,0,0,1,1.617-.561,15.183,15.183,0,0,1,6.718.694c2.28.667,4.623,1.376,7.021.96a22.4,22.4,0,0,0,7.421-2.78,4.431,4.431,0,0,0,1.822-1.83c.365-.872-.058-1.5-.56-2.189-1.831-2.51-7.721,1.017-9.281-3.231a4.193,4.193,0,0,1,.092-3.433,4.54,4.54,0,0,1,.447-.739q.389-.288.787-.555c.266-.178.538-.35.821-.516,3.149-2.043,6.821-2.569,10.506-2.553,3.639.017,7.294.421,10.9-.223a6.816,6.816,0,0,0,1.811-.556c.275-.135.536-.295.8-.455,1.2-.74,3.036-1.777,2.844-3.44a2.652,2.652,0,0,0-.239-.823,3.419,3.419,0,0,0-3.338-1.412,51.872,51.872,0,0,1-5.56.73c-1.663.095-3.92-.018-4.968-1.529a2.489,2.489,0,0,1-.126-2.685c.769-1.206,2.5-1.427,3.786-1.729,1.381-.324,2.776-.581,4.158-.9,2.612-.606,5.418-1.451,7.233-3.553a10.922,10.922,0,0,0,1.354-2.314,1.809,1.809,0,0,0,.17-.547,3.187,3.187,0,0,0,.029-.68c-.1-1.615-1.09-4.12-3.033-4.12a2.637,2.637,0,0,0-1.532.565c-.895.66-1.674,2.325-2.912,2.34a1.33,1.33,0,0,1-1.114-.568,2.166,2.166,0,0,1-.25-1.29,11.123,11.123,0,0,1,.455-2.622c.25-.881.4-1.776.622-2.657.443-1.766.463-3.319-1.457-3.842a5.03,5.03,0,0,0-3.179-.242,3.5,3.5,0,0,0-1.792,1.756,18.528,18.528,0,0,0-1.3,3.733c-.495,1.793-.692,3.641-2.923,3.883a1.916,1.916,0,0,1-1.148-.16,1.569,1.569,0,0,1-.647-.781,10.526,10.526,0,0,1-.422-3.361c-.071-.961-.3-2.742-1.294-3.256a2.484,2.484,0,0,0-2.742.461c-5.659,4.9,1.844,10.964-.843,16.772-1.14,1.6-4.017,2.93-6.12,2.156-2.47-1.276.313-4.844-1.655-6.486-2.835-1.778-5.984,1.288-5.889,3.527-.109,3.542.891,7.813.753,11.183a7.31,7.31,0,0,1-1.328,4.25,4.924,4.924,0,0,1-2.994,1.879,3.174,3.174,0,0,1-2.914-.864,3.828,3.828,0,0,1-.653-3.117c.228-1.515.811-3,.69-4.561a1.6,1.6,0,0,0-1.54-1.673,6.11,6.11,0,0,0-5.463,2.9,11.166,11.166,0,0,0-1.146,5.441c-.064,4.464,1.066,9.261-1.242,13.38-.435.776-1.066,1.827-2.015,2.011a2.15,2.15,0,0,1-1.562-.424,5.566,5.566,0,0,1-2.119-3.231c-.815-3.042.369-6.726-2.2-9.089-1.662-1.526-3.233.982-3.746,2.361-.972,2.611-.607,5.125-.177,7.786.389,2.412.923,4.8,1.325,7.207a30.774,30.774,0,0,1,.5,7.039,19.991,19.991,0,0,1-1.92,7.006c-2.05,4.572,6.308,8.957,11,9.406C1703.005,2582.974,1703.472,2582.813,1704.076,2580.732Z" fill="#5281cc"/>
            <path id="Tracé_2342" data-name="Tracé 2342" d="M1697.8,2583.532c-.641-8.122,9.047-6.354,13.428-9.754,2.958-1.756,4.685-7.74,1.023-11.486-1.009-1.161-2.917-1.948-4.078-.939a17.056,17.056,0,0,1-2.644,2.154,8.754,8.754,0,0,1-3.468,1.177,5.268,5.268,0,0,1-5.646-3.858,3.535,3.535,0,0,1,.012-2.346,4.112,4.112,0,0,1,1.2-1.464,16.8,16.8,0,0,1,6.743-3.224c2.539-.687,5.159-1.371,7.183-3.148a24.781,24.781,0,0,0,5.4-6.91,4.9,4.9,0,0,0,.664-2.78c-.159-1.034-.922-1.383-1.793-1.743-3.179-1.313-6.7,5.418-10.628,2.309a4.637,4.637,0,0,1-1.9-3.295,4.992,4.992,0,0,1-.005-.956q.2-.5.423-.978c.148-.322.3-.641.477-.961,1.793-3.748,4.956-6.365,8.445-8.477,3.445-2.086,7.13-3.816,10.167-6.508a7.535,7.535,0,0,0,1.389-1.571c.181-.286.335-.588.488-.889.709-1.393,1.841-3.431.7-4.89a2.952,2.952,0,0,0-.7-.639,3.784,3.784,0,0,0-3.967.594,57.456,57.456,0,0,1-4.828,3.9c-1.515,1.049-3.712,2.246-5.574,1.424a2.752,2.752,0,0,1-1.668-2.462c.029-1.583,1.54-2.794,2.576-3.818,1.116-1.1,2.286-2.152,3.405-3.253,2.116-2.079,4.277-4.5,4.777-7.53a12.115,12.115,0,0,0-.057-2.967,2,2,0,0,0-.156-.615,3.474,3.474,0,0,0-.365-.659c-1.023-1.469-3.408-3.261-5.243-2.139a2.925,2.925,0,0,0-1.12,1.418c-.463,1.14-.238,3.163-1.4,3.892a1.473,1.473,0,0,1-1.38.106,2.391,2.391,0,0,1-.981-1.073,12.308,12.308,0,0,1-1.084-2.738c-.273-.977-.648-1.909-.947-2.868-.6-1.923-1.479-3.4-3.594-2.787a5.573,5.573,0,0,0-3.142,1.608,3.869,3.869,0,0,0-.677,2.693,20.41,20.41,0,0,0,.933,4.272c.567,1.978,1.448,3.837-.518,5.353a2.12,2.12,0,0,1-1.176.513,1.746,1.746,0,0,1-1.063-.364,11.642,11.642,0,0,1-2.339-2.93c-.622-.866-1.866-2.415-3.1-2.326a2.747,2.747,0,0,0-2.322,2.018c-2.515,7.892,8.072,9.287,8.888,16.322-.152,2.17-2.1,5.086-4.533,5.57-3.068.222-2.5-4.754-5.308-5.168-3.7-.042-4.906,4.671-3.524,6.731,1.943,3.406,5.353,6.861,7.169,10.123a8.086,8.086,0,0,1,1.2,4.779,5.449,5.449,0,0,1-1.742,3.5,3.515,3.515,0,0,1-3.25.867,4.239,4.239,0,0,1-2.416-2.567c-.659-1.561-.969-3.3-1.982-4.7a2.037,2.037,0,0,0-1.418-.913,2.008,2.008,0,0,0-1,.223,6.76,6.76,0,0,0-3.484,5.891,12.347,12.347,0,0,0,2.06,5.8c2.517,4.252,6.353,8.129,6.553,13.351.037.983.048,2.34-.741,3.062a2.381,2.381,0,0,1-1.72.5,6.158,6.158,0,0,1-3.866-1.828c-2.526-2.4-1.768-8.064-5.56-8.811-2.451-.482-2.486,2.794-2.174,4.392.59,3.026.619,6.691,2.561,8.956,1.761,2.052,3.643,4,5.413,6.039a33.99,33.99,0,0,1,4.534,6.359,22.107,22.107,0,0,1,2.233,7.723c.7,5.5,7.025,9.044,11.715,6.758C1701.048,2592.96,1698.426,2585.846,1697.8,2583.532Z" fill="#3a4589"/>
          </g>
        </g>
        <g id="Groupe_608" data-name="Groupe 608">
          <g id="Groupe_606" data-name="Groupe 606">
            <path id="Tracé_2343" data-name="Tracé 2343" d="M1737.7,2738.341c2.622-.918,6.316-.238,8.767.933,2.549,1.218,4.4,3.474,6.855,4.836,4.245,2.354,10.66,1.418,14.354-1.679,1.885-1.581,1.4-4.381-1.049-4.908-1.353-.292-2.725.017-4.081-.142a6.317,6.317,0,0,1-3.668-2.024c-1.545-1.6-3.2-4.217-2.491-6.525.669-2.183,3.586-2.806,5.641-2.33a7.935,7.935,0,0,1,1.067.208,8.955,8.955,0,0,1,1.114.376c4.747,1.947,9.418,5.58,15.111,4.935a11.959,11.959,0,0,0,1.333-.227c3.36-.954,8.489-1.461,8.786-4.994.308-3.66-3.849-2.573-6.189-2.9-4.563-.636-6.914-5.9-3.666-9.416,1.717-1.861,4.477-2.546,6.918-2.562a72.046,72.046,0,0,0,9.347-.254c4.448-.606,10.619-2.53,12.744-6.948a2.668,2.668,0,0,0-.221-2.893,3.147,3.147,0,0,0-2.593-.779c-1.814.131-3.523.919-5.329,1.136a5.929,5.929,0,0,1-5.692-2.244c-1.483-2.273-.252-5.024,1.964-6.257a17.257,17.257,0,0,1,4.841-1.446c5.695-1.229,11.015-6.159,12.05-12.007a8.626,8.626,0,0,0,.08-1.185c-.045-1.838-2.212-2.059-3.315-1.033-2.1,1.957-4.549,4.165-7.515,2.3a2.043,2.043,0,0,1-1.118-2.106,2.766,2.766,0,0,1,.581-.919,13.668,13.668,0,0,0,2.122-3.5,6.6,6.6,0,0,0,.044-5.364,4.784,4.784,0,0,0-7.423-1.437c-2.091,1.833-2.189,4.977-2.414,7.749a3.575,3.575,0,0,1-.891,2.471,2.419,2.419,0,0,1-3.088-.21c-2.832-2.5-.313-7.173-3.169-9.659-.829-.721-2.811.483-3.673,1.921-1.226,2.046-1.983,4.974-.721,9.122.126.415.272.842.439,1.284q.542,1.177,1.016,2.369c.105.265.206.532.3.809.731,2.152,1.633,4.376,1.536,6.693-.114,2.7-2,4.378-4.332,5.475a3.151,3.151,0,0,1-2.352.335,2.757,2.757,0,0,1-1.523-2.581c-.081-2.036.95-4.7-.439-6.5-.671-.871-2.851-.082-3.98,1.158-1.847,2.028-3.315,5.323-2.2,10.853.063.271.121.526.186.788.174.361.337.723.483,1.084a10.184,10.184,0,0,1,.381,1.1,9.5,9.5,0,0,1-.851,6.044q-.194.4-.422.78c-1.277,2.144-6.5,6.982-8.944,3.992a4.023,4.023,0,0,1-.746-1.628c-.677-2.831.846-4.724,1.966-7.121,1.856-3.971-3.016-5.155-5.843-3.509-4.7,2.74-5.688,8.746-6.332,13.675-.311,2.379-.558,4.368-2.4,6.1a5.454,5.454,0,0,1-5.72,1.346,4.869,4.869,0,0,1-2.747-2.847,6.742,6.742,0,0,1,.055-4.14c.44-1.495,3.087-5.15,1.446-6.435-2.579-2.019-5.771.619-7.472,2.55-2.512,2.851-3.336,6.162-3.576,9.908-.149,2.317-.407,5.894-2.6,7.245-1.7,1.043-3.948.359-5.835,1-2.388.809-16.6,13.179-15.845,13.65C1710.437,2744.153,1737.237,2738.5,1737.7,2738.341Z" fill="#3a4589"/>
          </g>
          <g id="Groupe_607" data-name="Groupe 607">
            <path id="Tracé_2344" data-name="Tracé 2344" d="M1717.1,2734.114a5.534,5.534,0,0,1,.863-.966c1.9-1.664,5.247-2.344,7.713-2.188,2.563.163,4.887,1.439,7.423,1.755,4.379.545,9.473-2.422,11.538-6.287a2.473,2.473,0,0,0-2.55-3.785c-1.24.213-2.292.939-3.491,1.265a5.737,5.737,0,0,1-3.78-.463c-1.846-.822-4.129-2.471-4.315-4.658-.176-2.069,2.073-3.585,3.967-3.88a7.19,7.19,0,0,1,.971-.187,8.184,8.184,0,0,1,1.068-.06c4.664.032,9.838,1.511,14.421-.964a11.2,11.2,0,0,0,1.047-.644c2.511-1.945,6.666-4.113,5.718-7.194-.983-3.192-4.121-.865-6.2-.346-4.065,1.011-7.832-2.628-6.287-6.7a8.661,8.661,0,0,1,4.966-4.508,65.526,65.526,0,0,0,7.8-3.385c3.547-2.021,8.1-5.738,8.394-10.186a2.427,2.427,0,0,0-1.168-2.365,2.862,2.862,0,0,0-2.452.222c-1.486.726-2.661,1.971-4.11,2.767a5.394,5.394,0,0,1-5.563.039c-2.022-1.415-1.918-4.153-.467-5.945a15.693,15.693,0,0,1,3.594-2.863c4.386-2.969,7.2-8.932,6.09-14.217a7.8,7.8,0,0,0-.334-1.026c-.662-1.536-2.564-.987-3.147.253-1.111,2.365-2.424,5.057-5.559,4.489-.764-.138-1.583-.624-1.658-1.4a2.517,2.517,0,0,1,.179-.972,12.429,12.429,0,0,0,.6-3.674,6,6,0,0,0-1.783-4.54,4.35,4.35,0,0,0-6.749,1.307c-1.142,2.255-.158,4.941.592,7.356a3.246,3.246,0,0,1,.087,2.387,2.2,2.2,0,0,1-2.676.87c-3.239-1.152-2.7-5.944-5.95-7.073-.944-.327-2.208,1.361-2.447,2.867-.34,2.142.015,4.869,2.487,7.94q.371.461.806.933.857.81,1.661,1.654c.178.189.354.379.527.581,1.347,1.567,2.862,3.137,3.567,5.125.821,2.318-.2,4.371-1.8,6.088a2.869,2.869,0,0,1-1.87,1.081,2.509,2.509,0,0,1-2.161-1.66c-.759-1.691-.792-4.285-2.576-5.337-.861-.507-2.433.9-2.964,2.327-.87,2.338-.991,5.616,1.828,9.9.145.207.281.4.425.6.269.245.529.5.775.75a9.39,9.39,0,0,1,.694.8,8.635,8.635,0,0,1,1.333,5.387c-.019.268-.05.535-.091.8-.35,2.242-3.114,8.095-6.191,6.4a3.65,3.65,0,0,1-1.181-1.119c-1.532-2.159-.889-4.273-.758-6.675.219-3.98-4.294-3.325-6.119-.977-3.038,3.907-1.831,9.307-.7,13.684.544,2.112,1.011,3.874.042,5.959a4.959,4.959,0,0,1-4.368,3.076,4.43,4.43,0,0,1-3.284-1.469,6.135,6.135,0,0,1-1.358-3.511c-.136-1.411.857-5.391-.963-5.919-2.861-.828-4.658,2.48-5.438,4.686-1.152,3.257-.723,6.33.345,9.571.66,2.005,1.656,5.11.261,7-1.078,1.455-3.209,1.642-4.584,2.821-1.74,1.492-2.206,4.638.314,5.347a9.428,9.428,0,0,1,3.872,2.056,21.3,21.3,0,0,0,2.072,2,6.517,6.517,0,0,0,3.02,1,4.9,4.9,0,0,0,1.99-.1C1715.318,2739.326,1715.877,2735.832,1717.1,2734.114Z" fill="#5281cc"/>
            <path id="Tracé_2345" data-name="Tracé 2345" d="M1706.74,2716.579c-.984-2.436-3.772-4.637-6.133-5.647-2.456-1.051-5.213-.957-7.714-1.853-4.321-1.547-7.659-6.69-7.764-11.246a2.572,2.572,0,0,1,4.142-2.318c1.052.78,1.688,1.947,2.648,2.811a5.967,5.967,0,0,0,3.726,1.343c2.1.1,4.992-.358,6.19-2.3,1.134-1.838-.243-4.3-1.864-5.462a7.656,7.656,0,0,0-.813-.629,8.6,8.6,0,0,0-.963-.556c-4.345-2.158-9.842-3.21-12.936-7.658a11.472,11.472,0,0,1-.67-1.088c-1.419-2.983-4.26-6.943-1.934-9.36,2.408-2.5,4.23,1.13,5.922,2.589,3.3,2.845,8.5,1.233,8.978-3.271a9.005,9.005,0,0,0-2.5-6.515,68.128,68.128,0,0,1-5.651-6.8c-2.346-3.539-4.829-9.124-3.017-13.391a2.523,2.523,0,0,1,2.194-1.648,2.973,2.973,0,0,1,2.172,1.356c1.039,1.371,1.545,3.077,2.518,4.5a5.608,5.608,0,0,0,5.146,2.644c2.54-.365,3.728-2.956,3.221-5.3a16.3,16.3,0,0,0-1.994-4.342c-2.68-4.814-2.5-11.67,1.012-16.055a8.019,8.019,0,0,1,.792-.795c1.334-1.116,2.843.286,2.8,1.71-.077,2.717-.12,5.831,3.056,6.774a1.933,1.933,0,0,0,2.2-.52,2.624,2.624,0,0,0,.29-.986,12.931,12.931,0,0,1,1.163-3.692,6.241,6.241,0,0,1,3.784-3.379,4.524,4.524,0,0,1,5.653,4.377c0,2.63-2.17,4.662-4,6.552a3.378,3.378,0,0,0-1.2,2.175,2.288,2.288,0,0,0,2.076,2.063c3.547.449,5.292-4.254,8.84-3.776,1.03.138,1.411,2.3.928,3.808-.689,2.148-2.3,4.513-6.032,6.205q-.559.255-1.186.489c-.783.233-1.555.483-2.317.756-.254.092-.507.186-.762.292-1.986.823-4.128,1.57-5.714,3.085-1.85,1.767-1.865,4.151-1.187,6.495a2.984,2.984,0,0,0,1.229,1.88,2.61,2.61,0,0,0,2.785-.528c1.5-1.214,2.744-3.606,4.894-3.746,1.037-.067,1.837,1.974,1.66,3.55-.289,2.578-1.714,5.677-6.34,8.334-.232.124-.449.242-.676.36q-.549.151-1.072.332a9.509,9.509,0,0,0-1.018.416,8.976,8.976,0,0,0-3.764,4.376c-.107.257-.2.52-.291.786-.726,2.245-.905,8.975,2.746,8.846a3.8,3.8,0,0,0,1.621-.485c2.435-1.286,2.829-3.549,3.833-5.841,1.664-3.8,5.545-1.074,6.139,1.962.988,5.052-2.664,9.5-5.764,13.033-1.5,1.7-2.756,3.121-2.834,5.512a5.159,5.159,0,0,0,2.613,4.9,4.6,4.6,0,0,0,3.737.175,6.379,6.379,0,0,0,2.908-2.622c.787-1.246,1.732-5.407,3.669-5.043,3.044.572,3.161,4.486,2.851,6.9-.459,3.564-2.3,6.216-4.808,8.724-1.554,1.551-3.934,3.967-3.523,6.371.318,1.857,2.209,3.029,2.933,4.768.915,2.2-6.82,3.5-10.99,2.438C1708.4,2722.4,1706.913,2717.006,1706.74,2716.579Z" fill="#3a4589"/>
            <path id="Tracé_2346" data-name="Tracé 2346" d="M1714.051,2723.061c-3.886-1.372-5.922-2.917-5.931-4.489-.028-4.352,3.96-7.364,4.6-11.764,1-3.619-2.177-9.632-7.892-9.8-1.672-.149-3.768.676-3.917,2.348a18.546,18.546,0,0,1-.447,3.7,9.559,9.559,0,0,1-1.835,3.551,5.751,5.751,0,0,1-7.36,1.242,3.865,3.865,0,0,1-1.767-1.854,4.494,4.494,0,0,1-.162-2.061,18.333,18.333,0,0,1,2.86-7.64c1.476-2.461,3.018-4.983,3.263-7.912a27.049,27.049,0,0,0-.984-9.522,5.351,5.351,0,0,0-1.583-2.687c-.908-.693-1.772-.39-2.729-.014-3.493,1.375-1.167,9.334-6.607,9.862a5.065,5.065,0,0,1-3.984-1.155,5.363,5.363,0,0,1-.728-.749q-.218-.54-.409-1.088c-.127-.366-.244-.735-.352-1.117-1.427-4.3-.922-8.755.221-13.057,1.13-4.248,2.717-8.4,3.066-12.813a8.227,8.227,0,0,0-.1-2.286c-.074-.362-.182-.716-.29-1.069-.5-1.632-1.15-4.09-3.152-4.373a3.233,3.233,0,0,0-1.035.029,4.127,4.127,0,0,0-2.669,3.47,62.643,62.643,0,0,1-.842,6.721c-.4,1.972-1.218,4.576-3.3,5.339a3.006,3.006,0,0,1-3.177-.672c-1.174-1.266-.9-3.362-.865-4.952.042-1.712.168-3.422.215-5.134.089-3.237-.043-6.775-1.945-9.537a13.236,13.236,0,0,0-2.292-2.289,2.229,2.229,0,0,0-.588-.366,3.816,3.816,0,0,0-.785-.24c-1.917-.381-5.149.016-5.741,2.287a3.18,3.18,0,0,0,.193,1.962c.5,1.248,2.206,2.667,1.847,4.118a1.608,1.608,0,0,1-1.005,1.129,2.611,2.611,0,0,1-1.583-.1,13.409,13.409,0,0,1-2.925-1.331c-.954-.561-1.954-1.01-2.916-1.538-1.929-1.056-3.738-1.554-4.935.53-.658,1.147-1.394,2.252-1.252,3.642a4.22,4.22,0,0,0,1.505,2.63,22.344,22.344,0,0,0,3.968,2.653c1.944,1.126,4.043,1.92,3.646,4.6a2.316,2.316,0,0,1-.537,1.294,1.909,1.909,0,0,1-1.11.518,12.692,12.692,0,0,1-4.057-.533c-1.144-.209-3.3-.486-4.2.52a3,3,0,0,0-.3,3.344c4,8.108,13.376,1.19,19.343,6.1,1.524,1.82,2.2,5.588.654,7.81-2.245,2.5-5.566-1.843-8.086-.045-2.943,2.772-.32,7.387,2.326,7.959,4.106,1.208,9.4,1.342,13.3,2.532a8.823,8.823,0,0,1,4.562,2.848,5.949,5.949,0,0,1,1.283,4.073,3.838,3.838,0,0,1-1.9,3.142,4.625,4.625,0,0,1-3.842-.189c-1.7-.728-3.265-1.864-5.12-2.2a1.932,1.932,0,0,0-2.425,1.289,7.38,7.38,0,0,0,1.721,7.269,13.48,13.48,0,0,0,6.01,3c5.2,1.436,11.149,1.58,15.259,5.534.774.744,1.81,1.8,1.735,2.968a2.6,2.6,0,0,1-.971,1.7,6.722,6.722,0,0,1-4.424,1.491c-3.8.024-7.747-2.484-11.293-.2-2.291,1.476.161,4.078,1.616,5.1,2.755,1.932,5.8,2.273,9.046,2.583,2.937.281,5.888.383,8.826.649a37.145,37.145,0,0,1,8.378,1.567,24.114,24.114,0,0,1,7.6,4.381c4.719,3.791,11.3-2.028,13.26-7.376.054-.861,5.672-4.705,5.358-5.074C1722.73,2722.559,1717.937,2724.434,1714.051,2723.061Z" fill="#5281cc"/>
            <path id="Tracé_2347" data-name="Tracé 2347" d="M1708.062,2732.545c-9.247-1.649-5.579-14.819-8.1-20.695-1.1-3.81-7.269-7.479-12.513-4.484-1.588.787-3.022,2.685-2.235,4.274a19.554,19.554,0,0,1,1.633,3.576,10.091,10.091,0,0,1,.3,4.211,6.075,6.075,0,0,1-5.947,5.175,4.08,4.08,0,0,1-2.614-.7,4.749,4.749,0,0,1-1.283-1.768,19.366,19.366,0,0,1-1.632-8.46c-.027-3.031-.027-6.154-1.42-8.928a28.566,28.566,0,0,0-6.134-8.037,5.658,5.658,0,0,0-2.908-1.549c-1.2-.124-1.811.625-2.466,1.492-2.39,3.163,4.092,9.053-.519,12.526a5.347,5.347,0,0,1-4.227,1.155,5.807,5.807,0,0,1-1.068-.273q-.493-.367-.968-.756c-.316-.259-.625-.527-.932-.812-3.658-3.091-5.657-7.381-7-11.887-1.323-4.45-2.179-9.064-4.3-13.234a8.663,8.663,0,0,0-1.348-2.007c-.266-.285-.558-.545-.85-.8-1.347-1.2-3.29-3.052-5.249-2.2a3.4,3.4,0,0,0-.918.6,4.363,4.363,0,0,0-.492,4.6,66.086,66.086,0,0,1,2.945,6.52c.73,2,1.425,4.794-.034,6.631a3.174,3.174,0,0,1-3.233,1.145c-1.756-.494-2.667-2.531-3.508-3.985-.906-1.566-1.734-3.176-2.636-4.745-1.7-2.966-3.772-6.08-7.008-7.521a14,14,0,0,0-3.326-.8,2.351,2.351,0,0,0-.732-.005,4.015,4.015,0,0,0-.84.216c-1.937.713-4.63,2.851-3.913,5.224a3.362,3.362,0,0,0,1.256,1.662c1.136.849,3.458,1.187,3.934,2.693a1.7,1.7,0,0,1-.284,1.571,2.755,2.755,0,0,1-1.483.78,14.161,14.161,0,0,1-3.369.413c-1.169.02-2.317.166-3.475.221-2.319.111-4.224.66-4.154,3.2.039,1.4-.016,2.8.878,3.972a4.462,4.462,0,0,0,2.806,1.54,23.573,23.573,0,0,0,5.037.2c2.372-.056,4.7-.5,5.82,2.137a2.442,2.442,0,0,1,.23,1.461,2.018,2.018,0,0,1-.715,1.079,13.445,13.445,0,0,1-3.949,1.755c-1.147.442-3.238,1.379-3.5,2.783a3.165,3.165,0,0,0,1.575,3.177c8.07,5.1,12.709-6.3,20.793-5.161,2.376.8,5.061,3.824,4.893,6.678-.647,3.487-6.032,1.406-7.311,4.415-1.124,4.119,3.783,6.832,6.482,5.89,4.365-1.174,9.212-3.972,13.378-5.048a9.318,9.318,0,0,1,5.68.053,6.279,6.279,0,0,1,3.4,2.963,4.049,4.049,0,0,1,.02,3.877,4.885,4.885,0,0,1-3.565,1.948c-1.934.28-3.97.119-5.824.841a2.35,2.35,0,0,0-1.432,1.315,2.325,2.325,0,0,0-.043,1.183,7.792,7.792,0,0,0,5.556,5.6,14.229,14.229,0,0,0,7.068-.609c5.475-1.569,10.917-4.72,16.8-3.422,1.107.244,2.624.627,3.2,1.718a2.746,2.746,0,0,1,.06,2.064,7.106,7.106,0,0,1-3.165,3.781c-3.413,2.117-9.509-.377-11.446,3.636-1.251,2.592,2.393,3.585,4.266,3.7,3.547.223,7.643,1.257,10.735-.25,2.8-1.365,5.517-2.9,8.311-4.278a39.238,39.238,0,0,1,8.412-3.206,25.474,25.474,0,0,1,9.265-.241c3.705.476,14.687-3.757,10.772-4.638-1.307-.295,2.7-6.545,1.322-6.092A36.249,36.249,0,0,1,1708.062,2732.545Z" fill="#3a4589"/>
          </g>
        </g>
      </g>
    </g>
  </g>
</svg>
